<svg width="52" height="52" viewBox="0 0 52 52" fill="none" xmlns="http://www.w3.org/2000/svg">
<rect width="52" height="52" fill="#2E7CF6"/>
<path d="M42.2812 35.1649C43.0164 35.1649 43.6131 35.7608 43.6133 36.496V39.1591C43.6132 39.6446 43.3522 40.0682 42.9639 40.3007C42.929 40.3215 42.8933 40.3406 42.8564 40.3583C42.8236 40.374 42.7901 40.3882 42.7559 40.4013C42.6999 40.4226 42.6423 40.4403 42.583 40.454C42.4861 40.4765 42.385 40.4901 42.2812 40.4901H10.3311C9.59591 40.49 9 39.8933 9 39.1581V36.4764C9.0106 35.7504 9.60152 35.165 10.3301 35.1649H42.2812ZM42.2832 29.5731C43.0182 29.5734 43.6141 30.1692 43.6143 30.9042V34.5048C43.2332 34.2493 42.7745 34.0995 42.2812 34.0995H10.3301C9.83796 34.0995 9.38053 34.2484 9 34.5028V30.9042C9.00014 30.1691 9.59599 29.5733 10.3311 29.5731H42.2832Z" fill="white" fill-opacity="0.4"/>
<path d="M9 36.4962C9 35.761 9.59605 35.1649 10.3313 35.1649H42.2827C43.018 35.1649 43.6141 35.761 43.6141 36.4962V39.1589C43.6141 39.8941 43.018 40.4902 42.2827 40.4902H10.3313C9.59605 40.4902 9 39.8941 9 39.1589V36.4962Z" fill="white" fill-opacity="0.5"/>
<path d="M42.2812 23.9814C43.0164 23.9814 43.613 24.5775 43.6133 25.3125V28.9131C43.2324 28.6579 42.7742 28.5088 42.2812 28.5088H10.3301C9.838 28.5088 9.38051 28.6567 9 28.9111V25.293C9.0107 24.567 9.60159 23.9815 10.3301 23.9814H42.2812ZM41.2178 12C42.5412 12 43.6143 13.073 43.6143 14.3965V23.3213C43.2332 23.0658 42.7745 22.917 42.2812 22.917H10.3301C9.838 22.917 9.38051 23.0649 9 23.3193V14.3965C9 13.073 10.073 12 11.3965 12H41.2178ZM37.624 14.3965C35.7859 14.3965 34.2959 15.8865 34.2959 17.7246C34.296 19.5627 35.7859 21.0527 37.624 21.0527H37.8906C39.7285 21.0525 41.2186 19.5625 41.2188 17.7246C41.2188 15.8866 39.7286 14.3967 37.8906 14.3965H37.624Z" fill="white" fill-opacity="0.3"/>
<path d="M9 36.4962C9 35.761 9.59605 35.1649 10.3313 35.1649H42.2827C43.018 35.1649 43.6141 35.761 43.6141 36.4962V39.1589C43.6141 39.8941 43.018 40.4902 42.2827 40.4902H10.3313C9.59605 40.4902 9 39.8941 9 39.1589V36.4962Z" fill="white" fill-opacity="0.5"/>
<path d="M42.2812 35.1649C43.0164 35.1649 43.6131 35.7608 43.6133 36.496V39.1591C43.6132 39.6446 43.3522 40.0682 42.9639 40.3007C42.929 40.3215 42.8933 40.3406 42.8564 40.3583C42.8236 40.374 42.7901 40.3882 42.7559 40.4013C42.6999 40.4226 42.6423 40.4403 42.583 40.454C42.4861 40.4765 42.385 40.4901 42.2812 40.4901H10.3311C9.59591 40.49 9 39.8933 9 39.1581V36.4764C9.0106 35.7504 9.60152 35.165 10.3301 35.1649H42.2812ZM42.2832 29.5731C43.0182 29.5734 43.6141 30.1692 43.6143 30.9042V34.5048C43.2332 34.2493 42.7745 34.0995 42.2812 34.0995H10.3301C9.83796 34.0995 9.38053 34.2484 9 34.5028V30.9042C9.00014 30.1691 9.59599 29.5733 10.3311 29.5731H42.2832Z" fill="white" fill-opacity="0.4"/>
<path opacity="0.5" d="M42.2832 24.0054C43.0182 24.0056 43.6141 24.6015 43.6143 25.3364V28.936C43.2334 28.6809 42.7751 28.5317 42.2822 28.5317H10.3311C9.83857 28.5318 9.3807 28.6803 9 28.9351V25.3364C9.00016 24.6014 9.59601 24.0055 10.3311 24.0054H42.2832Z" fill="white" fill-opacity="0.4"/>
</svg>
