<svg width="512" height="512" viewBox="0 0 512 512" fill="none" xmlns="http://www.w3.org/2000/svg"><g clip-path="url(#a)"><path d="M512 0H0v512h512V0Z" fill="url(#b)"/><path d="M425.708 148.325c11.246 152.315-86.662 224.305-174.433 231.983-81.602 7.136-158.413-43.005-165.152-120.043-5.558-63.646 33.778-90.743 64.684-93.443 31.787-2.787 58.5 19.134 60.818 45.676 2.231 25.518-13.691 37.134-24.765 38.1-8.758.768-19.776-4.549-20.77-15.965-.854-9.809 2.871-11.145 1.961-21.566-1.62-18.553-17.798-20.714-26.655-19.946-10.719.939-30.167 13.449-27.438 44.611 2.744 31.432 32.882 56.269 72.39 52.814 42.634-3.725 72.318-36.92 74.55-83.478-.021-2.466.499-4.907 1.521-7.152l.014-.056c.459-.975.997-1.912 1.606-2.8.911-1.365 2.077-2.872 3.583-4.522.015-.042.015-.042.043-.042 1.094-1.237 2.417-2.573 3.909-4.009 18.624-17.571 85.696-58.012 149.129-44.89a6.42 6.42 0 0 1 4.163 5.728Z" fill="#fff"/></g><defs><linearGradient id="b" x1="459.192" y1="122.156" x2="22.611" y2="297.091" gradientUnits="userSpaceOnUse"><stop stop-color="#0CC5FF"/><stop offset="1" stop-color="#007FFF"/></linearGradient><clipPath id="a"><path fill="#fff" d="M0 0h512v512H0z"/></clipPath></defs></svg>
