<svg width="100" height="100" viewBox="0 0 100 100" fill="none" xmlns="http://www.w3.org/2000/svg">
<rect width="100" height="100" fill="url(#paint0_linear_8136_55227)"/>
<path d="M75.9844 37.9617V21.3206C75.9844 19.1138 75.1081 16.9975 73.5483 15.437C71.9884 13.8766 69.8728 13 67.6669 13H32.3175C30.1116 13 27.996 13.8766 26.4361 15.437C24.8763 16.9975 24 19.1138 24 21.3206V69.6059C24.0008 70.8523 24.2815 72.0827 24.8213 73.206C25.3612 74.3293 26.1464 75.317 27.1191 76.096L39.9904 86.4343C40.1432 86.5583 40.328 86.6364 40.5234 86.6595C40.7188 86.6826 40.9167 86.6497 41.0942 86.5648C41.2717 86.4798 41.4214 86.3462 41.526 86.1795C41.6306 86.0128 41.6858 85.8199 41.6851 85.623V51.4827C41.6851 51.2068 41.7946 50.9423 41.9896 50.7472C42.1846 50.5522 42.449 50.4426 42.7248 50.4426H52.082C53.7364 50.4426 55.3231 51.1001 56.493 52.2704C57.6629 53.4407 58.3201 55.028 58.3201 56.683V85.623C58.3202 85.8189 58.3756 86.0108 58.48 86.1766C58.5843 86.3424 58.7334 86.4753 58.9099 86.56C59.0864 86.6448 59.2833 86.678 59.4779 86.6557C59.6724 86.6335 59.8567 86.5567 60.0096 86.4343L72.8809 76.096C73.8536 75.317 74.6388 74.3293 75.1787 73.206C75.7185 72.0827 75.9992 70.8523 76 69.6059V54.6029C76 52.3961 75.1237 50.2798 73.5639 48.7194C72.004 47.1589 69.8884 46.2823 67.6825 46.2823C69.8857 46.2782 71.9973 45.3997 73.5538 43.8398C75.1102 42.2798 75.9844 40.1658 75.9844 37.9617V37.9617ZM52.0716 42.122H42.7144C42.4386 42.122 42.1742 42.0124 41.9792 41.8174C41.7842 41.6223 41.6747 41.3578 41.6747 41.0819V22.3606C41.6747 22.0848 41.7842 21.8203 41.9792 21.6252C42.1742 21.4302 42.4386 21.3206 42.7144 21.3206H57.27C57.5458 21.3206 57.8102 21.4302 58.0052 21.6252C58.2002 21.8203 58.3097 22.0848 58.3097 22.3606V35.8816C58.3097 37.5367 57.6525 39.1239 56.4826 40.2942C55.3127 41.4646 53.726 42.122 52.0716 42.122V42.122Z" fill="white"/>
<defs>
<linearGradient id="paint0_linear_8136_55227" x1="-3" y1="103" x2="104" y2="5.65126e-08" gradientUnits="userSpaceOnUse">
<stop stop-color="#0606B7"/>
<stop offset="0.625" stop-color="#137CCA"/>
<stop offset="1" stop-color="#18A5D1"/>
<stop offset="1" stop-color="#20A8D0"/>
</linearGradient>
</defs>
</svg>
