<svg width="55" height="55" viewBox="0 0 55 55" fill="none" xmlns="http://www.w3.org/2000/svg">
<rect width="55" height="55" fill="#F9FBFF"/>
<path d="M36.8147 10.7751C43.5445 10.7751 49 16.2306 49 22.9604V23.2476L44.7442 27.5L49 31.7483V32.0396C49 38.7694 43.5399 44.2249 36.8102 44.2249H5.98853L15.8445 37.1103L32.2751 37.2307C37.5533 37.2307 41.9031 32.7782 41.9031 27.5C41.9031 22.2218 37.5533 17.761 32.2751 17.761H15.8445L5.99308 10.7751H36.8147Z" fill="#4A3DE6"/>
<path d="M18.1384 23.4382C15.8952 23.4382 14.0767 25.2567 14.0767 27.4999C14.0767 29.7432 15.8952 31.5617 18.1384 31.5617H32.2892C34.5325 31.5617 36.351 29.7432 36.351 27.4999C36.351 25.2567 34.5325 23.4382 32.2892 23.4382H18.1384Z" fill="#4A3DE6"/>
</svg>
