<svg width="512" height="512" viewBox="0 0 512 512" fill="none" xmlns="http://www.w3.org/2000/svg">
<rect width="512" height="512" fill="#001F29"/>
<path d="M219.948 95.7022C201.623 95.6929 183.33 95.6835 164.941 95.7116C153.822 95.7116 149.651 109.671 157.921 117.939L283.098 243.117C287.004 246.69 289.441 250.574 289.53 255.693C289.441 260.812 287.004 264.696 283.098 268.269L157.921 393.446C149.651 401.715 153.822 415.674 164.941 415.674C183.33 415.702 201.623 415.693 219.948 415.683C229.122 415.679 238.305 415.674 247.511 415.674C259.555 415.674 266.72 409.24 273.154 402.805L386.047 289.912C395.057 280.902 403.119 268.939 403.009 255.693C403.119 242.447 395.057 230.484 386.047 221.474L273.154 108.58C266.72 102.146 259.555 95.7116 247.511 95.7116C238.305 95.7116 229.122 95.7069 219.948 95.7022Z" fill="#00F0FF"/>
</svg>
