<svg width="64" height="64" viewBox="0 0 64 64" fill="none" xmlns="http://www.w3.org/2000/svg">
<rect width="64" height="64" rx="8" fill="black"/>
<path fill-rule="evenodd" clip-rule="evenodd" d="M24.728 12.6983H13.5577C13.0832 12.6983 12.6985 13.083 12.6985 13.5576V24.7279C12.6985 25.2024 13.0832 25.5871 13.5577 25.5871H24.728C25.2026 25.5871 25.5873 25.2024 25.5873 24.7279V13.5576C25.5873 13.083 25.2026 12.6983 24.728 12.6983ZM37.6223 25.5875H26.452C25.9774 25.5875 25.5927 25.9722 25.5927 26.4468V37.6171C25.5927 38.0916 25.9774 38.4763 26.452 38.4763H37.6223C38.0968 38.4763 38.4815 38.0916 38.4815 37.6171V26.4468C38.4815 25.9722 38.0968 25.5875 37.6223 25.5875ZM39.3354 12.6984H50.5057C50.9802 12.6984 51.3649 13.0831 51.3649 13.5577V24.728C51.3649 25.2025 50.9802 25.5872 50.5057 25.5872H39.3354C38.8608 25.5872 38.4761 25.2025 38.4761 24.728V13.5577C38.4761 13.0831 38.8608 12.6984 39.3354 12.6984ZM24.728 38.4764H13.5577C13.0831 38.4764 12.6984 38.8611 12.6984 39.3357V50.506C12.6984 50.9805 13.0831 51.3652 13.5577 51.3652H24.728C25.2025 51.3652 25.5872 50.9805 25.5872 50.506V39.3357C25.5872 38.8611 25.2025 38.4764 24.728 38.4764ZM39.3354 38.4764H50.5057C50.9802 38.4764 51.3649 38.8611 51.3649 39.3357V50.506C51.3649 50.9805 50.9802 51.3652 50.5057 51.3652H39.3354C38.8608 51.3652 38.4761 50.9805 38.4761 50.506V39.3357C38.4761 38.8611 38.8608 38.4764 39.3354 38.4764Z" fill="white"/>
</svg>
