<svg xmlns="http://www.w3.org/2000/svg" fill="none" viewBox="0 0 28 28"><path fill="#000" d="M0 0h28v28H0z"/><path fill="#fff" fill-rule="evenodd" d="M10.819 5.556H5.93a.376.376 0 0 0-.375.375v4.888c0 .207.168.375.375.375h4.888a.376.376 0 0 0 .375-.376V5.932a.376.376 0 0 0-.376-.375Zm5.64 5.638h-4.886a.376.376 0 0 0-.376.376v4.887c0 .208.168.376.376.376h4.887a.376.376 0 0 0 .376-.375V11.57a.376.376 0 0 0-.376-.377Zm.75-5.638h4.887c.208 0 .376.168.376.375v4.888a.376.376 0 0 1-.376.375H17.21a.376.376 0 0 1-.376-.376V5.933c0-.208.169-.376.376-.376Zm-6.39 11.277H5.93a.376.376 0 0 0-.375.376v4.887c0 .208.168.376.375.376h4.888a.376.376 0 0 0 .375-.376V17.21a.376.376 0 0 0-.376-.376Zm6.39 0h4.887c.208 0 .376.169.376.376v4.887a.376.376 0 0 1-.376.376H17.21a.376.376 0 0 1-.376-.376V17.21c0-.207.169-.376.376-.376Z" clip-rule="evenodd"/></svg>