<svg xmlns="http://www.w3.org/2000/svg" width="80" height="80" fill="none"><path fill="url(#a)" d="M0 18h6c30.928 0 56 25.072 56 56v6h12a6 6 0 0 0 6-6C80 33.13 46.87 0 6 0a6 6 0 0 0-6 6v12Z"/><path fill="url(#b)" d="M64 74h16a6 6 0 0 1-6 6H64v-6Z"/><path fill="url(#c)" d="M6 0v16H0V6a6 6 0 0 1 6-6Z"/><path fill="url(#d)" d="M0 16h6c32.032 0 58 25.968 58 58v6H46v-6c0-22.091-17.909-40-40-40H0V16Z"/><path fill="url(#e)" d="M48 74h16v6H48v-6Z"/><path fill="url(#f)" d="M0 32V16h6v16H0Z"/><path fill="url(#g)" d="M0 42a6 6 0 0 0 6 6c14.36 0 26 11.64 26 26a6 6 0 0 0 6 6h10v-6c0-23.196-18.804-42-42-42H0v10Z"/><path fill="url(#h)" d="M32 74h16v6H38a6 6 0 0 1-6-6Z"/><path fill="url(#i)" d="M6 48a6 6 0 0 1-6-6V32h6v16Z"/><defs><radialGradient id="a" cx="0" cy="0" r="1" gradientTransform="matrix(0 -74 74 0 6 74)" gradientUnits="userSpaceOnUse"><stop offset=".77" stop-color="#FF4000"/><stop offset="1" stop-color="#8754C9"/></radialGradient><radialGradient id="d" cx="0" cy="0" r="1" gradientTransform="matrix(0 -58 58 0 6 74)" gradientUnits="userSpaceOnUse"><stop offset=".724" stop-color="#FFF700"/><stop offset="1" stop-color="#FF9901"/></radialGradient><radialGradient id="g" cx="0" cy="0" r="1" gradientTransform="matrix(0 -42 42 0 6 74)" gradientUnits="userSpaceOnUse"><stop offset=".595" stop-color="#0AF"/><stop offset="1" stop-color="#01DA40"/></radialGradient><radialGradient id="h" cx="0" cy="0" r="1" gradientTransform="matrix(17 0 0 45.3333 31 77)" gradientUnits="userSpaceOnUse"><stop stop-color="#0AF"/><stop offset="1" stop-color="#01DA40"/></radialGradient><radialGradient id="i" cx="0" cy="0" r="1" gradientTransform="matrix(0 -17 322.37 0 3 49)" gradientUnits="userSpaceOnUse"><stop stop-color="#0AF"/><stop offset="1" stop-color="#01DA40"/></radialGradient><linearGradient id="b" x1="63" x2="80" y1="77" y2="77" gradientUnits="userSpaceOnUse"><stop stop-color="#FF4000"/><stop offset="1" stop-color="#8754C9"/></linearGradient><linearGradient id="c" x1="3" x2="3" y1="0" y2="17" gradientUnits="userSpaceOnUse"><stop stop-color="#8754C9"/><stop offset="1" stop-color="#FF4000"/></linearGradient><linearGradient id="e" x1="48" x2="64" y1="77" y2="77" gradientUnits="userSpaceOnUse"><stop stop-color="#FFF700"/><stop offset="1" stop-color="#FF9901"/></linearGradient><linearGradient id="f" x1="3" x2="3" y1="32" y2="16" gradientUnits="userSpaceOnUse"><stop stop-color="#FFF700"/><stop offset="1" stop-color="#FF9901"/></linearGradient></defs></svg>