<svg xmlns="http://www.w3.org/2000/svg" fill="none" viewBox="0 0 28 28"><g transform="translate(0,0) scale(0.7)"><path fill="url(#a)" d="M0 0h40v40H0z"/><path fill="url(#b)" fill-opacity=".6" d="M0 0h40v40H0z"/><path fill="#0054FA" d="M10.158 12h2.933l1.89 16h-2.486l-.276-3.481h-1.317L10.625 28H8.267l1.89-16Zm1.169 7.113-.255 3.287h.977l-.276-3.287-.191-2.767h-.064l-.191 2.767ZM20.193 28h-2.529V12h3.315c1.806 0 2.911 1.081 2.911 3.027v3.935c0 1.925-1.105 3.006-2.911 3.006h-.786V28Zm.021-7.957h.553c.425 0 .595-.389.595-1.08v-3.936c0-.713-.17-1.103-.595-1.103h-.553v6.12ZM26.803 28V12h4.93v2.119h-2.401v4.735h2.146v2.119h-2.146v4.908h2.401V28h-4.93Z"/><defs><linearGradient id="a" x1="20" x2="20" y1="0" y2="40" gradientUnits="userSpaceOnUse"><stop stop-color="#fff"/><stop offset="1" stop-color="#F7F7F8"/></linearGradient><linearGradient id="b" x1="20" x2="20" y1="0" y2="40" gradientUnits="userSpaceOnUse"><stop stop-color="#fff"/><stop offset="1" stop-color="#E6EDFA"/></linearGradient></defs></g></svg>