<svg xmlns="http://www.w3.org/2000/svg" fill="none" viewBox="0 0 28 28"><g transform="translate(0,0) scale(0.7)"><g clip-path="url(#a)"><path fill="#96BEDC" d="M0 0h40v40H0z"/><path fill="url(#b)" fill-opacity=".3" d="M0 0h40v40H0z"/><path fill="#2D374B" fill-rule="evenodd" d="M20 2.5C10.335 2.5 2.5 10.335 2.5 20c0 3.293.91 6.373 2.49 9.004L0 31v9h10v-5.637A17.42 17.42 0 0 0 20 37.5c9.665 0 17.5-7.835 17.5-17.5S29.665 2.5 20 2.5Z" clip-rule="evenodd"/><mask id="c" width="38" height="38" x="0" y="2" maskUnits="userSpaceOnUse" style="mask-type:alpha"><path fill="#2D374B" fill-rule="evenodd" d="M20 2.5C10.335 2.5 2.5 10.335 2.5 20a17.42 17.42 0 0 0 3.137 10H0v10h10v-5.637A17.42 17.42 0 0 0 20 37.5c9.665 0 17.5-7.835 17.5-17.5S29.665 2.5 20 2.5Z" clip-rule="evenodd"/></mask><g mask="url(#c)"><path fill="#28A0F0" d="m26.873 37.192-6.75-10.615 3.782-6.416 8.672 13.676-5.704 3.355ZM34.126 32.79l3.471-5.786-9.238-14.423-3.299 5.596 9.066 14.613Z"/><path fill="url(#d)" fill-opacity=".2" d="M0 20C0 8.954 8.954 0 20 0s20 8.954 20 20-8.954 20-20 20H0V20Z"/></g><path fill="#fff" d="m.52 40.315-4.387-2.524L-4.2 36.6l15.267-23.715c1.042-1.702 3.314-2.25 5.422-2.22l2.475.065L.519 40.315ZM27.38 10.73l-6.523.024L-2.9 50 2 53.5l6.358-10.597 1.402-2.379L27.38 10.73Z"/></g><defs><linearGradient id="b" x1="0" x2="20" y1="0" y2="40" gradientUnits="userSpaceOnUse"><stop stop-color="#fff"/><stop offset="1" stop-color="#fff" stop-opacity="0"/></linearGradient><linearGradient id="d" x1="0" x2="20" y1="0" y2="40" gradientUnits="userSpaceOnUse"><stop stop-color="#fff"/><stop offset="1" stop-color="#fff" stop-opacity="0"/></linearGradient><clipPath id="a"><path fill="#fff" d="M0 0h40v40H0z"/></clipPath></defs></g></svg>