<svg xmlns="http://www.w3.org/2000/svg" width="28" height="28" fill="none"><path fill="#fff" d="M23 5H5v18h18V5Z"/><path fill="#E84142" fill-rule="evenodd" d="M14 28c-7.513.008-14-6.487-14-14C0 6.196 6.043-.008 14 0c7.95.008 14 6.196 14 14 0 7.505-6.495 13.992-14 14Zm-3.971-7.436H7.315c-.57 0-.851 0-1.023-.11a.69.69 0 0 1-.313-.54c-.01-.202.13-.45.412-.944l6.7-11.809c.285-.501.43-.752.612-.845.195-.1.429-.1.625 0 .182.093.326.344.611.845l1.377 2.404.007.013c.308.538.464.81.533 1.097a2.04 2.04 0 0 1 0 .954c-.07.289-.224.564-.536 1.11l-3.52 6.22-.009.017c-.31.542-.467.817-.684 1.024a2.048 2.048 0 0 1-.835.485c-.285.079-.604.079-1.243.079Zm6.852 0h3.888c.574 0 .862 0 1.034-.113a.687.687 0 0 0 .313-.543c.01-.196-.128-.434-.398-.9a8.198 8.198 0 0 1-.028-.048l-1.948-3.332-.022-.037c-.274-.463-.412-.697-.59-.787a.684.684 0 0 0-.621 0c-.179.093-.323.337-.608.828l-1.94 3.331-.007.012c-.284.49-.426.735-.416.936.014.22.127.423.313.543.168.11.456.11 1.03.11Z" clip-rule="evenodd"/></svg>
