<svg xmlns="http://www.w3.org/2000/svg" fill="none" viewBox="0 0 28 28"><g transform="translate(0,0) scale(0.7)"><g clip-path="url(#a)"><path fill="#814625" d="M0 0h40v40H0z"/><path fill="#fff" d="M19.254 18.737a1.394 1.394 0 0 1-.049-.203 4.66 4.66 0 0 0-.071-.3c.312-.454 1.803-2.826.106-4.349-1.883-1.69-4.083.526-4.083.526l.007.01a5.44 5.44 0 0 0-3.104-.01c-.013-.013-2.206-2.21-4.084-.525-1.878 1.685.15 4.411.16 4.425-.02.064-.038.13-.05.196-.203 1.167-1.586 1.527-1.586 3.56 0 2.032 1.447 3.703 4.4 3.703h1.212c.006.008.505.689 1.53.688.95 0 1.579-.682 1.584-.688h1.156c2.954 0 4.4-1.632 4.4-3.704 0-1.892-1.199-2.334-1.528-3.329ZM33.368 16.415s.22-1.958-1.45-2.38v-.785h-1.293v.766c-1.761.375-1.534 2.4-1.534 2.4v.335s-.227 2.024 1.535 2.4v1.68c-1.857.327-1.622 2.417-1.622 2.417v.336s-.227 2.024 1.534 2.399v.766h1.293v-.786c1.67-.42 1.45-2.38 1.45-2.38a.13.13 0 0 0 .132-.127v-.08a.13.13 0 0 0-.132-.128s.218-1.942-1.429-2.374V19.15h-.019c1.762-.374 1.535-2.399 1.535-2.399a.13.13 0 0 0 .132-.127v-.081a.13.13 0 0 0-.132-.128Zm-1.054 6.833h-.118a.13.13 0 0 0-.132.127v.081c0 .07.059.128.132.128h.118c0 1.215-.419 1.42-.56 1.454-.023.005-.045-.011-.045-.034v-.388c0-.214-.142-.33-.284-.395a.694.694 0 0 0-.566 0c-.142.064-.283.181-.283.395v.388c0 .022-.023.04-.045.034-.14-.034-.56-.237-.56-1.454v-.336c0-1.215.418-1.42.559-1.454.023-.006.046.011.046.034v.387c0 .214.141.332.283.395.179.081.387.081.566 0 .142-.063.284-.18.284-.395v-.387c0-.023.022-.04.045-.034.14.034.56.237.56 1.454Zm-.03-6.497h.117c0 1.217-.42 1.42-.56 1.454a.036.036 0 0 1-.045-.034v-.387c0-.214-.142-.332-.283-.395a.694.694 0 0 0-.567 0c-.142.063-.283.18-.283.395v.387c0 .023-.023.04-.046.034-.14-.034-.56-.239-.56-1.454v-.336c0-1.217.42-1.42.56-1.454a.036.036 0 0 1 .046.034v.388c0 .214.141.331.283.395.18.08.388.08.567 0 .141-.064.283-.181.283-.395v-.388c0-.023.022-.04.046-.034.14.035.56.24.56 1.454h-.119a.13.13 0 0 0-.132.128v.08c0 .071.06.128.132.128ZM26.898 19.874s.228-2.035-1.55-2.402v-1.829c1.73-.39 1.506-2.393 1.506-2.393h-.967c0 1.218-.42 1.42-.56 1.454a.036.036 0 0 1-.045-.034v-.387c0-.214-.142-.332-.283-.395a.694.694 0 0 0-.567 0c-.142.063-.283.18-.283.395v.387c0 .023-.023.04-.046.034-.14-.034-.56-.239-.56-1.454h-.966s-.233 2.078 1.605 2.413v1.806c-1.791.36-1.562 2.405-1.562 2.405v.336s-.229 2.045 1.562 2.405v1.722c-1.838.335-1.605 2.413-1.605 2.413h.966c0-1.217.42-1.42.56-1.454a.036.036 0 0 1 .046.034v.387c0 .214.141.332.283.396.18.08.388.08.567 0 .141-.064.283-.182.283-.396v-.387c0-.023.022-.04.046-.034.14.035.56.239.56 1.454h.966s.225-2.002-1.506-2.393v-1.745c1.778-.366 1.55-2.402 1.55-2.402a.13.13 0 0 0 .132-.127V20a.13.13 0 0 0-.132-.127Zm-1.085.336h.118c0 1.217-.42 1.42-.56 1.454a.036.036 0 0 1-.045-.034v-.387c0-.214-.142-.332-.284-.395a.695.695 0 0 0-.566 0c-.142.063-.284.18-.284.395v.387c0 .023-.022.04-.045.034-.141-.035-.56-.239-.56-1.454v-.336c0-1.217.42-1.42.56-1.454a.036.036 0 0 1 .045.034v.388c0 .214.142.331.284.395.179.08.387.08.566 0 .142-.064.284-.181.284-.395v-.388c0-.023.022-.04.045-.034.141.035.56.24.56 1.454h-.118a.13.13 0 0 0-.132.128v.08c0 .071.059.128.132.128Z"/></g><defs><clipPath id="a"><path fill="#fff" d="M0 0h40v40H0z"/></clipPath></defs></g></svg>