<svg xmlns="http://www.w3.org/2000/svg" fill="none" viewBox="0 0 28 28"><g transform="translate(0,0) scale(0.7)"><g clip-path="url(#a)"><path fill="#000" d="M0 0h40v40H0z"/><path fill="url(#b)" fill-opacity=".1" d="M0 0h40v40H0z"/><path fill="#FCFC03" d="m10.787 11.409-3.168 2.64c-.24.192-.096.623.24.623h20.255c.24 0 .383.24.335.48l-1.007 2.928a.361.361 0 0 1-.336.24h-7.872a.36.36 0 0 0-.336.24l-.816 2.112c-.096.24.096.48.336.48h7.632c.24 0 .384.24.336.48l-1.2 3.696a.361.361 0 0 1-.336.24H13.475c-.24 0-.384-.24-.336-.432l2.256-8.064c.048-.144-.048-.336-.144-.384l-2.4-1.392c-.192-.096-.432 0-.528.192L8.579 28.255c-.096.24.096.432.336.432H24.13c.048 0 .096 0 .144-.048l3.791-1.823a.375.375 0 0 0 .192-.192l1.488-4.368c.048-.096 0-.288-.096-.336l-1.776-1.776c-.143-.144-.096-.48.096-.576l2.736-1.296c.096-.048.144-.096.144-.192l1.632-4.367c.048-.144 0-.336-.096-.384l-2.256-1.92c-.096-.048-.096-.096-.24-.096H11.027c-.048 0-.144.048-.24.096Z"/></g><defs><linearGradient id="b" x1="0" x2="20" y1="0" y2="40" gradientUnits="userSpaceOnUse"><stop stop-color="#fff"/><stop offset="1" stop-color="#fff" stop-opacity="0"/></linearGradient><clipPath id="a"><path fill="#fff" d="M0 0h40v40H0z"/></clipPath></defs></g></svg>