<svg xmlns="http://www.w3.org/2000/svg" fill="none" viewBox="0 0 28 28"><rect width="28" height="28" fill="#000" rx="14"/><rect width="28" height="28" fill="url(#a)" fill-opacity=".1" rx="14"/><path fill="#FCFC03" d="M7.735 7.836 5.581 9.73c-.163.137-.065.447.163.447h13.773c.163 0 .261.173.229.345l-.686 2.1a.247.247 0 0 1-.228.173h-5.353a.247.247 0 0 0-.228.172l-.555 1.515a.253.253 0 0 0 .228.345h5.19c.163 0 .26.172.228.344l-.816 2.652a.247.247 0 0 1-.228.172H9.563c-.163 0-.261-.172-.229-.31l1.534-5.786c.033-.103-.032-.24-.098-.275l-1.631-.999c-.131-.069-.294 0-.36.138l-2.545 9.16c-.065.173.065.31.228.31h10.346c.033 0 .066 0 .098-.034l2.579-1.309a.262.262 0 0 0 .13-.137l1.012-3.134c.033-.07 0-.207-.065-.242l-1.208-1.274c-.098-.103-.065-.344.065-.413l1.86-.93c.066-.034.099-.069.099-.137l1.11-3.134c.032-.104 0-.241-.066-.276l-1.534-1.377c-.065-.035-.065-.07-.163-.07H7.898a.535.535 0 0 0-.163.07Z"/><defs><linearGradient id="a" x1="0" x2="14" y1="0" y2="28" gradientUnits="userSpaceOnUse"><stop stop-color="#fff"/><stop offset="1" stop-color="#fff" stop-opacity="0"/></linearGradient></defs></svg>