<svg xmlns="http://www.w3.org/2000/svg" width="28" height="28" stroke="none" stroke-linecap="round" stroke-linejoin="round" fill="#fff" fill-rule="evenodd"><path d="M-.5 13.5c0-7.756 6.244-14 14-14s14 6.244 14 14-6.244 14-14 14-14-6.244-14-14z" fill="#f3ba2f"/><path d="M17.131 14.9888l2.1118 2.1058-5.7408 5.7347-5.7347-5.7347 2.1118-2.1058 3.6229 3.6229 3.629-3.6229zm-3.629-3.6289l2.1422 2.1421h0 0l-2.1422 2.1422-2.1361-2.1361v-.0061h0l.3763-.3762.182-.1821 1.5778-1.5838zm-7.2215.0303l2.1119 2.1118-2.1119 2.1058-2.1118-2.1118 2.1118-2.1058zm14.443 0l2.1119 2.1118-2.1119 2.1058-2.1118-2.1118 2.1118-2.1058zM13.502 4.1687l5.7348 5.7347-2.1119 2.1119-3.6229-3.629-3.6229 3.6229-2.1118-2.1058 5.7347-5.7347z" fill="#131415"/></svg>