<svg xmlns="http://www.w3.org/2000/svg" width="28" height="28" fill="none" viewBox="0 0 28 28"><g fill-rule="evenodd" clip-path="url(#a)" clip-rule="evenodd"><path fill="#F3BA2F" d="M0 14C0 6.244 6.244 0 14 0s14 6.244 14 14-6.244 14-14 14S0 21.756 0 14Z"/><path fill="#fff" d="m17.5 15.437 2.036 2.031L14 23l-5.53-5.532 2.036-2.03L14 18.931l3.5-3.495Zm-3.5-3.5 2.066 2.066L14 16.069l-2.06-2.06v-.006l.363-.363.175-.176L14 11.937Zm-6.964.029 2.037 2.037-2.037 2.031L5 13.997l2.036-2.031Zm13.928 0L23 14.003l-2.037 2.031-2.036-2.037 2.037-2.031ZM14 5l5.53 5.532-2.037 2.037L14 9.069l-3.494 3.494-2.036-2.031L14 5Z"/></g><defs><clipPath id="a"><path fill="#fff" d="M0 0h28v28H0z"/></clipPath></defs></svg>