<svg xmlns="http://www.w3.org/2000/svg" width="28" height="28" fill="none"><g clip-path="url(#a)"><path fill="#F0B90B" fill-rule="evenodd" d="M14 0c7.733 0 14 6.267 14 14s-6.267 14-14 14S0 21.733 0 14 6.267 0 14 0Z" clip-rule="evenodd"/><path fill="#fff" d="m7.694 14 .01 3.702 3.146 1.85v2.168l-4.986-2.924v-5.878L7.694 14Zm0-3.702v2.157l-1.832-1.083V9.214l1.832-1.083 1.841 1.083-1.84 1.084Zm4.47-1.084 1.832-1.083 1.84 1.083-1.84 1.084-1.832-1.084Z"/><path fill="#fff" d="M9.018 16.935v-2.168l1.832 1.084v2.157l-1.832-1.073Zm3.146 3.394 1.832 1.084 1.84-1.084v2.157l-1.84 1.084-1.832-1.084V20.33Zm6.3-11.115 1.832-1.083 1.84 1.083v2.158l-1.84 1.083v-2.157l-1.832-1.084Zm1.832 8.488.01-3.702 1.831-1.084v5.879l-4.986 2.924v-2.167l3.145-1.85Z"/><path fill="#fff" d="m18.982 16.935-1.832 1.073v-2.157l1.832-1.084v2.168Z"/><path fill="#fff" d="m18.982 11.065.01 2.168-3.155 1.85v3.712l-1.831 1.073-1.832-1.073v-3.711l-3.155-1.851v-2.168l1.84-1.083 3.135 1.86 3.155-1.86 1.84 1.083h-.007Zm-9.964-3.7 4.977-2.935 4.987 2.935-1.832 1.083-3.154-1.86-3.146 1.86-1.832-1.083Z"/></g><defs><clipPath id="a"><path fill="#fff" d="M0 0h28v28H0z"/></clipPath></defs></svg>