<svg xmlns="http://www.w3.org/2000/svg" fill="none" viewBox="0 0 28 28"><g transform="translate(0,0) scale(0.7)"><g clip-path="url(#a)"><path fill="#A36EFD" d="M0 0h40v40H0z"/><path fill="#4C2897" d="m11.494 22.367.097 1.764c.006.12.051.233.127.326.531.643 2.913 2.887 8.28 2.887 5.368 0 7.721-2.215 8.272-2.875.083-.1.13-.224.139-.354l.096-1.747a44.59 44.59 0 0 0 1.298-.747c1.037-.562 2.195.245 2.197 1.43.004 1.915-1.493 3.883-3.512 5.124-2.276 1.398-5.674 1.979-8.488 1.979-2.814 0-6.212-.58-8.488-1.98C9.493 26.935 7.996 24.967 8 23.05c.002-1.184 1.16-1.99 2.197-1.429 0 0 .658.395 1.297.746Z"/><path fill="#4C2897" d="M20 9.846c4.388 0 5.578.103 7.362.308.822.095 1.482.707 1.42 1.536l-.657 8.954c-.206.06-.43.135-.682.22-1.318.442-3.385 1.135-7.444 1.135s-6.125-.693-7.444-1.136c-.252-.084-.476-.16-.682-.22l-.657-8.953c-.06-.83.596-1.456 1.42-1.536 1.763-.171 3.598-.308 7.363-.308Zm-7.812 15.088.002.032.046.01a7.876 7.876 0 0 1-.048-.042Zm15.579.041.04-.01.003-.028a6.056 6.056 0 0 1-.043.038Z"/></g><defs><clipPath id="a"><path fill="#fff" d="M0 0h40v40H0z"/></clipPath></defs></g></svg>