<svg xmlns="http://www.w3.org/2000/svg" fill="none" viewBox="0 0 28 28"><g transform="translate(0,0) scale(0.7)"><g clip-path="url(#a)"><path fill="#133629" d="M0 0h40v40H0z"/><path fill="#F0EBDE" d="M8.26 17.907a4.468 4.468 0 0 1 .935-2.806l6.377 6.38a4.52 4.52 0 0 1-2.805.935 4.525 4.525 0 0 1-4.507-4.51ZM27.233 22.411a4.522 4.522 0 0 0 4.202-2.8 4.528 4.528 0 0 0 .342-1.742 4.528 4.528 0 0 0-.935-2.806l-6.396 6.399a4.469 4.469 0 0 0 2.787.95Z"/><path fill="#F0EBDE" d="M32.165 13.768a6.39 6.39 0 0 1 1.524 4.139 6.437 6.437 0 0 1-6.433 6.431 6.394 6.394 0 0 1-4.124-1.501l-3.095 3.096-3.095-3.096a6.385 6.385 0 0 1-4.128 1.501 6.434 6.434 0 0 1-4.956-10.561l-1.445-1.445-1.38-1.404a17.414 17.414 0 0 0-2.533 9.07A17.503 17.503 0 0 0 13.302 36.17a17.501 17.501 0 0 0 19.064-3.793A17.515 17.515 0 0 0 37.5 20.013c.029-3.198-.84-6.34-2.506-9.07l-2.829 2.825Z"/><path fill="#F0EBDE" d="M32.675 7.926A17.448 17.448 0 0 0 20.014 2.5 17.475 17.475 0 0 0 7.348 7.926c-.425.467-.841.935-1.23 1.436L20 23.244 33.88 9.348c-.366-.504-.769-.979-1.205-1.422ZM20.014 20.002 9.26 9.245a15.036 15.036 0 0 1 10.754-4.462 14.989 14.989 0 0 1 10.753 4.462L20.014 20.002Z"/></g><defs><clipPath id="a"><path fill="#fff" d="M0 0h40v40H0z"/></clipPath></defs></g></svg>