<svg xmlns="http://www.w3.org/2000/svg" fill="none" viewBox="0 0 28 28"><g transform="translate(0,0) scale(0.7)"><g clip-path="url(#a)"><path fill="url(#b)" d="M0 0h40v40H0z"/><path fill="#fff" d="M34.027 11.935a.723.723 0 0 0-1.001-.256L14.436 22.97a6.317 6.317 0 0 1 5.578-9.283c1.499 0 2.875.522 3.958 1.393l-3.955 2.712 10.278-5.928a.461.461 0 1 0-.493-.78l-2.517 1.725a10.205 10.205 0 0 0-7.271-3.03C14.362 9.779 9.78 14.355 9.78 20c0 1.818.476 3.524 1.308 5.003l-5.212 3.166 5.351-2.927a10.23 10.23 0 0 0 8.787 4.98c5.652 0 10.233-4.577 10.233-10.222v-1.22c0-.957.389-2.18 1.765-2.917a.237.237 0 1 0-.23-.413L19.58 22.487c1.362-.578 2.404-.93 3.784-1.207 2.876-.577 2.949.793 1.838 2.337-.743 1.034-2.423 2.695-5.186 2.695a6.318 6.318 0 0 1-5.35-2.95L33.748 12.93a.721.721 0 0 0 .279-.994Z"/></g><defs><linearGradient id="b" x1="3.995" x2="29.453" y1="40" y2="0" gradientUnits="userSpaceOnUse"><stop offset=".023" stop-color="#E57536"/><stop offset=".605"/></linearGradient><clipPath id="a"><path fill="#fff" d="M0 0h40v40H0z"/></clipPath></defs></g></svg>