<svg xmlns="http://www.w3.org/2000/svg" width="28" height="28" fill="none"><rect width="28" height="28" fill="url(#a)" rx="14"/><g clip-path="url(#b)"><path fill="#FFF100" d="M22.458 18.409v-.875c0-.162-.258-.317-.72-.457l.011-1.088c0-1.676-.49-3.312-1.402-4.685a7.833 7.833 0 0 0-3.702-2.994l-.033-.218a.639.639 0 0 0-.138-.315.592.592 0 0 0-.277-.188 7.429 7.429 0 0 0-4.395 0 .592.592 0 0 0-.278.188.64.64 0 0 0-.14.315l-.031.203a7.83 7.83 0 0 0-3.727 2.991 8.474 8.474 0 0 0-1.414 4.703v1.093c-.456.139-.71.292-.71.454v.874a.224.224 0 0 0 .03.147c.227-.178.487-.303.764-.366.704-.181 1.42-.307 2.143-.378.202-.024.407-.003.601.063s.372.174.523.318a2.945 2.945 0 0 0 2.043.836h4.748c.756 0 1.485-.299 2.043-.836a1.42 1.42 0 0 1 .522-.32c.194-.067.4-.09.602-.066a14.2 14.2 0 0 1 2.143.376c.262.053.51.167.724.334.012.013.027.024.037.036a.227.227 0 0 0 .033-.145Z"/><path fill="url(#c)" d="M9.574 16.569c-.006-.2-.01-.402-.01-.604.003-3.04.677-5.765 1.79-7.668a7.83 7.83 0 0 0-3.728 2.99 8.474 8.474 0 0 0-1.414 4.702v1.093a17.98 17.98 0 0 1 3.362-.513Z"/><path fill="url(#d)" d="M21.749 15.989a8.409 8.409 0 0 0-1.773-5.199c.498 1.674.746 3.42.735 5.173 0 .296-.008.59-.02.88a9.2 9.2 0 0 1 1.045.234l.013-1.088Z"/><path fill="url(#e)" d="M21.664 18.187c-.705-.18-1.42-.306-2.143-.377a1.365 1.365 0 0 0-.602.064 1.416 1.416 0 0 0-.523.32 2.943 2.943 0 0 1-2.043.835h-4.745a2.945 2.945 0 0 1-2.043-.835 1.417 1.417 0 0 0-.522-.322 1.366 1.366 0 0 0-.602-.065 14.18 14.18 0 0 0-2.143.377 1.962 1.962 0 0 0-.764.367c.36.58 4.006 1.19 8.448 1.19s8.086-.612 8.447-1.19c-.013-.012-.027-.023-.037-.035a1.8 1.8 0 0 0-.728-.329Z"/><path fill="#0A0A0A" d="m13.98 9.823-1.818 3.258 1.817 1.188V9.824Z"/><path fill="#4B4D4D" d="M13.98 9.824v4.444l1.817-1.186-1.817-3.258Zm0 5.09v1.55c.034-.052 1.817-2.738 1.817-2.74l-1.817 1.19Z"/><path fill="#0A0A0A" d="m13.98 14.914-1.818-1.187 1.818 2.737v-1.55Z"/></g><defs><linearGradient id="a" x1="14" x2="14" y1="0" y2="28" gradientUnits="userSpaceOnUse"><stop stop-color="#F7F1FD"/><stop offset="1" stop-color="#FBFCDC"/></linearGradient><linearGradient id="c" x1="8.783" x2="8.783" y1="17.082" y2="8.297" gradientUnits="userSpaceOnUse"><stop stop-color="#EDCF00"/><stop offset=".33" stop-color="#F0D500"/><stop offset=".77" stop-color="#F9E500"/><stop offset="1" stop-color="#FFF100"/></linearGradient><linearGradient id="d" x1="20.862" x2="20.862" y1="17.146" y2="10.79" gradientUnits="userSpaceOnUse"><stop stop-color="#EDCF00"/><stop offset=".59" stop-color="#F7E100"/><stop offset="1" stop-color="#FFF100"/></linearGradient><radialGradient id="e" cx="0" cy="0" r="1" gradientTransform="matrix(6.30353 0 0 6.64935 6.45 23.084)" gradientUnits="userSpaceOnUse"><stop stop-color="#FFF100"/><stop offset=".23" stop-color="#F9E500"/><stop offset=".67" stop-color="#F0D500"/><stop offset="1" stop-color="#EDCF00"/></radialGradient><clipPath id="b"><path fill="#fff" d="M0 0h17v13H0z" transform="translate(5.5 7)"/></clipPath></defs></svg>
