<svg xmlns="http://www.w3.org/2000/svg" fill="none" viewBox="0 0 28 28"><g transform="translate(0,0) scale(0.7)"><g clip-path="url(#a)"><path fill="#7132F5" d="M0 0h40v40H0z"/><path fill="#fff" fill-rule="evenodd" d="M22.861 35.002c0 1.36-1.116 2.466-2.7 2.497l-.132.001h-.058C10.32 37.484 2.5 29.655 2.5 20c0-9.665 7.835-17.5 17.5-17.5h.156c1.788.033 2.705 1.138 2.705 2.498 0 1.384-1.223 2.402-2.52 2.402-1.296 0-1.36 0-2.6.1-1.24.099-2.523 1.117-2.523 2.497a2.51 2.51 0 0 0 2.523 2.506h11.003A2.508 2.508 0 0 1 31.264 15a2.508 2.508 0 0 1-2.52 2.497H11.797a2.513 2.513 0 0 0-2.524 2.506c0 1.38 1.128 2.498 2.524 2.498h8.545a2.509 2.509 0 0 1 2.52 2.502 2.508 2.508 0 0 1-2.52 2.497h-2.6c-1.397 0-2.524 1.118-2.524 2.498 0 1.384 1.155 2.394 2.523 2.497l.297.023c.482.037.745.057 1.008.068.318.013.635.013 1.336.013 1.392 0 2.48 1.023 2.48 2.402Z" clip-rule="evenodd"/></g><defs><clipPath id="a"><path fill="#fff" d="M0 0h40v40H0z"/></clipPath></defs></g></svg>