<svg width="256" height="256" viewBox="0 0 256 256" fill="none" xmlns="http://www.w3.org/2000/svg">
<path d="M0 128C0 57.3076 57.3076 0 128 0C198.692 0 256 57.3076 256 128C256 198.692 198.692 256 128 256C57.3076 256 0 198.692 0 128Z" fill="#040404"/>
<g clip-path="url(#clip0_544_687)">
<path d="M124.421 89.9797C124.421 84.302 129.053 79.6765 134.74 79.6765H153.204V54.6091H143.972H134.74C115.178 54.6091 99.3152 70.4475 99.3152 89.9797C99.3152 95.0766 100.402 99.9214 102.345 104.294C87.1521 110.707 77.0638 124.331 74.7146 141.572C71.9702 160.502 79.5666 180.922 96.1097 190.787C110.874 200.07 133.96 199.457 146.431 186.577V195.127H172.129V100.283H134.75C129.064 100.283 124.421 95.6576 124.421 89.9797ZM147.002 125.361V149.168C147.002 162.321 136.32 172.975 123.158 172.975C109.996 172.975 99.3152 162.31 99.3152 149.168C99.3152 136.026 109.996 125.361 123.158 125.361H147.002Z" fill="#BFF009"/>
</g>
<defs>
<clipPath id="clip0_544_687">
<rect width="98.304" height="142.848" fill="white" transform="translate(73.9844 54.272)"/>
</clipPath>
</defs>
</svg>
