<svg width="200" height="200" viewBox="0 0 200 200" fill="none" xmlns="http://www.w3.org/2000/svg"><g clip-path="url(#clip0_28_4)"><path fill-rule="evenodd" clip-rule="evenodd" d="M46.4951 171.72C24.661 155.405 10.5263 129.353 10.5263 100C10.5263 50.5851 50.5851 10.5263 100 10.5263C140.783 10.5263 185.32 34.8985 196.091 72.225C184.055 30.514 145.598 0 100 0C44.7716 0 0 44.7717 0 100C0 155.228 44.7716 200 100 200C155.228 200 200 155.228 200 100V94.7369L194.506 94.7357C194.343 94.7345 194.096 94.732 193.774 94.7272C193.13 94.7174 192.186 94.6976 191.009 94.6576C188.651 94.5775 185.373 94.4174 181.702 94.0982C174.199 93.4454 165.642 92.172 159.814 89.8442C150.438 86.0997 145.145 81.1357 139.096 75.3272L138.746 74.9915C132.687 69.1708 125.88 62.6314 114.083 57.0796C102.46 51.6104 89.6088 52.4878 80.1649 54.4311C75.3692 55.4177 71.2613 56.7189 68.347 57.7744C66.886 58.3034 65.7149 58.7744 64.896 59.1192C60.1436 61.1201 55.5308 63.4875 50.8668 65.6839C50.8668 65.6839 60.0177 68.1939 64.5436 69.5951C64.7073 69.6458 64.9628 69.7268 65.2973 69.8393C65.9668 70.065 66.9466 70.4144 68.1323 70.8942C70.5195 71.8607 73.6595 73.3229 76.7591 75.3156C81.6412 78.454 85.6887 82.4025 87.3488 87.2497C76.9851 88.6122 67.2649 93.1613 59.996 97.4372C55.5884 100.03 51.9229 102.617 49.354 104.56C48.0671 105.534 47.0488 106.35 46.3433 106.931C45.7512 107.419 36.3942 115.667 36.3942 115.667C36.3942 115.667 48.4662 116.951 54.4232 118.151C58.3863 118.95 63.7293 120.235 69.3024 122.18C74.9012 124.133 80.557 126.692 85.2506 129.968C89.954 133.251 93.3985 137.047 95.0988 141.391C100.049 154.044 95.1915 166.369 85.4375 173.302C75.7994 180.152 61.1463 181.781 46.4951 171.72ZM80.6149 187.368C84.5555 186.088 88.2335 184.229 91.536 181.881C104.809 172.447 111.793 155.167 104.901 137.556C102.194 130.637 97.0204 125.347 91.2756 121.337C85.521 117.32 78.8991 114.379 72.7704 112.241C68.7405 110.835 64.8482 109.749 61.439 108.926C62.6485 108.137 63.9512 107.323 65.3329 106.51C73.4342 101.745 83.6369 97.3683 93.421 97.3683C108.168 97.3683 119.152 101.894 129.638 106.75C130.591 107.191 131.548 107.64 132.51 108.091C141.881 112.488 151.723 117.105 163.158 117.105C174.248 117.105 182.885 113.97 188.837 110.728C183.537 155.085 145.784 189.474 100 189.474C93.3436 189.474 86.8567 188.747 80.6149 187.368ZM177.463 104.263C173.522 105.607 168.745 106.579 163.158 106.579C154.188 106.579 146.48 102.985 136.696 98.4235C135.835 98.022 134.957 97.6125 134.062 97.1979C124.265 92.661 112.93 87.8531 98.1762 86.9817C96.1967 77.2131 88.793 70.5378 82.4512 66.461C81.7448 66.0067 81.0393 65.5765 80.3415 65.1701C80.9741 65.0214 81.6232 64.8778 82.2866 64.7412C90.8088 62.9875 100.983 62.5491 109.601 66.604C119.828 71.4171 125.597 76.9576 131.599 82.7223L131.805 82.9195C137.981 88.8506 144.513 95.0683 155.91 99.6198C162.242 102.148 170.436 103.509 177.463 104.263Z" fill="url(#paint0_linear_28_4)"/></g><defs><linearGradient id="paint0_linear_28_4" x1="0" y1="200" x2="203.587" y2="196.28" gradientUnits="userSpaceOnUse"><stop stop-color="#29CCB9"/><stop offset="0.494792" stop-color="#0091FF"/><stop offset="1" stop-color="#FF66B7"/></linearGradient><clipPath id="clip0_28_4"><rect width="200" height="200" fill="white"/></clipPath></defs></svg>