<svg xmlns="http://www.w3.org/2000/svg" fill="none" viewBox="0 0 28 28"><g clip-path="url(#a)"><mask id="b" width="28" height="28" x="0" y="0" maskUnits="userSpaceOnUse" style="mask-type:alpha"><path fill="#FDFDFF" d="M14 28c7.732 0 14-6.268 14-14S21.732 0 14 0 0 6.268 0 14s6.268 14 14 14Z"/></mask><g mask="url(#b)"><path fill="#FDFDFF" d="M6 3h16v21H6z"/><path fill="#1273EA" d="M0 14v14h28V0H0v14Zm19.468-8.543c.307.072.537.201.747.42.103.108.186.23.253.37.06.126.089.212.115.343l.02.1v11.805l-.02.094c-.062.28-.193.529-.383.722-.05.05-.302.26-.672.556l-1.038.833-.754.605-2.038 1.636c-.569.458-1.06.85-1.093.872-.34.23-.782.246-1.14.04a5.804 5.804 0 0 1-.388-.294L9.94 21.04l-1.199-.962c-.651-.523-.895-.724-.954-.786a1.445 1.445 0 0 1-.369-.739c-.017-.101-.017-.19-.015-6.005l.002-5.902.026-.103a1.445 1.445 0 0 1 1.224-1.105c.017-.002 2.44-.003 5.38-.003l5.35.002.083.02Z"/><path fill="#1273EA" d="M10.873 7.58A1.43 1.43 0 0 0 9.586 8.65c-.045.181-.044-.05-.044 4.489 0 2.905.003 4.25.01 4.302.043.348.188.642.43.875.053.05 2.205 1.784 2.318 1.867.025.02.04.023.095.023.056 0 .07-.004.101-.024a.18.18 0 0 0 .056-.063l.019-.04v-2.957c0-1.89.004-2.968.009-2.988a.186.186 0 0 1 .09-.113l.042-.022h.874c.958 0 .948 0 1.112.055.322.107.572.36.68.684.054.16.051-.007.051 2.765 0 1.81.003 2.552.01 2.577.021.08.089.13.172.13a.175.175 0 0 0 .072-.015c.027-.014 2.194-1.75 2.308-1.848.224-.195.39-.494.45-.809.02-.1.02-.108.023-1.442.004-1.392 0-1.52-.033-1.682a1.375 1.375 0 0 0-.39-.707 1.374 1.374 0 0 0-.847-.41l-.094-.012.063-.007c.18-.02.362-.071.503-.142.397-.2.669-.552.767-.996l.02-.09v-1.61c0-1.533 0-1.613-.017-1.698a1.404 1.404 0 0 0-.426-.778 1.4 1.4 0 0 0-.853-.382c-.093-.008-6.186-.011-6.284-.003Zm4.464 1.445c.021.012.05.037.063.057l.025.036.002 1.233c.002 1.103.001 1.242-.011 1.322-.072.432-.39.77-.83.878-.074.018-.097.018-.967.021-.996.004-.937.007-.998-.06a.213.213 0 0 1-.04-.069c-.014-.048-.014-3.265 0-3.313a.207.207 0 0 1 .11-.118c.031-.01.23-.012 1.322-.01l1.286.001.038.022Z"/></g></g><defs><clipPath id="a"><path fill="#fff" d="M0 0h28v28H0z"/></clipPath></defs></svg>