<svg xmlns="http://www.w3.org/2000/svg" fill="none" viewBox="0 0 28 28"><g transform="translate(0,0) scale(0.7)"><g clip-path="url(#a)"><path fill="#FFEEDA" d="M0 0h40v40H0z"/><path fill="#FFEEDA" d="M30.086 24.135v-13.64a2.076 2.076 0 0 0-2.072-2.063H13.779c-3.072.045-5.54 2.559-5.54 5.64 0 1.036.279 1.928.702 2.712.36.648.928 1.261 1.487 1.72.162.127.081.073.567.37a6.33 6.33 0 0 0 1.433.613l-.01 8.162c.019.387.055.756.163 1.108a3.629 3.629 0 0 0 2.198 2.46c.45.18.964.297 1.514.306l11.37.036c2.26 0 4.098-1.838 4.098-4.108.01-1.352-.666-2.56-1.675-3.316Z"/><path fill="#EBC28E" d="M30.365 27.55a2.715 2.715 0 0 1-2.712 2.621l-7.82-.027c.622-.72 1-1.657 1-2.684 0-1.604-.955-2.712-.955-2.712h7.784a2.715 2.715 0 0 1 2.712 2.711l-.01.09Z"/><path fill="#101010" d="M11.176 17.351c-.901-.855-1.532-1.955-1.532-3.27v-.135c.072-2.234 1.91-4.036 4.144-4.1h14.235c.369.019.666.28.666.659v12.044c.325.055.487.1.802.217.252.09.595.288.595.288v-12.55a2.076 2.076 0 0 0-2.072-2.063H13.779c-3.072.045-5.54 2.559-5.54 5.64 0 1.793.82 3.324 2.153 4.396.09.072.18.172.414.172a.677.677 0 0 0 .694-.694c0-.306-.135-.414-.324-.604Z"/><path fill="#101010" d="M27.653 23.342H16.491a1.363 1.363 0 0 0-1.351 1.36v1.604c.018.74.648 1.37 1.405 1.37h.829v-1.37h-.838V24.74h.45c1.415 0 2.45 1.306 2.45 2.712 0 1.243-1.134 2.828-3.026 2.702-1.676-.108-2.586-1.603-2.586-2.702V13.847c0-.613-.504-1.117-1.117-1.117H11.59v1.396h.829V27.46c-.045 2.712 1.928 4.073 3.99 4.073l11.253.036c2.261 0 4.1-1.838 4.1-4.109a4.108 4.108 0 0 0-4.109-4.117Zm2.712 4.208a2.715 2.715 0 0 1-2.712 2.621l-7.82-.027c.622-.72 1-1.657 1-2.684 0-1.604-.955-2.712-.955-2.712h7.784a2.714 2.714 0 0 1 2.712 2.711l-.01.09ZM24.644 14.378H16.23v-1.396h8.414c.379 0 .694.306.694.694a.685.685 0 0 1-.694.702Z"/><path fill="#101010" d="M24.644 20.928H16.23V19.54h8.414c.379 0 .694.306.694.693a.683.683 0 0 1-.694.694ZM26.13 17.649h-9.9v-1.397h9.892c.378 0 .693.307.693.694a.677.677 0 0 1-.684.703Z"/></g><defs><clipPath id="a"><path fill="#fff" d="M0 0h40v40H0z"/></clipPath></defs></g></svg>