<?xml version="1.0" encoding="UTF-8"?><svg data-name="Layer 2" viewBox="0 0 541.88 495.29" xmlns="http://www.w3.org/2000/svg"><defs><style>.cls-1 {fill: #1e1e1e;} .cls-1, .cls-2 {stroke-width: 0px;}.cls-2 {fill: #f5f6f7;}</style></defs><g data-name="Layer 1"><path class="cls-1" d="m541.88,0H0v495.29h98.89l79.65-103.74c14.51-18.9,22.38-42.07,22.38-65.9v-153.79c0-5.82,7.15-8.73,11.32-4.6l47.56,56.13h87.74l52.36-57.11c4.23-3.89,11.14-.94,11.14,4.77v150l1.79,174.24h129.05V0Z"/><path class="cls-2" d="m411.04 171.05c0-5.71-6.91-8.66-11.14-4.77l-52.36 57.11h-87.74l-47.56-56.13c-4.16-4.13-11.32-1.23-11.32 4.6v153.79c0 23.83-7.87 47-22.38 65.9l-79.65 103.74h313.95l-1.79-174.24v-150z"/></g></svg>
