<?xml version="1.0" encoding="UTF-8"?>
<svg xmlns:xodm="http://www.corel.com/coreldraw/odm/2003" xmlns="http://www.w3.org/2000/svg" xmlns:xlink="http://www.w3.org/1999/xlink" version="1.1" id="Layer_1" x="0px" y="0px" viewBox="0 0 2500 2500" style="enable-background:new 0 0 2500 2500;" xml:space="preserve">
<style type="text/css">
	.st0{fill:#B7B5B1;}
	.st1{fill:#244B81;}
</style>
<g id="Layer_x0020_1">
	<g id="_2091123833488">
		<path class="st0" d="M2500,1131C2213-533,40-211,1,1131c125,65,204,105,204,105s-66,40-205,128c250,1632,2386,1395,2500-2    c-136-83-210-127-210-127S2354,1205,2500,1131z M1431,1712l-204-350l-207,350l-157-11l295-497L892,775l160-14l189,318l189-304    l149,4l-248,422l273,508l-175,4L1431,1712z"></path>
		<path class="st1" d="M2399,1066C2010-413,225-13,103,1066c248,139,304,172,304,172s-96,61-305,194c266,1422,2191,1148,2297-2    c-194-122-309-193-309-193S2352,1091,2399,1066z M1431,1713l-204-350l-207,350l-156-11l295-497L893,776l160-14l189,318l189-304    l149,4l-247,422l273,508l-175,4V1713z"></path>
	</g>
</g>
</svg>
