<svg version="1.2" xmlns="http://www.w3.org/2000/svg" viewBox="0 0 512 512" width="28" height="28">
	<title>phone-1-svg</title>
	<style>
		.s0 { fill: #ffffff } 
		.s1 { fill: #000000 } 
	</style>
	<path id="Shape 1" class="s0" d="m0 32c0-17.7 14.3-32 32-32h448c17.7 0 32 14.3 32 32v450.7c0 17.7-14.3 32-32 32h-448c-17.7 0-32-14.3-32-32z"/>
	<path id="Layer" class="s1" d="m492.4 397.8l-2.3-7.2c-5.7-16.7-24.1-34.2-41-38.8l-62.7-17.1c-17-4.6-41.3 1.6-53.7 14l-22.7 22.7c-82.5-22.2-147.1-86.9-169.4-169.3l22.7-22.7c12.5-12.5 18.7-36.7 14.1-53.7l-17.1-62.7c-4.7-17-22.1-35.4-38.8-41l-7.2-2.4c-16.7-5.5-40.5 0.1-53 12.5l-33.9 34c-6.1 6-9.9 23.3-9.9 23.3-1.2 107.8 41 211.6 117.2 287.8 76.1 76 179.5 118.2 286.9 117.3 0.6 0 18.3-3.8 24.4-9.8l33.9-34c12.5-12.4 18.1-36.2 12.5-53z"/>
</svg>