<?xml version="1.0" encoding="iso-8859-1"?>
<!-- Generator: Adobe Illustrator 19.0.0, SVG Export Plug-In . SVG Version: 6.00 Build 0)  -->
<svg version="1.1" id="Layer_1" xmlns="http://www.w3.org/2000/svg" xmlns:xlink="http://www.w3.org/1999/xlink" x="0px" y="0px"
	 viewBox="0 0 512.001 512.001" style="enable-background:new 0 0 512.001 512.001;" xml:space="preserve">
<path style="fill:#FF6464;" d="M413.766,377.369l-106.833-61.511c-10.366-5.968-23.446-4.238-31.905,4.22l-21.042,21.042
	c-8.111,8.111-21.025,8.847-29.961,1.657c-16.498-13.276-32.988-28.048-49.11-44.169s-30.893-32.611-44.169-49.11
	c-7.19-8.936-6.454-21.85,1.657-29.961l21.043-21.043c8.457-8.457,10.188-21.538,4.22-31.903L96.154,59.757
	c-8.686-15.084-29.321-17.814-41.629-5.506L22.816,85.959C-18.506,127.28,29.647,242.43,130.37,343.152
	s215.872,148.875,257.193,107.554l31.708-31.708C431.58,406.691,428.85,386.055,413.766,377.369z"/>
<g>
	<path style="fill:#D2555A;" d="M45.603,63.172l88.848,154.316l18.993-18.993c8.457-8.457,10.188-21.538,4.219-31.903L96.154,59.757
		c-8.686-15.084-29.321-17.814-41.63-5.506L45.603,63.172z"/>
	<path style="fill:#D2555A;" d="M410.351,427.92l8.921-8.921c12.308-12.308,9.578-32.945-5.506-41.629l-106.833-61.511
		c-10.366-5.968-23.446-4.238-31.905,4.22l-19.488,19.487L410.351,427.92z"/>
</g>
<path style="fill:#E4EAF6;" d="M469.779,63.603H264.55c-18.813,0-34.205,15.392-34.205,34.205v119.717
	c0,18.813,15.392,34.205,34.205,34.205h111.166v32.434c0,3.81,4.606,5.716,7.298,3.023l35.458-35.458h51.307
	c18.813,0,34.205-15.392,34.205-34.205V97.806C503.983,78.995,488.591,63.603,469.779,63.603z"/>
<path d="M417.766,370.421l-106.834-61.51c-13.478-7.761-30.575-5.501-41.573,5.498l-21.042,21.042
	c-5.239,5.238-13.522,5.703-19.267,1.08c-16.56-13.326-32.868-27.992-48.466-43.592s-30.265-31.906-43.592-48.466
	c-4.623-5.745-4.159-14.029,1.08-19.267l21.043-21.042c10.998-10.998,13.259-28.093,5.498-41.573L103.102,55.757
	c-5.394-9.369-14.635-15.556-25.353-16.973c-10.716-1.419-21.249,2.154-28.893,9.799L17.147,80.29
	c-22.436,22.436-22.869,63.308-1.217,115.083c20.708,49.518,59.337,104.014,108.771,153.448s103.93,88.063,153.448,108.771
	c25.405,10.624,48.182,15.93,67.447,15.93c19.997,0,36.209-5.72,47.637-17.147l31.708-31.708
	c7.645-7.645,11.216-18.176,9.799-28.893C433.322,385.056,427.135,375.816,417.766,370.421z M73.181,54.516
	c0.817,0,1.641,0.053,2.466,0.162c5.733,0.758,10.675,4.067,13.56,9.078l61.51,106.833c4.151,7.211,2.942,16.353-2.941,22.235
	l-11.598,11.598L55.616,64.496l4.576-4.576C63.693,56.42,68.323,54.516,73.181,54.516z M381.895,445.039
	c-17.281,17.28-52.839,16.463-97.56-2.238c-47.637-19.921-100.302-57.323-148.296-105.316
	C88.047,289.491,50.644,236.825,30.724,189.189c-18.701-44.722-19.517-80.281-2.238-97.56l15.39-15.39l80.657,140.09
	c-8.916,11.05-9.103,26.926-0.033,38.197c13.686,17.008,28.741,33.747,44.746,49.752s32.744,31.06,49.752,44.746
	c11.086,8.92,26.624,8.886,37.646,0.403l140.613,80.251L381.895,445.039z M413.603,413.331l-4.593,4.593l-140.375-80.115
	l12.061-12.061c5.882-5.882,15.026-7.092,22.235-2.941l106.834,61.51c5.011,2.885,8.319,7.828,9.078,13.56
	C419.602,403.609,417.692,409.241,413.603,413.331z"/>
<path d="M469.779,55.586H264.55c-23.281,0-42.222,18.941-42.222,42.222v119.717c0,23.281,18.941,42.222,42.222,42.222h103.149
	v34.739c0,3.243,1.953,6.165,4.949,7.406c0.992,0.41,2.033,0.61,3.067,0.61c2.086,0,4.137-0.815,5.671-2.348l40.408-40.408h47.987
	c23.281,0,42.222-18.941,42.222-42.222V97.808C512,74.527,493.059,55.586,469.779,55.586z M495.967,217.524
	c0,14.44-11.748,26.188-26.188,26.188h-51.307c-2.126,0-4.166,0.844-5.668,2.348l-29.071,29.071v-23.402
	c0-4.427-3.589-8.017-8.017-8.017H264.55c-14.44,0-26.188-11.748-26.188-26.188V97.808c0-14.44,11.748-26.188,26.188-26.188h205.229
	c14.44,0,26.188,11.748,26.188,26.188V217.524z"/>
<path d="M273.101,114.375h25.654c4.427,0,8.017-3.589,8.017-8.017s-3.589-8.017-8.017-8.017h-25.654
	c-4.427,0-8.017,3.589-8.017,8.017S268.674,114.375,273.101,114.375z"/>
<path d="M461.227,98.342H332.959c-4.427,0-8.017,3.589-8.017,8.017s3.589,8.017,8.017,8.017h128.268
	c4.427,0,8.017-3.589,8.017-8.017S465.655,98.342,461.227,98.342z"/>
<path d="M461.227,132.547H273.101c-4.427,0-8.017,3.589-8.017,8.017s3.589,8.017,8.017,8.017h188.126
	c4.427,0,8.017-3.589,8.017-8.017S465.655,132.547,461.227,132.547z"/>
<path d="M273.101,182.785h128.268c4.427,0,8.017-3.589,8.017-8.017c0-4.427-3.589-8.017-8.017-8.017H273.101
	c-4.427,0-8.017,3.589-8.017,8.017C265.084,179.196,268.674,182.785,273.101,182.785z"/>
<path d="M461.227,166.752h-25.654c-4.427,0-8.017,3.589-8.017,8.017c0,4.427,3.589,8.017,8.017,8.017h25.654
	c4.427,0,8.017-3.589,8.017-8.017C469.244,170.341,465.655,166.752,461.227,166.752z"/>
<path d="M461.227,200.956H273.101c-4.427,0-8.017,3.589-8.017,8.017s3.589,8.017,8.017,8.017h188.126
	c4.427,0,8.017-3.589,8.017-8.017S465.655,200.956,461.227,200.956z"/>
<g>
</g>
<g>
</g>
<g>
</g>
<g>
</g>
<g>
</g>
<g>
</g>
<g>
</g>
<g>
</g>
<g>
</g>
<g>
</g>
<g>
</g>
<g>
</g>
<g>
</g>
<g>
</g>
<g>
</g>
</svg>
