<svg width="34" height="34" fill="none" xmlns="http://www.w3.org/2000/svg"><circle cx="17" cy="17" r="17" fill="url(#paint0_radial)"/><path d="M11.47 20.407c-.54.54-.568 1.573.027 2.167.595.595 1.627.568 2.167.028l3.33-3.336 3.321 3.329c.575.574 1.58.56 2.167-.028.595-.594.602-1.592.028-2.167l-3.323-3.322 3.323-3.322c.574-.574.567-1.58-.028-2.167-.587-.595-1.592-.602-2.167-.027l-3.322 3.322-3.329-3.33c-.54-.54-1.572-.567-2.167.028-.595.588-.567 1.62-.027 2.16l3.336 3.336-3.336 3.33z" fill="#3C4252" fill-opacity=".8"/><defs><radialGradient id="paint0_radial" cx="0" cy="0" r="1" gradientUnits="userSpaceOnUse" gradientTransform="matrix(34 0 0 34.0003 0 17)"><stop stop-color="#3C4252" stop-opacity="0"/><stop offset="1" stop-color="#3C4252" stop-opacity=".06"/></radialGradient></defs></svg>