<svg width="28" height="28" viewBox="0 0 28 28" fill="none" xmlns="http://www.w3.org/2000/svg">
<rect width="28" height="28" fill="white"/>
<g clip-path="url(#clip0_1536_39595)">
<path d="M24.0236 23.8243L19.1777 22.3898L15.5233 24.5617L12.9735 24.5606L9.31695 22.3898L4.47327 23.8243L3 18.8793L4.47343 13.391L3 8.75098L4.47343 3L12.042 7.49561H16.4548L24.0236 3L25.497 8.75098L24.0236 13.391L25.497 18.8793L24.0236 23.8243Z" fill="#FF5C16"/>
<path d="M4.47438 3L12.0431 7.49876L11.7422 10.5862L4.47438 3ZM9.31822 18.8813L12.6484 21.4034L9.31822 22.3897V18.8813ZM12.3822 14.7116L11.7422 10.5884L7.6453 13.3923L7.64308 13.3912V13.3933L7.65575 16.2794L9.31711 14.7118L12.3822 14.7116ZM24.0236 3L16.4548 7.49876L16.7548 10.5862L24.0236 3ZM19.1799 18.8813L15.8496 21.4034L19.1799 22.3897V18.8813ZM20.8539 13.3931V13.391L20.853 13.3921L16.7559 10.5884L16.1159 14.7116H19.1797L20.8422 16.2791L20.8539 13.3931Z" fill="#FF5C16"/>
<path d="M9.31711 22.3897L4.47343 23.8241L3 18.8813H9.31711V22.3897ZM12.3811 14.7105L13.3063 20.6715L12.0239 17.357L7.6537 16.2791L9.316 14.7107L12.3811 14.7105ZM19.1797 22.3897L24.0236 23.8241L25.497 18.8811H19.1797C19.1797 18.8813 19.1797 22.3897 19.1797 22.3897ZM16.1159 14.7105L15.1907 20.6715L16.4729 17.357L20.8435 16.2791L19.18 14.7107L16.1159 14.7105Z" fill="#E34807"/>
<path d="M3 18.8793L4.47343 13.391H7.64197L7.65354 16.2781L12.0242 17.3561L13.3064 20.6704L12.6473 21.4002L9.31711 18.8782H3V18.8793ZM25.497 18.8793L24.0236 13.391H20.8549L20.8433 16.2781L16.4729 17.3561L15.1906 20.6704L15.8496 21.4002L19.1799 18.8782H25.497V18.8793ZM16.4548 7.49561H12.042L11.7424 10.5831L13.3066 20.6671H15.1907L16.7559 10.5831L16.4548 7.49561Z" fill="#FF8D5D"/>
<path d="M4.47343 3L3 8.75098L4.47343 13.391H7.64197L11.7411 10.5864L4.47343 3ZM11.4654 15.9078H10.03L9.2485 16.6694L12.0252 17.3537L11.4654 15.9067V15.9078ZM24.0236 3L25.497 8.75098L24.0236 13.391H20.8549L16.7559 10.5864L24.0236 3ZM17.0337 15.9078H18.4711L19.2526 16.6704L16.4727 17.3561L17.0337 15.9067V15.9078ZM15.5222 22.5945L15.8497 21.4024L15.1906 20.6726H13.305L12.646 21.4024L12.9734 22.5945" fill="#661800"/>
<path d="M15.5222 22.5943V24.5627H12.9737V22.5943H15.5222Z" fill="#C0C4CD"/>
<path d="M9.31822 22.3876L12.9757 24.5616V22.5932L12.6482 21.4013L9.31822 22.3876ZM19.1799 22.3876L15.5222 24.5616V22.5932L15.8497 21.4013L19.1799 22.3876Z" fill="#E7EBF6"/>
</g>
<defs>
<clipPath id="clip0_1536_39595">
<rect width="22.5" height="21.5625" fill="white" transform="translate(3 3)"/>
</clipPath>
</defs>
</svg>
