<svg xmlns="http://www.w3.org/2000/svg" width="28" height="28" fill="none" viewBox="0 0 28 28"><path fill="#fff" d="M0 0h28v28H0z"/><g clip-path="url(#a)"><path fill="#ff5c16" d="m24.024 23.824-4.846-1.434-3.655 2.172-2.55-.001-3.656-2.171-4.844 1.434L3 18.88l1.473-5.488L3 8.751 4.473 3l7.569 4.496h4.413L24.024 3l1.473 5.751-1.473 4.64 1.473 5.488z"/><path fill="#ff5c16" d="m4.474 3 7.57 4.499-.302 3.087zm4.844 15.881 3.33 2.522-3.33.987zm3.064-4.17-.64-4.123-4.097 2.804h-.002v.001l.013 2.886 1.661-1.567zM24.024 3l-7.57 4.499.3 3.087zM19.18 18.881l-3.33 2.522 3.33.987zm1.674-5.488v-.002zl-4.097-2.804-.64 4.124h3.064l1.662 1.567z"/><path fill="#e34807" d="m9.317 22.39-4.844 1.434L3 18.881h6.317zm3.064-7.68.925 5.962-1.282-3.315-4.37-1.078 1.662-1.568zm6.799 7.68 4.844 1.434 1.473-4.943H19.18zm-3.064-7.68-.925 5.962 1.282-3.315 4.37-1.078-1.663-1.568z"/><path fill="#ff8d5d" d="m3 18.88 1.473-5.489h3.169l.012 2.887 4.37 1.078 1.282 3.314-.659.73-3.33-2.522H3zm22.497 0-1.473-5.489h-3.17l-.01 2.887-4.371 1.078-1.282 3.314.659.73 3.33-2.522h6.317zM16.455 7.495h-4.413l-.3 3.087 1.565 10.084h1.884l1.565-10.084z"/><path fill="#661800" d="M4.473 3 3 8.751l1.473 4.64h3.169l4.1-2.805zm6.992 12.908H10.03l-.781.761 2.776.685-.56-1.447M24.024 3l1.473 5.751-1.473 4.64h-3.17l-4.098-2.805zm-6.99 12.908h1.437l.782.762-2.78.686.56-1.45zm-1.512 6.687.328-1.193-.66-.73h-1.885l-.659.73.327 1.192"/><path fill="#c0c4cd" d="M15.522 22.594v1.969h-2.548v-1.969z"/><path fill="#e7ebf6" d="m9.318 22.388 3.658 2.174v-1.969l-.328-1.192zm9.862 0-3.658 2.174v-1.969l.328-1.192z"/></g><defs><clipPath id="a"><path fill="#fff" d="M3 3h22.5v21.563H3z"/></clipPath></defs></svg>