<svg xmlns="http://www.w3.org/2000/svg" width="28" height="28" fill="none"><g clip-path="url(#a)"><path fill="#AB9FF2" d="M28 0H0v28h28V0Z"/><path fill="#FFFDF8" fill-rule="evenodd" d="M12.063 18.128c-1.173 1.796-3.137 4.07-5.75 4.07-1.236 0-2.424-.51-2.424-2.719 0-5.627 7.682-14.337 14.81-14.337 4.056 0 5.671 2.813 5.671 6.008 0 4.101-2.66 8.79-5.306 8.79-.84 0-1.252-.46-1.252-1.192 0-.19.032-.397.095-.62-.902 1.542-2.645 2.973-4.276 2.973-1.188 0-1.79-.747-1.79-1.797 0-.381.079-.778.222-1.176Zm9.63-7.089c0 .931-.549 1.397-1.163 1.397-.624 0-1.164-.466-1.164-1.397 0-.93.54-1.396 1.164-1.396.614 0 1.164.465 1.164 1.396Zm-3.49 0c0 .931-.55 1.397-1.164 1.397-.624 0-1.164-.466-1.164-1.397 0-.93.54-1.396 1.164-1.396.614 0 1.164.465 1.164 1.396Z" clip-rule="evenodd"/></g><defs><clipPath id="a"><path fill="#fff" d="M0 0h28v28H0z"/></clipPath></defs></svg>