<svg width="100%" height="100%" viewBox="0 0 108 108" fill="none" xmlns="http://www.w3.org/2000/svg">
<rect width="108" height="108"  fill="#AB9FF2"/>
<path fill-rule="evenodd" clip-rule="evenodd" d="M46.5267 69.9229C42.0054 76.8509 34.4292 85.6182 24.348 85.6182C19.5824 85.6182 15 83.6563 15 75.1342C15 53.4305 44.6326 19.8327 72.1268 19.8327C87.768 19.8327 94 30.6846 94 43.0079C94 58.8258 83.7355 76.9122 73.5321 76.9122C70.2939 76.9122 68.7053 75.1342 68.7053 72.314C68.7053 71.5783 68.8275 70.7812 69.0719 69.9229C65.5893 75.8699 58.8685 81.3878 52.5754 81.3878C47.993 81.3878 45.6713 78.5063 45.6713 74.4598C45.6713 72.9884 45.9768 71.4556 46.5267 69.9229ZM83.6761 42.5794C83.6761 46.1704 81.5575 47.9658 79.1875 47.9658C76.7816 47.9658 74.6989 46.1704 74.6989 42.5794C74.6989 38.9885 76.7816 37.1931 79.1875 37.1931C81.5575 37.1931 83.6761 38.9885 83.6761 42.5794ZM70.2103 42.5795C70.2103 46.1704 68.0916 47.9658 65.7216 47.9658C63.3157 47.9658 61.233 46.1704 61.233 42.5795C61.233 38.9885 63.3157 37.1931 65.7216 37.1931C68.0916 37.1931 70.2103 38.9885 70.2103 42.5795Z" fill="#FFFDF8"/>
</svg>

