<svg xmlns="http://www.w3.org/2000/svg" fill="none" viewBox="0 0 28 28"><g clip-path="url(#a)"><path fill="url(#b)" d="M0 0h28v28H0z"/><g filter="url(#c)"><path fill="url(#d)" d="M24.19 14.2h-2.503c0-5.064-4.15-9.169-9.268-9.169-5.056 0-9.166 4.005-9.266 8.982-.104 5.144 4.775 9.612 9.976 9.612h.654c4.586 0 10.732-3.551 11.692-7.878.178-.797-.459-1.547-1.285-1.547Zm-15.49.226c0 .677-.56 1.23-1.245 1.23a1.241 1.241 0 0 1-1.244-1.23v-1.992c0-.677.56-1.231 1.244-1.231.685 0 1.245.554 1.245 1.231v1.992Zm4.32 0c0 .677-.56 1.23-1.244 1.23a1.241 1.241 0 0 1-1.244-1.23v-1.992c0-.677.56-1.231 1.244-1.231.685 0 1.245.554 1.245 1.231v1.992Z"/></g></g><defs><linearGradient id="b" x1="14" x2="14" y1="0" y2="28" gradientUnits="userSpaceOnUse"><stop stop-color="#534BB1"/><stop offset="1" stop-color="#551BF9"/></linearGradient><linearGradient id="d" x1="14.328" x2="14.328" y1="5.031" y2="23.625" gradientUnits="userSpaceOnUse"><stop stop-color="#fff"/><stop offset="1" stop-color="#fff" stop-opacity=".82"/></linearGradient><clipPath id="a"><path fill="#fff" d="M0 0h28v28H0z"/></clipPath><filter id="c" width="37.635" height="33.875" x="-4.489" y="-2.609" color-interpolation-filters="sRGB" filterUnits="userSpaceOnUse"><feFlood flood-opacity="0" result="BackgroundImageFix"/><feColorMatrix in="SourceAlpha" result="hardAlpha" values="0 0 0 0 0 0 0 0 0 0 0 0 0 0 0 0 0 0 127 0"/><feOffset/><feGaussianBlur stdDeviation="3.82"/><feColorMatrix values="0 0 0 0 0 0 0 0 0 0 0 0 0 0 0 0 0 0 0.3 0"/><feBlend in2="BackgroundImageFix" result="effect1_dropShadow_102_6"/><feBlend in="SourceGraphic" in2="effect1_dropShadow_102_6" result="shape"/></filter></defs></svg>