<svg width="128" height="128" viewBox="0 0 128 128" fill="none" xmlns="http://www.w3.org/2000/svg">
<path fill-rule="evenodd" clip-rule="evenodd" d="M53.0886 73.0631C53.3482 73.1478 53.616 73.2049 53.8876 73.2334C53.8876 73.2334 52.7622 73.655 50.434 72.8665C50.434 72.8665 48.6922 72.1578 47.3863 72.2768C45.87 72.414 44.8241 74.3854 44.8241 74.3854C45.1236 74.2233 45.4416 74.0978 45.7712 74.0117C46.8043 73.8019 46.4478 73.9771 46.4478 73.9771C46.4478 73.9771 44.4611 74.8096 44.3258 75.5499C44.2936 75.7347 44.8498 75.2132 46.3189 75.2594C48.123 75.3161 49.6909 76.3633 50.3352 76.536C51.6561 76.8893 53.5504 76.9698 55.2879 75.6073C55.2879 75.6073 56.8923 74.6013 57.3884 72.7422C57.5168 72.2264 57.5923 71.6989 57.6139 71.1679C57.622 70.7006 57.5744 70.2341 57.4722 69.7781C57.4722 69.7781 56.5336 71.9514 53.0886 73.0631Z" fill="white"/>
<path fill-rule="evenodd" clip-rule="evenodd" d="M87.2108 93.4572C90.7106 89.0696 92.6166 83.6235 92.6166 78.011C92.6166 72.3986 90.7106 66.9525 87.2108 62.5649L109.631 60.0989C109.631 60.0989 111.961 66.4899 112.576 69.9072C112.655 70.3452 112.793 71.2272 112.793 71.2272C112.793 71.2272 109.315 79.6703 103.976 84.3097C96.8005 90.5454 87.2108 93.4572 87.2108 93.4572ZM34.1195 93.1492L25.5259 94.7422C22.7989 87.8364 21.8024 80.3684 22.6234 72.9892C23.4444 65.6101 26.0579 58.5437 30.2362 52.4063C30.4177 52.1402 30.7892 51.6144 30.7892 51.6144L40.2845 78.3548L34.1195 93.1492Z" fill="url(#paint0_linear_3631_69420)"/>
<path fill-rule="evenodd" clip-rule="evenodd" d="M65.2053 38.3074C65.2332 38.2711 65.2568 38.255 65.2869 38.2182C65.5167 37.9751 70.8517 32.234 64.49 22.5242C59.795 15.3638 47.8406 15.5654 42.9609 11.8389C43.3218 14.7093 46.1353 17.2967 45.8303 21.2304C45.7108 22.5267 45.4684 23.8088 45.1065 25.0594C44.5245 27.3051 43.9876 29.4344 44.793 33.6199C45.4223 36.8808 46.9085 39.2601 49.2152 40.692C51.8548 42.3286 55.5103 42.6882 59.2603 41.6684C61.7731 40.9848 63.9961 39.7225 65.2053 38.3074V38.3074Z" fill="url(#paint1_linear_3631_69420)"/>
<path fill-rule="evenodd" clip-rule="evenodd" d="M73.1641 34.1197C74.5344 31.755 74.7943 28.9958 73.9524 25.9355C72.7797 21.6597 70.5396 18.856 68.7333 16.6015C68.1685 15.888 67.6337 15.2229 67.2063 14.5957C65.4889 12.0796 64.7489 9.02309 65.1251 6C62.9473 7.56485 58.757 10.5249 56.0745 13.6752C59.9469 15.53 62.9688 17.5541 65.3635 21.2022C69.4378 27.4157 69.3734 32.438 68.6002 35.5561C68.3832 36.4152 70.0263 37.1753 69.7213 37.8403C71.1127 36.8503 72.2848 35.5836 73.1641 34.1197Z" fill="url(#paint2_linear_3631_69420)"/>
<path fill-rule="evenodd" clip-rule="evenodd" d="M102.861 59.9365C98.3075 59.5031 89.085 58.382 89.085 58.382C68.342 57.2263 56.5701 63.452 47.6806 71.5971C40.8206 78.4085 34.7124 96.0716 34.7124 96.0716L27.2825 95.6685C27.2825 95.6685 29.6499 88.6204 32.3851 83.4937C35.5208 77.6162 36.2253 78.0964 35.5133 77.1177C32.1978 72.5602 30.6441 68.9788 29.3108 61.3182C29.3108 61.3182 30.8705 62.5424 32.0503 61.795C32.0503 61.795 29.3705 57.1438 28.9575 52.1273C28.2253 43.2343 32.3903 31.0958 32.4869 30.8157C32.4472 30.9431 32.2242 31.9869 34.6684 33.5447C34.8432 32.8093 35.0286 32.0904 35.2244 31.3879C36.0861 27.1923 38.3829 18.0347 42.9791 11.8259C42.9791 11.8259 45.55 20.802 52.0061 24.8735C64.5748 32.802 72.4442 32.8445 72.4442 32.8445C90.1997 34.8299 97.7812 43.5403 97.7812 43.5403C110.524 57.286 122.098 57.1571 122.098 57.1571C117.94 61.133 102.861 59.9365 102.861 59.9365ZM32.4869 30.8157C32.4882 30.8113 32.4897 30.8069 32.4914 30.8026L32.4869 30.8157Z" fill="url(#paint3_linear_3631_69420)"/>
<path fill-rule="evenodd" clip-rule="evenodd" d="M122.315 57.1587C122.315 57.1587 120.509 67.158 111.035 68.3242C111.035 68.3242 76.6838 68.1026 74.1795 99.3084L73.5975 108.075L32.3875 96.0644C32.3875 96.0644 36.2736 82.8145 44.766 72.1767C44.766 72.1767 59.1904 51.799 100.296 57.1686C100.296 57.1686 105.097 58.1351 111.832 58.7659C117.523 59.2987 122.315 57.1587 122.315 57.1587Z" fill="url(#paint4_linear_3631_69420)"/>
<path fill-rule="evenodd" clip-rule="evenodd" d="M98.9434 52.3987C98.9434 52.3987 90.0195 47.7572 78.9199 48.1954C78.9199 48.1954 84.9573 43.4776 93.1166 44.6301L98.9434 52.3987Z" fill="#722B00"/>
<path fill-rule="evenodd" clip-rule="evenodd" d="M76.3821 95.0301C76.3821 95.0301 79.2837 97.0329 83.8928 95.9691C83.8928 95.9691 76.4465 100.286 60.7528 94.3671C60.7528 94.3671 44.5674 87.1274 33.1821 88.7782C25.8643 89.8392 19.3935 95.6532 15.4749 100.079C10.7404 105.427 11.3298 102.927 23.2198 101.456C26.078 101.102 24.4319 101.915 24.4319 101.915C24.4319 101.915 8.54672 108.569 7.47327 114.487C7.20523 115.965 11.6577 111.795 23.3991 112.164C37.8127 112.618 50.3534 120.989 55.5102 122.369C66.0664 125.193 81.2081 125.838 95.0976 114.945C95.0976 114.945 107.915 106.903 111.878 92.043C112.909 87.9204 113.516 83.7032 113.691 79.4572C113.901 73.9239 112.217 68.0988 112.217 68.0988C112.217 68.0988 102.851 88.8476 76.3821 95.0301Z" fill="url(#paint5_linear_3631_69420)"/>
<defs>
<linearGradient id="paint0_linear_3631_69420" x1="65.7753" y1="50.2464" x2="67.5685" y2="94.7422" gradientUnits="userSpaceOnUse">
<stop stop-color="#DADB48"/>
<stop offset="0.65625" stop-color="#637621"/>
</linearGradient>
<linearGradient id="paint1_linear_3631_69420" x1="67.5991" y1="29.5177" x2="45.7994" y2="29.5177" gradientUnits="userSpaceOnUse">
<stop stop-color="#EC6F01"/>
<stop offset="1" stop-color="#F4B23D"/>
</linearGradient>
<linearGradient id="paint2_linear_3631_69420" x1="69.4241" y1="30.4844" x2="68.1354" y2="9.43641" gradientUnits="userSpaceOnUse">
<stop stop-color="#F4B33E"/>
<stop offset="1" stop-color="#FB6F1B"/>
</linearGradient>
<linearGradient id="paint3_linear_3631_69420" x1="34.6321" y1="30.5946" x2="111.307" y2="60.8779" gradientUnits="userSpaceOnUse">
<stop stop-color="#FB6D1A"/>
<stop offset="1" stop-color="#F3B23E"/>
</linearGradient>
<linearGradient id="paint4_linear_3631_69420" x1="42.6862" y1="91.8052" x2="115.495" y2="59.8037" gradientUnits="userSpaceOnUse">
<stop stop-color="#F3B63F"/>
<stop offset="1" stop-color="#FB701C"/>
</linearGradient>
<linearGradient id="paint5_linear_3631_69420" x1="40.1078" y1="124.127" x2="103.144" y2="84.8233" gradientUnits="userSpaceOnUse">
<stop stop-color="#EC6F00"/>
<stop offset="1" stop-color="#F4B33E"/>
</linearGradient>
</defs>
</svg>
