<svg width="96" height="96" viewBox="0 0 96 96" fill="none" xmlns="http://www.w3.org/2000/svg">
<path d="M0 7.584C0 4.98628 0 3.68742 0.489468 2.68829C0.958114 1.73167 1.73167 0.958114 2.68829 0.489468C3.68742 0 4.98628 0 7.584 0H88.416C91.0137 0 92.3126 0 93.3117 0.489468C94.2683 0.958114 95.0419 1.73167 95.5105 2.68829C96 3.68742 96 4.98628 96 7.584V88.416C96 91.0137 96 92.3126 95.5105 93.3117C95.0419 94.2683 94.2683 95.0419 93.3117 95.5105C92.3126 96 91.0137 96 88.416 96H7.584C4.98628 96 3.68742 96 2.68829 95.5105C1.73167 95.0419 0.958114 94.2683 0.489468 93.3117C0 92.3126 0 91.0137 0 88.416V7.584Z" fill="#0000FF"/>
</svg>
