<svg width="28" height="28" fill="none" xmlns="http://www.w3.org/2000/svg"><g clip-path="url(#a)"><path fill="#FFD86E" d="M0 0h165.556v165.556H0z"/><path d="M17.812 6.644v-.35h-.675a5.502 5.502 0 0 0-2.197-.455h-1.838c-.78 0-1.522.162-2.196.455h-.112v.05a5.542 5.542 0 0 0-3.227 5.03v11.248h1.739l.002-.04h9.468l.002.04h1.698V11.374a5.537 5.537 0 0 0-2.664-4.73Z" fill="#FFD86E"/><path d="M21.061 22.392v-10.91c0-.828-.164-1.633-.487-2.393a6.165 6.165 0 0 0-1.323-1.959 6.173 6.173 0 0 0-1.959-1.323 6.092 6.092 0 0 0-2.394-.487h-1.782c-.829 0-1.634.164-2.394.487A6.165 6.165 0 0 0 8.763 7.13 6.173 6.173 0 0 0 7.439 9.09a6.092 6.092 0 0 0-.486 2.394v10.909H5.444v.257h14.833a.413.413 0 0 0 .113 0h2.166v-.257H21.06h.001Zm-.794-.149c-.424-.087-.755-.29-.99-.609-.539-.733-.49-1.97-.285-2.807.107-.436.306-.74.593-.905.236-.136.495-.155.682-.144v4.465ZM8.507 8.734c.383-.139.73-.166.968-.109.152.037.26.106.309.202.023.046.033.1.03.159-.013.255-.262.614-.705.909a2.793 2.793 0 0 1-.636.316 2.148 2.148 0 0 1-.601.123c.125-.573.342-1.11.634-1.6Zm-.704 1.983h.032c.254-.005.53-.06.807-.162a3.167 3.167 0 0 0 .64-.319 2.557 2.557 0 0 0 .678-.626c.14-.199.219-.396.234-.58.21.054.362.157.432.298a.562.562 0 0 1 .022.4 1.276 1.276 0 0 1-.207.42c-.251.353-.658.682-1.148.928-.49.245-.999.375-1.431.364-.029 0-.056-.002-.083-.004l-.031-.003c.002-.243.02-.482.054-.717Zm-.055 1.099c.197.015.411.003.636-.035.344-.058.712-.18 1.08-.363.366-.184.683-.406.935-.646.18-.172.328-.351.437-.533a.4.4 0 0 1 .092.118c.063.126.053.292-.024.474a1.378 1.378 0 0 1-.208.34c-.23.289-.573.556-.978.759-.405.203-.824.318-1.192.33H8.42a1.365 1.365 0 0 1-.293-.037c-.18-.045-.313-.129-.38-.244v-.163Zm2.318.807c-.752.378-1.436.323-1.58.038l-.008-.02c.423-.001.918-.123 1.411-.37.494-.248.888-.57 1.142-.91l.01.02c.143.284-.223.865-.975 1.242Zm.927-.196c-.033.266-.24.577-.612.763-.36.18-.72.168-.955.047.265-.046.543-.14.811-.273.293-.147.552-.332.757-.537Zm-3.245 9.965v-9.91c.098.052.209.092.33.119.01.08.032.158.068.23.137.273.443.429.864.44h.038c.144.202.36.34.624.392.283.057.596.01.88-.132.283-.143.508-.365.632-.626a.985.985 0 0 0 .05-.765c.229-.335.282-.665.148-.931a.675.675 0 0 0-.143-.192c.134-.296.153-.586.03-.832A.797.797 0 0 0 11 9.883c.082-.26.077-.51-.032-.727-.148-.295-.458-.473-.86-.532H10.1h.01c-.144-.253-.443-.398-.848-.408a2.13 2.13 0 0 0-.43.035 5.364 5.364 0 0 1 4.285-2.138H14.9a5.377 5.377 0 0 1 5.06 3.576c-.16-.09-.35-.17-.568-.24l-.008-.003-.008-.002a1.07 1.07 0 0 0-.806.162c-.313.21-.569.6-.761 1.162-.178.04-.405.094-.604.151a.933.933 0 0 0-.19.06c-.1.034-.183.069-.23.101-.225.107-.468.24-.592.309-.52-.29-.972-.41-1.345-.355a1.07 1.07 0 0 0-.707.418l-.005.006-.004.008c-.364.621-.445 1.126-.24 1.498.231.418.75.536 1 .57-.218 1.194-.073 2.092.431 2.669a1.93 1.93 0 0 0 1.058.605l.084.016a2.036 2.036 0 0 1-.084-.016c-.283.188-.671.459-1.067.77a8.53 8.53 0 0 0-1.065.963c-.354.393-.539.727-.564 1.021a.695.695 0 0 0 .241.601c.514.458.92.672 1.273.672h.032c.344-.014.56-.224.75-.409l.008-.007c.2-.194.556-.575.835-.877a10.41 10.41 0 0 0-.015.938c.025.828.159 1.467.398 1.91H7.748v.002Zm9.93 0c-.282-.361-.445-1.018-.473-1.917-.025-.78.064-1.464.065-1.47l.083-.629-.427.47c-.009.009-.871.957-1.214 1.29l-.008.008c-.16.155-.297.29-.488.296-.246.008-.59-.183-1.027-.571a.296.296 0 0 1-.109-.27c.02-.22.237-.734 1.476-1.705.73-.572 1.46-1.02 1.466-1.025l-.08-.126.093.038-.158-.095.212.137h-.015l-.055-.088a5.02 5.02 0 0 1-.385-.095 1.742 1.742 0 0 1-1.131-.596c-.47-.539-.587-1.411-.35-2.593l.028-.139-.142-.005c-.007 0-.7-.03-.937-.459-.16-.291-.082-.712.232-1.252a.824.824 0 0 1 .547-.322c.332-.048.752.073 1.249.359l.06.034.06-.034c.254-.143.624-.336.841-.426.184-.061.488-.141.83-.215l.071-.016.022-.065c.178-.546.41-.917.688-1.102a.824.824 0 0 1 .623-.127c.328.106.578.233.75.38.084.305.141.621.17.946-.12.24-.297.415-.3.418l-.103.098.114.085c.11.082.213.163.31.245v5.526a1.613 1.613 0 0 0-.876.196c-.387.22-.65.61-.785 1.157-.07.286-.183.866-.15 1.53.034.66.203 1.201.501 1.607.16.216.354.391.58.522h-1.86.001Z" fill="#451D07"/><path d="M14.95 11.64c-.23.065-.417.251-.54.537l-.006.014-.002.016c-.103.682.207.766.72.905l.148.04.036-.108c.161-.477.544-1.004.547-1.009l.074-.1-.102-.07c-.324-.224-.618-.3-.875-.226Zm.166 1.22c-.2-.054-.344-.098-.418-.171-.053-.052-.101-.144-.06-.43.067-.15.185-.332.379-.388.159-.046.35-.003.569.127a4.745 4.745 0 0 0-.47.862ZM17.11 14.086a.939.939 0 0 0-.062-.467.939.939 0 0 0-.266-.387c-.128-.105-.27-.139-.39-.093-.121.046-.205.167-.23.33a.938.938 0 0 0 .062.466c.061.16.156.297.267.388.09.074.187.112.279.112a.306.306 0 0 0 .11-.02c.121-.046.205-.167.23-.33Zm-.522-.447c-.083.032-.129.125-.128.235l-.01-.025c-.097-.252-.048-.455.028-.484a.066.066 0 0 1 .025-.004c.084 0 .233.119.32.345l.002.007c-.07-.072-.16-.104-.237-.074Z" fill="#451D07"/><path d="M19.915 15.693c.204-.215.29-.425.325-.563l.01-.036-.013-.035c-.482-1.33-1.239-1.552-1.458-1.589-.33-.413-.844-.449-1.02-.449l-.012-.015-.019.016a.206.206 0 0 0-.028.002l.001.022c-.125.117-.46.479-.428 1.002-.139.174-.553.845-.021 2.156l.014.035.03.02c.162.107.422.173.737.173.305 0 .661-.062 1.025-.212.358-.129.647-.306.857-.526Zm-.947.303c-.7.288-1.277.207-1.507.08-.273-.69-.254-1.17-.189-1.451.07-.306.21-.45.21-.45l.042-.042-.006-.057c-.042-.389.184-.683.306-.81.183.01.563.072.792.389l.034.047.058.003s.201.014.458.194c.237.166.572.51.831 1.207-.062.202-.28.624-1.028.89l.01.029-.011-.028Z" fill="#451D07"/><path d="m19.516 14.833-.24.023v-.005c0 .003-.003.22-.429.492l-.06-.162-.172-.449c.237-.136.36-.378.284-.58-.09-.232-.41-.325-.715-.208a.787.787 0 0 0-.073.033.67.67 0 0 0-.077.024c-.305.118-.481.4-.392.633.078.203.332.3.599.242l.171.447.065.163c-.498.082-.646-.078-.648-.08a.027.027 0 0 1 .004.004l-.194.144c.019.025.162.197.574.197.126 0 .277-.016.457-.058l.046-.01.004.012.042-.023.046-.01-.005-.013.04-.022c.69-.385.677-.753.673-.794ZM19.573 11.408l.099.056.082-.128c.289-.447.463-.716-.07-1.155l-.012-.01-.014-.006c-.283-.13-.546-.144-.762-.04-.24.117-.407.37-.499.753l-.029.12.122.026c.006.002.643.137 1.082.384Zm-.57-1.066c.18-.088.39-.031.54.035.222.185.247.286.243.36-.006.104-.084.234-.196.407a4.75 4.75 0 0 0-.925-.327c.076-.243.189-.403.338-.475ZM19.218 12.297c-.127-.104-.27-.138-.39-.092-.12.046-.204.166-.229.33a.938.938 0 0 0 .062.466c.061.16.156.297.266.388.09.073.188.112.28.112a.307.307 0 0 0 .11-.02c.121-.047.204-.167.23-.33a.937.937 0 0 0-.062-.467.936.936 0 0 0-.267-.387Zm.05.5c-.073-.083-.17-.121-.252-.09-.077.03-.122.113-.127.214a.036.036 0 0 1-.003-.007c-.096-.252-.048-.454.029-.484.036-.014.092.007.15.054a.71.71 0 0 1 .194.287l.01.026h-.001Z" fill="#451D07"/><path d="m15.999 17.415-.044-.02c-1.144-.525-1.916-.204-1.923-.201l-.247.106.032-.266c.108-.857.979-1.777 1.016-1.816l.224-.235.04.323c0 .006.095.695.683 1.082.486.32 1.173.354 2.04.104a7.774 7.774 0 0 0 2.856-1.602l.213.22c-.073.071-1.81 1.73-4.842 2.296l-.049.008Zm-1.325-.63c.356 0 .822.07 1.364.31a9.99 9.99 0 0 0 .603-.134 2.027 2.027 0 0 1-1.033-.319 1.9 1.9 0 0 1-.742-.993c-.215.263-.555.728-.692 1.185.127-.026.296-.05.5-.05ZM15.088 22.627l-.196-.148c1.293-.369 1.182-2.471 1.18-2.49l.304-.038c.012.09.254 2.235-1.288 2.676Z" fill="#451D07"/></g><defs><clipPath id="a"><path fill="#fff" d="M0 0h28v28H0z"/></clipPath></defs></svg>