<svg width="33" height="32" viewBox="0 0 33 32" fill="none" xmlns="http://www.w3.org/2000/svg">
<path d="M24.3458 0H7.68815C3.4421 0 0 3.43845 0 7.68V24.32C0 28.5615 3.4421 32 7.68815 32H24.3458C28.5919 32 32.034 28.5615 32.034 24.32V7.68C32.034 3.43845 28.5919 0 24.3458 0Z" fill="url(#paint0_linear_2511_2931)"/>
<path fill-rule="evenodd" clip-rule="evenodd" d="M16.0165 26.24C21.6779 26.24 26.2674 21.6554 26.2674 16C26.2674 10.3446 21.6779 5.76001 16.0165 5.76001C10.3551 5.76001 5.76562 10.3446 5.76562 16C5.76562 21.6554 10.3551 26.24 16.0165 26.24ZM14.2075 11.1122C14.2074 10.8176 14.4462 10.5788 14.7408 10.5788H17.292C17.5865 10.5788 17.8253 10.8176 17.8253 11.1122V14.2309H14.2078V17.7689H17.8253V20.8877C17.8253 21.1823 17.5865 21.4211 17.292 21.4211H14.7407C14.4462 21.4211 14.2074 21.1823 14.2074 20.8877V17.8831H11.1232C10.8287 17.8831 10.5899 17.6443 10.5899 17.3497V14.7643C10.5899 14.4697 10.8287 14.2309 11.1232 14.2309H14.2078L14.2075 11.1122ZM17.8253 14.2309H20.9106C21.2051 14.2309 21.4439 14.4697 21.4439 14.7643V17.3497C21.4439 17.6443 21.2051 17.8831 20.9106 17.8831H17.826L17.8253 14.2309Z" fill="#0C0B0B"/>
<defs>
<linearGradient id="paint0_linear_2511_2931" x1="2.66667" y1="29.3333" x2="30.6376" y2="1.97032" gradientUnits="userSpaceOnUse">
<stop stop-color="#BDFDE2"/>
<stop offset="1" stop-color="#9BDAF6"/>
</linearGradient>
</defs>
</svg>
