<?xml version="1.0" encoding="UTF-8" standalone="no"?>
<svg
   xmlns:dc="http://purl.org/dc/elements/1.1/"
   xmlns:cc="http://creativecommons.org/ns#"
   xmlns:rdf="http://www.w3.org/1999/02/22-rdf-syntax-ns#"
   xmlns:svg="http://www.w3.org/2000/svg"
   xmlns="http://www.w3.org/2000/svg"
   xmlns:sodipodi="http://sodipodi.sourceforge.net/DTD/sodipodi-0.dtd"
   xmlns:inkscape="http://www.inkscape.org/namespaces/inkscape"
   viewBox="0 0 305.52 305.52"
   class="h-8 w-auto sm:h-10"
   version="1.1"
   id="svg26"
   sodipodi:docname="logo-solo.svg"
   width="305.51999"
   height="305.51999"
   inkscape:version="0.92.5 (2060ec1f9f, 2020-04-08)"
   inkscape:export-filename="/home/ivan/Andina/Design/Defiant/logo-solo-150.png"
   inkscape:export-xdpi="47.130001"
   inkscape:export-ydpi="47.130001">
  <metadata
     id="metadata32">
    <rdf:RDF>
      <cc:Work
         rdf:about="">
        <dc:format>image/svg+xml</dc:format>
        <dc:type
           rdf:resource="http://purl.org/dc/dcmitype/StillImage" />
        <dc:title />
      </cc:Work>
    </rdf:RDF>
  </metadata>
  <defs
     id="defs30" />
  <sodipodi:namedview
     pagecolor="#ffffff"
     bordercolor="#666666"
     borderopacity="1"
     objecttolerance="10"
     gridtolerance="10"
     guidetolerance="10"
     inkscape:pageopacity="0"
     inkscape:pageshadow="2"
     inkscape:window-width="3840"
     inkscape:window-height="2272"
     id="namedview28"
     showgrid="false"
     inkscape:zoom="1.7041754"
     inkscape:cx="242.18921"
     inkscape:cy="104.74478"
     inkscape:window-x="0"
     inkscape:window-y="54"
     inkscape:window-maximized="1"
     inkscape:current-layer="svg26" />
  <g
     id="g855">
    <rect
       style="fill:#00bc59"
       width="305.51999"
       height="305.51999"
       rx="46.580002"
       id="rect2"
       x="0"
       y="0" />
    <path
       style="fill:#ffffff"
       d="m 59.53,157.05 v 0 a 6.74,6.74 0 0 0 -6.71,6.8 6.76,6.76 0 0 0 6.75,6.7 v 0 a 6.75,6.75 0 0 0 0,-13.5 z"
       id="path16"
       inkscape:connector-curvature="0" />
    <path
       style="fill:#ffffff"
       d="M 98,100.48 97,101 a 13.67,13.67 0 0 0 -13,14.06 l 0.06,8.74 h -8.68 c -3.72,0 -7,3.6 -6.94,7.66 a 8,8 0 0 0 2,5.2 6.62,6.62 0 0 0 4.95,2.37 v 0 h 8.06 l 0.11,17.49 -8,0.05 a 6.88,6.88 0 0 0 -4.88,2.08 7.2,7.2 0 0 0 -2.08,5.08 7.13,7.13 0 0 0 2.07,5 6.86,6.86 0 0 0 4.92,2.09 v 0 h 8.09 l 0.18,8.88 a 14.41,14.41 0 0 0 13.94,14.13 h 0.84 l -0.57,-92 z"
       id="path18"
       inkscape:connector-curvature="0" />
    <path
       style="fill:#ffffff"
       d="m 234.88,155.61 v 0 h -6.22 a 67,67 0 0 0 0.52,-8.81 67.93,67.93 0 0 0 -0.63,-8.69 h 6.23 a 6.59,6.59 0 0 0 5,-2.43 7.8,7.8 0 0 0 -0.41,-10.81 6.6,6.6 0 0 0 -4.61,-2 v 0 h -9.49 C 215.07,96.67 185.72,77 156.5,77 h -0.4 l -36,0.22 c -8.16,0 -14.76,7.26 -14.71,16.07 l 0.62,101 49.26,-0.3 c 13.33,-0.08 25.59,-4.59 34.53,-12.69 A 43.36,43.36 0 0 0 204,148.35 c -0.17,-27.22 -20.62,-47.66 -47.64,-47.66 h -0.32 l -30.84,0.19 v 2 c 0.22,7.44 8.1,11.33 15.8,11.33 l 5.1,-0.2 L 160,114 h 0.22 a 29.18,29.18 0 0 1 22.42,9.7 c 5.5,6.14 8.55,14.68 8.61,24.06 a 29.31,29.31 0 0 1 -10.33,22.75 38.2,38.2 0 0 1 -24.71,8.72 l -35.41,-0.48 -1.11,-87.34 36.57,-0.2 h 0.33 a 59.32,59.32 0 0 1 40.09,16.14 c 11.32,10.62 17.6,24.5 17.69,39.09 0.18,30.64 -24.4,55.72 -54.79,55.91 l -46.36,0.28 v 1.93 A 11.51,11.51 0 0 0 124.94,216 h 34.69 c 28.79,0 55.74,-18.84 65.77,-45.89 l 9.54,0.31 a 6.71,6.71 0 0 0 4.73,-2.07 7.68,7.68 0 0 0 2.22,-5.4 c -0.03,-3.9 -3.3,-7.34 -7.01,-7.34 z"
       id="path20"
       inkscape:connector-curvature="0" />
    <path
       style="fill:#ffffff"
       d="m 256.14,126 a 7.15,7.15 0 0 0 -5,-2.07 v 0 a 7.18,7.18 0 0 0 0,14.36 v 0 a 7.18,7.18 0 0 0 5,-12.29 z"
       id="path22"
       inkscape:connector-curvature="0" />
  </g>
</svg>
