<?xml version="1.0" encoding="UTF-8"?>
<svg xmlns="http://www.w3.org/2000/svg" xmlns:xlink="http://www.w3.org/1999/xlink" width="28px" height="28px" viewBox="0 0 28 28" version="1.1">
<g id="surface1">
<rect width="28" height="28" fill="white"/>
<path style=" stroke:none;fill-rule:nonzero;fill:rgb(7.843137%,66.666667%,100%);fill-opacity:1;" d="M 15.355469 8.542969 C 13.25 8.542969 11.195312 9.355469 9.65625 10.792969 C 7.972656 12.375 6.90625 14.707031 6.296875 16.902344 C 5.894531 18.339844 5.695312 19.828125 5.695312 21.320312 C 5.695312 21.769531 5.710938 22.21875 5.75 22.660156 C 5.792969 23.195312 6.316406 23.570312 6.835938 23.429688 C 7.289062 23.304688 7.769531 23.238281 8.261719 23.238281 C 9.273438 23.238281 10.222656 23.515625 11.035156 23.996094 C 11.054688 24.007812 11.074219 24.019531 11.09375 24.03125 C 12.417969 24.820312 13.976562 25.253906 15.640625 25.195312 C 19.976562 25.054688 23.519531 21.523438 23.679688 17.1875 C 23.855469 12.441406 20.0625 8.542969 15.355469 8.542969 Z M 15.355469 20.679688 C 13.253906 20.679688 11.546875 18.976562 11.546875 16.871094 C 11.546875 14.769531 13.253906 13.066406 15.355469 13.066406 C 17.457031 13.066406 19.160156 14.769531 19.160156 16.871094 C 19.160156 18.976562 17.457031 20.679688 15.355469 20.679688 Z M 15.355469 20.679688 "/>
<path style=" stroke:none;fill-rule:nonzero;fill:rgb(0%,45.882353%,100%);fill-opacity:1;" d="M 11.929688 5.917969 C 11.929688 7.015625 11.355469 8.035156 10.410156 8.59375 C 9.816406 8.945312 9.261719 9.359375 8.757812 9.832031 C 7.640625 10.878906 6.808594 12.164062 6.191406 13.4375 C 6.070312 13.6875 5.691406 13.597656 5.691406 13.320312 L 5.691406 5.917969 C 5.691406 4.195312 7.089844 2.800781 8.8125 2.800781 C 10.535156 2.800781 11.929688 4.195312 11.929688 5.917969 Z M 11.929688 5.917969 "/>
</g>
</svg>
