<?xml version="1.0" encoding="UTF-8" standalone="no"?><svg width="2090" height="2090" viewBox="0 0 2090 2090" version="1.1" xml:space="preserve" style="clip-rule:evenodd;fill-rule:evenodd;stroke-linejoin:round;stroke-miterlimit:2" id="svg3" xmlns="http://www.w3.org/2000/svg" xmlns:svg="http://www.w3.org/2000/svg"><defs id="defs3" /><path style="fill:#ffffff;stroke-width:2" d="M 1121.6396,264.42886 C 709.51544,623.61262 1030.2407,9.1016258 559.23047,635.5586 c -21.12834,25.10158 -15.11717,16.58573 -44.69672,67.35616 -18.99748,49.34822 -15.35711,47.63113 -49.08765,96.53918 -34.10109,69.31654 -147.84223,254.20136 -142.44014,332.11106 8.22894,90.9258 182.32573,463.3603 270.09415,487.2346 485.14219,229.4232 755.91369,198.1612 852.63819,-91.1316 125.1825,-118.6762 47.2121,-291.2277 220.4625,-284.6134 60.3002,1.4062 -243.4753,-228.2597 -186.5094,-209.1194 20.1444,-3.2892 114.7412,-32.1058 133.2249,-40.34305 28.2333,-16.9095 27.9305,-19.14493 43.6462,-50.77575 26.099,-43.66292 56.751,-87.47036 72.0937,-136.26562 2.746,-16.18462 -14.105,-32.27054 -30.1721,-32.29804 -48.2585,-6.286 -93.4347,-29.13682 -128.7849,-62.08478 -39.1015,-38.03366 -55.2837,-95.2377 -48.195,-148.68182 8.4876,-54.97732 24.6269,-108.50752 34.1166,-163.3466 11.678,-62.87414 23.2312,-126.04698 29.5276,-189.65516 -23.4639,-8.98503 -51.3379,10.76969 -50.1663,36.0677 -13.4378,89.06776 -47.9633,138.04347 -38.5173,69.30338 11.0921,-68.20902 61.7449,-228.916389 35.9258,-239.83986 -143.9841,-60.916313 -169.2046,-18.768417 -410.751,188.41326 z" id="path9" /><g transform="matrix(1.30826,0,0,1.30826,-588.99173,-1210.6527)" id="g3"><path d="m 1060.8634,2521.93 c -283.33402,-11.76 -509.75602,-245.5 -509.75602,-531.7 0,-192.4 102.327,-361.09 255.481,-454.57 -25.904,62.6 -40.201,131.21 -40.201,203.13 0,9.99 0.277,19.93 0.822,29.79 3.983,70.83 50.696,132.1 117.94398,154.69 67.24807,22.59 141.47404,1.95 187.41204,-52.11 96.572,-113.78 237.382,-187.04 387.812,-187.04 20.81,0 41.16,1.4 61,4.12 123.96,16.96 227.6,85.25 292.48,183.78 3.07,4.66 6.05,9.38 8.94,14.17 -4.75,1.35 -9.44,2.82 -14.1,4.39 -99.52,33.75 -177.84,119.1 -206.92,219.79 -1.98,6.85 -3.73,13.78 -5.24,20.76 -5.84,21.3 -12.98,42.07 -21.32,62.22 -79.88,193.06 -270.16,329.04 -491.953,329.04 -7.504,0 -14.972,-0.16 -22.401,-0.46 z m 79.424,-590.12 c 81.01,-24.35 174.09,-29.22 273.06,-10.56 10.51,85.98 39.3,170.76 82.67,247.65 6.69,-71.79 32.32,-140.6 71.94,-199.99 27.88,-41.8 62.68,-78.93 102.68,-109.16 -58.4,-49.35 -134.19,-78.65 -219.28,-78.65 -12.97,0 -25.86,0.68 -38.62,2.01 -106.05,11.05 -203.52,66.88 -272.45,148.7 z" style="fill:#8522cf" id="path1" /><g transform="translate(149.33418,-20.0428)" id="g1"><circle cx="1344.15" cy="1494.37" r="40.502998" style="fill:#8522cf" id="circle1" /></g><g transform="matrix(0.764377,0,0,0.764377,301.56538,383.222)" id="g2"><path d="m 1673.38,1124.63 c 15.41,-76.43 26.69,-151.41 34.03,-223.959 2.78,-27.411 4.99,-54.475 6.65,-81.138 -109.71,-8.379 -230.43,31.164 -341.26,109.394 -57.97,40.916 -113.24,92.413 -162.81,153.173 l -1.35,1.66 c -212.117,29.2 -393.881,154.11 -500.243,329.7 0.369,-8.61 0.797,-17.27 1.285,-25.97 70.634,-390.46 305.578,-583.43 583.418,-650.202 80.02,-19.229 163.59,-27.992 247.82,-27.992 61.92,0 121.14,6.873 176.69,19.658 9.89,2.278 19.67,4.743 29.32,7.391 16.44,4.507 32.52,9.542 48.22,15.079 38.2,13.47 74.13,29.908 107.4,48.927 26.99,15.433 52.23,32.565 75.51,51.191 57.8,46.259 103.48,101.731 133.77,163.258 40.84,82.94 53.71,176.88 30.63,274.09 -12.95,54.55 -35.55,107.27 -66.16,157.09 -6.2,10.08 -12.72,20.04 -19.56,29.88 -6.79,9.76 -13.89,19.39 -21.29,28.89 -19.21,24.69 -40.42,48.46 -63.41,71.16 -6.22,6.14 -12.57,12.21 -19.04,18.19 -39.24,36.27 -83.07,69.56 -130.46,99.19 14.95,-20.15 29.19,-41.34 42.59,-63.5 20.89,-34.54 38.74,-69.77 53.59,-105.18 0.35,-0.75 0.67,-1.53 0.96,-2.31 1.1,-3.01 1.7,-6.26 1.7,-9.65 0,-5.9 -1.81,-11.38 -4.92,-15.9 -1.63,-2.36 -3.6,-4.43 -5.82,-6.16 -1.93,-1.5 -4.05,-2.74 -6.3,-3.69 -2.77,-1.16 -5.74,-1.89 -8.81,-2.11 -0.99,-0.09 -1.99,-0.17 -3,-0.27 -10.95,-1.02 -22.35,-3.25 -34.12,-6.65 -36.45,-12.66 -69.27,-32.47 -97.06,-57.89 -40.13,-44.38 -57.4,-106.96 -42.33,-168.05 2.7898,-11.1516 5.4346,-22.3383 8.1,-33.52 17.47,-74.29 31.61,-147.7 42.54,-219.557 2.95,-19.358 5.66,-38.603 8.14,-57.724 0.91,-7.038 1.79,-14.059 2.64,-21.062 -10.62,-4.371 -22.67,-3.538 -32.59,2.254 -9.93,5.792 -16.58,15.878 -17.99,27.278 -11.7269,91.7006 -28.1434,178.2935 -46.96,258.411 -3.25,13.83 -13.4896,27.58 -10.0496,41.24 0.3884,1.5307 -2.6051,1.4062 -2.8504,-0.11 -4.07,-24.65 -5.32,-50.41 -3.42,-76.91 1.4491,-20.1536 3.8719,-33.0157 6.8,-47.6 z" style="fill:#8522cf" id="path2" /></g><path style="fill:#ffffff;stroke-width:0.764374" d="m 1694.6858,1677.5176 c -1244.4758,-752.12609 -1244.4758,-752.12609 0,0 z" id="path4" /></g></svg>