<svg xmlns="http://www.w3.org/2000/svg" width="84" height="78" fill="none"><g clip-path="url(#a)"><path fill="#99B3FF" d="M62.28 39.242 57.215 49.29a14.95 14.95 0 0 1-13.342 8.228H10.177C4.571 57.497 0 62.088 0 67.674s4.571 10.177 10.177 10.177h68.75c4.068 0 6.48-4.55 4.189-7.916L62.289 39.242z"/><path fill="#36F" d="M73.813 0H15.35C6.871 0 0 6.872 0 15.351v52.323c0-5.586 4.571-10.177 10.177-10.177h33.707c5.636 0 10.8-3.185 13.342-8.228L78.334 7.334C80.032 3.968 77.59 0 73.813 0"/><path fill="#DAFF86" d="M45.512 31.617c3.415 0 6.188-2.16 6.188-4.833s-2.773-4.832-6.189-4.832-6.188 2.16-6.188 4.832c0 2.673 2.773 4.833 6.188 4.833"/></g><defs><clipPath id="a"><path fill="#fff" d="M0 0h84v77.851H0z"/></clipPath></defs></svg>