<svg width="32" height="32" viewBox="0 0 32 32" fill="white" xmlns="http://www.w3.org/2000/svg" style="max-width: 24px;"><path d="M0 3.73723C0 1.67321 1.67321 0 3.73723 0H28.2628C30.3268 0 32 1.67321 32 3.73723V28.2628C32 30.3268 30.3268 32 28.2628 32H3.73723C1.67321 32 0 30.3268 0 28.2628V3.73723Z" fill="url(#paint0_linear_16076_108778)"></path><g filter="url(#filter0_d_16076_108778)"><path d="M26.7024 24.7588L16.7836 7.24054L6.86435 24.7588L26.7024 24.7588ZM9.8132 15.4522L14.3707 7.24054H5.25586L9.8132 15.4522ZM22.6516 22.4399L10.9156 22.4399L16.7836 12.0758L22.6516 22.4399Z" fill="white"></path></g><defs><filter id="filter0_d_16076_108778" x="1.25586" y="3.24072" width="29.4473" height="25.5181" filterUnits="userSpaceOnUse" color-interpolation-filters="sRGB"><feFlood flood-opacity="0" result="BackgroundImageFix"></feFlood><feColorMatrix in="SourceAlpha" type="matrix" values="0 0 0 0 0 0 0 0 0 0 0 0 0 0 0 0 0 0 127 0" result="hardAlpha"></feColorMatrix><feOffset></feOffset><feGaussianBlur stdDeviation="2"></feGaussianBlur><feComposite in2="hardAlpha" operator="out"></feComposite><feColorMatrix type="matrix" values="0 0 0 0 0.227451 0 0 0 0 0.282353 0 0 0 0 0.380392 0 0 0 0.25 0"></feColorMatrix><feBlend mode="normal" in2="BackgroundImageFix" result="effect1_dropShadow_16076_108778"></feBlend><feBlend mode="normal" in="SourceGraphic" in2="effect1_dropShadow_16076_108778" result="shape"></feBlend></filter><linearGradient id="paint0_linear_16076_108778" x1="7.75644" y1="35.2225" x2="27.9906" y2="-5.20843" gradientUnits="userSpaceOnUse"><stop stop-color="#1359ED"></stop><stop offset="0.499698" stop-color="#588EFF"></stop><stop offset="1" stop-color="#558CFF"></stop></linearGradient></defs></svg>