<svg xmlns="http://www.w3.org/2000/svg" width="28" height="28" fill="none"><path fill="#7524F9" d="M0 0h28v28H0z"/><path fill="#fff" fill-rule="evenodd" d="M21.556 9.808v.86a.463.463 0 0 1-.244.41l-2.849 1.598L21.01 14.1c.166.093.304.227.4.39.096.161.147.345.147.531v2.291c0 .187-.05.37-.147.533a1.078 1.078 0 0 1-.4.39l-6.695 3.734a1.117 1.117 0 0 1-1.093 0l-2.191-1.23a.24.24 0 0 1-.122-.205.232.232 0 0 1 .122-.205l7.231-4.047a.116.116 0 0 0 0-.204l-2.685-1.509a.497.497 0 0 0-.486 0l-7.344 4.114a.373.373 0 0 1-.365 0l-.832-.462a1.08 1.08 0 0 1-.402-.39A1.04 1.04 0 0 1 6 17.295v-.936a.347.347 0 0 1 .182-.308l10.53-5.884a.12.12 0 0 0 .061-.102.116.116 0 0 0-.06-.103l-2.69-1.513a.497.497 0 0 0-.485 0l-7.173 4.012a.249.249 0 0 1-.332-.087.232.232 0 0 1-.033-.118v-2.46c0-.187.05-.37.146-.533a1.08 1.08 0 0 1 .4-.39l6.694-3.732a1.118 1.118 0 0 1 1.09 0l6.679 3.745c.166.094.304.228.4.39.096.161.146.344.147.531Z" clip-rule="evenodd"/></svg>