<svg width="200" height="199" viewBox="0 0 200 199" fill="none" xmlns="http://www.w3.org/2000/svg">
<path d="M188.279 99.5269H166.593C160.116 99.5269 154.867 104.742 154.867 111.177V142.451C154.867 148.886 149.619 154.1 143.142 154.1H56.865C50.388 154.1 45.1396 159.315 45.1396 165.75V187.297C45.1396 193.732 50.388 198.946 56.865 198.946H148.136C154.613 198.946 159.786 193.732 159.786 187.297V170.009C159.786 163.575 165.035 159.01 171.512 159.01H188.275C194.752 159.01 200 153.795 200 147.36V111.042C200 104.606 194.752 99.5269 188.275 99.5269H188.279Z" fill="#12FF80"/>
<path d="M45.1374 56.7212C45.1374 50.2856 50.3857 45.0714 56.8627 45.0714H143.087C149.564 45.0714 154.812 39.8565 154.812 33.4216V11.8748C154.812 5.43959 149.564 0.225098 143.087 0.225098H51.8645C45.3875 0.225098 40.1392 5.43959 40.1392 11.8748V28.4771C40.1392 34.9127 34.8908 40.1269 28.4138 40.1269H11.7254C5.24832 40.1269 0 45.3418 0 51.7766V88.134C0 94.5695 5.27027 99.5227 11.7473 99.5227H33.434C39.911 99.5227 45.1593 94.3078 45.1593 87.873L45.1374 56.7255V56.7212Z" fill="#12FF80"/>
<path d="M89.7955 76.8794H110.626C117.414 76.8794 122.922 82.3553 122.922 89.0958V109.793C122.922 116.537 117.41 122.009 110.626 122.009H89.7955C83.0067 122.009 77.499 116.533 77.499 109.793V89.0958C77.499 82.351 83.011 76.8794 89.7955 76.8794Z" fill="#12FF80"/>
</svg>
