<?xml version="1.0" encoding="iso-8859-1"?>
<!-- Uploaded to: SVG Repo, www.svgrepo.com, Generator: SVG Repo Mixer Tools -->
<svg height="800px" width="800px" version="1.1" id="Layer_1" xmlns="http://www.w3.org/2000/svg" xmlns:xlink="http://www.w3.org/1999/xlink" 
	 viewBox="0 0 511.999 511.999" xml:space="preserve">
<polygon style="fill:#FF7D46;" points="210.171,99.26 482.428,99.26 482.428,390.339 "/>
<path style="fill:#FBC640;" d="M448.826,447.789H63.175c-29.058,0-52.613-23.555-52.613-52.612V98.518
	c0-18.947,15.36-34.307,34.307-34.307h113.218c8.976,0,17.594,3.518,24.007,9.799l73.905,72.396h245.44v248.771
	C501.438,424.234,477.883,447.789,448.826,447.789z"/>
<g>
	<path style="fill:#231F20;" d="M501.438,135.844h-8.449V99.259c0-5.832-4.729-10.561-10.561-10.561H212.18l-22.697-22.233
		c-8.437-8.264-19.587-12.816-31.397-12.816H44.868C20.128,53.649,0,73.777,0,98.518v296.66c0,34.834,28.34,63.174,63.174,63.174
		h385.652c34.834,0,63.174-28.34,63.174-63.174V146.406C512,140.573,507.271,135.844,501.438,135.844z M471.866,109.822v26.024
		H260.31l-26.566-26.024H471.866z M490.877,395.176c0,23.187-18.864,42.051-42.051,42.051H63.174
		c-23.187,0.001-42.051-18.864-42.051-42.051V98.518c0-13.092,10.652-23.744,23.745-23.744h113.218
		c6.25,0,12.151,2.408,16.616,6.783l55.421,54.289h-23.588c-5.833,0-10.561,4.729-10.561,10.561c0,5.832,4.728,10.561,10.561,10.561
		h284.341V395.176z"/>
	<path style="fill:#231F20;" d="M175.858,234.083c-29.118,0-52.807,23.689-52.807,52.807s23.689,52.807,52.807,52.807
		c25.502,0,46.838-18.171,51.745-42.246h100.617v31.684c0,5.832,4.729,10.561,10.561,10.561s10.561-4.729,10.561-10.561v-31.684
		h18.483v17.603c0,5.832,4.729,10.561,10.561,10.561s10.561-4.729,10.561-10.561V286.89c0-5.832-4.729-10.561-10.561-10.561H227.603
		C222.697,252.254,201.361,234.083,175.858,234.083z M175.858,318.575c-17.471,0-31.684-14.214-31.684-31.684
		c0-17.471,14.214-31.684,31.684-31.684s31.684,14.214,31.684,31.684C207.543,304.361,193.329,318.575,175.858,318.575z"/>
	<path style="fill:#231F20;" d="M155.138,156.967h2.817c5.833,0,10.561-4.729,10.561-10.561s-4.728-10.561-10.561-10.561h-2.817
		c-5.833,0-10.561,4.729-10.561,10.561S149.305,156.967,155.138,156.967z"/>
</g>
</svg>