<svg xmlns="http://www.w3.org/2000/svg" xmlns:xlink="http://www.w3.org/1999/xlink" viewBox="0 0 40 40"><path d="M 22.302 40 C 18.914 40 15.885 39.297 13.215 37.892 C 10.545 36.486 8.432 34.488 6.918 31.899 C 5.403 29.309 4.646 26.276 4.646 22.762 C 4.646 19.248 5.403 16.214 6.918 13.625 C 8.432 11.035 10.545 9.038 13.215 7.632 C 15.885 6.226 18.954 5.523 22.382 5.523 C 25.81 5.523 28.839 6.226 31.509 7.632 C 34.139 9.038 36.212 11.035 37.727 13.625 C 39.241 16.214 39.998 19.248 39.998 22.762 C 39.998 26.276 39.241 29.309 37.727 31.899 C 36.212 34.488 34.1 36.486 31.469 37.892 C 28.759 39.297 25.73 40 22.302 40 Z" fill="rgb(54,54,71)"></path><g><defs><linearGradient id="idss459513152_2g1403720670" x1="0.9134623574228057" x2="0.22396614229704115" y1="1" y2="0.1661922751280992"><stop offset="0" stop-color="rgb(68,255,178)" stop-opacity="1"></stop><stop offset="0.19411115943589566" stop-color="rgba(71, 252, 181, 1)" stop-opacity="1"></stop><stop offset="1" stop-color="rgb(133,94,255)" stop-opacity="1"></stop></linearGradient></defs><path d="M 36.829 20.191 C 36.829 29.87 28.671 37.739 18.581 37.739 C 8.491 37.739 0.333 29.87 0.333 20.191 C 0.333 10.512 8.491 2.643 18.581 2.643 C 28.671 2.643 36.829 10.512 36.829 20.191 Z" fill="url(#idss459513152_2g1403720670)" stroke-width="0.67" stroke="rgb(54,54,71)" stroke-miterlimit="8.333333333333334"></path></g><path d="M 19.515 25.21 C 22.624 25.21 25.095 22.824 25.095 19.907 C 25.095 16.99 22.584 14.603 19.515 14.603 C 16.446 14.603 13.935 16.99 13.935 19.907 C 13.935 22.824 16.406 25.21 19.515 25.21 Z" fill="rgb(41,41,54)"></path><path d="M 32.262 11.372 L 37.523 6.372 C 38.672 5.28 38.411 3.364 37.085 2.104 C 35.76 0.845 33.763 0.605 32.624 1.687 L 27.363 6.688 C 26.215 7.78 26.476 9.695 27.802 10.956 C 29.126 12.215 31.124 12.455 32.262 11.372 Z" fill="rgb(255,255,255)" stroke-width="0.4" stroke="rgb(52,52,57)" stroke-miterlimit="8.333333333333334"></path></svg>