<svg width="144" height="144" viewBox="0 0 144 144" fill="none" xmlns="http://www.w3.org/2000/svg"><g clip-path="url(#clip0_1397_3687)"><path fill="#0255EB" d="M0 115.775h144v28.224H0zM72 79.41a21.795 21.795 0 0 1-15.41-6.38A21.783 21.783 0 0 1 72 35.838V18.004a39.631 39.631 0 0 0-22.014 6.676 39.613 39.613 0 0 0-16.848 40.663 39.608 39.608 0 0 0 10.844 20.281 39.626 39.626 0 0 0 43.18 8.587 39.622 39.622 0 0 0 17.783-14.589 39.601 39.601 0 0 0 6.677-22.007h-17.85a21.76 21.76 0 0 1-6.367 15.41A21.773 21.773 0 0 1 72 79.41z"/><path d="M93.792 35.828H72v21.786h21.792V35.828z" fill="#00E697"/><path d="M143.982 112.496c-21.604-5.182-46.052-8.109-71.991-8.109-25.94 0-50.387 2.927-71.991 8.109v3.242a28.247 28.247 0 0 0 8.276 19.976 28.258 28.258 0 0 0 19.98 8.275h87.489c7.493 0 14.68-2.977 19.979-8.275A28.247 28.247 0 0 0 144 115.738l-.018-3.242z" fill="url(#paint0_linear_1397_3687)"/><path d="M143.982 115.753c-21.442-5.409-45.95-8.48-71.991-8.48-26.041 0-50.55 3.071-71.991 8.48a28.25 28.25 0 0 0 28.255 28.251h87.49A28.249 28.249 0 0 0 144 115.753h-.018z" fill="#0255EB"/><path d="M56.453 132.612H52.65l-2.965-13.181-3.025 13.181h-3.804l-3.35-15.126h2.614l2.682 12.709 3.002-12.709h3.785l2.918 12.662 2.669-12.662h2.659l-3.382 15.126zM72.056 121.141v11.453h-2.483v-1.537a5.046 5.046 0 0 1-1.677 1.264c-.66.31-1.38.469-2.108.463a5.31 5.31 0 0 1-2.83-.801 6.063 6.063 0 0 1-2.076-8.077 5.78 5.78 0 0 1 2.062-2.149 5.345 5.345 0 0 1 2.83-.792 4.858 4.858 0 0 1 2.108.463 5.184 5.184 0 0 1 1.677 1.241v-1.533l2.497.005zm-4.17 8.892a3.63 3.63 0 0 0 1.316-1.32c.313-.548.473-1.17.463-1.801a3.613 3.613 0 0 0-3.632-3.655 3.493 3.493 0 0 0-1.802.487 3.661 3.661 0 0 0-1.33 1.32 3.456 3.456 0 0 0-.495 1.824 3.634 3.634 0 0 0 1.802 3.145 3.684 3.684 0 0 0 3.655 0h.023zM74.456 132.612v-15.126h2.488v15.126h-2.488zM79.32 132.612v-15.126h2.488v15.126H79.32zM92.675 121.756a5.863 5.863 0 0 1 2.942 5.094c-.002.31-.024.62-.065.927H86.26c.094.519.3 1.012.603 1.445a3.43 3.43 0 0 0 1.278 1.019 4.023 4.023 0 0 0 1.575.324 4.239 4.239 0 0 0 1.853-.436 3.99 3.99 0 0 0 1.358-.991l2.186.602a5.028 5.028 0 0 1-2.186 2.163 6.554 6.554 0 0 1-3.243.866 5.75 5.75 0 0 1-2.96-.801 5.964 5.964 0 0 1-2.16-2.163 5.866 5.866 0 0 1 0-5.919 5.854 5.854 0 0 1 2.16-2.148 5.927 5.927 0 0 1 5.92 0l.032.018zm-4.46 1.825a3.642 3.642 0 0 0-1.233.926c-.333.393-.567.86-.68 1.362h6.897a3.42 3.42 0 0 0-.704-1.362 3.7 3.7 0 0 0-1.219-.926 3.543 3.543 0 0 0-3.062 0zM98.772 118.418h2.441v2.742h3.526v2.186h-3.526v5.358c-.003.304.08.603.241.861.157.259.375.475.635.63.265.157.568.238.876.236h1.88v2.182h-2.399a3.509 3.509 0 0 1-1.853-.496 3.708 3.708 0 0 1-1.344-1.352 3.623 3.623 0 0 1-.495-1.853v-5.557h-2.16v-2.186h2.16l.018-2.751z" fill="#fff"/></g><defs><linearGradient id="paint0_linear_1397_3687" x1="-97.68" y1="124.19" x2="247.975" y2="124.19" gradientUnits="userSpaceOnUse"><stop offset=".25" stop-color="#fff"/><stop offset=".5" stop-color="#00E79D"/><stop offset=".75" stop-color="#fff"/></linearGradient><clipPath id="clip0_1397_3687"><path fill="#fff" d="M0 0h144v144H0z"/></clipPath></defs></svg>
