<svg xmlns="http://www.w3.org/2000/svg" width="192" height="192" fill="none"><g clip-path="url(#a)"><rect width="192" height="192" fill="#fff" rx="8"/><g clip-path="url(#b)"><path fill="#0255EB" d="M0 154.367h192v37.632H0zM96 105.88a29.06 29.06 0 0 1-20.545-8.508 29.043 29.043 0 0 1 0-41.079A29.06 29.06 0 0 1 96 47.785v-23.78a52.84 52.84 0 0 0-29.35 8.901A52.8 52.8 0 0 0 47.19 56.61a52.8 52.8 0 0 0 11.453 57.557 52.845 52.845 0 0 0 57.573 11.449A52.805 52.805 0 0 0 148.83 76.82h-23.799a29 29 0 0 1-8.49 20.546 29.03 29.03 0 0 1-20.54 8.514"/><path fill="#00E697" d="M125.056 47.771H96v29.047h29.056z"/><path fill="url(#c)" d="M191.975 149.995c-28.805-6.91-61.402-10.813-95.987-10.813-34.586 0-67.183 3.903-95.988 10.813v4.322c0 9.99 3.97 19.571 11.034 26.635a37.68 37.68 0 0 0 26.64 11.033h116.652a37.68 37.68 0 0 0 26.64-11.033A37.67 37.67 0 0 0 192 154.317z"/><path fill="#0255EB" d="M191.975 154.338c-28.588-7.213-61.266-11.307-95.987-11.307-34.722 0-67.4 4.094-95.988 11.307 0 9.99 3.97 19.571 11.034 26.635a37.68 37.68 0 0 0 26.64 11.032h116.652A37.665 37.665 0 0 0 192 154.338z"/><path fill="#fff" d="M75.27 176.816H70.2l-3.954-17.574-4.033 17.574h-5.071l-4.466-20.168h3.483l3.577 16.945 4.003-16.945h5.046l3.891 16.883 3.558-16.883h3.546zM96.074 161.521v15.271h-3.31v-2.05a6.7 6.7 0 0 1-2.236 1.686 6.5 6.5 0 0 1-2.811.617 7.07 7.07 0 0 1-3.774-1.068 8.08 8.08 0 0 1-2.767-10.769 7.7 7.7 0 0 1 2.748-2.865 7.1 7.1 0 0 1 3.774-1.056 6.5 6.5 0 0 1 2.81.617c.85.394 1.612.958 2.237 1.655v-2.044zm-5.559 11.857a4.85 4.85 0 0 0 1.754-1.76c.418-.731.631-1.561.618-2.402a4.8 4.8 0 0 0-1.4-3.451 4.8 4.8 0 0 0-3.443-1.422 4.67 4.67 0 0 0-2.402.649 4.9 4.9 0 0 0-1.773 1.76 4.6 4.6 0 0 0-.661 2.433 4.84 4.84 0 0 0 2.403 4.193 4.91 4.91 0 0 0 4.873 0zM99.275 176.816v-20.168h3.317v20.168zM105.76 176.816v-20.168h3.317v20.168zM123.567 162.341a7.81 7.81 0 0 1 3.923 6.793 10 10 0 0 1-.087 1.235h-12.39c.124.693.398 1.35.803 1.926a4.6 4.6 0 0 0 1.704 1.359 5.4 5.4 0 0 0 2.1.432 5.66 5.66 0 0 0 2.471-.58 5.3 5.3 0 0 0 1.81-1.322l2.915.803a6.7 6.7 0 0 1-2.915 2.884 8.75 8.75 0 0 1-4.324 1.154 7.66 7.66 0 0 1-3.947-1.068 7.96 7.96 0 0 1-2.878-2.884 7.82 7.82 0 0 1 0-7.891 7.8 7.8 0 0 1 2.878-2.865 7.9 7.9 0 0 1 7.894 0zm-5.948 2.433a4.9 4.9 0 0 0-1.643 1.235 4.3 4.3 0 0 0-.908 1.816h9.197a4.55 4.55 0 0 0-.939-1.816 4.9 4.9 0 0 0-1.624-1.235 4.74 4.74 0 0 0-4.083 0M131.696 157.891h3.255v3.655h4.701v2.915h-4.701v7.144c-.005.406.107.805.321 1.149.21.345.5.633.847.84.353.208.757.317 1.167.315h2.508v2.908h-3.2a4.7 4.7 0 0 1-2.47-.661 4.93 4.93 0 0 1-1.792-1.803 4.84 4.84 0 0 1-.661-2.47v-7.41h-2.878v-2.914h2.878z"/></g></g><defs><clipPath id="a"><rect width="192" height="192" fill="#fff" rx="8"/></clipPath><clipPath id="b"><path fill="#fff" d="M0 0h192v192H0z"/></clipPath><linearGradient id="c" x1="-130.24" x2="330.633" y1="165.587" y2="165.587" gradientUnits="userSpaceOnUse"><stop offset=".25" stop-color="#fff"/><stop offset=".5" stop-color="#00E79D"/><stop offset=".75" stop-color="#fff"/></linearGradient></defs></svg>