<?xml version="1.0" encoding="iso-8859-1"?>
<!-- Uploaded to: SVG Repo, www.svgrepo.com, Generator: SVG Repo Mixer Tools -->
<svg fill="#000000" height="800px" width="800px" version="1.1" id="Layer_1" xmlns="http://www.w3.org/2000/svg" xmlns:xlink="http://www.w3.org/1999/xlink" 
	 viewBox="0 0 491.52 491.52" xml:space="preserve">
<g>
	<g>
		<path d="M358.4,163.84v-40.96h-20.48v74.47c0,9.75-7.935,17.69-17.685,17.69H171.29c-9.755,0-17.69-7.94-17.69-17.69v-74.47
			h-20.48v40.96H0v327.68h491.52V163.84H358.4z M133.12,184.32v13.03c0,21.05,17.125,38.17,38.17,38.17h148.945
			c21.045,0,38.165-17.12,38.165-38.17v-13.03h92.746L245.76,336.86L40.379,184.32H133.12z M20.48,195.05l147.702,109.708
			L20.48,456.124V195.05z M34.539,471.04l150.232-153.96l60.989,45.3l60.992-45.302L456.981,471.04H34.539z M471.04,456.124
			L323.342,304.756L471.04,195.053V456.124z"/>
	</g>
</g>
<g>
	<g>
		<polygon points="303.685,86.78 256,134.461 256,0 235.52,0 235.52,134.46 187.84,86.78 173.36,101.26 245.76,173.66 
			318.165,101.26 		"/>
	</g>
</g>
</svg>