<?xml version="1.0" encoding="UTF-8" standalone="no"?>
<!DOCTYPE svg PUBLIC "-//W3C//DTD SVG 1.1//EN" "http://www.w3.org/Graphics/SVG/1.1/DTD/svg11.dtd">
<svg width="100%" height="100%" viewBox="0 0 48 48" version="1.1" xmlns="http://www.w3.org/2000/svg" xmlns:xlink="http://www.w3.org/1999/xlink" xml:space="preserve" xmlns:serif="http://www.serif.com/" style="fill-rule:evenodd;clip-rule:evenodd;stroke-linejoin:round;stroke-miterlimit:2;">
    <g transform="matrix(1.05772,0,0,1.09797,-2.77062,-4.7027)">
        <rect x="2.619" y="4.283" width="45.381" height="43.717" style="fill:rgb(102,26,227);"/>
    </g>
    <g transform="matrix(1.07114,0,0,1.07114,-1.70644,-1.70754)">
        <path d="M17.607,9.834C5.765,15.16 5.484,32.269 17.146,37.938C18.509,38.601 18.559,38.585 18.143,37.614C16.889,34.687 15.849,29.612 16.561,29.891C21.183,31.699 26.575,31.752 30.907,30.031C32.14,29.541 31.668,33.08 29.918,37.446C29.45,38.612 29.465,38.621 30.752,37.988C42.48,32.211 42.289,15.193 30.436,9.859C29.512,9.444 29.448,9.492 29.819,10.318C30.446,11.711 31.216,14.492 31.589,16.707C31.866,18.355 31.857,18.381 31.141,18.063C27.108,16.276 21.28,16.277 16.668,18.066C15.865,18.377 16.679,14.021 18.073,10.545C18.513,9.447 18.502,9.432 17.607,9.834ZM26.371,20.514C33.634,21.494 34.698,25.589 28.098,27.161C21.774,28.666 14.113,26.316 15.514,23.3C16.468,21.245 21.747,19.89 26.371,20.514Z" style="fill:white;"/>
    </g>
</svg>
