<?xml version="1.0" encoding="UTF-8" standalone="no"?>
<!DOCTYPE svg PUBLIC "-//W3C//DTD SVG 1.1//EN" "http://www.w3.org/Graphics/SVG/1.1/DTD/svg11.dtd">
<svg width="100%" height="100%" viewBox="0 0 28 28" version="1.1" xmlns="http://www.w3.org/2000/svg" xmlns:xlink="http://www.w3.org/1999/xlink" xml:space="preserve" xmlns:serif="http://www.serif.com/" style="fill-rule:evenodd;clip-rule:evenodd;stroke-linecap:round;stroke-linejoin:round;">
    <g transform="matrix(6.12323e-17,1,-1,6.12323e-17,28,0)">
        <rect x="0" y="0" width="28" height="28" style="fill:white;"/>
    </g>
    <g transform="matrix(-1,-1.22465e-16,1.22465e-16,-1,28,27.0157)">
        <path d="M24.089,3.12L15.345,9.615L16.962,5.783L24.089,3.12Z" style="fill:rgb(226,118,27);fill-rule:nonzero;stroke:rgb(226,118,27);stroke-width:0.09px;"/>
    </g>
    <g transform="matrix(-1,-1.22465e-16,1.22465e-16,-1,28,27.0157)">
        <path d="M3.902,3.12L12.576,9.676L11.038,5.783L3.902,3.12Z" style="fill:rgb(228,118,27);fill-rule:nonzero;stroke:rgb(228,118,27);stroke-width:0.09px;"/>
    </g>
    <g transform="matrix(-1,-1.22465e-16,1.22465e-16,-1,28,27.0157)">
        <path d="M20.943,18.174L18.614,21.743L23.597,23.114L25.03,18.254L20.943,18.174Z" style="fill:rgb(228,118,27);fill-rule:nonzero;stroke:rgb(228,118,27);stroke-width:0.09px;"/>
    </g>
    <g transform="matrix(-1,-1.22465e-16,1.22465e-16,-1,28,27.0157)">
        <path d="M2.979,18.254L4.403,23.114L9.386,21.743L7.057,18.174L2.979,18.254Z" style="fill:rgb(228,118,27);fill-rule:nonzero;stroke:rgb(228,118,27);stroke-width:0.09px;"/>
    </g>
    <g transform="matrix(-1,-1.22465e-16,1.22465e-16,-1,28,27.0157)">
        <path d="M9.105,12.146L7.716,14.246L12.664,14.466L12.488,9.149L9.105,12.146Z" style="fill:rgb(228,118,27);fill-rule:nonzero;stroke:rgb(228,118,27);stroke-width:0.09px;"/>
    </g>
    <g transform="matrix(-1,-1.22465e-16,1.22465e-16,-1,28,27.0157)">
        <path d="M18.886,12.146L15.459,9.087L15.345,14.466L20.284,14.246L18.886,12.146Z" style="fill:rgb(228,118,27);fill-rule:nonzero;stroke:rgb(228,118,27);stroke-width:0.09px;"/>
    </g>
    <g transform="matrix(-1,-1.22465e-16,1.22465e-16,-1,28,27.0157)">
        <path d="M9.386,21.743L12.357,20.293L9.79,18.289L9.386,21.743Z" style="fill:rgb(228,118,27);fill-rule:nonzero;stroke:rgb(228,118,27);stroke-width:0.09px;"/>
    </g>
    <g transform="matrix(-1,-1.22465e-16,1.22465e-16,-1,28,27.0157)">
        <path d="M15.635,20.293L18.614,21.743L18.201,18.289L15.635,20.293Z" style="fill:rgb(228,118,27);fill-rule:nonzero;stroke:rgb(228,118,27);stroke-width:0.09px;"/>
    </g>
    <g transform="matrix(-1,-1.22465e-16,1.22465e-16,-1,28,27.0157)">
        <path d="M18.614,21.743L15.635,20.293L15.872,22.235L15.846,23.052L18.614,21.743Z" style="fill:rgb(215,193,179);fill-rule:nonzero;stroke:rgb(215,193,179);stroke-width:0.09px;"/>
    </g>
    <g transform="matrix(-1,-1.22465e-16,1.22465e-16,-1,28,27.0157)">
        <path d="M9.386,21.743L12.154,23.052L12.137,22.235L12.357,20.293L9.386,21.743Z" style="fill:rgb(215,193,179);fill-rule:nonzero;stroke:rgb(215,193,179);stroke-width:0.09px;"/>
    </g>
    <g transform="matrix(-1,-1.22465e-16,1.22465e-16,-1,28,27.0157)">
        <path d="M12.198,17.006L9.72,16.276L11.469,15.477L12.198,17.006Z" style="fill:rgb(35,52,71);fill-rule:nonzero;stroke:rgb(35,52,71);stroke-width:0.09px;"/>
    </g>
    <g transform="matrix(-1,-1.22465e-16,1.22465e-16,-1,28,27.0157)">
        <path d="M15.793,17.006L16.522,15.477L18.28,16.276L15.793,17.006Z" style="fill:rgb(35,52,71);fill-rule:nonzero;stroke:rgb(35,52,71);stroke-width:0.09px;"/>
    </g>
    <g transform="matrix(-1,-1.22465e-16,1.22465e-16,-1,28,27.0157)">
        <path d="M9.386,21.743L9.808,18.174L7.057,18.254L9.386,21.743Z" style="fill:rgb(205,97,22);fill-rule:nonzero;stroke:rgb(205,97,22);stroke-width:0.09px;"/>
    </g>
    <g transform="matrix(-1,-1.22465e-16,1.22465e-16,-1,28,27.0157)">
        <path d="M18.192,18.174L18.614,21.743L20.943,18.254L18.192,18.174Z" style="fill:rgb(205,97,22);fill-rule:nonzero;stroke:rgb(205,97,22);stroke-width:0.09px;"/>
    </g>
    <g transform="matrix(-1,-1.22465e-16,1.22465e-16,-1,28,27.0157)">
        <path d="M20.284,14.246L15.345,14.466L15.802,17.006L16.531,15.477L18.289,16.276L20.284,14.246Z" style="fill:rgb(205,97,22);fill-rule:nonzero;stroke:rgb(205,97,22);stroke-width:0.09px;"/>
    </g>
    <g transform="matrix(-1,-1.22465e-16,1.22465e-16,-1,28,27.0157)">
        <path d="M9.72,16.276L11.478,15.477L12.198,17.006L12.664,14.466L7.716,14.246L9.72,16.276Z" style="fill:rgb(205,97,22);fill-rule:nonzero;stroke:rgb(205,97,22);stroke-width:0.09px;"/>
    </g>
    <g transform="matrix(-1,-1.22465e-16,1.22465e-16,-1,28,27.0157)">
        <path d="M7.716,14.246L9.79,18.289L9.72,16.276L7.716,14.246Z" style="fill:rgb(228,117,31);fill-rule:nonzero;stroke:rgb(228,117,31);stroke-width:0.09px;"/>
    </g>
    <g transform="matrix(-1,-1.22465e-16,1.22465e-16,-1,28,27.0157)">
        <path d="M18.289,16.276L18.201,18.289L20.284,14.246L18.289,16.276Z" style="fill:rgb(228,117,31);fill-rule:nonzero;stroke:rgb(228,117,31);stroke-width:0.09px;"/>
    </g>
    <g transform="matrix(-1,-1.22465e-16,1.22465e-16,-1,28,27.0157)">
        <path d="M12.664,14.466L12.198,17.006L12.778,20.003L12.91,16.057L12.664,14.466Z" style="fill:rgb(228,117,31);fill-rule:nonzero;stroke:rgb(228,117,31);stroke-width:0.09px;"/>
    </g>
    <g transform="matrix(-1,-1.22465e-16,1.22465e-16,-1,28,27.0157)">
        <path d="M15.345,14.466L15.107,16.048L15.213,20.003L15.802,17.006L15.345,14.466Z" style="fill:rgb(228,117,31);fill-rule:nonzero;stroke:rgb(228,117,31);stroke-width:0.09px;"/>
    </g>
    <g transform="matrix(-1,-1.22465e-16,1.22465e-16,-1,28,27.0157)">
        <path d="M15.802,17.006L15.213,20.003L15.635,20.293L18.201,18.289L18.289,16.276L15.802,17.006Z" style="fill:rgb(246,133,27);fill-rule:nonzero;stroke:rgb(246,133,27);stroke-width:0.09px;"/>
    </g>
    <g transform="matrix(-1,-1.22465e-16,1.22465e-16,-1,28,27.0157)">
        <path d="M9.72,16.276L9.79,18.289L12.357,20.293L12.778,20.003L12.198,17.006L9.72,16.276Z" style="fill:rgb(246,133,27);fill-rule:nonzero;stroke:rgb(246,133,27);stroke-width:0.09px;"/>
    </g>
    <g transform="matrix(-1,-1.22465e-16,1.22465e-16,-1,28,27.0157)">
        <path d="M15.846,23.052L15.872,22.235L15.652,22.041L12.339,22.041L12.137,22.235L12.154,23.052L9.386,21.743L10.353,22.534L12.313,23.896L15.679,23.896L17.647,22.534L18.614,21.743L15.846,23.052Z" style="fill:rgb(192,173,158);fill-rule:nonzero;stroke:rgb(192,173,158);stroke-width:0.09px;"/>
    </g>
    <g transform="matrix(-1,-1.22465e-16,1.22465e-16,-1,28,27.0157)">
        <path d="M15.635,20.293L15.213,20.003L12.778,20.003L12.357,20.293L12.137,22.235L12.339,22.041L15.652,22.041L15.872,22.235L15.635,20.293Z" style="fill:rgb(22,22,22);fill-rule:nonzero;stroke:rgb(22,22,22);stroke-width:0.09px;"/>
    </g>
    <g transform="matrix(-1,-1.22465e-16,1.22465e-16,-1,28,27.0157)">
        <path d="M24.458,10.036L25.205,6.451L24.089,3.12L15.635,9.395L18.886,12.146L23.483,13.49L24.502,12.304L24.063,11.987L24.766,11.346L24.221,10.924L24.924,10.388L24.458,10.036Z" style="fill:rgb(118,61,22);fill-rule:nonzero;stroke:rgb(118,61,22);stroke-width:0.09px;"/>
    </g>
    <g transform="matrix(-1,-1.22465e-16,1.22465e-16,-1,28,27.0157)">
        <path d="M2.795,6.451L3.542,10.036L3.067,10.388L3.77,10.924L3.234,11.346L3.937,11.987L3.498,12.304L4.508,13.49L9.105,12.146L12.357,9.395L3.902,3.12L2.795,6.451Z" style="fill:rgb(118,61,22);fill-rule:nonzero;stroke:rgb(118,61,22);stroke-width:0.09px;"/>
    </g>
    <g transform="matrix(-1,-1.22465e-16,1.22465e-16,-1,28,27.0157)">
        <path d="M23.483,13.49L18.886,12.146L20.284,14.246L18.201,18.289L20.943,18.254L25.03,18.254L23.483,13.49Z" style="fill:rgb(246,133,27);fill-rule:nonzero;stroke:rgb(246,133,27);stroke-width:0.09px;"/>
    </g>
    <g transform="matrix(-1,-1.22465e-16,1.22465e-16,-1,28,27.0157)">
        <path d="M9.105,12.146L4.508,13.49L2.979,18.254L7.057,18.254L9.79,18.289L7.716,14.246L9.105,12.146Z" style="fill:rgb(246,133,27);fill-rule:nonzero;stroke:rgb(246,133,27);stroke-width:0.09px;"/>
    </g>
    <g transform="matrix(-1,-1.22465e-16,1.22465e-16,-1,28,27.0157)">
        <path d="M15.345,14.466L15.635,9.395L16.971,5.783L11.038,5.783L12.357,9.395L12.664,14.466L12.77,16.065L12.778,20.003L15.213,20.003L15.23,16.065L15.345,14.466Z" style="fill:rgb(246,133,27);fill-rule:nonzero;stroke:rgb(246,133,27);stroke-width:0.09px;"/>
    </g>
</svg>
