<svg xmlns="http://www.w3.org/2000/svg" fill="none" viewBox="0 0 28 28"><g clip-path="url(#a)"><mask id="b" width="28" height="28" x="0" y="0" maskUnits="userSpaceOnUse" style="mask-type:luminance"><path fill="#fff" d="M0 0h28v28H0V0Z"/></mask><g mask="url(#b)"><path fill="#172777" d="M0 0h28v28H0V0Z"/><path fill="url(#c)" d="M0 0h28v28H0V0Z"/><path fill="#fff" d="M15.384 14.897a7 7 0 0 1-3.97.935c-1.226-.055-2.227-.498-2.834-1.22a3.084 3.084 0 0 1-.601-2.482 3.17 3.17 0 0 1 .284-.94l.022-.04a6.289 6.289 0 0 1 10.823-.606 6.284 6.284 0 0 1-4.67 9.767l.065.766a7.072 7.072 0 0 0 6.42-7.542 7.05 7.05 0 0 0-7.437-6.53 7.071 7.071 0 0 0-5.884 3.796l-.028.054a4.162 4.162 0 0 0-.355 1.165 3.86 3.86 0 0 0 .765 3.08c.739.896 1.942 1.427 3.391 1.498a7.71 7.71 0 0 0 4.736-1.27l-.733-.431h.006Z"/><path fill="#fff" d="M16.844 15.766c-.7.602-2.319 1.707-5.015 1.86-3.019.164-4.277-.82-4.288-.826l-.24.3.246-.295-.503.586c.054.049 1.258 1.017 4.09 1.017.23 0 .476 0 .728-.017 3.26-.18 5.047-1.602 5.67-2.209l-.688-.416Z"/><path fill="#fff" d="M18.156 16.56a5.695 5.695 0 0 1-1.504 1.367c-2.04 1.312-4.637 1.482-6.453 1.389l-.038.765c.3.022.601.028.88.028 5.13 0 7.203-2.336 7.777-3.167l-.667-.388m-.192-2.904a.612.612 0 1 0 0-1.225.612.612 0 0 0 0 1.225Z"/></g></g><defs><linearGradient id="c" x1="14" x2="14" y1="0" y2="28" gradientUnits="userSpaceOnUse"><stop stop-color="#2048E5"/><stop offset="1" stop-color="#14277A"/></linearGradient><clipPath id="a"><path fill="#fff" d="M0 0h28v28H0z"/></clipPath></defs></svg>