<svg xmlns="http://www.w3.org/2000/svg" width="24" height="24" fill="none"><g clip-path="url(#a)"><path fill="#0E131D" d="M0 0h24v24H0z"/><path fill="url(#b)" d="M0 0h24v24H0z"/><mask id="h" width="30" height="31" x="1.09" y="-3.69" fill="#000" maskUnits="userSpaceOnUse"><path fill="#fff" d="M1.09-3.69h30v31h-30z"/><path d="M14.8 3.605c.54-.633.329-1.57.329-1.57l-1.57 2.32c-.024 0 .562.024 1.242-.75M9.527 16.285l.188-.938s-.774 1.36-.844 1.547c-.07.211.047.586.351.563.305-.024.68-.469.68-.797 0-.422-.375-.375-.375-.375"/><path d="M23.449 1.379s1.172.047 2.39.187c-2.742-2.156-5.343-2.789-7.453-2.789-2.906 0-4.875 1.195-4.992 1.266l.914-1.453s-3.117-3.254-4.406.613C9.574-1.617 8.73.09 8.73.09S6.832 1.754 7.722 4.52c-2.18-.798-5.297-1.9-5.414-1.923-.164-.023-.21.047-.21.047s-.048.07.093.188c.258.21 5.18 3.844 6.258 4.547-.234.843-.234 1.242 0 1.64.328.54.351.82.305 1.219-.047.399-.47 3.844-.563 4.266-.094.422-1.078 1.922-1.031 2.367s.656 2.344 1.195 2.555c.399.14 1.383.445 2.04.445.234 0 .444-.047.538-.14.399-.352.516-.423.797-.423h.07c.118 0 .258.024.422.024.375 0 .867-.07 1.22-.399.515-.515 1.405-1.218 1.687-1.546a2.18 2.18 0 0 0 .445-1.665c-.07-.562.234-1.054.586-1.546.445-.586 1.265-1.641 1.265-1.641 1.618 1.219 2.625 3.07 2.625 5.133 0 3.656-3.187 6.89-7.125 6.89-.609 0-.609 2.09-1.195 1.95 1.805.633 2.742-1.598 3.984-1.598 2.649 0 3.2-.633 3.2-.633s.363.305-.434 1.031h.024c4.382-.609 6.515-4.218 6.515-4.218s-.164 1.172-.375 1.968c5.836-4.382 4.852-9.867 4.828-10.054.047.07.633.773.938 1.148.937-9.656-6.961-12.773-6.961-12.773M14.472 16.8c-.093.117-.492.468-.773.726s-.586.516-.82.75q-.141.14-.563.14h-.703c.351-.468 1.383-1.546 1.734-1.78.422-.282.633-.563.375-1.055s-.937-.375-.937-.375.398-.164.75-.164c-.446-.117-1.008 0-1.266.258-.281.257-.234 1.171-.351 1.757-.117.61-.516.914-1.125 1.477-.328.305-.563.398-.75.398a8 8 0 0 1-1.196-.304c-.234-.305-.586-1.313-.68-1.735.071-.234.352-.726.493-1.007.281-.54.445-.844.492-1.126.094-.398.398-2.859.516-3.89.304.398.726 1.054.633 1.476.68-.96.187-1.898-.047-2.273-.211-.375-.493-1.125-.258-1.922s1.078-3 1.078-3 .281.492.68.399c.398-.094 3.609-4.922 3.609-4.922s.867 1.898-.047 3.28c-.937 1.384-1.852 1.642-1.852 1.642s1.29.234 2.485-.633c.492 1.148.96 2.343.984 2.508-.07.164-1.008 2.414-1.101 2.554-.047.047-.375.14-.61.188-.398.117-.633.187-.726.258-.164.14-.914 2.203-1.266 3.21-.422.118-.844.352-1.148.82.164-.116.68-.187 1.054-.234.329-.023 1.336.516 1.594 1.524v.047c.047.375-.07.726-.258 1.008m-2.203.28c.211-.304.188-.82.211-.984.024-.164.07-.468.258-.515s.633.023.633.351c0 .305-.328.375-.563.586-.164.164-.492.516-.539.563m9.352-4.476c.234-1.195.258-2.226.187-3.07a8.6 8.6 0 0 1 1.64 4.219c.024.187.212.375.4.562.163.14.35.328.35.445q0 .81-.14 1.618c-.023.07-.234.187-.398.28-.235.118-.445.235-.492.423a8.73 8.73 0 0 1-3.094 4.523c2.18-2.273 3.234-6.023 1.547-9m-1.477 9.211c1.524-1.172 2.696-2.812 3.211-4.664.024-.07.235-.187.375-.281.235-.117.469-.258.516-.445.094-.54.14-1.102.14-1.664 0-.212-.21-.422-.421-.633-.118-.141-.305-.305-.305-.422a9.16 9.16 0 0 0-1.922-4.664c-.469-2.813-2.344-3.68-2.39-3.703.046.07 1.265 1.828.421 3.89-.867 2.086-3.093 1.758-3.281 1.781-.187 0-.914.938-1.828 2.672-.117-.046-.61-.164-1.172-.07.422-1.172 1.055-2.836 1.172-2.976.047-.047.398-.141.633-.212.445-.117.656-.187.726-.28.047-.071.282-.61.516-1.173.21 0 .75-.046.797-.07.047-.047.492-1.195.492-1.336 0-.117-.914-2.39-1.266-3.258.164-.187.328-.422.492-.68 4.805.516 8.555 4.594 8.555 9.54 0 3.797-2.226 7.101-5.46 8.648"/><path d="M13.91 9.16c.445-.516.21-1.477-.61-1.64.211-.493.516-1.477.516-1.477s-2.39 3.75-2.602 3.82c-.21.07-.421-.75-.421-.75-.446 1.711.75 1.945.89 1.406.656-.164 1.781-.867 2.227-1.36"/></mask><path fill="url(#c)" d="M14.8 3.605c.54-.633.329-1.57.329-1.57l-1.57 2.32c-.024 0 .562.024 1.242-.75"/><path fill="url(#d)" d="m9.527 16.285.188-.938s-.774 1.36-.844 1.547c-.07.211.047.586.351.563.305-.024.68-.469.68-.797 0-.422-.375-.375-.375-.375"/><path fill="url(#e)" d="M23.449 1.379s1.172.047 2.39.187c-2.742-2.156-5.343-2.789-7.453-2.789-2.906 0-4.875 1.195-4.992 1.266l.914-1.453s-3.117-3.254-4.406.613C9.574-1.617 8.73.09 8.73.09S6.832 1.754 7.722 4.52c-2.18-.798-5.297-1.9-5.414-1.923-.164-.023-.21.047-.21.047s-.048.07.093.188c.258.21 5.18 3.844 6.258 4.547-.234.843-.234 1.242 0 1.64.328.54.351.82.305 1.219-.047.399-.47 3.844-.563 4.266-.094.422-1.078 1.922-1.031 2.367s.656 2.344 1.195 2.555c.399.14 1.383.445 2.04.445.234 0 .444-.047.538-.14.399-.352.516-.423.797-.423h.07c.118 0 .258.024.422.024.375 0 .867-.07 1.22-.399.515-.515 1.405-1.218 1.687-1.546a2.18 2.18 0 0 0 .445-1.665c-.07-.562.234-1.054.586-1.546.445-.586 1.265-1.641 1.265-1.641 1.618 1.219 2.625 3.07 2.625 5.133 0 3.656-3.187 6.89-7.125 6.89-.609 0-.609 2.09-1.195 1.95 1.805.633 2.742-1.598 3.984-1.598 2.649 0 3.2-.633 3.2-.633s.363.305-.434 1.031h.024c4.382-.609 6.515-4.218 6.515-4.218s-.164 1.172-.375 1.968c5.836-4.382 4.852-9.867 4.828-10.054.047.07.633.773.938 1.148.937-9.656-6.961-12.773-6.961-12.773M14.472 16.8c-.093.117-.492.468-.773.726s-.586.516-.82.75q-.141.14-.563.14h-.703c.351-.468 1.383-1.546 1.734-1.78.422-.282.633-.563.375-1.055s-.937-.375-.937-.375.398-.164.75-.164c-.446-.117-1.008 0-1.266.258-.281.257-.234 1.171-.351 1.757-.117.61-.516.914-1.125 1.477-.328.305-.563.398-.75.398a8 8 0 0 1-1.196-.304c-.234-.305-.586-1.313-.68-1.735.071-.234.352-.726.493-1.007.281-.54.445-.844.492-1.126.094-.398.398-2.859.516-3.89.304.398.726 1.054.633 1.476.68-.96.187-1.898-.047-2.273-.211-.375-.493-1.125-.258-1.922s1.078-3 1.078-3 .281.492.68.399c.398-.094 3.609-4.922 3.609-4.922s.867 1.898-.047 3.28c-.937 1.384-1.852 1.642-1.852 1.642s1.29.234 2.485-.633c.492 1.148.96 2.343.984 2.508-.07.164-1.008 2.414-1.101 2.554-.047.047-.375.14-.61.188-.398.117-.633.187-.726.258-.164.14-.914 2.203-1.266 3.21-.422.118-.844.352-1.148.82.164-.116.68-.187 1.054-.234.329-.023 1.336.516 1.594 1.524v.047c.047.375-.07.726-.258 1.008m-2.203.28c.211-.304.188-.82.211-.984.024-.164.07-.468.258-.515s.633.023.633.351c0 .305-.328.375-.563.586-.164.164-.492.516-.539.563m9.352-4.476c.234-1.195.258-2.226.187-3.07a8.6 8.6 0 0 1 1.64 4.219c.024.187.212.375.4.562.163.14.35.328.35.445q0 .81-.14 1.618c-.023.07-.234.187-.398.28-.235.118-.445.235-.492.423a8.73 8.73 0 0 1-3.094 4.523c2.18-2.273 3.234-6.023 1.547-9m-1.477 9.211c1.524-1.172 2.696-2.812 3.211-4.664.024-.07.235-.187.375-.281.235-.117.469-.258.516-.445.094-.54.14-1.102.14-1.664 0-.212-.21-.422-.421-.633-.118-.141-.305-.305-.305-.422a9.16 9.16 0 0 0-1.922-4.664c-.469-2.813-2.344-3.68-2.39-3.703.046.07 1.265 1.828.421 3.89-.867 2.086-3.093 1.758-3.281 1.781-.187 0-.914.938-1.828 2.672-.117-.046-.61-.164-1.172-.07.422-1.172 1.055-2.836 1.172-2.976.047-.047.398-.141.633-.212.445-.117.656-.187.726-.28.047-.071.282-.61.516-1.173.21 0 .75-.046.797-.07.047-.047.492-1.195.492-1.336 0-.117-.914-2.39-1.266-3.258.164-.187.328-.422.492-.68 4.805.516 8.555 4.594 8.555 9.54 0 3.797-2.226 7.101-5.46 8.648"/><path fill="url(#f)" d="M13.91 9.16c.445-.516.21-1.477-.61-1.64.211-.493.516-1.477.516-1.477s-2.39 3.75-2.602 3.82c-.21.07-.421-.75-.421-.75-.446 1.711.75 1.945.89 1.406.656-.164 1.781-.867 2.227-1.36"/><path stroke="url(#g)" stroke-linejoin="round" stroke-width="1.125" d="M14.8 3.605c.54-.633.329-1.57.329-1.57l-1.57 2.32c-.024 0 .562.024 1.242-.75Z" mask="url(#h)"/><path stroke="url(#i)" stroke-linejoin="round" stroke-width="1.125" d="m9.527 16.285.188-.938s-.774 1.36-.844 1.547c-.07.211.047.586.351.563.305-.024.68-.469.68-.797 0-.422-.375-.375-.375-.375Z" mask="url(#h)"/><path stroke="url(#j)" stroke-linejoin="round" stroke-width="1.125" d="M23.449 1.379s1.172.047 2.39.187c-2.742-2.156-5.343-2.789-7.453-2.789-2.906 0-4.875 1.195-4.992 1.266l.914-1.453s-3.117-3.254-4.406.613C9.574-1.617 8.73.09 8.73.09S6.832 1.754 7.722 4.52c-2.18-.798-5.297-1.9-5.414-1.923-.164-.023-.21.047-.21.047s-.048.07.093.188c.258.21 5.18 3.844 6.258 4.547-.234.843-.234 1.242 0 1.64.328.54.351.82.305 1.219-.047.399-.47 3.844-.563 4.266-.094.422-1.078 1.922-1.031 2.367s.656 2.344 1.195 2.555c.399.14 1.383.445 2.04.445.234 0 .444-.047.538-.14.399-.352.516-.423.797-.423h.07c.118 0 .258.024.422.024.375 0 .867-.07 1.22-.399.515-.515 1.405-1.218 1.687-1.546a2.18 2.18 0 0 0 .445-1.665c-.07-.562.234-1.054.586-1.546.445-.586 1.265-1.641 1.265-1.641 1.618 1.219 2.625 3.07 2.625 5.133 0 3.656-3.187 6.89-7.125 6.89-.609 0-.609 2.09-1.195 1.95 1.805.633 2.742-1.598 3.984-1.598 2.649 0 3.2-.633 3.2-.633s.363.305-.434 1.031h.024c4.382-.609 6.515-4.218 6.515-4.218s-.164 1.172-.375 1.968c5.836-4.382 4.852-9.867 4.828-10.054.047.07.633.773.938 1.148.937-9.656-6.961-12.773-6.961-12.773ZM14.472 16.8c-.093.117-.492.468-.773.726s-.586.516-.82.75q-.141.14-.563.14h-.703c.351-.468 1.383-1.546 1.734-1.78.422-.282.633-.563.375-1.055s-.937-.375-.937-.375.398-.164.75-.164c-.446-.117-1.008 0-1.266.258-.281.257-.234 1.171-.351 1.757-.117.61-.516.914-1.125 1.477-.328.305-.563.398-.75.398a8 8 0 0 1-1.196-.304c-.234-.305-.586-1.313-.68-1.735.071-.234.352-.726.493-1.007.281-.54.445-.844.492-1.126.094-.398.398-2.859.516-3.89.304.398.726 1.054.633 1.476.68-.96.187-1.898-.047-2.273-.211-.375-.493-1.125-.258-1.922s1.078-3 1.078-3 .281.492.68.399c.398-.094 3.609-4.922 3.609-4.922s.867 1.898-.047 3.28c-.937 1.384-1.852 1.642-1.852 1.642s1.29.234 2.485-.633c.492 1.148.96 2.343.984 2.508-.07.164-1.008 2.414-1.101 2.554-.047.047-.375.14-.61.188-.398.117-.633.187-.726.258-.164.14-.914 2.203-1.266 3.21-.422.118-.844.352-1.148.82.164-.116.68-.187 1.054-.234.329-.023 1.336.516 1.594 1.524v.047c.047.375-.07.726-.258 1.008Zm-2.203.28c.211-.304.188-.82.211-.984.024-.164.07-.468.258-.515s.633.023.633.351c0 .305-.328.375-.563.586-.164.164-.492.516-.539.563Zm9.352-4.476c.234-1.195.258-2.226.187-3.07a8.6 8.6 0 0 1 1.64 4.219c.024.187.212.375.4.562.163.14.35.328.35.445q0 .81-.14 1.618c-.023.07-.234.187-.398.28-.235.118-.445.235-.492.423a8.73 8.73 0 0 1-3.094 4.523c2.18-2.273 3.234-6.023 1.547-9Zm-1.477 9.211c1.524-1.172 2.696-2.812 3.211-4.664.024-.07.235-.187.375-.281.235-.117.469-.258.516-.445.094-.54.14-1.102.14-1.664 0-.212-.21-.422-.421-.633-.118-.141-.305-.305-.305-.422a9.16 9.16 0 0 0-1.922-4.664c-.469-2.813-2.344-3.68-2.39-3.703.046.07 1.265 1.828.421 3.89-.867 2.086-3.093 1.758-3.281 1.781-.187 0-.914.938-1.828 2.672-.117-.046-.61-.164-1.172-.07.422-1.172 1.055-2.836 1.172-2.976.047-.047.398-.141.633-.212.445-.117.656-.187.726-.28.047-.071.282-.61.516-1.173.21 0 .75-.046.797-.07.047-.047.492-1.195.492-1.336 0-.117-.914-2.39-1.266-3.258.164-.187.328-.422.492-.68 4.805.516 8.555 4.594 8.555 9.54 0 3.797-2.226 7.101-5.46 8.648Z" mask="url(#h)"/><path stroke="url(#k)" stroke-linejoin="round" stroke-width="1.125" d="M13.91 9.16c.445-.516.21-1.477-.61-1.64.211-.493.516-1.477.516-1.477s-2.39 3.75-2.602 3.82c-.21.07-.421-.75-.421-.75-.446 1.711.75 1.945.89 1.406.656-.164 1.781-.867 2.227-1.36Z" mask="url(#h)"/><path fill="#fff" d="m8.848 13.308.75-5.648-6.516-4.523 5.953 2.015 1.406-2.156 5.133-3.188 11.32 6.235.587 9.515-5.04 7.008-3.984.61 2.063-3.774V15.77l-1.5-2.836-1.524-1.007-2.344 2.414v2.554l-1.828 1.711-2.32.282-1.031.585-1.688-.539-.703-2.53 1.266-1.782z"/><path fill="#94A6C3" d="M19.254 3.09c-1.242-.258-2.602-.188-2.602-.188s-.445 2.063-3.21 2.602c.023 0 3.656 1.242 5.812-2.414M20.379 21.793c1.5-1.172 2.625-2.79 3.14-4.617.024-.07.235-.188.376-.282.234-.14.468-.257.515-.445.094-.54.14-1.102.14-1.664 0-.211-.21-.422-.421-.633-.164-.14-.328-.305-.328-.422a8.93 8.93 0 0 0-2.79-5.578l-.163.164c1.523 1.43 2.508 3.375 2.718 5.438.024.187.211.375.399.562.164.14.351.352.351.445q0 .81-.14 1.618c-.024.093-.235.187-.399.28-.234.118-.445.235-.492.423a8.66 8.66 0 0 1-3.562 4.851c.304-.656 1.265-2.789 1.78-3.867l-.093-3.469-2.976-2.882-1.688.234-1.851 3s.867 1.102-.352 2.39c-1.195 1.266-2.133 1.548-2.133 1.548l-.867-.47c.258-.327.773-.82 1.172-1.148.68-.562 1.36-.61 1.36-1.218.023-1.266-1.337-.914-1.337-.914l-.492.468-.21 1.735-1.032 1.289-.117-.024-1.688-.375s1.031-.539 1.196-1.148c.164-.586-.329-2.531-.352-2.649.023.024.492.422.703 1.079.375-1.032.867-2.016 1.008-2.11.14-.094 2.039-1.101 2.039-1.101l-.633 1.664.469-.258 1.125-2.766s1.101-.539 1.922-.539c1.476-.023 3.656-1.828 2.672-5.062.28.117 5.156 2.554 6 7.336.633 3.68-1.453 7.125-4.97 9.117"/><path fill="#0D1928" d="M14.8 3.605c.54-.633.329-1.57.329-1.57l-1.57 2.32c-.024 0 .562.024 1.242-.75M9.527 16.285l.188-.938s-.774 1.36-.844 1.547c-.07.211.047.586.351.563.305-.024.68-.469.68-.797 0-.422-.375-.375-.375-.375"/><path fill="#0D1928" d="M24.82 1.805s.351-.844 1.57-.703c-2.742-2.157-5.894-2.325-8.004-2.325-2.906 0-4.359.59-4.476.66l.398-.847s-3.117-3.254-4.406.613C9.574-1.617 8.73.09 8.73.09S6.832 1.754 7.722 4.52c-2.18-.798-5.297-1.9-5.414-1.923-.164-.023-.21.047-.21.047s-.048.07.093.188c.258.21 5.18 3.844 6.258 4.547-.234.843-.234 1.242 0 1.64.328.54.351.82.305 1.219-.047.399-.47 3.844-.563 4.266-.094.422-1.078 1.922-1.031 2.367s.656 2.344 1.195 2.555c.399.14 1.383.445 2.04.445.234 0 .444-.047.538-.14.399-.352.516-.423.797-.423h.07c.118 0 .258.024.422.024.375 0 .867-.07 1.22-.399.515-.515 1.405-1.218 1.687-1.546a2.18 2.18 0 0 0 .445-1.665c-.07-.562.234-1.054.586-1.546.445-.586 1.265-1.641 1.265-1.641 1.618 1.219 2.625 3.07 2.625 5.133 0 3.656-3.187 6.89-7.125 6.89-.609 0-1.23.59-1.816.45 1.804.633 3.363-.098 4.605-.098 2.649 0 3.2-.633 3.2-.633s.363.305-.434 1.031h.024c4.382-.609 6.597-.75 6.597-.75s1.09-1.953.879-1.156c5.836-4.382 3.516-10.21 3.492-10.398.047.07.633.773.938 1.148.937-9.656-5.59-12.347-5.59-12.347M14.472 16.8c-.093.118-.492.47-.773.727-.281.258-.586.516-.82.75q-.141.14-.563.14h-.703c.351-.468 1.383-1.546 1.734-1.78.422-.282.633-.563.375-1.055s-.937-.375-.937-.375.398-.164.75-.164c-.446-.117-1.008 0-1.266.258-.281.257-.234 1.171-.351 1.757-.117.61-.516.914-1.125 1.477-.328.305-.563.398-.75.398a8 8 0 0 1-1.196-.304c-.234-.305-.586-1.313-.68-1.735.071-.234.352-.726.493-1.007.281-.54.445-.844.492-1.126.094-.398.398-2.859.516-3.89.304.398.726 1.054.633 1.476.68-.96.187-1.898-.047-2.273-.211-.375-.493-1.125-.258-1.922s1.078-3 1.078-3 .281.492.68.399c.398-.094 3.609-4.922 3.609-4.922s.867 1.898-.047 3.28c-.937 1.384-1.852 1.642-1.852 1.642s1.29.234 2.485-.633c.492 1.148.96 2.343.984 2.508-.07.164-1.008 2.414-1.101 2.554-.047.047-.375.14-.61.188-.398.117-.633.187-.726.258-.164.14-.914 2.203-1.266 3.21-.422.118-.844.352-1.148.82.164-.116.68-.187 1.054-.234.329-.023 1.336.516 1.594 1.524v.047c.047.375-.07.726-.258 1.008m-2.203.282c.211-.305.188-.82.211-.985.024-.164.07-.468.258-.515s.633.023.633.351c0 .305-.328.375-.563.586-.164.164-.492.516-.539.563m9.352-4.477a11.1 11.1 0 0 0 .187-3.07 8.6 8.6 0 0 1 1.64 4.219c.024.187.212.375.4.562.163.14.35.328.35.445q0 .81-.14 1.618c-.023.07-.234.187-.398.28-.235.118-.445.235-.492.423a8.73 8.73 0 0 1-3.094 4.523c2.18-2.273 3.234-6.023 1.547-9m-1.477 9.211c1.524-1.172 2.696-2.812 3.211-4.664.024-.07.235-.187.375-.281.235-.117.469-.258.516-.445.094-.54.14-1.102.14-1.664 0-.212-.21-.422-.421-.633-.118-.141-.305-.305-.305-.422a9.16 9.16 0 0 0-1.922-4.664c-.469-2.813-2.344-3.68-2.39-3.703.046.07 1.265 1.828.421 3.89-.867 2.086-3.093 1.758-3.281 1.781-.187 0-.914.938-1.828 2.672-.117-.046-.61-.164-1.172-.07.422-1.172 1.055-2.836 1.172-2.976.047-.047.398-.141.633-.212.445-.117.656-.187.726-.28.047-.071.282-.61.516-1.173.21 0 .75-.046.797-.07.047-.047.492-1.195.492-1.336 0-.117-.914-2.39-1.266-3.258.164-.187.328-.422.492-.68 4.805.516 8.555 4.594 8.555 9.54 0 3.797-2.226 7.101-5.46 8.648"/><path fill="#0D1928" d="M13.91 9.16c.445-.516.21-1.477-.61-1.64.211-.493.516-1.477.516-1.477s-2.39 3.75-2.602 3.82c-.21.07-.421-.75-.421-.75-.446 1.711.75 1.945.89 1.406.656-.164 1.781-.867 2.227-1.36"/><path fill="#FFD923" d="m11.871 10.074 1.219-2.086s.703.352.351.914c-.445.656-1.57 1.172-1.57 1.172"/><path fill="#D82122" d="M26.941 19.73c-.351.469-.75.961-1.219 1.43 3.024-5.812.14-11.133.024-11.344.21.211.422.445.61.656 2.32 2.579 2.6 6.446.585 9.258M29.754 12.254c-1.055-2.836-2.555-5.25-5.86-7.43-3.187-2.11-6.61-1.945-6.797-1.922h-.047c.118-.047.235-.07.352-.094.726-.234 1.664-.421 2.601-.539 2.485-.351 4.993.493 6.704 2.297l.046.047c1.946 2.063 2.954 4.64 3 7.64M23.144.652c-3.492-.656-5.742-.328-7.36.281-.046-.187-.21-.562-.35-.867-.493.586-1.009 1.29-1.337 1.735-.89.609-1.265 1.195-1.265 1.195.515-1.758 2.015-3.07 3.843-3.398a9.5 9.5 0 0 1 1.688-.141c1.617.023 3.234.422 4.781 1.195M10.23 5.152C7.488 5.058 8.402 1.871 8.45 1.683c0 .024.187 2.508 1.781 3.47M12.925-.59c-2.109 1.266-1.687 4.289-1.687 4.289C9.222.629 12.76-.52 12.925-.59"/><path fill="#fff" d="M9.457 5.996c.14.117.281.328.117.633-.094.164-.234.14-.445.047-.281-.141-1.969-1.125-3.492-2.133 1.734.61 3.492 1.265 3.773 1.406z"/></g><defs><linearGradient id="c" x1="16.288" x2="16.288" y1="-2.69" y2="26.621" gradientUnits="userSpaceOnUse"><stop stop-color="#16395C"/><stop offset=".276" stop-color="#22436A"/><stop offset="1" stop-color="#0D1928" stop-opacity="0"/></linearGradient><linearGradient id="d" x1="16.288" x2="16.288" y1="-2.69" y2="26.621" gradientUnits="userSpaceOnUse"><stop stop-color="#16395C"/><stop offset=".276" stop-color="#22436A"/><stop offset="1" stop-color="#0D1928" stop-opacity="0"/></linearGradient><linearGradient id="e" x1="16.288" x2="16.288" y1="-2.69" y2="26.621" gradientUnits="userSpaceOnUse"><stop stop-color="#16395C"/><stop offset=".276" stop-color="#22436A"/><stop offset="1" stop-color="#0D1928" stop-opacity="0"/></linearGradient><linearGradient id="f" x1="16.288" x2="16.288" y1="-2.69" y2="26.621" gradientUnits="userSpaceOnUse"><stop stop-color="#16395C"/><stop offset=".276" stop-color="#22436A"/><stop offset="1" stop-color="#0D1928" stop-opacity="0"/></linearGradient><linearGradient id="g" x1="-.352" x2="24.679" y1="5.953" y2="17.695" gradientUnits="userSpaceOnUse"><stop stop-color="#213E61"/><stop offset=".291" stop-color="#2B6FB3"/><stop offset=".614" stop-color="#214167"/><stop offset=".719" stop-color="#3187DB"/><stop offset=".829" stop-color="#2B6DAF"/><stop offset="1" stop-color="#224167"/></linearGradient><linearGradient id="i" x1="-.352" x2="24.679" y1="5.953" y2="17.695" gradientUnits="userSpaceOnUse"><stop stop-color="#213E61"/><stop offset=".291" stop-color="#2B6FB3"/><stop offset=".614" stop-color="#214167"/><stop offset=".719" stop-color="#3187DB"/><stop offset=".829" stop-color="#2B6DAF"/><stop offset="1" stop-color="#224167"/></linearGradient><linearGradient id="j" x1="-.352" x2="24.679" y1="5.953" y2="17.695" gradientUnits="userSpaceOnUse"><stop stop-color="#213E61"/><stop offset=".291" stop-color="#2B6FB3"/><stop offset=".614" stop-color="#214167"/><stop offset=".719" stop-color="#3187DB"/><stop offset=".829" stop-color="#2B6DAF"/><stop offset="1" stop-color="#224167"/></linearGradient><linearGradient id="k" x1="-.352" x2="24.679" y1="5.953" y2="17.695" gradientUnits="userSpaceOnUse"><stop stop-color="#213E61"/><stop offset=".291" stop-color="#2B6FB3"/><stop offset=".614" stop-color="#214167"/><stop offset=".719" stop-color="#3187DB"/><stop offset=".829" stop-color="#2B6DAF"/><stop offset="1" stop-color="#224167"/></linearGradient><radialGradient id="b" cx="0" cy="0" r="1" gradientTransform="matrix(-30 29.00002 -18.34192 -18.97438 27 -3)" gradientUnits="userSpaceOnUse"><stop stop-color="#278CE6"/><stop offset="1" stop-color="#278CE6" stop-opacity="0"/></radialGradient><clipPath id="a"><rect width="24" height="24" fill="#fff" rx="5.625"/></clipPath></defs></svg>