<svg xmlns="http://www.w3.org/2000/svg" fill="none" viewBox="0 0 28 28"><g clip-path="url(#a)"><path fill="#0E131D" d="M0 0h28v28H0V0Z"/><path fill="url(#b)" d="M0 0h28v28H0V0Z"/><path fill="url(#c)" d="M17.267 4.206c.63-.739.384-1.832.384-1.832l-1.832 2.707c-.028 0 .654.028 1.448-.875Z"/><path fill="url(#d)" d="m11.115 19 .22-1.095s-.904 1.586-.986 1.805c-.081.246.055.683.41.656.356-.027.793-.547.793-.93 0-.492-.437-.437-.437-.437Z"/><path fill="url(#e)" d="M27.357 1.609s1.367.055 2.788.218c-3.198-2.515-6.233-3.254-8.695-3.254-3.39 0-5.687 1.394-5.824 1.477l1.067-1.695s-3.637-3.796-5.14.715C11.17-1.887 10.184.105 10.184.105S7.971 2.046 9.009 5.273c-2.543-.93-6.18-2.216-6.316-2.243-.192-.027-.245.055-.245.055s-.056.081.108.219c.301.245 6.044 4.485 7.301 5.305-.273.983-.273 1.449 0 1.913.383.63.41.957.356 1.422-.055.466-.548 4.485-.657 4.977-.11.493-1.257 2.243-1.203 2.762.055.519.766 2.735 1.395 2.98.465.164 1.613.52 2.38.52.272 0 .518-.055.627-.163.466-.411.602-.494.93-.494h.082c.137 0 .3.028.492.028.438 0 1.011-.082 1.423-.465.601-.601 1.64-1.421 1.969-1.804a2.545 2.545 0 0 0 .519-1.943c-.082-.655.273-1.23.683-1.803.52-.684 1.476-1.915 1.476-1.915 1.888 1.422 3.063 3.582 3.063 5.989 0 4.265-3.718 8.038-8.313 8.038-.71 0-.71 2.438-1.394 2.275 2.106.739 3.199-1.864 4.648-1.864 3.09 0 3.733-.739 3.733-.739s.424.356-.506 1.203h.028c5.112-.71 7.6-4.921 7.6-4.921s-.19 1.367-.437 2.296c6.809-5.112 5.661-11.511 5.633-11.73.055.082.739.902 1.094 1.34 1.093-11.266-8.12-14.902-8.12-14.902ZM16.884 19.6c-.108.136-.574.546-.902.847-.328.301-.683.602-.957.875-.11.109-.328.163-.656.163h-.82c.409-.546 1.613-1.803 2.023-2.076.492-.33.738-.657.437-1.231-.301-.574-1.093-.438-1.093-.438s.464-.191.875-.191c-.52-.136-1.176 0-1.477.301-.328.3-.273 1.366-.41 2.05-.136.712-.602 1.066-1.312 1.723-.383.356-.657.464-.875.464-.474-.082-.94-.2-1.396-.354-.272-.356-.683-1.532-.793-2.024.083-.273.41-.848.575-1.175.328-.63.52-.985.574-1.314.11-.464.465-3.335.602-4.538.355.464.847 1.23.739 1.722.793-1.12.218-2.215-.055-2.652-.246-.438-.575-1.313-.301-2.243.274-.93 1.258-3.5 1.258-3.5s.328.574.793.466c.464-.11 4.21-5.742 4.21-5.742s1.012 2.214-.054 3.826c-1.093 1.615-2.161 1.916-2.161 1.916s1.505.273 2.9-.738c.573 1.339 1.12 2.733 1.147 2.925-.081.192-1.176 2.817-1.284 2.98-.055.055-.438.164-.712.22-.464.136-.739.218-.847.3-.191.164-1.066 2.57-1.477 3.745-.492.138-.985.411-1.34.957.192-.135.794-.218 1.23-.273.384-.027 1.559.602 1.86 1.778v.055c.055.438-.082.847-.301 1.176Zm-2.57.327c.246-.355.22-.957.246-1.148.028-.192.082-.546.301-.601.22-.055.739.027.739.41 0 .355-.383.437-.657.683-.192.191-.574.6-.63.656Zm10.91-5.221c.273-1.394.302-2.597.219-3.582a10.034 10.034 0 0 1 1.913 4.922c.028.219.247.438.467.656.19.163.408.383.408.52 0 .63-.054 1.258-.163 1.887-.027.081-.273.218-.465.326-.274.138-.519.275-.574.494a10.184 10.184 0 0 1-3.61 5.277c2.544-2.652 3.774-7.027 1.805-10.5Zm-1.723 10.746c1.778-1.367 3.146-3.28 3.746-5.441.029-.082.275-.218.438-.328.274-.137.547-.301.602-.52.11-.63.163-1.285.163-1.94 0-.248-.245-.493-.49-.74-.139-.164-.357-.355-.357-.492-.223-1.987-1-3.873-2.242-5.44-.547-3.283-2.735-4.294-2.788-4.321.053.082 1.476 2.133.49 4.538-1.01 2.434-3.608 2.051-3.827 2.078-.218 0-1.066 1.095-2.133 3.117-.136-.053-.711-.19-1.367-.081.492-1.367 1.23-3.309 1.367-3.472.055-.055.465-.165.739-.248.519-.136.765-.218.847-.326.055-.083.329-.712.602-1.369.245 0 .875-.053.93-.081.055-.055.574-1.394.574-1.559 0-.136-1.067-2.788-1.477-3.801.191-.218.382-.492.574-.793 5.605.602 9.98 5.36 9.98 11.13 0 4.43-2.596 8.284-6.37 10.089"/><path fill="url(#f)" d="M16.228 10.687c.52-.602.245-1.723-.711-1.914.246-.575.602-1.723.602-1.723s-2.789 4.375-3.036 4.457c-.245.082-.491-.875-.491-.875-.52 1.996.875 2.269 1.038 1.64.765-.191 2.078-1.01 2.598-1.585Z"/><mask id="g" width="36" height="37" x="1" y="-5" maskUnits="userSpaceOnUse" style="mask-type:luminance"><path fill="#fff" d="M1.272-4.305h35v36.167h-35V-4.305Z"/><path fill="#000" d="M17.267 4.206c.63-.739.384-1.832.384-1.832l-1.832 2.707c-.028 0 .654.028 1.448-.875Zm-6.152 14.793.22-1.094s-.904 1.586-.986 1.805c-.081.246.055.683.41.656.356-.027.793-.547.793-.93 0-.492-.437-.437-.437-.437Z"/><path fill="#000" d="M27.357 1.609s1.367.055 2.788.218c-3.198-2.515-6.233-3.254-8.695-3.254-3.39 0-5.687 1.394-5.824 1.477l1.067-1.695s-3.637-3.796-5.14.715C11.17-1.887 10.184.105 10.184.105S7.971 2.046 9.009 5.273c-2.543-.93-6.18-2.216-6.316-2.243-.192-.027-.245.055-.245.055s-.056.081.108.219c.301.245 6.044 4.485 7.301 5.305-.273.983-.273 1.449 0 1.913.383.63.41.957.356 1.422-.055.466-.548 4.485-.657 4.977-.11.493-1.257 2.243-1.203 2.762.055.519.766 2.735 1.395 2.98.465.164 1.613.52 2.38.52.272 0 .518-.055.627-.163.466-.411.602-.494.93-.494h.082c.137 0 .3.028.492.028.438 0 1.011-.082 1.423-.465.601-.601 1.64-1.421 1.969-1.804a2.545 2.545 0 0 0 .519-1.943c-.082-.655.273-1.23.683-1.803.52-.684 1.476-1.915 1.476-1.915 1.888 1.422 3.063 3.582 3.063 5.989 0 4.265-3.718 8.038-8.313 8.038-.71 0-.71 2.438-1.394 2.275 2.106.739 3.199-1.864 4.648-1.864 3.09 0 3.733-.739 3.733-.739s.424.356-.506 1.203h.028c5.112-.71 7.6-4.921 7.6-4.921s-.19 1.367-.437 2.296c6.809-5.112 5.661-11.511 5.633-11.73.055.082.739.902 1.094 1.34 1.093-11.266-8.12-14.902-8.12-14.902ZM16.884 19.6c-.108.136-.574.546-.902.847-.328.301-.683.602-.957.875-.11.109-.328.163-.656.163h-.82c.409-.546 1.613-1.803 2.023-2.076.492-.33.738-.657.437-1.231-.301-.574-1.093-.438-1.093-.438s.464-.191.875-.191c-.52-.136-1.176 0-1.477.301-.328.3-.273 1.366-.41 2.05-.136.712-.602 1.066-1.312 1.723-.383.356-.657.464-.875.464-.474-.082-.94-.2-1.396-.354-.272-.356-.683-1.532-.793-2.024.083-.273.41-.848.575-1.175.328-.63.52-.985.574-1.314.11-.464.465-3.335.602-4.538.355.464.847 1.23.739 1.722.793-1.12.218-2.215-.055-2.652-.246-.438-.575-1.313-.301-2.243.274-.93 1.258-3.5 1.258-3.5s.328.574.793.466c.464-.11 4.21-5.742 4.21-5.742s1.012 2.214-.054 3.826c-1.093 1.615-2.161 1.916-2.161 1.916s1.505.273 2.9-.738c.573 1.339 1.12 2.733 1.147 2.925-.081.192-1.176 2.817-1.284 2.98-.055.055-.438.164-.712.22-.464.136-.739.218-.847.3-.191.164-1.066 2.57-1.477 3.745-.492.138-.985.411-1.34.957.192-.135.794-.218 1.23-.273.384-.027 1.559.602 1.86 1.778v.055c.055.438-.082.847-.301 1.176Zm-2.57.327c.246-.355.22-.957.246-1.148.028-.192.082-.546.301-.601.22-.055.739.027.739.41 0 .355-.383.437-.657.683-.192.191-.574.6-.63.656Zm10.91-5.221c.273-1.394.302-2.597.219-3.582a10.034 10.034 0 0 1 1.913 4.922c.028.219.247.438.467.656.19.163.408.383.408.52 0 .63-.054 1.258-.163 1.887-.027.081-.273.218-.465.326-.274.138-.519.275-.574.494a10.184 10.184 0 0 1-3.61 5.277c2.544-2.652 3.774-7.027 1.805-10.5Zm-1.723 10.746c1.778-1.367 3.146-3.28 3.746-5.441.029-.082.275-.218.438-.328.274-.137.547-.301.602-.52.11-.63.163-1.285.163-1.94 0-.248-.245-.493-.49-.74-.139-.164-.357-.355-.357-.492-.223-1.987-1-3.873-2.242-5.44-.547-3.283-2.735-4.294-2.788-4.321.053.082 1.476 2.133.49 4.538-1.01 2.434-3.608 2.051-3.827 2.078-.218 0-1.066 1.095-2.133 3.117-.136-.053-.711-.19-1.367-.081.492-1.367 1.23-3.309 1.367-3.472.055-.055.465-.165.739-.248.519-.136.765-.218.847-.326.055-.083.329-.712.602-1.369.245 0 .875-.053.93-.081.055-.055.574-1.394.574-1.559 0-.136-1.067-2.788-1.477-3.801.191-.218.382-.492.574-.793 5.605.602 9.98 5.36 9.98 11.13 0 4.43-2.596 8.284-6.37 10.089"/><path fill="#000" d="M16.228 10.687c.52-.602.245-1.723-.711-1.914.246-.575.602-1.723.602-1.723s-2.789 4.375-3.036 4.457c-.245.082-.491-.875-.491-.875-.52 1.996.875 2.269 1.038 1.64.765-.191 2.078-1.01 2.598-1.585Z"/></mask><g mask="url(#g)"><path stroke="url(#h)" stroke-linejoin="round" stroke-width="1.125" d="M17.267 4.206c.63-.739.384-1.832.384-1.832l-1.832 2.707c-.028 0 .654.028 1.448-.875Z"/></g><mask id="i" width="36" height="37" x="1" y="-5" maskUnits="userSpaceOnUse" style="mask-type:luminance"><path fill="#fff" d="M1.272-4.305h35v36.167h-35V-4.305Z"/><path fill="#000" d="M17.267 4.206c.63-.739.384-1.832.384-1.832l-1.832 2.707c-.028 0 .654.028 1.448-.875Zm-6.152 14.793.22-1.094s-.904 1.586-.986 1.805c-.081.246.055.683.41.656.356-.027.793-.547.793-.93 0-.492-.437-.437-.437-.437Z"/><path fill="#000" d="M27.357 1.609s1.367.055 2.788.218c-3.198-2.515-6.233-3.254-8.695-3.254-3.39 0-5.687 1.394-5.824 1.477l1.067-1.695s-3.637-3.796-5.14.715C11.17-1.887 10.184.105 10.184.105S7.971 2.046 9.009 5.273c-2.543-.93-6.18-2.216-6.316-2.243-.192-.027-.245.055-.245.055s-.056.081.108.219c.301.245 6.044 4.485 7.301 5.305-.273.983-.273 1.449 0 1.913.383.63.41.957.356 1.422-.055.466-.548 4.485-.657 4.977-.11.493-1.257 2.243-1.203 2.762.055.519.766 2.735 1.395 2.98.465.164 1.613.52 2.38.52.272 0 .518-.055.627-.163.466-.411.602-.494.93-.494h.082c.137 0 .3.028.492.028.438 0 1.011-.082 1.423-.465.601-.601 1.64-1.421 1.969-1.804a2.545 2.545 0 0 0 .519-1.943c-.082-.655.273-1.23.683-1.803.52-.684 1.476-1.915 1.476-1.915 1.888 1.422 3.063 3.582 3.063 5.989 0 4.265-3.718 8.038-8.313 8.038-.71 0-.71 2.438-1.394 2.275 2.106.739 3.199-1.864 4.648-1.864 3.09 0 3.733-.739 3.733-.739s.424.356-.506 1.203h.028c5.112-.71 7.6-4.921 7.6-4.921s-.19 1.367-.437 2.296c6.809-5.112 5.661-11.511 5.633-11.73.055.082.739.902 1.094 1.34 1.093-11.266-8.12-14.902-8.12-14.902ZM16.884 19.6c-.108.136-.574.546-.902.847-.328.301-.683.602-.957.875-.11.109-.328.163-.656.163h-.82c.409-.546 1.613-1.803 2.023-2.076.492-.33.738-.657.437-1.231-.301-.574-1.093-.438-1.093-.438s.464-.191.875-.191c-.52-.136-1.176 0-1.477.301-.328.3-.273 1.366-.41 2.05-.136.712-.602 1.066-1.312 1.723-.383.356-.657.464-.875.464-.474-.082-.94-.2-1.396-.354-.272-.356-.683-1.532-.793-2.024.083-.273.41-.848.575-1.175.328-.63.52-.985.574-1.314.11-.464.465-3.335.602-4.538.355.464.847 1.23.739 1.722.793-1.12.218-2.215-.055-2.652-.246-.438-.575-1.313-.301-2.243.274-.93 1.258-3.5 1.258-3.5s.328.574.793.466c.464-.11 4.21-5.742 4.21-5.742s1.012 2.214-.054 3.826c-1.093 1.615-2.161 1.916-2.161 1.916s1.505.273 2.9-.738c.573 1.339 1.12 2.733 1.147 2.925-.081.192-1.176 2.817-1.284 2.98-.055.055-.438.164-.712.22-.464.136-.739.218-.847.3-.191.164-1.066 2.57-1.477 3.745-.492.138-.985.411-1.34.957.192-.135.794-.218 1.23-.273.384-.027 1.559.602 1.86 1.778v.055c.055.438-.082.847-.301 1.176Zm-2.57.327c.246-.355.22-.957.246-1.148.028-.192.082-.546.301-.601.22-.055.739.027.739.41 0 .355-.383.437-.657.683-.192.191-.574.6-.63.656Zm10.91-5.221c.273-1.394.302-2.597.219-3.582a10.034 10.034 0 0 1 1.913 4.922c.028.219.247.438.467.656.19.163.408.383.408.52 0 .63-.054 1.258-.163 1.887-.027.081-.273.218-.465.326-.274.138-.519.275-.574.494a10.184 10.184 0 0 1-3.61 5.277c2.544-2.652 3.774-7.027 1.805-10.5Zm-1.723 10.746c1.778-1.367 3.146-3.28 3.746-5.441.029-.082.275-.218.438-.328.274-.137.547-.301.602-.52.11-.63.163-1.285.163-1.94 0-.248-.245-.493-.49-.74-.139-.164-.357-.355-.357-.492-.223-1.987-1-3.873-2.242-5.44-.547-3.283-2.735-4.294-2.788-4.321.053.082 1.476 2.133.49 4.538-1.01 2.434-3.608 2.051-3.827 2.078-.218 0-1.066 1.095-2.133 3.117-.136-.053-.711-.19-1.367-.081.492-1.367 1.23-3.309 1.367-3.472.055-.055.465-.165.739-.248.519-.136.765-.218.847-.326.055-.083.329-.712.602-1.369.245 0 .875-.053.93-.081.055-.055.574-1.394.574-1.559 0-.136-1.067-2.788-1.477-3.801.191-.218.382-.492.574-.793 5.605.602 9.98 5.36 9.98 11.13 0 4.43-2.596 8.284-6.37 10.089"/><path fill="#000" d="M16.228 10.687c.52-.602.245-1.723-.711-1.914.246-.575.602-1.723.602-1.723s-2.789 4.375-3.036 4.457c-.245.082-.491-.875-.491-.875-.52 1.996.875 2.269 1.038 1.64.765-.191 2.078-1.01 2.598-1.585Z"/></mask><g mask="url(#i)"><path stroke="url(#j)" stroke-linejoin="round" stroke-width="1.125" d="m11.115 19 .22-1.095s-.904 1.586-.986 1.805c-.081.246.055.683.41.656.356-.027.793-.547.793-.93 0-.492-.437-.437-.437-.437Z"/></g><mask id="k" width="36" height="37" x="1" y="-5" maskUnits="userSpaceOnUse" style="mask-type:luminance"><path fill="#fff" d="M1.272-4.305h35v36.167h-35V-4.305Z"/><path fill="#000" d="M17.267 4.206c.63-.739.384-1.832.384-1.832l-1.832 2.707c-.028 0 .654.028 1.448-.875Zm-6.152 14.793.22-1.094s-.904 1.586-.986 1.805c-.081.246.055.683.41.656.356-.027.793-.547.793-.93 0-.492-.437-.437-.437-.437Z"/><path fill="#000" d="M27.357 1.609s1.367.055 2.788.218c-3.198-2.515-6.233-3.254-8.695-3.254-3.39 0-5.687 1.394-5.824 1.477l1.067-1.695s-3.637-3.796-5.14.715C11.17-1.887 10.184.105 10.184.105S7.971 2.046 9.009 5.273c-2.543-.93-6.18-2.216-6.316-2.243-.192-.027-.245.055-.245.055s-.056.081.108.219c.301.245 6.044 4.485 7.301 5.305-.273.983-.273 1.449 0 1.913.383.63.41.957.356 1.422-.055.466-.548 4.485-.657 4.977-.11.493-1.257 2.243-1.203 2.762.055.519.766 2.735 1.395 2.98.465.164 1.613.52 2.38.52.272 0 .518-.055.627-.163.466-.411.602-.494.93-.494h.082c.137 0 .3.028.492.028.438 0 1.011-.082 1.423-.465.601-.601 1.64-1.421 1.969-1.804a2.545 2.545 0 0 0 .519-1.943c-.082-.655.273-1.23.683-1.803.52-.684 1.476-1.915 1.476-1.915 1.888 1.422 3.063 3.582 3.063 5.989 0 4.265-3.718 8.038-8.313 8.038-.71 0-.71 2.438-1.394 2.275 2.106.739 3.199-1.864 4.648-1.864 3.09 0 3.733-.739 3.733-.739s.424.356-.506 1.203h.028c5.112-.71 7.6-4.921 7.6-4.921s-.19 1.367-.437 2.296c6.809-5.112 5.661-11.511 5.633-11.73.055.082.739.902 1.094 1.34 1.093-11.266-8.12-14.902-8.12-14.902ZM16.884 19.6c-.108.136-.574.546-.902.847-.328.301-.683.602-.957.875-.11.109-.328.163-.656.163h-.82c.409-.546 1.613-1.803 2.023-2.076.492-.33.738-.657.437-1.231-.301-.574-1.093-.438-1.093-.438s.464-.191.875-.191c-.52-.136-1.176 0-1.477.301-.328.3-.273 1.366-.41 2.05-.136.712-.602 1.066-1.312 1.723-.383.356-.657.464-.875.464-.474-.082-.94-.2-1.396-.354-.272-.356-.683-1.532-.793-2.024.083-.273.41-.848.575-1.175.328-.63.52-.985.574-1.314.11-.464.465-3.335.602-4.538.355.464.847 1.23.739 1.722.793-1.12.218-2.215-.055-2.652-.246-.438-.575-1.313-.301-2.243.274-.93 1.258-3.5 1.258-3.5s.328.574.793.466c.464-.11 4.21-5.742 4.21-5.742s1.012 2.214-.054 3.826c-1.093 1.615-2.161 1.916-2.161 1.916s1.505.273 2.9-.738c.573 1.339 1.12 2.733 1.147 2.925-.081.192-1.176 2.817-1.284 2.98-.055.055-.438.164-.712.22-.464.136-.739.218-.847.3-.191.164-1.066 2.57-1.477 3.745-.492.138-.985.411-1.34.957.192-.135.794-.218 1.23-.273.384-.027 1.559.602 1.86 1.778v.055c.055.438-.082.847-.301 1.176Zm-2.57.327c.246-.355.22-.957.246-1.148.028-.192.082-.546.301-.601.22-.055.739.027.739.41 0 .355-.383.437-.657.683-.192.191-.574.6-.63.656Zm10.91-5.221c.273-1.394.302-2.597.219-3.582a10.034 10.034 0 0 1 1.913 4.922c.028.219.247.438.467.656.19.163.408.383.408.52 0 .63-.054 1.258-.163 1.887-.027.081-.273.218-.465.326-.274.138-.519.275-.574.494a10.184 10.184 0 0 1-3.61 5.277c2.544-2.652 3.774-7.027 1.805-10.5Zm-1.723 10.746c1.778-1.367 3.146-3.28 3.746-5.441.029-.082.275-.218.438-.328.274-.137.547-.301.602-.52.11-.63.163-1.285.163-1.94 0-.248-.245-.493-.49-.74-.139-.164-.357-.355-.357-.492-.223-1.987-1-3.873-2.242-5.44-.547-3.283-2.735-4.294-2.788-4.321.053.082 1.476 2.133.49 4.538-1.01 2.434-3.608 2.051-3.827 2.078-.218 0-1.066 1.095-2.133 3.117-.136-.053-.711-.19-1.367-.081.492-1.367 1.23-3.309 1.367-3.472.055-.055.465-.165.739-.248.519-.136.765-.218.847-.326.055-.083.329-.712.602-1.369.245 0 .875-.053.93-.081.055-.055.574-1.394.574-1.559 0-.136-1.067-2.788-1.477-3.801.191-.218.382-.492.574-.793 5.605.602 9.98 5.36 9.98 11.13 0 4.43-2.596 8.284-6.37 10.089"/><path fill="#000" d="M16.228 10.687c.52-.602.245-1.723-.711-1.914.246-.575.602-1.723.602-1.723s-2.789 4.375-3.036 4.457c-.245.082-.491-.875-.491-.875-.52 1.996.875 2.269 1.038 1.64.765-.191 2.078-1.01 2.598-1.585Z"/></mask><g mask="url(#k)"><path stroke="url(#l)" stroke-linejoin="round" stroke-width="1.125" d="M27.357 1.609s1.367.055 2.788.218c-3.198-2.515-6.233-3.254-8.695-3.254-3.39 0-5.687 1.394-5.824 1.477l1.067-1.695s-3.637-3.796-5.14.715C11.17-1.887 10.184.105 10.184.105S7.971 2.046 9.009 5.273c-2.543-.93-6.18-2.216-6.316-2.243-.192-.027-.245.055-.245.055s-.056.081.108.219c.301.245 6.044 4.485 7.301 5.305-.273.983-.273 1.449 0 1.913.383.63.41.957.356 1.422-.055.466-.548 4.485-.657 4.977-.11.493-1.257 2.243-1.203 2.762.055.519.766 2.735 1.395 2.98.465.164 1.613.52 2.38.52.272 0 .518-.055.627-.163.466-.411.602-.494.93-.494h.082c.137 0 .3.028.492.028.438 0 1.011-.082 1.423-.465.601-.601 1.64-1.421 1.969-1.804a2.545 2.545 0 0 0 .519-1.943c-.082-.655.273-1.23.683-1.803.52-.684 1.476-1.915 1.476-1.915 1.888 1.422 3.063 3.582 3.063 5.989 0 4.265-3.718 8.038-8.313 8.038-.71 0-.71 2.438-1.394 2.275 2.106.739 3.199-1.864 4.648-1.864 3.09 0 3.733-.739 3.733-.739s.424.356-.506 1.203h.028c5.112-.71 7.6-4.921 7.6-4.921s-.19 1.367-.437 2.296c6.809-5.112 5.661-11.511 5.633-11.73.055.082.739.902 1.094 1.34 1.093-11.266-8.12-14.902-8.12-14.902ZM16.884 19.6c-.108.136-.574.546-.902.847-.328.301-.683.602-.957.875-.11.109-.328.163-.656.163h-.82c.409-.546 1.613-1.803 2.023-2.076.492-.33.738-.657.437-1.231-.301-.574-1.093-.438-1.093-.438s.464-.191.875-.191c-.52-.136-1.176 0-1.477.301-.328.3-.273 1.366-.41 2.05-.136.712-.602 1.066-1.312 1.723-.383.356-.657.464-.875.464-.474-.082-.94-.2-1.396-.354-.272-.356-.683-1.532-.793-2.024.083-.273.41-.848.575-1.175.328-.63.52-.985.574-1.314.11-.464.465-3.335.602-4.538.355.464.847 1.23.739 1.722.793-1.12.218-2.215-.055-2.652-.246-.438-.575-1.313-.301-2.243.274-.93 1.258-3.5 1.258-3.5s.328.574.793.466c.464-.11 4.21-5.742 4.21-5.742s1.012 2.214-.054 3.826c-1.093 1.615-2.161 1.916-2.161 1.916s1.505.273 2.9-.738c.573 1.339 1.12 2.733 1.147 2.925-.081.192-1.176 2.817-1.284 2.98-.055.055-.438.164-.712.22-.464.136-.739.218-.847.3-.191.164-1.066 2.57-1.477 3.745-.492.138-.985.411-1.34.957.192-.135.794-.218 1.23-.273.384-.027 1.559.602 1.86 1.778v.055c.055.438-.082.847-.301 1.176Zm-2.57.327c.246-.355.22-.957.246-1.148.028-.192.082-.546.301-.601.22-.055.739.027.739.41 0 .355-.383.437-.657.683-.192.191-.574.6-.63.656Zm10.91-5.222c.273-1.395.302-2.597.219-3.582a10.034 10.034 0 0 1 1.913 4.922c.028.218.247.438.467.656.19.163.408.383.408.519 0 .63-.054 1.26-.163 1.888-.027.081-.273.218-.465.326-.274.138-.519.274-.574.494a10.185 10.185 0 0 1-3.61 5.277c2.544-2.652 3.774-7.027 1.805-10.5ZM23.502 25.45c1.778-1.367 3.146-3.28 3.746-5.442.029-.081.275-.218.438-.327.274-.137.547-.301.602-.52.11-.63.163-1.285.163-1.94 0-.248-.245-.493-.49-.74-.139-.164-.357-.355-.357-.492-.223-1.988-1-3.873-2.242-5.441-.547-3.282-2.735-4.293-2.788-4.32.053.082 1.476 2.132.49 4.538-1.01 2.434-3.608 2.051-3.827 2.078-.218 0-1.066 1.094-2.133 3.117-.136-.053-.711-.191-1.367-.081.492-1.368 1.23-3.309 1.367-3.472.055-.055.465-.165.739-.248.519-.136.765-.218.847-.326.055-.083.329-.712.602-1.369.245 0 .875-.053.93-.082.055-.054.574-1.394.574-1.558 0-.137-1.067-2.789-1.477-3.801.191-.218.382-.493.574-.794 5.605.603 9.98 5.36 9.98 11.13 0 4.43-2.596 8.285-6.37 10.09Z"/></g><mask id="m" width="36" height="37" x="1" y="-5" maskUnits="userSpaceOnUse" style="mask-type:luminance"><path fill="#fff" d="M1.272-4.305h35v36.167h-35V-4.305Z"/><path fill="#000" d="M17.267 4.206c.63-.739.384-1.832.384-1.832l-1.832 2.707c-.028 0 .654.028 1.448-.875Zm-6.152 14.793.22-1.094s-.904 1.586-.986 1.805c-.081.246.055.683.41.656.356-.027.793-.547.793-.93 0-.492-.437-.437-.437-.437Z"/><path fill="#000" d="M27.357 1.609s1.367.055 2.788.218c-3.198-2.515-6.233-3.254-8.695-3.254-3.39 0-5.687 1.394-5.824 1.477l1.067-1.695s-3.637-3.796-5.14.715C11.17-1.887 10.184.105 10.184.105S7.971 2.046 9.009 5.273c-2.543-.93-6.18-2.216-6.316-2.243-.192-.027-.245.055-.245.055s-.056.081.108.219c.301.245 6.044 4.485 7.301 5.305-.273.983-.273 1.449 0 1.913.383.63.41.957.356 1.422-.055.466-.548 4.485-.657 4.977-.11.493-1.257 2.243-1.203 2.762.055.519.766 2.735 1.395 2.98.465.164 1.613.52 2.38.52.272 0 .518-.055.627-.163.466-.411.602-.494.93-.494h.082c.137 0 .3.028.492.028.438 0 1.011-.082 1.423-.465.601-.601 1.64-1.421 1.969-1.804a2.545 2.545 0 0 0 .519-1.943c-.082-.655.273-1.23.683-1.803.52-.684 1.476-1.915 1.476-1.915 1.888 1.422 3.063 3.582 3.063 5.989 0 4.265-3.718 8.038-8.313 8.038-.71 0-.71 2.438-1.394 2.275 2.106.739 3.199-1.864 4.648-1.864 3.09 0 3.733-.739 3.733-.739s.424.356-.506 1.203h.028c5.112-.71 7.6-4.921 7.6-4.921s-.19 1.367-.437 2.296c6.809-5.112 5.661-11.511 5.633-11.73.055.082.739.902 1.094 1.34 1.093-11.266-8.12-14.902-8.12-14.902ZM16.884 19.6c-.108.136-.574.546-.902.847-.328.301-.683.602-.957.875-.11.109-.328.163-.656.163h-.82c.409-.546 1.613-1.803 2.023-2.076.492-.33.738-.657.437-1.231-.301-.574-1.093-.438-1.093-.438s.464-.191.875-.191c-.52-.136-1.176 0-1.477.301-.328.3-.273 1.366-.41 2.05-.136.712-.602 1.066-1.312 1.723-.383.356-.657.464-.875.464-.474-.082-.94-.2-1.396-.354-.272-.356-.683-1.532-.793-2.024.083-.273.41-.848.575-1.175.328-.63.52-.985.574-1.314.11-.464.465-3.335.602-4.538.355.464.847 1.23.739 1.722.793-1.12.218-2.215-.055-2.652-.246-.438-.575-1.313-.301-2.243.274-.93 1.258-3.5 1.258-3.5s.328.574.793.466c.464-.11 4.21-5.742 4.21-5.742s1.012 2.214-.054 3.826c-1.093 1.615-2.161 1.916-2.161 1.916s1.505.273 2.9-.738c.573 1.339 1.12 2.733 1.147 2.925-.081.192-1.176 2.817-1.284 2.98-.055.055-.438.164-.712.22-.464.136-.739.218-.847.3-.191.164-1.066 2.57-1.477 3.745-.492.138-.985.411-1.34.957.192-.135.794-.218 1.23-.273.384-.027 1.559.602 1.86 1.778v.055c.055.438-.082.847-.301 1.176Zm-2.57.327c.246-.355.22-.957.246-1.148.028-.192.082-.546.301-.601.22-.055.739.027.739.41 0 .355-.383.437-.657.683-.192.191-.574.6-.63.656Zm10.91-5.221c.273-1.394.302-2.597.219-3.582a10.034 10.034 0 0 1 1.913 4.922c.028.219.247.438.467.656.19.163.408.383.408.52 0 .63-.054 1.258-.163 1.887-.027.081-.273.218-.465.326-.274.138-.519.275-.574.494a10.184 10.184 0 0 1-3.61 5.277c2.544-2.652 3.774-7.027 1.805-10.5Zm-1.723 10.746c1.778-1.367 3.146-3.28 3.746-5.441.029-.082.275-.218.438-.328.274-.137.547-.301.602-.52.11-.63.163-1.285.163-1.94 0-.248-.245-.493-.49-.74-.139-.164-.357-.355-.357-.492-.223-1.987-1-3.873-2.242-5.44-.547-3.283-2.735-4.294-2.788-4.321.053.082 1.476 2.133.49 4.538-1.01 2.434-3.608 2.051-3.827 2.078-.218 0-1.066 1.095-2.133 3.117-.136-.053-.711-.19-1.367-.081.492-1.367 1.23-3.309 1.367-3.472.055-.055.465-.165.739-.248.519-.136.765-.218.847-.326.055-.083.329-.712.602-1.369.245 0 .875-.053.93-.081.055-.055.574-1.394.574-1.559 0-.136-1.067-2.788-1.477-3.801.191-.218.382-.492.574-.793 5.605.602 9.98 5.36 9.98 11.13 0 4.43-2.596 8.284-6.37 10.089"/><path fill="#000" d="M16.228 10.687c.52-.602.245-1.723-.711-1.914.246-.575.602-1.723.602-1.723s-2.789 4.375-3.036 4.457c-.245.082-.491-.875-.491-.875-.52 1.996.875 2.269 1.038 1.64.765-.191 2.078-1.01 2.598-1.585Z"/></mask><g mask="url(#m)"><path stroke="url(#n)" stroke-linejoin="round" stroke-width="1.125" d="M16.228 10.687c.52-.602.245-1.723-.711-1.914.246-.575.602-1.723.602-1.723s-2.789 4.375-3.036 4.457c-.245.082-.491-.875-.491-.875-.52 1.996.875 2.269 1.038 1.64.765-.191 2.078-1.01 2.598-1.585Z"/></g><path fill="#fff" d="m10.323 15.526.875-6.59L3.596 3.66l6.945 2.35 1.64-2.515L18.17-.224 31.376 7.05l.685 11.101-5.88 8.176-4.648.712 2.407-4.403v-4.238l-1.75-3.308-1.778-1.175-2.735 2.816v2.98l-2.132 1.996-2.707.329-1.203.682-1.97-.628-.82-2.952 1.478-2.079v-1.533Z"/><path fill="#94A6C3" d="M22.463 3.605c-1.449-.301-3.036-.22-3.036-.22s-.519 2.408-3.745 3.036c.027 0 4.266 1.45 6.781-2.816Zm1.313 21.82c1.75-1.367 3.062-3.255 3.663-5.386.028-.082.274-.22.439-.33.273-.163.546-.3.6-.518.11-.63.164-1.286.164-1.942 0-.246-.245-.492-.491-.738-.192-.164-.383-.356-.383-.493a10.418 10.418 0 0 0-3.255-6.507l-.19.191c1.776 1.668 2.926 3.938 3.17 6.344.029.219.247.438.466.656.192.163.41.41.41.52 0 .63-.055 1.258-.164 1.887-.028.108-.274.218-.465.326-.273.138-.52.275-.574.494a10.103 10.103 0 0 1-4.156 5.66c.355-.766 1.476-3.254 2.077-4.512l-.109-4.047-3.472-3.363-1.969.274-2.16 3.5s1.012 1.285-.41 2.788c-1.394 1.477-2.489 1.806-2.489 1.806l-1.011-.549c.3-.381.902-.956 1.367-1.339.793-.655 1.587-.711 1.587-1.42.027-1.478-1.56-1.067-1.56-1.067l-.574.546-.245 2.024-1.204 1.504-.136-.028-1.97-.438s1.203-.628 1.396-1.339c.19-.684-.384-2.953-.411-3.09.027.027.574.492.82 1.258.438-1.204 1.011-2.352 1.176-2.461.163-.11 2.379-1.285 2.379-1.285l-.739 1.941.547-.3 1.313-3.228s1.284-.628 2.242-.628c1.722-.027 4.266-2.133 3.118-5.906.326.136 6.015 2.98 7 8.559.738 4.293-1.694 8.312-5.797 10.636Z"/><path fill="#0D1928" d="M17.267 4.206c.63-.739.384-1.832.384-1.832l-1.832 2.707c-.028 0 .654.028 1.448-.875Zm-6.152 14.793.22-1.094s-.904 1.586-.986 1.805c-.081.246.055.683.41.656.356-.027.793-.547.793-.93 0-.492-.437-.437-.437-.437Z"/><path fill="#0D1928" d="M28.957 2.106s.41-.985 1.831-.82c-3.199-2.517-6.876-2.713-9.338-2.713-3.39 0-5.085.688-5.222.77l.465-.988s-3.637-3.796-5.14.715C11.17-1.887 10.184.105 10.184.105S7.971 2.046 9.009 5.273c-2.543-.93-6.18-2.216-6.316-2.243-.192-.027-.245.055-.245.055s-.056.081.108.219c.301.245 6.044 4.485 7.301 5.305-.273.983-.273 1.449 0 1.913.383.63.41.957.356 1.422-.055.466-.548 4.485-.657 4.977-.11.493-1.257 2.243-1.203 2.762.055.519.766 2.735 1.395 2.98.465.164 1.613.52 2.38.52.272 0 .518-.055.627-.163.466-.411.602-.494.93-.494h.082c.137 0 .3.028.492.028.438 0 1.011-.082 1.423-.465.601-.601 1.64-1.421 1.969-1.804a2.545 2.545 0 0 0 .519-1.943c-.082-.655.273-1.23.683-1.803.52-.684 1.476-1.915 1.476-1.915 1.888 1.422 3.063 3.582 3.063 5.989 0 4.265-3.718 8.038-8.313 8.038-.71 0-1.435.688-2.119.525 2.105.739 3.924-.114 5.373-.114 3.09 0 3.733-.739 3.733-.739s.424.356-.506 1.203h.028c5.112-.71 7.697-.875 7.697-.875s1.271-2.279 1.025-1.349c6.809-5.112 4.102-11.911 4.074-12.13.055.081.739.901 1.094 1.339 1.093-11.266-6.521-14.405-6.521-14.405ZM16.884 19.6c-.108.138-.574.548-.902.848-.328.301-.683.602-.957.875-.11.11-.328.163-.656.163h-.82c.409-.546 1.613-1.803 2.023-2.076.492-.33.738-.657.437-1.231-.301-.574-1.093-.438-1.093-.438s.464-.19.875-.19c-.52-.137-1.176 0-1.477.3-.328.3-.273 1.366-.41 2.05-.136.712-.602 1.066-1.312 1.723-.383.356-.657.465-.875.465a9.33 9.33 0 0 1-1.396-.355c-.272-.356-.683-1.532-.793-2.024.083-.273.41-.847.575-1.175.328-.63.52-.985.574-1.314.11-.464.465-3.335.602-4.538.355.464.847 1.23.739 1.722.793-1.12.218-2.214-.055-2.652-.246-.438-.575-1.313-.301-2.242.274-.93 1.258-3.5 1.258-3.5s.328.574.793.465c.464-.11 4.21-5.742 4.21-5.742s1.012 2.214-.054 3.827c-1.093 1.614-2.161 1.915-2.161 1.915s1.505.273 2.9-.738c.573 1.339 1.12 2.733 1.147 2.926-.081.191-1.176 2.816-1.284 2.98-.055.054-.438.163-.712.219-.464.136-.739.218-.847.3-.191.164-1.066 2.57-1.477 3.746-.492.137-.985.41-1.34.956.192-.135.794-.218 1.23-.273.384-.026 1.559.602 1.86 1.778v.055c.055.438-.082.847-.301 1.176m-2.57.33c.246-.357.22-.957.246-1.15.028-.191.082-.546.301-.6.22-.056.739.026.739.409 0 .355-.383.437-.657.683-.192.192-.574.602-.63.657Zm10.91-5.224a12.95 12.95 0 0 0 .219-3.582 10.035 10.035 0 0 1 1.913 4.922c.028.219.247.438.467.656.19.163.408.383.408.52 0 .63-.054 1.259-.163 1.887-.027.082-.273.218-.465.327-.274.137-.519.274-.574.493a10.185 10.185 0 0 1-3.61 5.277c2.544-2.652 3.774-7.027 1.805-10.5Zm-1.723 10.746c1.778-1.367 3.146-3.28 3.746-5.441.029-.082.275-.218.438-.328.274-.137.547-.301.602-.52.11-.63.163-1.285.163-1.94 0-.248-.245-.493-.49-.739-.139-.165-.357-.356-.357-.492-.223-1.988-1-3.873-2.242-5.442-.547-3.282-2.735-4.293-2.788-4.32.053.082 1.476 2.133.49 4.539-1.01 2.433-3.608 2.05-3.827 2.077-.218 0-1.066 1.095-2.133 3.118-.136-.054-.711-.192-1.367-.082.492-1.367 1.23-3.309 1.367-3.472.055-.055.465-.165.739-.247.519-.137.765-.219.847-.327.055-.083.329-.712.602-1.368.245 0 .875-.054.93-.082.055-.055.574-1.394.574-1.559 0-.136-1.067-2.788-1.477-3.8.191-.219.382-.493.574-.794 5.605.602 9.98 5.36 9.98 11.13 0 4.43-2.596 8.284-6.37 10.09"/><path fill="#0D1928" d="M16.228 10.687c.52-.602.245-1.723-.711-1.914.246-.575.602-1.723.602-1.723s-2.789 4.375-3.036 4.457c-.245.082-.491-.875-.491-.875-.52 1.996.875 2.269 1.038 1.64.765-.191 2.078-1.01 2.598-1.585Z"/><path fill="#FFD923" d="m13.85 11.753 1.422-2.434s.82.411.41 1.067c-.52.765-1.832 1.367-1.832 1.367Z"/><path fill="#D82122" d="M31.431 23.018c-.41.547-.875 1.122-1.422 1.669 3.528-6.781.163-12.989.028-13.235.245.246.492.52.712.765 2.706 3.01 3.033 7.52.682 10.801Zm3.282-8.722c-1.23-3.308-2.98-6.125-6.837-8.668-3.718-2.462-7.711-2.27-7.93-2.242h-.054c.137-.055.274-.082.41-.11.847-.273 1.942-.491 3.035-.629 2.899-.41 5.825.575 7.821 2.68l.054.055c2.27 2.407 3.446 5.413 3.5 8.913M27.002.761c-4.075-.766-6.7-.383-8.587.328C18.36.87 18.17.432 18.006.077c-.575.684-1.177 1.505-1.56 2.024-1.038.71-1.475 1.394-1.475 1.394.6-2.05 2.35-3.581 4.483-3.964.65-.113 1.31-.168 1.97-.165C23.31-.607 25.197-.14 27 .761ZM11.934 6.01C8.736 5.9 9.802 2.183 9.858 1.963c0 .028.218 2.926 2.078 4.049m3.143-6.7c-2.46 1.477-1.968 5.003-1.968 5.003C10.759.735 14.887-.606 15.079-.688Z"/><path fill="#fff" d="M11.033 6.995c.164.137.328.383.137.739-.11.191-.273.163-.52.055-.327-.165-2.297-1.313-4.074-2.489 2.023.712 4.074 1.476 4.402 1.64l.055.055Z"/></g><defs><linearGradient id="c" x1="19.003" x2="19.003" y1="-3.138" y2="31.058" gradientUnits="userSpaceOnUse"><stop stop-color="#16395C"/><stop offset=".276" stop-color="#22436A"/><stop offset="1" stop-color="#0D1928" stop-opacity="0"/></linearGradient><linearGradient id="d" x1="19.003" x2="19.003" y1="-3.138" y2="31.058" gradientUnits="userSpaceOnUse"><stop stop-color="#16395C"/><stop offset=".276" stop-color="#22436A"/><stop offset="1" stop-color="#0D1928" stop-opacity="0"/></linearGradient><linearGradient id="e" x1="19.003" x2="19.003" y1="-3.138" y2="31.058" gradientUnits="userSpaceOnUse"><stop stop-color="#16395C"/><stop offset=".276" stop-color="#22436A"/><stop offset="1" stop-color="#0D1928" stop-opacity="0"/></linearGradient><linearGradient id="f" x1="19.003" x2="19.003" y1="-3.138" y2="31.058" gradientUnits="userSpaceOnUse"><stop stop-color="#16395C"/><stop offset=".276" stop-color="#22436A"/><stop offset="1" stop-color="#0D1928" stop-opacity="0"/></linearGradient><linearGradient id="h" x1="-.411" x2="28.792" y1="6.945" y2="20.644" gradientUnits="userSpaceOnUse"><stop stop-color="#213E61"/><stop offset=".291" stop-color="#2B6FB3"/><stop offset=".614" stop-color="#214167"/><stop offset=".719" stop-color="#3187DB"/><stop offset=".829" stop-color="#2B6DAF"/><stop offset="1" stop-color="#224167"/></linearGradient><linearGradient id="j" x1="-.411" x2="28.792" y1="6.945" y2="20.644" gradientUnits="userSpaceOnUse"><stop stop-color="#213E61"/><stop offset=".291" stop-color="#2B6FB3"/><stop offset=".614" stop-color="#214167"/><stop offset=".719" stop-color="#3187DB"/><stop offset=".829" stop-color="#2B6DAF"/><stop offset="1" stop-color="#224167"/></linearGradient><linearGradient id="l" x1="-.411" x2="28.792" y1="6.945" y2="20.644" gradientUnits="userSpaceOnUse"><stop stop-color="#213E61"/><stop offset=".291" stop-color="#2B6FB3"/><stop offset=".614" stop-color="#214167"/><stop offset=".719" stop-color="#3187DB"/><stop offset=".829" stop-color="#2B6DAF"/><stop offset="1" stop-color="#224167"/></linearGradient><linearGradient id="n" x1="-.411" x2="28.792" y1="6.945" y2="20.644" gradientUnits="userSpaceOnUse"><stop stop-color="#213E61"/><stop offset=".291" stop-color="#2B6FB3"/><stop offset=".614" stop-color="#214167"/><stop offset=".719" stop-color="#3187DB"/><stop offset=".829" stop-color="#2B6DAF"/><stop offset="1" stop-color="#224167"/></linearGradient><radialGradient id="b" cx="0" cy="0" r="1" gradientTransform="matrix(-34.99998 33.83334 -21.3989 -22.13678 31.5 -3.5)" gradientUnits="userSpaceOnUse"><stop stop-color="#278CE6"/><stop offset="1" stop-color="#278CE6" stop-opacity="0"/></radialGradient><clipPath id="a"><path fill="#fff" d="M0 0h28v28H0z"/></clipPath></defs></svg>