<svg width="512" height="512" viewBox="0 0 512 512" fill="none" xmlns="http://www.w3.org/2000/svg"><g clip-path="url(#clip0_9660_58734)"><rect width="512" height="512" rx="100" fill="#1A1A1C"/><path d="M260.008 160.847L292.907 179.326L306.6 165.995L352.457 160.847L379.383 190.817L383.885 234.026L352.457 261.79L292.907 286.244L220.033 257.009L201.562 219.593L215.254 176.016L260.008 160.847Z" fill="#1A1A1C"/><path fill-rule="evenodd" clip-rule="evenodd" d="M200.405 366.015C171.161 366.015 143.709 359.772 119.955 348.837L216.598 260.626C203.249 249.675 194.732 233.05 194.732 214.436C194.732 195.483 203.561 178.593 217.331 167.654V154.723H254.445C269.372 154.723 283.019 160.2 293.488 169.254C303.956 160.2 317.604 154.723 332.531 154.723H369.645V167.654C383.415 178.593 392.244 195.483 392.244 214.436C392.244 238.267 378.283 258.838 358.094 268.416C350.875 289.731 337.296 308.902 319.121 324.495V352.051H273.435C251.453 360.987 226.651 366.015 200.405 366.015ZM254.446 260.37C265.316 260.37 275.304 256.594 283.171 250.282L293.398 273.31L303.673 250.173C311.56 256.55 321.6 260.37 332.533 260.37C357.901 260.37 378.466 239.805 378.466 214.437C378.466 189.068 357.901 168.503 332.533 168.503C316.049 168.503 301.593 177.186 293.489 190.228C285.386 177.186 270.93 168.503 254.446 168.503C229.078 168.503 208.513 189.068 208.513 214.437C208.513 239.805 229.078 260.37 254.446 260.37ZM254.446 246.588C272.204 246.588 286.599 232.192 286.599 214.435C286.599 196.677 272.204 182.282 254.446 182.282C236.689 182.282 222.293 196.677 222.293 214.435C222.293 232.192 236.689 246.588 254.446 246.588ZM254.446 232.808C264.594 232.808 272.819 224.582 272.819 214.435C272.819 204.287 264.594 196.061 254.446 196.061C244.299 196.061 236.073 204.287 236.073 214.435C236.073 224.582 244.299 232.808 254.446 232.808ZM364.686 214.435C364.686 232.192 350.29 246.588 332.532 246.588C314.775 246.588 300.379 232.192 300.379 214.435C300.379 196.677 314.775 182.282 332.532 182.282C350.29 182.282 364.686 196.677 364.686 214.435ZM350.906 214.435C350.906 224.582 342.68 232.808 332.532 232.808C322.385 232.808 314.159 224.582 314.159 214.435C314.159 204.287 322.385 196.061 332.532 196.061C342.68 196.061 350.906 204.287 350.906 214.435Z" fill="white"/><path fill-rule="evenodd" clip-rule="evenodd" d="M273.435 352.051H319.121V324.495C337.296 308.902 350.875 289.731 358.094 268.416C378.283 258.838 392.244 238.267 392.244 214.436C392.244 195.483 383.415 178.593 369.645 167.654V154.723H332.531C317.604 154.723 303.956 160.2 293.488 169.254C283.019 160.2 269.372 154.723 254.445 154.723H217.331V167.654C203.561 178.593 194.732 195.483 194.732 214.436C194.732 229.701 200.46 243.629 209.884 254.186C211.952 256.502 214.197 258.656 216.598 260.626L119.955 348.837C123.024 350.25 126.154 351.584 129.342 352.837C150.832 361.281 174.939 366.015 200.405 366.015C226.651 366.015 251.453 360.987 273.435 352.051ZM287.475 182.515C279.123 173.876 267.412 168.503 254.446 168.503C229.078 168.503 208.513 189.068 208.513 214.437C208.513 239.805 229.078 260.37 254.446 260.37C261.946 260.37 269.027 258.572 275.28 255.384C278.089 253.952 280.732 252.239 283.171 250.282L293.398 273.31L303.673 250.173C306.106 252.14 308.744 253.864 311.55 255.308C317.839 258.543 324.973 260.37 332.533 260.37C357.901 260.37 378.466 239.805 378.466 214.437C378.466 189.068 357.901 168.503 332.533 168.503C319.567 168.503 307.856 173.876 299.504 182.515C297.238 184.86 295.219 187.445 293.489 190.228C291.76 187.445 289.741 184.86 287.475 182.515ZM293.398 250.44L298.738 238.416C296.553 235.343 294.778 231.96 293.489 228.345C292.179 232.022 290.364 235.46 288.128 238.575L293.398 250.44ZM254.446 223.525C259.467 223.525 263.537 219.455 263.537 214.435C263.537 209.414 259.467 205.344 254.446 205.344C249.426 205.344 245.356 209.414 245.356 214.435C245.356 219.455 249.426 223.525 254.446 223.525ZM332.532 223.525C337.553 223.525 341.623 219.455 341.623 214.435C341.623 209.414 337.553 205.344 332.532 205.344C327.512 205.344 323.442 209.414 323.442 214.435C323.442 219.455 327.512 223.525 332.532 223.525ZM286.599 214.435C286.599 232.192 272.204 246.588 254.446 246.588C236.689 246.588 222.293 232.192 222.293 214.435C222.293 196.677 236.689 182.282 254.446 182.282C272.204 182.282 286.599 196.677 286.599 214.435ZM272.819 214.435C272.819 224.582 264.594 232.808 254.446 232.808C244.299 232.808 236.073 224.582 236.073 214.435C236.073 204.287 244.299 196.061 254.446 196.061C264.594 196.061 272.819 204.287 272.819 214.435ZM332.532 246.588C350.29 246.588 364.686 232.192 364.686 214.435C364.686 196.677 350.29 182.282 332.532 182.282C314.775 182.282 300.379 196.677 300.379 214.435C300.379 232.192 314.775 246.588 332.532 246.588ZM332.532 232.808C342.68 232.808 350.906 224.582 350.906 214.435C350.906 204.287 342.68 196.061 332.532 196.061C322.385 196.061 314.159 204.287 314.159 214.435C314.159 224.582 322.385 232.808 332.532 232.808Z" fill="#1A1A1C"/><path fill-rule="evenodd" clip-rule="evenodd" d="M200.405 366.015C171.161 366.015 143.709 359.772 119.955 348.837L216.598 260.626C203.249 249.675 194.732 233.05 194.732 214.436C194.732 195.483 203.561 178.593 217.331 167.654V154.723H254.445C269.372 154.723 283.019 160.2 293.488 169.254C303.956 160.2 317.604 154.723 332.531 154.723H369.645V167.654C383.415 178.593 392.244 195.483 392.244 214.436C392.244 238.267 378.283 258.838 358.094 268.416C350.875 289.731 337.296 308.902 319.121 324.495V352.051H273.435C251.453 360.987 226.651 366.015 200.405 366.015ZM254.446 260.37C265.316 260.37 275.304 256.594 283.171 250.282L293.398 273.31L303.673 250.173C311.56 256.55 321.6 260.37 332.533 260.37C357.901 260.37 378.466 239.805 378.466 214.437C378.466 189.068 357.901 168.503 332.533 168.503C316.049 168.503 301.593 177.186 293.489 190.228C285.386 177.186 270.93 168.503 254.446 168.503C229.078 168.503 208.513 189.068 208.513 214.437C208.513 239.805 229.078 260.37 254.446 260.37ZM254.446 246.588C272.204 246.588 286.599 232.192 286.599 214.435C286.599 196.677 272.204 182.282 254.446 182.282C236.689 182.282 222.293 196.677 222.293 214.435C222.293 232.192 236.689 246.588 254.446 246.588ZM254.446 232.808C264.594 232.808 272.819 224.582 272.819 214.435C272.819 204.287 264.594 196.061 254.446 196.061C244.299 196.061 236.073 204.287 236.073 214.435C236.073 224.582 244.299 232.808 254.446 232.808ZM364.686 214.435C364.686 232.192 350.29 246.588 332.532 246.588C314.775 246.588 300.379 232.192 300.379 214.435C300.379 196.677 314.775 182.282 332.532 182.282C350.29 182.282 364.686 196.677 364.686 214.435ZM350.906 214.435C350.906 224.582 342.68 232.808 332.532 232.808C322.385 232.808 314.159 224.582 314.159 214.435C314.159 204.287 322.385 196.061 332.532 196.061C342.68 196.061 350.906 204.287 350.906 214.435Z" fill="white"/><path d="M300.118 214.055C300.118 239.457 279.526 260.05 254.123 260.05C228.721 260.05 208.128 239.457 208.128 214.055C208.128 188.652 228.721 168.06 254.123 168.06C279.526 168.06 300.118 188.652 300.118 214.055Z" fill="#1A1A1C"/><path d="M378.311 214.055C378.311 239.457 357.718 260.05 332.316 260.05C306.913 260.05 286.32 239.457 286.32 214.055C286.32 188.652 306.913 168.06 332.316 168.06C357.718 168.06 378.311 188.652 378.311 214.055Z" fill="#1A1A1C"/><path d="M286.318 214.055C286.318 231.837 271.903 246.251 254.122 246.251C236.34 246.251 221.925 231.837 221.925 214.055C221.925 196.273 236.34 181.858 254.122 181.858C271.903 181.858 286.318 196.273 286.318 214.055Z" fill="white"/><path d="M364.511 214.055C364.511 231.837 350.096 246.251 332.314 246.251C314.532 246.251 300.118 231.837 300.118 214.055C300.118 196.273 314.532 181.858 332.314 181.858C350.096 181.858 364.511 196.273 364.511 214.055Z" fill="white"/><path d="M272.521 214.055C272.521 224.216 264.284 232.453 254.123 232.453C243.962 232.453 235.725 224.216 235.725 214.055C235.725 203.894 243.962 195.657 254.123 195.657C264.284 195.657 272.521 203.894 272.521 214.055Z" fill="#1A1A1C"/><path d="M350.714 214.055C350.714 224.216 342.477 232.453 332.316 232.453C322.155 232.453 313.918 224.216 313.918 214.055C313.918 203.894 322.155 195.657 332.316 195.657C342.477 195.657 350.714 203.894 350.714 214.055Z" fill="#1A1A1C"/><path d="M293.129 273.008L277.195 237.131H309.062L293.129 273.008Z" fill="#1A1A1C"/></g><defs><clipPath id="clip0_9660_58734"><rect width="512" height="512" rx="100" fill="white"/></clipPath></defs></svg>
