<?xml version="1.0" encoding="UTF-8"?>
<svg xmlns="http://www.w3.org/2000/svg" xmlns:xlink="http://www.w3.org/1999/xlink" width="28px" height="28px" viewBox="0 0 28 28" version="1.1">
<g id="surface1">
<rect x="0" y="0" width="28" height="28" style="fill:rgb(15.686275%,15.686275%,18.039216%);fill-opacity:1;stroke:none;"/>
<path style=" stroke:none;fill-rule:nonzero;fill:rgb(94.901961%,94.901961%,95.294118%);fill-opacity:1;" d="M 11.503906 10.828125 C 12.105469 10.828125 12.652344 10.957031 13.140625 11.21875 C 13.628906 11.476562 14.015625 11.847656 14.296875 12.324219 C 14.578125 12.800781 14.722656 13.351562 14.722656 13.972656 C 14.722656 14.597656 14.574219 15.144531 14.285156 15.621094 C 13.996094 16.097656 13.605469 16.46875 13.113281 16.726562 C 12.617188 16.988281 12.066406 17.117188 11.457031 17.117188 C 10.847656 17.117188 10.3125 16.988281 9.832031 16.726562 C 9.351562 16.46875 8.972656 16.101562 8.699219 15.621094 C 8.667969 15.570312 8.636719 15.515625 8.609375 15.457031 C 8.582031 15.515625 8.550781 15.570312 8.515625 15.621094 C 8.226562 16.097656 7.835938 16.46875 7.34375 16.726562 C 6.851562 16.988281 6.296875 17.117188 5.6875 17.117188 C 5.078125 17.117188 4.542969 16.988281 4.0625 16.726562 C 3.582031 16.46875 3.203125 16.101562 2.929688 15.621094 C 2.652344 15.144531 2.515625 14.597656 2.515625 13.972656 C 2.515625 13.351562 2.65625 12.800781 2.9375 12.324219 C 3.222656 11.847656 3.605469 11.480469 4.097656 11.21875 C 4.585938 10.957031 5.132812 10.828125 5.734375 10.828125 C 6.335938 10.828125 6.882812 10.957031 7.371094 11.21875 C 7.859375 11.476562 8.246094 11.847656 8.527344 12.324219 C 8.558594 12.378906 8.589844 12.433594 8.617188 12.488281 C 8.644531 12.433594 8.675781 12.378906 8.707031 12.324219 C 8.992188 11.847656 9.375 11.480469 9.867188 11.21875 C 10.355469 10.957031 10.902344 10.828125 11.503906 10.828125 Z M 11.503906 12.324219 C 11.1875 12.324219 10.898438 12.390625 10.640625 12.527344 C 10.382812 12.664062 10.179688 12.859375 10.03125 13.109375 C 9.882812 13.359375 9.808594 13.644531 9.808594 13.972656 C 9.808594 14.300781 9.882812 14.589844 10.027344 14.839844 C 10.171875 15.085938 10.371094 15.28125 10.625 15.417969 C 10.875 15.554688 11.164062 15.621094 11.480469 15.621094 C 11.796875 15.621094 12.089844 15.554688 12.351562 15.417969 C 12.609375 15.28125 12.816406 15.085938 12.96875 14.839844 C 13.121094 14.589844 13.195312 14.300781 13.195312 13.972656 C 13.195312 13.644531 13.121094 13.359375 12.972656 13.109375 C 12.824219 12.859375 12.621094 12.664062 12.363281 12.527344 C 12.105469 12.390625 11.820312 12.324219 11.503906 12.324219 Z M 5.761719 12.324219 C 5.445312 12.324219 5.15625 12.390625 4.898438 12.527344 C 4.640625 12.664062 4.441406 12.859375 4.289062 13.109375 C 4.140625 13.359375 4.066406 13.644531 4.066406 13.972656 C 4.066406 14.300781 4.140625 14.589844 4.285156 14.839844 C 4.429688 15.085938 4.628906 15.28125 4.882812 15.417969 C 5.136719 15.554688 5.421875 15.621094 5.738281 15.621094 C 6.054688 15.621094 6.347656 15.554688 6.609375 15.417969 C 6.867188 15.28125 7.074219 15.085938 7.226562 14.839844 L 8.382812 14.839844 C 8.316406 14.566406 8.285156 14.277344 8.285156 13.972656 C 8.285156 13.703125 8.3125 13.445312 8.363281 13.203125 L 7.226562 13.203125 C 7.117188 12.886719 6.878906 12.664062 6.625 12.527344 C 6.367188 12.390625 6.078125 12.324219 5.761719 12.324219 Z M 22.402344 10.828125 C 22.996094 10.828125 23.527344 10.953125 24 11.203125 C 24.46875 11.449219 24.835938 11.804688 25.09375 12.261719 C 25.355469 12.722656 25.484375 13.246094 25.484375 13.839844 C 25.484375 14.0625 25.46875 14.257812 25.4375 14.433594 L 20.867188 14.433594 L 20.871094 14.5 C 20.921875 14.910156 21.074219 15.230469 21.339844 15.46875 C 21.617188 15.71875 21.960938 15.84375 22.367188 15.84375 C 22.957031 15.84375 23.371094 15.597656 23.621094 15.105469 L 25.328125 15.105469 L 25.300781 15.179688 C 25.117188 15.734375 24.777344 16.191406 24.289062 16.550781 C 23.777344 16.929688 23.148438 17.117188 22.402344 17.117188 C 21.800781 17.117188 21.261719 16.988281 20.78125 16.726562 C 20.304688 16.46875 19.929688 16.097656 19.664062 15.621094 C 19.398438 15.144531 19.261719 14.597656 19.261719 13.972656 C 19.261719 13.433594 19.359375 12.953125 19.550781 12.527344 L 18.984375 12.527344 C 18.667969 12.535156 18.40625 12.605469 18.199219 12.734375 C 17.980469 12.871094 17.820312 13.0625 17.722656 13.300781 C 17.621094 13.539062 17.574219 13.8125 17.574219 14.121094 L 17.574219 15.683594 L 19.285156 15.683594 L 19.285156 17.09375 L 14.597656 17.09375 L 14.597656 15.683594 L 15.863281 15.683594 L 15.863281 12.429688 L 14.597656 12.429688 L 14.597656 11.023438 L 17.445312 11.023438 L 17.5 12.074219 L 17.542969 12 C 17.644531 11.828125 17.765625 11.671875 17.90625 11.535156 C 18.066406 11.375 18.261719 11.25 18.5 11.160156 C 18.734375 11.066406 19.019531 11.023438 19.355469 11.023438 L 20.078125 11.023438 L 20.078125 11.738281 C 20.273438 11.53125 20.503906 11.355469 20.765625 11.214844 C 21.238281 10.957031 21.785156 10.828125 22.402344 10.828125 Z M 22.355469 12.09375 C 21.964844 12.09375 21.636719 12.207031 21.367188 12.4375 C 21.101562 12.671875 20.9375 12.992188 20.878906 13.402344 L 23.847656 13.402344 C 23.839844 13.003906 23.691406 12.6875 23.40625 12.449219 C 23.121094 12.210938 22.769531 12.09375 22.355469 12.09375 Z M 22.355469 12.09375 "/>
</g>
</svg>
