<svg width="81" height="81" viewBox="0 0 81 81" fill="none" xmlns="http://www.w3.org/2000/svg">
<g clip-path="url(#clip0_207_2)">
<path d="M68.4634 0H12.5366C5.61281 0 0 5.61281 0 12.5366V68.4634C0 75.3872 5.61281 81 12.5366 81H68.4634C75.3872 81 81 75.3872 81 68.4634V12.5366C81 5.61281 75.3872 0 68.4634 0Z" fill="black"/>
<path d="M26.8114 21.7802L40.5 30.5472L54.1904 21.7802L40.5 13.0132L26.8114 21.7802Z" fill="white"/>
<path d="M26.8114 59.2199L40.5 67.9869L54.1904 59.2199L40.5 50.4546L26.8114 59.2199Z" fill="white"/>
<path d="M7.32016 46.744L21.0088 55.5111L34.6991 46.744L21.0088 37.9771L7.32016 46.744Z" fill="white"/>
<path d="M46.3026 46.744L59.9912 55.5111L73.6816 46.744L59.9912 37.9771L46.3026 46.744Z" fill="white"/>
</g>
<defs>
<clipPath id="clip0_207_2">
<rect width="81" height="81" fill="white"/>
</clipPath>
</defs>
</svg>
