<svg width="590" height="588" viewBox="0 0 590 588" fill="none" xmlns="http://www.w3.org/2000/svg">
<path d="M270.988 586.942C175.252 577.294 88.0508 526.829 41.296 453.728C22.3715 424.043 7.52877 386.194 2.70488 355.395C0.543618 333.945 -0.323778 312.384 0.107396 290.829C2.33381 224.037 17.9187 172.458 49.4596 126.445C59.202 111.998 70.6654 98.7903 83.5979 87.112C108.316 62.991 137.078 43.3978 168.573 29.2251C197.29 15.4658 227.952 6.20447 259.485 1.76601C284.044 -0.706793 308.795 -0.582419 333.328 2.13708C389.73 10.6717 439.453 34.7912 487.321 76.7221C535.189 118.653 571.554 174.313 583.799 227.747C588.623 247.785 589.365 255.577 589.365 280.439C590.048 298.648 588.3 316.867 584.17 334.615L581.202 348.716L570.812 350.942C540.243 356.929 510.116 364.988 480.642 375.062C462.831 381.741 459.12 383.225 432.774 394.728C406.428 406.232 396.038 410.313 382.309 414.024C353.736 421.816 323.309 422.559 302.9 415.879C275.07 406.603 254.29 384.338 249.837 359.477C248.415 348.201 249.043 336.761 251.692 325.71C257.629 304.559 270.617 282.665 291.026 260.03L298.076 252.609C298.076 252.609 299.56 261.886 300.673 272.647C301.787 283.408 303.271 292.684 303.271 293.055L311.434 290.458C335.941 281.631 362.453 279.958 387.875 285.634C407.924 290.524 427.635 296.722 446.875 304.187C455.78 307.527 465.428 310.867 468.768 311.609C488.26 314.207 508.09 311.648 526.284 304.187C530.736 302.332 531.107 301.961 532.221 297.508C533.709 287.171 533.709 276.675 532.221 266.338L531.107 260.772L512.925 248.527C404.573 176.54 313.29 133.496 236.107 118.653C214.956 114.2 178.221 110.86 178.221 113.087C178.221 115.313 178.221 114.571 177.85 114.942C177.478 115.313 188.239 121.25 216.441 134.98L255.403 153.904C249.959 156.211 244.383 158.193 238.705 159.842C217.613 166.522 197.028 174.707 177.107 184.332C162.265 191.754 140.743 203.999 140.743 205.483L158.554 207.71L176.365 209.194L166.717 219.584C153.359 233.313 145.938 242.219 127.013 265.225L111.428 284.892H125.158C129.757 284.894 134.348 285.266 138.887 286.005C138.887 286.376 132.579 307.527 124.787 333.131C116.994 358.735 110.686 379.886 111.057 379.886L125.529 376.917C135.177 374.691 140.372 373.948 140.743 374.691C141.114 375.433 142.598 395.842 144.453 420.703C146.309 445.565 147.422 465.974 147.793 465.974C152.245 462.957 156.462 459.606 160.409 455.955L173.768 445.936C174.139 445.936 185.271 462.634 199 483.043C212.73 503.452 223.862 520.15 224.233 520.15C228.564 516.313 232.539 512.09 236.107 507.533C245.013 497.143 247.611 494.546 248.353 495.659L258.743 507.904C263.566 513.842 272.472 523.489 278.409 529.426L288.799 539.816H311.063C346.315 539.816 368.208 543.156 397.522 553.917L406.428 556.886L403.46 559.112C386.019 572.099 363.384 580.634 335.183 585.087C323.865 586.579 312.46 587.324 301.044 587.313C288.799 587.684 275.07 587.313 270.988 586.942Z" fill="url(#paint0_linear_13_610)"/>
<defs>
<linearGradient id="paint0_linear_13_610" x1="116.904" y1="63.7271" x2="369.159" y2="568.237" gradientUnits="userSpaceOnUse">
<stop offset="0.005" stop-color="#29CCC4"/>
<stop offset="0.595" stop-color="#DF01B8"/>
<stop offset="0.811459" stop-color="#EF3C8E"/>
<stop offset="1"/>
</linearGradient>
</defs>
</svg>
