<svg width="512" height="512" viewBox="0 0 512 512" fill="none" xmlns="http://www.w3.org/2000/svg">
<g clip-path="url(#clip0_91_193)">
<path d="M220.83 511.521C136.028 547.547 -129.836 574.42 -106.268 439.267C-123.567 412.129 -20.0069 328.002 -24.4165 299.847C-26.3922 280.237 -27.1852 260.527 -26.791 240.822C-24.7558 179.762 -64.1939 132.862 -35.3614 90.7983C-26.4555 77.591 -36.2386 -12.4169 -24.4165 -23.0929C-1.82101 -45.1437 72.9773 -42.2943 101.768 -55.2507C128.019 -67.8291 181.489 -19.3746 210.314 -23.4321C232.764 -25.6927 255.39 -25.579 277.816 -23.0929C329.376 -15.2908 483.897 -85.1113 527.655 -46.7791C571.412 -8.44704 516.461 136.983 527.655 185.831C532.065 204.149 511.869 208.596 511.869 231.324C512.493 247.97 568.265 267.402 564.489 283.627L557.491 295.776H494.908C466.964 301.249 439.424 308.616 412.481 317.825C396.199 323.931 392.807 325.288 368.724 335.804C344.64 346.32 335.142 350.051 322.591 353.444C296.473 360.567 268.658 361.246 250.001 355.14C224.561 346.659 205.565 326.306 201.495 303.578C200.195 293.27 200.769 282.812 203.191 272.709C208.618 253.373 220.49 233.359 239.147 212.667L245.592 205.882C245.592 205.882 246.948 214.363 247.966 224.2C248.984 234.038 250.34 242.518 250.34 242.857L257.803 240.483C280.205 232.414 304.441 230.884 327.68 236.073C346.007 240.543 364.026 246.209 381.613 253.034C389.754 256.087 398.574 259.14 401.627 259.818C419.445 262.194 437.572 259.854 454.203 253.034C458.274 251.338 458.613 250.999 459.631 246.928C460.991 237.478 460.991 227.883 459.631 218.433L458.613 213.345L441.992 202.151C342.944 136.342 259.499 96.9918 188.944 83.4229C169.609 79.3523 136.028 76.2993 136.028 78.3346C136.028 80.3699 136.028 79.6915 135.689 80.0307C135.35 80.3699 145.187 85.7975 170.966 98.3487L206.583 115.649C201.606 117.758 196.509 119.57 191.319 121.077C172.038 127.184 153.22 134.666 135.01 143.465C121.442 150.25 101.768 161.444 101.768 162.801L118.05 164.836L134.332 166.193L125.513 175.691C113.301 188.243 106.517 196.384 89.2175 217.416L74.9708 235.394H87.5215C91.7256 235.397 95.9226 235.737 100.072 236.412C100.072 236.751 94.3056 256.087 87.1823 279.493C80.0589 302.9 74.2924 322.235 74.6316 322.235L87.8607 319.522C96.68 317.486 101.429 316.808 101.768 317.486C102.107 318.165 103.464 336.822 105.16 359.549C106.856 382.277 107.874 400.935 108.213 400.935C112.283 398.177 116.138 395.114 119.746 391.776L131.957 382.617C132.297 382.617 142.473 397.882 155.023 416.539C167.574 435.196 177.75 450.461 178.09 450.461C182.049 446.953 185.682 443.093 188.944 438.927C197.085 429.429 199.46 427.055 200.138 428.072L209.636 439.267C214.045 444.694 222.186 453.514 227.614 458.942L237.111 468.44H257.464C289.688 468.44 309.702 471.493 336.499 481.33L344.64 484.044L469.456 539.075C453.513 550.947 303.596 521.375 277.816 525.446C267.47 526.809 258.741 511.87 248.305 511.86C237.111 512.199 220.83 533.365 220.83 511.521Z" fill="url(#paint0_linear_91_193)"/>
</g>
<defs>
<linearGradient id="paint0_linear_91_193" x1="79.976" y1="33.2114" x2="310.588" y2="494.413" gradientUnits="userSpaceOnUse">
<stop offset="0.005" stop-color="#29CCC4"/>
<stop offset="0.595" stop-color="#DF01B8"/>
<stop offset="0.811459" stop-color="#EF3C8E"/>
<stop offset="1"/>
</linearGradient>
<clipPath id="clip0_91_193">
<rect width="512" height="512" fill="white"/>
</clipPath>
</defs>
</svg>

