<svg width="64" height="64" viewBox="0 0 64 64" fill="none" xmlns="http://www.w3.org/2000/svg">
<path d="M62.7642 54.1607C62.2701 58.3317 58.3246 62.2677 54.1608 62.7642C39.3883 64.4119 24.6135 64.4119 9.83869 62.7642C5.67008 62.2701 1.73652 58.3293 1.23763 54.1607C-0.412544 39.3883 -0.412544 24.6135 1.23763 9.83868C1.72933 5.67247 5.67008 1.73172 9.83869 1.23763C24.6135 -0.412544 39.3883 -0.412544 54.1608 1.23763C58.327 1.73172 62.2677 5.67247 62.7642 9.83868C64.412 24.6135 64.412 39.3883 62.7642 54.1607Z" fill="white"/>
<path fill-rule="evenodd" clip-rule="evenodd" d="M59.4274 59.4288C60.9216 57.9358 61.957 56.0253 62.1862 54.0941C63.8289 39.366 63.8289 24.636 62.1862 9.90558C61.9558 7.97645 60.9209 6.06589 59.4273 4.57256C57.9336 3.07922 56.0232 2.04494 54.0942 1.81563C39.366 0.170542 24.6358 0.170541 9.90523 1.81563C7.97499 2.04495 6.06395 3.07929 4.57072 4.57252C3.07743 6.06581 2.04378 7.97623 1.81564 9.90512C0.170553 24.6356 0.170538 39.3657 1.81559 54.0938C2.04728 56.0246 3.08131 57.9357 4.57358 59.4291C6.066 60.9227 7.9753 61.957 9.90549 62.1862C24.6359 63.8289 39.3659 63.8289 54.094 62.1862C56.0221 61.9557 57.9332 60.9218 59.4274 59.4288ZM54.1608 62.7642C58.3246 62.2677 62.2701 58.3317 62.7642 54.1607C64.412 39.3883 64.412 24.6135 62.7642 9.83868C62.2677 5.67247 58.327 1.73172 54.1608 1.23763C39.3883 -0.412544 24.6135 -0.412544 9.83869 1.23763C5.67008 1.73172 1.72933 5.67247 1.23763 9.83868C-0.412544 24.6135 -0.412544 39.3883 1.23763 54.1607C1.73652 58.3293 5.67008 62.2701 9.83869 62.7642C24.6135 64.4119 39.3883 64.4119 54.1608 62.7642Z" fill="#001405"/>
<g clip-path="url(#clip0_2025_201)">
<path d="M24.4361 42.366V51.8858C24.4361 53.4372 25.6446 54.6904 27.1325 54.6904H36.2851C37.7766 54.6904 38.9815 53.4334 38.9815 51.8858V47.1259C38.9815 45.0347 39.7944 43.1436 41.1117 41.7771C42.4291 40.4069 44.2472 39.5614 46.2541 39.5614H50.8304C52.3219 39.5614 53.5268 38.3044 53.5268 36.7568V27.2407C53.5268 25.6893 52.3183 24.4361 50.8304 24.4361H41.6815C40.1899 24.4361 38.9851 25.6931 38.9851 27.2407V32.2309C38.9851 36.2811 35.8278 39.5614 31.9374 39.5614H27.1398C25.6483 39.5614 24.4434 40.8183 24.4434 42.366H24.4361Z" fill="#001405"/>
<path d="M9.89081 36.759C9.89081 38.3102 11.0993 39.5633 12.5872 39.5633H21.7397C23.2313 39.5633 24.4361 38.3064 24.4361 36.759V31.9997C24.4361 29.9088 25.249 28.0179 26.5664 26.6516C27.8837 25.2815 29.7019 24.4361 31.7088 24.4361H36.285C37.7766 24.4361 38.9814 23.1793 38.9814 21.6319V12.1132C38.9814 10.562 37.773 9.30899 36.285 9.30899H27.1362C25.6446 9.30899 24.4398 10.5658 24.4398 12.1132V17.1028C24.4398 21.1525 21.2825 24.4323 17.3921 24.4323H12.5872C11.0957 24.4323 9.89081 25.6892 9.89081 27.2366V36.759Z" fill="#001405"/>
</g>
<defs>
<clipPath id="clip0_2025_201">
<rect width="43.636" height="45.3814" fill="white" transform="translate(9.89081 9.30899)"/>
</clipPath>
</defs>
</svg>
