<svg xmlns="http://www.w3.org/2000/svg" width="128" height="128" viewBox="0 0 128 128" fill="none">
<path d="M125.528 108.321C124.54 116.663 116.649 124.535 108.322 125.528C78.7767 128.824 49.227 128.824 19.6774 125.528C11.3402 124.54 3.47304 116.659 2.47526 108.321C-0.825087 78.7766 -0.825087 49.227 2.47526 19.6774C3.45865 11.3449 11.3402 3.46345 19.6774 2.47526C49.227 -0.825087 78.7767 -0.825087 108.322 2.47526C116.654 3.46345 124.535 11.3449 125.528 19.6774C128.824 49.227 128.824 78.7766 125.528 108.321Z" fill="white"/>
<path fill-rule="evenodd" clip-rule="evenodd" d="M118.855 118.858C121.843 115.872 123.914 112.051 124.372 108.188C127.658 78.7321 127.658 49.272 124.372 19.8111C123.912 15.9529 121.842 12.1318 118.855 9.14511C115.867 6.15844 112.046 4.08987 108.188 3.63125C78.732 0.341083 49.2716 0.341082 19.8105 3.63126C15.95 4.08991 12.1279 6.15857 9.14144 9.14503C6.15486 12.1316 4.08756 15.9525 3.63128 19.8102C0.341106 49.2713 0.341076 78.7315 3.63118 108.188C4.09456 112.049 6.16263 115.871 9.14715 118.858C12.132 121.845 15.9506 123.914 19.811 124.372C49.2718 127.658 78.7319 127.658 108.188 124.372C112.044 123.911 115.866 121.844 118.855 118.858ZM108.322 125.528C116.649 124.535 124.54 116.663 125.528 108.321C128.824 78.7766 128.824 49.227 125.528 19.6774C124.535 11.3449 116.654 3.46345 108.322 2.47526C78.7767 -0.825087 49.227 -0.825087 19.6774 2.47526C11.3402 3.46345 3.45865 11.3449 2.47526 19.6774C-0.825087 49.227 -0.825087 78.7766 2.47526 108.321C3.47304 116.659 11.3402 124.54 19.6774 125.528C49.227 128.824 78.7767 128.824 108.322 125.528Z" fill="#001405"/>
<g clip-path="url(#clip0_1624_336)">
<path d="M48.8723 84.732V103.772C48.8723 106.874 51.2893 109.381 54.2651 109.381H72.5701C75.5532 109.381 77.9629 106.867 77.9629 103.772V94.2518C77.9629 90.0694 79.5888 86.2872 82.2235 83.5543C84.8582 80.8138 88.4945 79.1228 92.5083 79.1228H101.661C104.644 79.1228 107.054 76.6088 107.054 73.5136V54.4815C107.054 51.3787 104.637 48.8723 101.661 48.8723H83.363C80.3799 48.8723 77.9702 51.3862 77.9702 54.4815V64.4618C77.9702 72.5623 71.6556 79.1228 63.8749 79.1228H54.2796C51.2965 79.1228 48.8868 81.6367 48.8868 84.732H48.8723Z" fill="#001405"/>
<path d="M19.7816 73.518C19.7816 76.6204 22.1986 79.1265 25.1744 79.1265H43.4795C46.4626 79.1265 48.8723 76.6129 48.8723 73.518V63.9994C48.8723 59.8175 50.4981 56.0358 53.1328 53.3032C55.7675 50.5631 59.4038 48.8723 63.4176 48.8723H72.5701C75.5532 48.8723 77.9629 46.3586 77.9629 43.2638V24.2265C77.9629 21.1241 75.5459 18.618 72.5701 18.618H54.2723C51.2892 18.618 48.8795 21.1317 48.8795 24.2265V34.2056C48.8795 42.3051 42.5649 48.8647 34.7842 48.8647H25.1744C22.1913 48.8647 19.7816 51.3784 19.7816 54.4732V73.518Z" fill="#001405"/>
</g>
<defs>
<clipPath id="clip0_1624_336">
<rect width="87.2719" height="90.7628" fill="white" transform="translate(19.7816 18.618)"/>
</clipPath>
</defs>
</svg>