<svg xmlns="http://www.w3.org/2000/svg" fill="none" viewBox="0 0 28 28"><g clip-path="url(#a)"><path fill="#CC703C" d="M28 0H0v28h28V0Z"/><path fill="#fff" fill-rule="evenodd" d="m21.93 3.855-.124.298-.406.95-.27.614c-2.045 4.597-3.637 6.779-5.33 6.779-.975 0-1.552-.255-2.299-.854l-.215-.178c-.538-.45-.764-.561-1.282-.561-.27 0-.752.313-1.362 1.045-.633.758-1.327 1.879-2.072 3.355l-.07.138h7.26l-.904 1.702h-6.78v6.988H6.085V3.855H21.93Zm-2.825 1.703H8.077v6.756c1.32-2.08 2.576-3.124 3.927-3.124 1.05 0 1.67.269 2.45.893l.223.184c.502.42.695.517 1.124.517.473 0 1.728-1.807 3.304-5.226Z" clip-rule="evenodd"/></g><defs><clipPath id="a"><path fill="#fff" d="M0 0h28v28H0z"/></clipPath></defs></svg>