<svg xmlns="http://www.w3.org/2000/svg" width="64" height="64"><defs><linearGradient id="a" x1="6.114" x2="19.224" y1="9.71" y2="13.428" gradientTransform="scale(3.2)" gradientUnits="userSpaceOnUse"><stop offset="0" style="stop-color:#8797ff;stop-opacity:1"/><stop offset="1" style="stop-color:#aaa8ff;stop-opacity:1"/></linearGradient><linearGradient id="b" x1="17.016" x2="7.557" y1="9.461" y2="-.021" gradientTransform="scale(3.2)" gradientUnits="userSpaceOnUse"><stop offset="0" style="stop-color:#3b22a0;stop-opacity:1"/><stop offset="1" style="stop-color:#5156d8;stop-opacity:0"/></linearGradient><linearGradient id="c" x1="12.132" x2="3.045" y1="14.765" y2="9.541" gradientTransform="scale(3.2)" gradientUnits="userSpaceOnUse"><stop offset="0" style="stop-color:#3b1e8f;stop-opacity:1"/><stop offset="1" style="stop-color:#6a6ffb;stop-opacity:0"/></linearGradient><linearGradient id="d" x1="6.897" x2="13.039" y1="9.613" y2="17.416" gradientTransform="scale(3.2)" gradientUnits="userSpaceOnUse"><stop offset="0" style="stop-color:#8898ff;stop-opacity:1"/><stop offset=".984" style="stop-color:#5f47f1;stop-opacity:1"/></linearGradient></defs><path d="M62.027 35.79c2.383-5.325-9.398-20.2-20.652-26.395-7.094-4.801-14.488-4.141-15.984-2.036-3.286 4.625 10.879 8.547 20.355 13.121-2.039.883-3.957 2.473-5.086 4.5-3.531-3.855-11.285-7.175-20.383-4.5-6.129 1.801-11.222 6.051-13.191 12.47a3.863 3.863 0 0 0-5.426 3.527 3.86 3.86 0 0 0 3.86 3.859c.394 0 1.632-.266 1.632-.266l19.735.145c-7.895 12.52-14.13 14.351-14.13 16.52 0 2.171 5.97 1.581 8.208.773 10.73-3.871 22.25-15.934 24.226-19.406 8.305 1.035 15.282 1.156 16.836-2.313Zm0 0" style="stroke:none;fill-rule:nonzero;fill:url(#a)"/><path d="M45.742 20.48h.004c.438-.171.367-.82.246-1.332-.277-1.168-5.058-5.89-9.55-8.007-6.118-2.88-10.622-2.73-11.29-1.403 1.246 2.555 7.024 4.953 13.059 7.457 2.574 1.07 5.195 2.157 7.535 3.285h-.004Zm0 0" style="stroke:none;fill-rule:evenodd;fill:url(#b)"/><path d="M37.98 46.191a36.535 36.535 0 0 0-4.226-1.3c1.695-3.032 2.05-7.52.45-10.36-2.247-3.984-5.063-6.101-11.614-6.101-3.606 0-13.305 1.215-13.477 9.312-.02.848-.004 1.63.059 2.344l17.715.129c-2.387 3.789-4.625 6.597-6.582 8.734 2.351.602 4.293 1.11 6.074 1.574 1.687.438 3.234.844 4.855 1.254a73.985 73.985 0 0 0 6.746-5.586Zm0 0" style="stroke:none;fill-rule:evenodd;fill:url(#c)"/><path d="M6.848 39.254c.726 6.152 4.222 8.562 11.367 9.277 7.144.711 11.242.235 16.7.73 4.554.415 8.624 2.739 10.132 1.934 1.36-.722.598-3.332-1.219-5.004-2.355-2.171-5.617-3.68-11.355-4.214 1.144-3.133.824-7.52-.953-9.91-2.567-3.454-7.31-5.016-13.305-4.333-6.27.711-12.274 3.797-11.367 11.52Zm0 0" style="stroke:none;fill-rule:nonzero;fill:url(#d)"/></svg>