<svg width="20" height="20" viewBox="0 0 20 20" fill="none" xmlns="http://www.w3.org/2000/svg">
<path d="M19.3838 11.1837C20.1286 9.52002 16.4468 4.87188 12.9295 2.93537C10.7124 1.43518 8.40221 1.64128 7.93432 2.29998C6.9075 3.74555 11.3344 4.97045 14.2951 6.39983C13.6586 6.67624 13.0589 7.17228 12.7062 7.80665C11.6025 6.60164 9.17989 5.56396 6.33724 6.39983C4.42164 6.96311 2.82963 8.29105 2.21432 10.2967C2.06481 10.2303 1.89928 10.1934 1.72513 10.1934C1.05916 10.1934 0.519287 10.7333 0.519287 11.3992C0.519287 12.0652 1.05916 12.6051 1.72513 12.6051C1.84857 12.6051 2.23453 12.5223 2.23453 12.5223L8.40221 12.567C5.93562 16.4799 3.98632 17.052 3.98632 17.7299C3.98632 18.4078 5.85145 18.2241 6.55177 17.9714C9.90427 16.7617 13.505 12.9918 14.1229 11.9065C16.7176 12.2302 18.8983 12.2685 19.3838 11.1837Z" fill="url(#paint0_linear_17938_5195)"/>
<path fill-rule="evenodd" clip-rule="evenodd" d="M14.2947 6.40006C14.2949 6.40013 14.295 6.40021 14.2952 6.40028C14.4324 6.34622 14.4102 6.14354 14.3725 5.98438C14.2859 5.61855 12.7916 4.14293 11.3883 3.48199C9.47625 2.58142 8.06824 2.6278 7.86011 3.04284C8.24958 3.84115 10.0553 4.59066 11.9412 5.37346C12.7458 5.70743 13.565 6.04745 14.2951 6.39991C14.2949 6.39996 14.2948 6.40001 14.2947 6.40006Z" fill="url(#paint1_linear_17938_5195)"/>
<path fill-rule="evenodd" clip-rule="evenodd" d="M11.8686 14.4346C11.4819 14.2868 11.0451 14.1512 10.5484 14.0282C11.0779 13.0807 11.1891 11.678 10.689 10.7911C9.98712 9.54649 9.1061 8.88403 7.05884 8.88403C5.93283 8.88403 2.90114 9.26331 2.84732 11.7941C2.84167 12.0596 2.84718 12.303 2.8664 12.5268L8.4025 12.5669C7.65616 13.7509 6.95718 14.629 6.34523 15.2968C7.07996 15.485 7.68629 15.6431 8.24294 15.7882C8.77114 15.9259 9.25462 16.0519 9.76063 16.181C10.524 15.6249 11.2416 15.0185 11.8686 14.4346Z" fill="url(#paint2_linear_17938_5195)"/>
<path d="M2.14044 12.2667C2.36659 14.1893 3.4592 14.9427 5.69184 15.1657C7.92448 15.3886 9.20516 15.2391 10.9102 15.3942C12.3342 15.5237 13.6057 16.2494 14.0773 15.9986C14.5019 15.7729 14.2644 14.9576 13.6963 14.4345C12.96 13.7564 11.941 13.2849 10.1479 13.1176C10.5052 12.1392 10.4051 10.7673 9.85009 10.021C9.04764 8.94179 7.56647 8.45388 5.69184 8.66705C3.73329 8.88977 1.85661 9.85402 2.14044 12.2667Z" fill="url(#paint3_linear_17938_5195)"/>
<defs>
<linearGradient id="paint0_linear_17938_5195" x1="6.11419" y1="9.71043" x2="19.2235" y2="13.428" gradientUnits="userSpaceOnUse">
<stop stop-color="#8797FF"/>
<stop offset="1" stop-color="#AAA8FF"/>
</linearGradient>
<linearGradient id="paint1_linear_17938_5195" x1="17.0159" y1="9.46126" x2="7.55701" y2="-0.0207884" gradientUnits="userSpaceOnUse">
<stop stop-color="#3B22A0"/>
<stop offset="1" stop-color="#5156D8" stop-opacity="0"/>
</linearGradient>
<linearGradient id="paint2_linear_17938_5195" x1="12.1318" y1="14.7649" x2="3.0454" y2="9.54082" gradientUnits="userSpaceOnUse">
<stop stop-color="#3B1E8F"/>
<stop offset="1" stop-color="#6A6FFB" stop-opacity="0"/>
</linearGradient>
<linearGradient id="paint3_linear_17938_5195" x1="6.89681" y1="9.61258" x2="13.0385" y2="17.4162" gradientUnits="userSpaceOnUse">
<stop stop-color="#8898FF"/>
<stop offset="0.983895" stop-color="#5F47F1"/>
</linearGradient>
</defs>
</svg>
