<svg width="150" height="150" viewBox="0 0 150 150" fill="none" xmlns="http://www.w3.org/2000/svg">
<rect width="150" height="150" fill="#8697FF"/>
<path d="M120.747 80.7722C124.378 72.6618 106.43 50.0027 89.2833 40.5625C78.4752 33.2492 67.2133 34.254 64.9325 37.465C59.9268 44.512 81.5075 50.4832 95.9402 57.4513C92.8378 58.7987 89.9141 61.2168 88.1948 64.3093C82.8142 58.4351 71.0044 53.3765 57.1469 57.4513C47.8086 60.1971 40.0477 66.6707 37.0482 76.4482C36.3194 76.1243 35.5124 75.9443 34.6635 75.9443C31.417 75.9443 28.7852 78.5761 28.7852 81.8226C28.7852 85.0691 31.417 87.7009 34.6635 87.7009C35.2652 87.7009 37.1467 87.2973 37.1467 87.2973L67.2133 87.5152C55.1891 106.59 45.6865 109.379 45.6865 112.684C45.6865 115.988 54.7787 115.093 58.1927 113.861C74.5357 107.964 92.0888 89.586 95.1009 84.2956C107.75 85.8737 118.38 86.0604 120.747 80.7722Z" fill="url(#paint0_linear_59794_32927)"/>
<path fill-rule="evenodd" clip-rule="evenodd" d="M95.8137 57.3899C95.8582 57.4092 95.9026 57.4286 95.947 57.4479C96.6159 57.1844 96.5077 56.1964 96.324 55.4205C95.9018 53.6371 88.6171 46.4437 81.7763 43.2217C72.4413 38.8249 65.5708 39.0583 64.5723 41.09C66.4756 44.9799 75.275 48.6323 84.465 52.4468C88.3411 54.0556 92.2867 55.6934 95.8137 57.3899Z" fill="url(#paint1_linear_59794_32927)"/>
<path fill-rule="evenodd" clip-rule="evenodd" d="M84.1124 96.6202C82.2288 95.9006 80.1013 95.2405 77.6829 94.6413C80.2643 90.0224 80.8059 83.1845 78.368 78.8612C74.9467 72.7939 70.6518 69.5644 60.6717 69.5645C55.1826 69.5645 40.4035 71.4134 40.1411 83.7506C40.1136 85.0454 40.1404 86.2321 40.2342 87.3233L67.2123 87.5188C63.575 93.2891 60.1683 97.5691 57.1857 100.824C60.7707 101.742 63.7286 102.513 66.444 103.221C69.0167 103.892 71.3717 104.506 73.8362 105.135C77.5574 102.423 81.0557 99.467 84.1124 96.6202Z" fill="url(#paint2_linear_59794_32927)"/>
<path d="M36.6883 86.0529C37.7908 95.4249 43.1171 99.0977 54.001 100.185C64.8848 101.272 71.1279 100.542 79.4396 101.299C86.3815 101.93 92.5798 105.468 94.8792 104.245C96.9486 103.145 95.7909 99.1703 93.0218 96.6201C89.4324 93.3145 84.4646 91.0163 75.7235 90.2006C77.4655 85.431 76.9774 78.7435 74.2719 75.105C70.3601 69.8441 63.1395 67.4656 54.001 68.5048C44.4533 69.5906 35.3047 74.2911 36.6883 86.0529Z" fill="url(#paint3_linear_59794_32927)"/>
<defs>
<linearGradient id="paint0_linear_59794_32927" x1="56.0595" y1="73.59" x2="119.966" y2="91.7126" gradientUnits="userSpaceOnUse">
<stop stop-color="white"/>
<stop offset="1" stop-color="white"/>
</linearGradient>
<linearGradient id="paint1_linear_59794_32927" x1="109.212" y1="72.3698" x2="63.101" y2="26.1396" gradientUnits="userSpaceOnUse">
<stop stop-color="#7258DC"/>
<stop offset="1" stop-color="#797DEA" stop-opacity="0"/>
</linearGradient>
<linearGradient id="paint2_linear_59794_32927" x1="85.3951" y1="98.2313" x2="41.1045" y2="72.7697" gradientUnits="userSpaceOnUse">
<stop stop-color="#7461EA"/>
<stop offset="1" stop-color="#BFC2FF" stop-opacity="0"/>
</linearGradient>
<linearGradient id="paint3_linear_59794_32927" x1="59.875" y1="73.1142" x2="89.8149" y2="111.156" gradientUnits="userSpaceOnUse">
<stop stop-color="white"/>
<stop offset="0.983895" stop-color="#D5CEFF"/>
</linearGradient>
</defs>
</svg>
