<svg xmlns="http://www.w3.org/2000/svg" xmlns:xlink="http://www.w3.org/1999/xlink" fill="none" viewBox="0 0 78 78"><defs><path id="a" fill="#1A007F" fill-rule="evenodd" d="m26.722 56.452 6.608-13.904c-5.047-1.073-10.126-4.195-12.999-7.993l-6.91 14.529a39.257 39.257 0 0 0 13.3 7.368Z" clip-rule="evenodd"/><path id="b" fill="#4E000A" fill-rule="evenodd" d="M54.304 34.138c-3.32 4.07-7.931 7.087-12.864 8.263l6.588 13.863c4.809-1.623 9.304-4.245 13.185-7.608l-6.91-14.518Z" clip-rule="evenodd"/><path id="c" fill="#1A007F" fill-rule="evenodd" d="m13.422 49.084-3.455 7.265c-1.76 3.694-.437 8.242 3.184 10.167 3.84 2.04 8.566.448 10.419-3.434l3.152-6.63a39.427 39.427 0 0 1-13.3-7.368" clip-rule="evenodd"/><path id="d" fill="#FF9396" fill-rule="evenodd" d="M68.02 18.277a7.586 7.586 0 0 0-8.93 5.952c-.729 3.642-2.436 7.035-4.787 9.92l6.9 14.528c6.369-5.527 11.074-13.052 12.759-21.471.823-4.122-1.842-8.117-5.943-8.93" clip-rule="evenodd"/><path id="e" fill="#002DC8" fill-rule="evenodd" d="M41.438 42.403a19.312 19.312 0 0 1-4.496.54 17.33 17.33 0 0 1-3.61-.395c-5.048-1.072-10.128-4.194-13-7.993-.718-.947-1.301-1.936-1.706-2.945-1.572-3.882-5.996-5.756-9.878-4.195-3.881 1.572-5.755 5.995-4.194 9.877 1.78 4.414 4.923 8.462 8.867 11.791a39.377 39.377 0 0 0 13.291 7.37c3.341 1.071 6.807 1.665 10.22 1.665 3.788 0 7.525-.656 11.084-1.853l-6.578-13.862Z" clip-rule="evenodd"/><path id="f" fill="#FF536A" fill-rule="evenodd" d="m64.846 56.316-3.643-7.66-6.9-14.518-.011.01s0-.01.011-.01L44.27 13.032a7.589 7.589 0 0 0-6.848-4.33 7.589 7.589 0 0 0-6.848 4.33L20.343 34.554c2.872 3.799 7.95 6.921 12.999 7.993l3.309-6.952a.866.866 0 0 1 1.561 0l3.238 6.806h.02-.02l6.588 13.863 3.236 6.807a7.576 7.576 0 0 0 6.858 4.33 7.44 7.44 0 0 0 2.02-.281c4.569-1.26 6.734-6.515 4.694-10.804" clip-rule="evenodd"/></defs><path fill="#000" fill-rule="evenodd" d="M37.422 8.702a7.59 7.59 0 0 1 6.848 4.33l10.033 21.107s0 .01-.011.01c0 0 0-.011.01-.011 2.353-2.883 4.06-6.276 4.788-9.919.822-4.11 4.818-6.764 8.93-5.952a7.585 7.585 0 0 1 5.953 8.93c-1.686 8.419-6.39 15.944-12.76 21.47l3.643 7.66c2.019 4.246-.094 9.44-4.57 10.771l-.135.043a7.506 7.506 0 0 1-2.019.28 7.595 7.595 0 0 1-6.858-4.33l-3.238-6.805-6.587-13.863h.022-.022l-3.237-6.807a.865.865 0 0 0-1.56 0l-3.31 6.952c-5.048-1.07-10.127-4.194-13-7.993l10.231-21.523a7.55 7.55 0 0 1 6.848-4.35ZM8.749 27.414a7.582 7.582 0 0 1 9.876 4.195c.407 1.01.99 1.998 1.707 2.945l.01.011.344.436c.032.042.063.074.094.116l.093.114c.053.052.094.115.146.166.01.01.021.022.021.032l-.02-.032c.197.24.415.468.634.699.01.009.01.02.02.02a20.332 20.332 0 0 0 2.385 2.112c.405.313.822.603 1.248.895.042.021.073.052.115.074 2.404 1.58 5.162 2.767 7.91 3.35 1.165.25 2.33.386 3.465.396h.146c1.509 0 3.018-.188 4.495-.542l6.589 13.863c-3.56 1.198-7.296 1.853-11.084 1.853-3.414 0-6.869-.593-10.22-1.665l-3.154 6.63a7.583 7.583 0 0 1-10.418 3.434C9.53 64.59 8.207 60.053 9.967 56.348l3.455-7.264c-3.903-3.3-7.015-7.307-8.815-11.657l-.052-.135c-1.56-3.883.312-8.305 4.194-9.878Z" clip-rule="evenodd"/><path fill="#fff" fill-rule="evenodd" stroke="#fff" stroke-linecap="round" stroke-linejoin="round" stroke-width="6.021" d="M37.422 8.702a7.59 7.59 0 0 1 6.848 4.33l10.033 21.107s0 .01-.011.01c0 0 0-.011.01-.011 2.353-2.883 4.06-6.276 4.788-9.919.822-4.11 4.818-6.764 8.93-5.952a7.585 7.585 0 0 1 5.953 8.93c-1.686 8.419-6.39 15.944-12.76 21.47l3.643 7.66c2.019 4.246-.094 9.44-4.57 10.771l-.135.043a7.506 7.506 0 0 1-2.019.28 7.595 7.595 0 0 1-6.858-4.33l-3.238-6.805-6.587-13.863h.022-.022l-3.237-6.807a.865.865 0 0 0-1.56 0l-3.31 6.952c-5.048-1.07-10.127-4.194-13-7.993l10.231-21.523a7.55 7.55 0 0 1 6.848-4.35h0ZM8.749 27.414a7.582 7.582 0 0 1 9.876 4.195c.407 1.01.99 1.998 1.707 2.945l.01.011.344.436c.032.042.063.074.094.116l.093.114c.053.052.094.115.146.166.01.01.021.022.021.032l-.02-.032c.197.24.415.468.634.699.01.009.01.02.02.02a20.332 20.332 0 0 0 2.385 2.112c.405.313.822.603 1.248.895.042.021.073.052.115.074 2.404 1.58 5.162 2.767 7.91 3.35 1.165.25 2.33.386 3.465.396h.146c1.509 0 3.018-.188 4.495-.542l6.589 13.863c-3.56 1.198-7.296 1.853-11.084 1.853-3.414 0-6.869-.593-10.22-1.665l-3.154 6.63a7.583 7.583 0 0 1-10.418 3.434C9.53 64.59 8.207 60.053 9.967 56.348l3.455-7.264c-3.903-3.3-7.015-7.307-8.815-11.657l-.052-.135c-1.56-3.883.312-8.305 4.194-9.878h0Z" clip-rule="evenodd"/><use xlink:href="#a" fill-rule="evenodd" clip-rule="evenodd"/><use xlink:href="#b" fill-rule="evenodd" clip-rule="evenodd"/><use xlink:href="#c" fill-rule="evenodd" clip-rule="evenodd"/><use xlink:href="#d" fill-rule="evenodd" clip-rule="evenodd"/><use xlink:href="#e" fill-rule="evenodd" clip-rule="evenodd"/><use xlink:href="#f" fill-rule="evenodd" clip-rule="evenodd"/><use xlink:href="#a" fill-rule="evenodd" clip-rule="evenodd"/><use xlink:href="#b" fill-rule="evenodd" clip-rule="evenodd"/><use xlink:href="#c" fill-rule="evenodd" clip-rule="evenodd"/><use xlink:href="#d" fill-rule="evenodd" clip-rule="evenodd"/><use xlink:href="#e" fill-rule="evenodd" clip-rule="evenodd"/><use xlink:href="#f" fill-rule="evenodd" clip-rule="evenodd"/></svg>