<svg xmlns="http://www.w3.org/2000/svg" xmlns:xlink="http://www.w3.org/1999/xlink" width="89" height="75" stroke="#000" stroke-linecap="round" stroke-linejoin="round" fill="#fff" fill-rule="evenodd"><g fill-rule="nonzero"><use xlink:href="#B" stroke="none" fill="#000"/><use xlink:href="#B" stroke="#fff" stroke-width="6.8699"/></g><g stroke="none"><use xlink:href="#C" fill="#1a007f"/><use xlink:href="#D" fill="#4e000a"/><use xlink:href="#E" fill="#1a007f"/><use xlink:href="#F" fill="#ff9396"/><use xlink:href="#G" fill="#002dc8"/><use xlink:href="#H" fill="#ff536a"/><use xlink:href="#C" fill="#1a007f"/><use xlink:href="#D" fill="#4e000a"/><use xlink:href="#E" fill="#1a007f"/><use xlink:href="#F" fill="#ff9396"/><use xlink:href="#G" fill="#002dc8"/><use xlink:href="#H" fill="#ff536a"/></g><defs ><path id="B" d="M42.1281 3.5a8.66 8.66 0 0 1 7.8139 4.9401l11.4478 24.0837s0 .0111-.0127.0111c0 0 0-.0121.0127-.0121 2.6838-3.2893 4.6311-7.1609 5.4624-11.3176.9381-4.6899 5.4977-7.7184 10.1884-6.7914a8.657 8.657 0 0 1 5.5072 3.6871c1.2741 1.9111 1.7366 4.2499 1.286 6.5013-1.9237 9.6067-7.2918 18.1933-14.5589 24.4986l4.1559 8.7401c2.3043 4.8455-.1068 10.7714-5.2135 12.2906l-.1539.0481a8.563 8.563 0 0 1-2.3043.3205 8.667 8.667 0 0 1-7.8253-4.9402l-3.6939-7.766L46.723 41.976h.0249-.0249l-3.6928-7.7661a.987.987 0 0 0-.8905-.5618c-.3805 0-.7267.2184-.8907.5618l-3.7752 7.9323c-5.7612-1.2217-11.5558-4.7863-14.8332-9.1204L34.3137 8.4635A8.615 8.615 0 0 1 42.1272 3.5zM9.4114 24.8511c4.4292-1.7924 9.4772.3443 11.2694 4.7862.4637 1.1516 1.1286 2.28 1.948 3.3607l.0118.0124.3916.4973c.0365.0481.0718.0845.107.1317l.1067.1301c.0601.0596.107.1317.1669.1903.0117.0116.0234.0243.0234.036l-.0234-.036c.2253.2733.4743.534.724.7967.0121.0107.0121.0228.0237.0228a23.184 23.184 0 0 0 2.72 2.411c.4627.356.9379.688 1.4248 1.0211.0471.0237.0826.0587.1308.0834 2.743 1.8044 5.8895 3.1578 9.025 3.8234 1.3297.2856 2.6602.4395 3.9546.4511h.1659c1.722 0 3.4441-.2137 5.1296-.6176l7.5178 15.8174c-4.0618 1.3671-8.3251 2.1144-12.6474 2.1144-3.8954 0-7.8374-.6762-11.6619-1.8997l-3.5981 7.5645a8.654 8.654 0 0 1-11.8868 3.9186c-4.1327-2.1973-5.6409-7.3744-3.6333-11.6017l3.9419-8.2891c-4.4529-3.7646-8.0039-8.337-10.0572-13.3004l-.0598-.1539c-1.7811-4.4302.3565-9.4765 4.7859-11.2707z"/><path id="C" d="M29.9198 57.9838l7.5408-15.8654c-5.759-1.2236-11.5545-4.7862-14.8322-9.1203l-7.8851 16.5781c4.3822 3.7166 9.6427 6.6383 15.1765 8.4076"/><path id="D" d="M61.3898 32.5228c-3.7881 4.6438-9.0495 8.0871-14.6784 9.429l7.5176 15.8173c5.4867-1.8517 10.6159-4.8438 15.0449-8.6804l-7.8841-16.5659z"/><path id="E" d="M14.7433 49.5761l-3.9422 8.2891c-2.0071 4.2157-.4988 9.4042 3.6334 11.6016 4.3823 2.3271 9.7738.5108 11.8882-3.9185l3.5971-7.5647a44.986 44.986 0 0 1-15.1765-8.4075"/><path id="F" d="M77.0406 14.4257a8.656 8.656 0 0 0-6.5015 1.2856c-1.9104 1.2739-3.2367 3.2544-3.687 5.5066-.8311 4.1558-2.7795 8.0273-5.4623 11.3176l7.8725 16.5782C76.53 42.8064 81.899 34.2206 83.8212 24.6141c.939-4.7027-2.1012-9.262-6.7806-10.1884"/><path id="G" d="M46.7114 41.9528c-1.6798.4057-3.4017.6129-5.13.6164-1.3416 0-2.7308-.1538-4.1205-.4511-5.7594-1.2228-11.5549-4.7855-14.8324-9.1198-.8192-1.081-1.4849-2.2093-1.9465-3.361-1.7935-4.4294-6.8413-6.567-11.2706-4.7859-4.4294 1.7928-6.567 6.8404-4.7859 11.2694 2.0307 5.0361 5.617 9.6553 10.1178 13.4544 4.4613 3.7612 9.6126 6.617 15.1656 8.4085 3.8119 1.2225 7.7658 1.8999 11.6614 1.8999 4.3216 0 8.5855-.7483 12.6462-2.1136l-7.5051-15.8172z"/><path id="H" d="M73.419 57.8287l-4.1559-8.7395-7.8733-16.5664-.0129.0117s0-.0117.0129-.0117L49.9419 8.4401A8.66 8.66 0 0 0 42.128 3.5c-3.3387.0026-6.3791 1.9245-7.8131 4.9401L22.6403 32.998c3.2776 4.334 9.0722 7.8972 14.8322 9.1202l3.7758-7.9323c.3564-.7486 1.426-.7486 1.7818 0l3.694 7.7658h.0236-.0243l7.5175 15.8174 3.6931 7.7676c1.4332 3.0217 4.4809 4.9457 7.8252 4.9399.7792-.0007 1.5544-.1085 2.3041-.3207 5.2135-1.4367 7.6837-7.4332 5.3557-12.3272"/></defs></svg>