<svg xmlns="http://www.w3.org/2000/svg" width="48" height="48" fill="none"><path d="M1.09 5.46C0 7.6 0 10.4 0 16v16c0 5.6 0 8.4 1.09 10.54a10 10 0 0 0 4.37 4.37C7.6 48 10.4 48 16 48h16c1.752 0 3.23 0 4.5-.033V36.5h11.467C48 35.23 48 33.752 48 32V16c0-5.6 0-8.4-1.09-10.54a10 10 0 0 0-4.37-4.37C40.4 0 37.6 0 32 0H16C10.4 0 7.6 0 5.46 1.09a10 10 0 0 0-4.37 4.37Z" fill="url(#a)"/><path fill-rule="evenodd" clip-rule="evenodd" d="M35.5 35.5h11.486C47 34.475 47 33.32 47 32V16c0-2.817 0-4.87-.133-6.487-.131-1.605-.387-2.694-.848-3.599a9 9 0 0 0-3.933-3.933c-.905-.461-1.994-.717-3.6-.848C36.87 1 34.816 1 32 1H16c-2.817 0-4.87 0-6.487.133-1.605.131-2.694.387-3.599.848a9 9 0 0 0-3.933 3.933c-.461.905-.717 1.994-.848 3.6C1 11.13 1 13.183 1 16v16c0 2.817 0 4.87.133 6.486.131 1.606.387 2.695.848 3.6a9 9 0 0 0 3.933 3.933c.905.461 1.994.717 3.6.848C11.13 47 13.183 47 16 47h16c1.32 0 2.475 0 3.5-.014V35.5Zm1 12.467C35.23 48 33.752 48 32 48H16c-5.6 0-8.4 0-10.54-1.09a10 10 0 0 1-4.37-4.37C0 40.4 0 37.6 0 32V16c0-5.6 0-8.4 1.09-10.54a10 10 0 0 1 4.37-4.37C7.6 0 10.4 0 16 0h16c5.6 0 8.4 0 10.54 1.09a10 10 0 0 1 4.37 4.37C48 7.6 48 10.4 48 16v16c0 1.752 0 3.23-.033 4.5H36.5v11.467Z" fill="#000" fill-opacity=".04"/><path d="M3 14.2c0-3.92 0-5.88.763-7.378a7 7 0 0 1 3.06-3.059C8.318 3 10.28 3 14.2 3h19.6c3.92 0 5.88 0 7.378.763a7 7 0 0 1 3.059 3.06C45 8.318 45 10.28 45 14.2v19.6c0 3.92 0 5.88-.763 7.378a7 7 0 0 1-3.06 3.059C39.682 45 37.72 45 33.8 45H14.2c-3.92 0-5.88 0-7.378-.763a7 7 0 0 1-3.059-3.06C3 39.682 3 37.72 3 33.8V14.2Z" fill="#000" fill-opacity=".85"/><path fill-rule="evenodd" clip-rule="evenodd" d="M33.8 3.5H14.2c-1.968 0-3.415 0-4.557.094-1.136.093-1.927.275-2.594.614A6.5 6.5 0 0 0 4.21 7.05c-.34.667-.522 1.458-.615 2.594C3.5 10.785 3.5 12.232 3.5 14.2v19.6c0 1.968 0 3.415.094 4.557.093 1.136.275 1.928.614 2.594a6.5 6.5 0 0 0 2.841 2.84c.667.34 1.458.522 2.594.615 1.142.094 2.589.094 4.557.094h19.6c1.968 0 3.415 0 4.557-.094 1.136-.093 1.928-.275 2.594-.614a6.499 6.499 0 0 0 2.84-2.841c.34-.666.522-1.458.615-2.594.094-1.142.094-2.589.094-4.557V14.2c0-1.968 0-3.415-.094-4.557-.093-1.136-.275-1.927-.614-2.594a6.5 6.5 0 0 0-2.841-2.84c-.666-.34-1.458-.522-2.594-.615C37.215 3.5 35.768 3.5 33.8 3.5ZM3.763 6.822C3 8.32 3 10.28 3 14.2v19.6c0 3.92 0 5.88.763 7.378a7 7 0 0 0 3.06 3.059C8.318 45 10.28 45 14.2 45h19.6c3.92 0 5.88 0 7.378-.763a7 7 0 0 0 3.059-3.06C45 39.682 45 37.72 45 33.8V14.2c0-3.92 0-5.88-.763-7.378a7 7 0 0 0-3.06-3.059C39.682 3 37.72 3 33.8 3H14.2c-3.92 0-5.88 0-7.378.763a7 7 0 0 0-3.059 3.06Z" fill="#000"/><path d="M25 13c0-2.8 0-4.2.545-5.27a5 5 0 0 1 2.185-2.185C28.8 5 30.2 5 33 5h2c2.8 0 4.2 0 5.27.545a5 5 0 0 1 2.185 2.185C43 8.8 43 10.2 43 13v2c0 2.8 0 4.2-.545 5.27a5 5 0 0 1-2.185 2.185C39.2 23 37.8 23 35 23h-2c-2.8 0-4.2 0-5.27-.545a5 5 0 0 1-2.185-2.185C25 19.2 25 17.8 25 15v-2Z" fill="#DFD7D5"/><path d="M37.938 16.813h-7.876v.562h7.875v-.563ZM37.938 17.375h-7.876v.563h7.875v-.563Z" fill="#068940"/><path d="M37.938 17.938h-7.876v.562h7.875v-.563ZM37.938 18.5h-7.876v.563h7.875V18.5Z" fill="#068940"/><path d="M31.188 19.063h-1.125v.562h1.125v-.563ZM37.938 19.063H31.75v.562h6.188v-.563ZM31.188 19.625h-1.125v.563h1.125v-.563ZM37.938 19.625H31.75v.563h6.188v-.563Z" fill="#068940"/><path d="M31.188 20.188h-1.125v.562h1.125v-.563ZM37.938 20.188H31.75v.562h6.188v-.563ZM31.188 20.75h-1.125v.563h1.125v-.563ZM37.938 20.75H31.75v.563h6.188v-.563Z" fill="#068940"/><path d="M31.188 21.313h-1.125v.562h1.125v-.563ZM37.938 21.313H31.75v.562h6.188v-.563ZM31.188 21.875h-1.125v.563h1.125v-.563ZM37.938 21.875H31.75v.563h6.188v-.563Z" fill="#068940"/><path d="M37.938 16.813h-7.876v.562h7.875v-.563ZM37.938 17.375h-7.876v.563h7.875v-.563Z" fill="#FF1A0B"/><path d="M37.938 17.938h-7.876v.562h7.875v-.563ZM37.938 18.5h-7.876v.563h7.875V18.5Z" fill="#F78A18"/><path d="M31.188 19.063h-1.125v.562h1.125v-.563ZM37.938 19.063H31.75v.562h6.188v-.563ZM31.188 19.625h-1.125v.563h1.125v-.563ZM37.938 19.625H31.75v.563h6.188v-.563Z" fill="#FFF449"/><path d="M31.188 20.188h-1.125v.562h1.125v-.563ZM37.938 20.188H31.75v.562h6.188v-.563ZM31.188 20.75h-1.125v.563h1.125v-.563ZM37.938 20.75H31.75v.563h6.188v-.563Z" fill="#068940"/><path d="M31.188 21.313h-1.125v.562h1.125v-.563ZM37.938 21.313H31.75v.562h6.188v-.563ZM31.188 21.875h-1.125v.563h1.125v-.563ZM37.938 21.875H31.75v.563h6.188v-.563Z" fill="#2B83F6"/><path d="M31.188 22.992a26.827 26.827 0 0 1-1.125-.036v-.518h1.125v.554ZM33 23h2c1.213 0 2.163 0 2.938-.044v-.518H31.75v.56c.383.002.798.002 1.25.002Z" fill="#9F21A0"/><path d="M34.563 6.688h-2.25v.562h2.25v-.563ZM35.688 7.25h-2.813v.563h2.813V7.25Z" fill="#395ED1"/><path d="M36.25 7.813h-2.813v.562h2.813v-.563ZM36.25 8.375h-2.813v.563h2.813v-.563ZM27.25 8.938h-.563V9.5h.563v-.563Z" fill="#395ED1"/><path d="M36.813 8.938h-3.376V9.5h3.376v-.563ZM27.813 9.5h-.563v.563h.563V9.5Z" fill="#395ED1"/><path d="M38.5 9.5h-6.188v.563H38.5V9.5Z" fill="#2B83F6"/><path d="M28.375 10.063H27.25v.562h1.125v-.563Z" fill="#395ED1"/><path d="M39.063 10.063h-7.876v.562h7.875v-.563Z" fill="#2B83F6"/><path d="M28.938 10.625H27.25v.563h1.688v-.563Z" fill="#395ED1"/><path d="M39.625 10.625h-9.563v.563h9.563v-.563Z" fill="#2B83F6"/><path d="M29.5 11.188h-1.688v.562H29.5v-.563Z" fill="#395ED1"/><path d="M40.188 11.188H30.062v.562h10.125v-.563Z" fill="#2B83F6"/><path d="M30.063 11.75h-2.25v.563h2.25v-.563Z" fill="#395ED1"/><path d="M40.75 11.75H30.062v.563H40.75v-.563Z" fill="#2B83F6"/><path d="M30.063 12.313h-1.688v.562h1.688v-.563Z" fill="#395ED1"/><path d="M40.75 12.313H30.062v.562H40.75v-.563Z" fill="#2B83F6"/><path d="M30.063 12.875h-1.688v.563h1.688v-.563Z" fill="#395ED1"/><path d="M39.063 12.875h-9v.563h9v-.563Z" fill="#2B83F6"/><path d="M39.625 12.875h-.563v.563h.563v-.563Z" fill="#395ED1"/><path d="M40.188 12.875h-.563v.563h.563v-.563Z" fill="#2B83F6"/><path d="M30.063 13.438h-1.688V14h1.688v-.563Z" fill="#395ED1"/><path d="M39.063 13.438h-9V14h9v-.563Z" fill="#2B83F6"/><path d="M39.625 13.438h-.563V14h.563v-.563Z" fill="#395ED1"/><path d="M40.188 13.438h-.563V14h.563v-.563Z" fill="#2B83F6"/><path d="M29.5 14h-1.688v.563H29.5V14Z" fill="#395ED1"/><path d="M39.625 14h-9.563v.563h9.563V14Z" fill="#2B83F6"/><path d="M28.938 14.563h-1.125v.562h1.125v-.563Z" fill="#395ED1"/><path d="M39.625 14.563h-9.563v.562h9.563v-.563Z" fill="#2B83F6"/><path d="M28.375 15.125h-.563v.563h.563v-.563Z" fill="#395ED1"/><path d="M31.75 15.125h-1.688v.563h1.688v-.563Z" fill="#2B83F6"/><path d="M32.313 15.125h-.563v.563h.563v-.563Z" fill="#395ED1"/><path d="M32.875 15.125h-.563v.563h.563v-.563Z" fill="#2B83F6"/><path d="M33.438 15.125h-.563v.563h.563v-.563Z" fill="#395ED1"/><path d="M34.563 15.125h-1.126v.563h1.126v-.563Z" fill="#2B83F6"/><path d="M35.688 15.125h-1.126v.563h1.126v-.563Z" fill="#7CC4F2"/><path d="M36.25 15.125h-.563v.563h.563v-.563Z" fill="#fff"/><path d="M36.813 15.125h-.563v.563h.563v-.563Z" fill="#7CC4F2"/><path d="M37.375 15.125h-.563v.563h.563v-.563Z" fill="#fff"/><path d="M37.938 15.125h-.563v.563h.563v-.563Z" fill="#7CC4F2"/><path d="M38.5 15.125h-.563v.563h.563v-.563Z" fill="#fff"/><path d="M39.063 15.125H38.5v.563h.563v-.563Z" fill="#7CC4F2"/><path d="M27.813 15.688h-.563v.562h.563v-.563Z" fill="#395ED1"/><path d="M31.188 15.688h-1.125v.562h1.125v-.563Z" fill="#2B83F6"/><path d="M31.75 15.688h-.563v.562h.563v-.563Z" fill="#395ED1"/><path d="M32.313 15.688h-.563v.562h.563v-.563Z" fill="#2B83F6"/><path d="M32.875 15.688h-.563v.562h.563v-.563Z" fill="#395ED1"/><path d="M34 15.688h-1.125v.562H34v-.563Z" fill="#2B83F6"/><path d="M35.125 15.688H34v.562h1.125v-.563Z" fill="#7CC4F2"/><path d="M35.688 15.688h-.563v.562h.563v-.563Z" fill="#fff"/><path d="M36.25 15.688h-.563v.562h.563v-.563Z" fill="#7CC4F2"/><path d="M36.813 15.688h-.563v.562h.563v-.563Z" fill="#fff"/><path d="M37.375 15.688h-.563v.562h.563v-.563Z" fill="#7CC4F2"/><path d="M37.938 15.688h-.563v.562h.563v-.563Z" fill="#fff"/><path d="M39.063 15.688h-1.126v.562h1.126v-.563Z" fill="#7CC4F2"/><path d="M33.438 16.25h-3.376v.563h3.375v-.563Z" fill="#2B83F6"/><path d="M38.5 16.25h-5.063v.563H38.5v-.563Z" fill="#7CC4F2"/><path d="M34 11.188h-3.375v.562H34v-.563ZM37.938 11.188h-3.376v.562h3.376v-.563ZM31.188 11.75h-.563v.563h.563v-.563Z" fill="#D7D3CD"/><path d="M32.313 11.75h-1.126v.563h1.125v-.563Z" fill="#FDF8FF"/><path d="M33.438 11.75h-1.126v.563h1.126v-.563Z" fill="#000"/><path d="M34 11.75h-.563v.563H34v-.563ZM35.125 11.75h-.563v.563h.563v-.563Z" fill="#D7D3CD"/><path d="M36.25 11.75h-1.125v.563h1.125v-.563Z" fill="#FDF8FF"/><path d="M37.375 11.75H36.25v.563h1.125v-.563Z" fill="#000"/><path d="M37.938 11.75h-.563v.563h.563v-.563ZM31.188 12.313h-2.25v.562h2.25v-.563Z" fill="#D7D3CD"/><path d="M32.313 12.313h-1.126v.562h1.125v-.563Z" fill="#FDF8FF"/><path d="M33.438 12.313h-1.126v.562h1.126v-.563Z" fill="#000"/><path d="M35.125 12.313h-1.688v.562h1.688v-.563Z" fill="#D7D3CD"/><path d="M36.25 12.313h-1.125v.562h1.125v-.563Z" fill="#FDF8FF"/><path d="M37.375 12.313H36.25v.562h1.125v-.563Z" fill="#000"/><path d="M37.938 12.313h-.563v.562h.563v-.563ZM29.5 12.875h-.563v.563h.563v-.563ZM31.188 12.875h-.563v.563h.563v-.563Z" fill="#D7D3CD"/><path d="M32.313 12.875h-1.126v.563h1.125v-.563Z" fill="#FDF8FF"/><path d="M33.438 12.875h-1.126v.563h1.126v-.563Z" fill="#000"/><path d="M34 12.875h-.563v.563H34v-.563ZM35.125 12.875h-.563v.563h.563v-.563Z" fill="#D7D3CD"/><path d="M36.25 12.875h-1.125v.563h1.125v-.563Z" fill="#FDF8FF"/><path d="M37.375 12.875H36.25v.563h1.125v-.563Z" fill="#000"/><path d="M37.938 12.875h-.563v.563h.563v-.563ZM29.5 13.438h-.563V14h.563v-.563ZM31.188 13.438h-.563V14h.563v-.563Z" fill="#D7D3CD"/><path d="M32.313 13.438h-1.126V14h1.125v-.563Z" fill="#FDF8FF"/><path d="M33.438 13.438h-1.126V14h1.126v-.563Z" fill="#000"/><path d="M34 13.438h-.563V14H34v-.563ZM35.125 13.438h-.563V14h.563v-.563Z" fill="#D7D3CD"/><path d="M36.25 13.438h-1.125V14h1.125v-.563Z" fill="#FDF8FF"/><path d="M37.375 13.438H36.25V14h1.125v-.563Z" fill="#000"/><path d="M37.938 13.438h-.563V14h.563v-.563ZM34 14h-3.375v.563H34V14ZM37.938 14h-3.376v.563h3.376V14Z" fill="#D7D3CD"/><path fill-rule="evenodd" clip-rule="evenodd" d="M35 5.5h-2c-1.408 0-2.435 0-3.243.066-.803.066-1.347.194-1.8.424a4.5 4.5 0 0 0-1.966 1.967c-.231.453-.359.997-.424 1.8-.067.808-.067 1.835-.067 3.243v2c0 1.408 0 2.435.067 3.243.065.803.193 1.347.424 1.8a4.5 4.5 0 0 0 1.966 1.966c.453.231.997.359 1.8.424.808.067 1.835.067 3.243.067h2c1.408 0 2.435 0 3.243-.067.803-.065 1.347-.193 1.8-.424a4.5 4.5 0 0 0 1.967-1.966c.23-.453.358-.997.424-1.8.066-.808.066-1.835.066-3.243v-2c0-1.408 0-2.435-.066-3.243-.066-.803-.194-1.347-.424-1.8a4.5 4.5 0 0 0-1.967-1.967c-.453-.23-.997-.358-1.8-.424C37.435 5.5 36.408 5.5 35 5.5Zm-9.455 2.23C25 8.8 25 10.2 25 13v2c0 2.8 0 4.2.545 5.27a5 5 0 0 0 2.185 2.185C28.8 23 30.2 23 33 23h2c2.8 0 4.2 0 5.27-.545a5 5 0 0 0 2.185-2.185C43 19.2 43 17.8 43 15v-2c0-2.8 0-4.2-.545-5.27a5 5 0 0 0-2.185-2.185C39.2 5 37.8 5 35 5h-2c-2.8 0-4.2 0-5.27.545a5 5 0 0 0-2.185 2.185Z" fill="#fff" fill-opacity=".3"/><path d="M5 33c0-2.8 0-4.2.545-5.27a5 5 0 0 1 2.185-2.185C8.8 25 10.2 25 13 25h2c2.8 0 4.2 0 5.27.545a5 5 0 0 1 2.185 2.185C23 28.8 23 30.2 23 33v2c0 2.8 0 4.2-.545 5.27a5 5 0 0 1-2.185 2.185C19.2 43 17.8 43 15 43h-2c-2.8 0-4.2 0-5.27-.545a5 5 0 0 1-2.185-2.185C5 39.2 5 37.8 5 35v-2Z" fill="#564CBF"/><path d="M11.188 26.125h.562v2.813h.563v-2.813h.562V29.5h.563v-3.375H14V29.5h.563v-3.375h.562v2.813h.563v-2.813h.562v2.25h.563v-1.688h.562v2.25h-.563v.563h-.562v.563h-1.125v.562h-2.813v-.563h-1.124V29.5h-.563v-.563h-.563v-2.25h.563v1.688h.563v-2.25Z" fill="#FF66B3"/><path d="M13.438 30.625H14v.563h1.125v2.25h1.125v-.563h.563V34h-1.688v1.125h-.563v1.125h.563v5.625h-.563v-5.063H14v-.562h-1.688v-1.125h.563v.563H14v-1.126h.563V31.75h-1.126v-1.125Z" fill="#B3FFCC"/><path d="M16.25 26.125h.563v2.25h-.563v-2.25ZM10.625 26.688h.563v1.687h-.563v-1.688Z" fill="#000" fill-opacity=".9"/><path d="M17.938 26.688h-.563v2.25h-.563v.562h-.562v.563h.563V29.5h.562v-.563h.563v-2.25ZM11.75 26.125h.563v2.813h-.563v-2.813ZM15.688 26.125h-.563v2.813h.563v-2.813ZM12.875 26.125h.563V29.5h-.563v-3.375ZM14.563 26.125H14V29.5h.563v-3.375ZM15.125 30.063h.563v.562h-.563v-.563ZM14.563 30.625H14v.563h.563v-.563ZM15.125 31.188h.563v2.25h-.563v-2.25ZM17.375 32.875h-.563V34h.563v-1.125ZM15.125 34h.563v1.125h-.563V34ZM15.125 36.25v-1.125h-.563v1.125h.563ZM15.125 36.25v5.625h.563V36.25h-.563ZM12.875 35.125h.563v.563h-.563v-.563Z" fill="#000" fill-opacity=".9"/><path fill-rule="evenodd" clip-rule="evenodd" d="M15 25.5h-2c-1.408 0-2.435 0-3.243.067-.803.065-1.347.193-1.8.424a4.5 4.5 0 0 0-1.967 1.966c-.23.453-.358.997-.424 1.8C5.5 30.565 5.5 31.592 5.5 33v2c0 1.408 0 2.435.066 3.243.066.803.194 1.347.424 1.8a4.5 4.5 0 0 0 1.967 1.967c.453.23.997.358 1.8.424.808.066 1.835.066 3.243.066h2c1.408 0 2.435 0 3.243-.066.803-.066 1.347-.194 1.8-.424a4.5 4.5 0 0 0 1.966-1.967c.231-.453.359-.997.424-1.8.067-.808.067-1.835.067-3.243v-2c0-1.408 0-2.435-.067-3.243-.065-.803-.193-1.347-.424-1.8a4.5 4.5 0 0 0-1.966-1.966c-.453-.231-.997-.359-1.8-.424-.808-.067-1.835-.067-3.243-.067Zm-9.455 2.23C5 28.8 5 30.2 5 33v2c0 2.8 0 4.2.545 5.27a5 5 0 0 0 2.185 2.185C8.8 43 10.2 43 13 43h2c2.8 0 4.2 0 5.27-.545a5 5 0 0 0 2.185-2.185C23 39.2 23 37.8 23 35v-2c0-2.8 0-4.2-.545-5.27a5 5 0 0 0-2.185-2.185C19.2 25 17.8 25 15 25h-2c-2.8 0-4.2 0-5.27.545a5 5 0 0 0-2.185 2.185Z" fill="#fff" fill-opacity=".12"/><path d="M5 13c0-2.8 0-4.2.545-5.27A5 5 0 0 1 7.73 5.545C8.8 5 10.2 5 13 5h2c2.8 0 4.2 0 5.27.545a5 5 0 0 1 2.185 2.185C23 8.8 23 10.2 23 13v2c0 2.8 0 4.2-.545 5.27a5 5 0 0 1-2.185 2.185C19.2 23 17.8 23 15 23h-2c-2.8 0-4.2 0-5.27-.545a5 5 0 0 1-2.185-2.185C5 19.2 5 17.8 5 15v-2Z" fill="#172D99"/><path fill-rule="evenodd" clip-rule="evenodd" d="M11.3 13.1H8.6v.9h2.7v-.9Zm0 .9h1.8v.9h.9v1.8h-.9v-.9h-.9v-.9h-.9V14Zm2.7 2.7h.9v2.7H14v-2.7Z" fill="#00A2D8"/><path fill-rule="evenodd" clip-rule="evenodd" d="M11.3 12.2H8.6v.9h2.7v-.9Zm0 .9h1.8v.9h-1.8v-.9Zm2.7 1.8h-.9V14h.9v.9Zm.9 1.8H14v-1.8h.9v1.8Zm0 0h.9v2.7h-.9v-2.7Z" fill="#00DE6F"/><path fill-rule="evenodd" clip-rule="evenodd" d="M11.3 11.3H8.6v.9h2.7v-.9Zm0 .9h1.8v.9h-1.8v-.9ZM14 14h-.9v-.9h.9v.9Zm.9.9H14V14h.9v.9Zm.9 1.8h-.9v-1.8h.9v1.8Zm0 0h.9v2.7h-.9v-2.7Z" fill="#FFEB00"/><path fill-rule="evenodd" clip-rule="evenodd" d="M11.3 10.4H8.6v.9h2.7v-.9Zm0 .9H14v.9h.9v.9h.9v.9h.9v1.8h.9v3.6h-.9v-2.7h-.9v-1.8h-.9V14H14v-.9h-.9v-.9h-1.8v-.9Z" fill="#FA0"/><path fill-rule="evenodd" clip-rule="evenodd" d="M12.2 9.5H8.6v.9h2.7v.9H14v.9h.9v.9h.9v.9h.9v1.8h.9v3.6h.9v-3.6h-.9V14h-.9v-.9h-.9v-.9h-.9v-.9H14v-.9h-1.8v-.9Z" fill="#DD3D1C"/><path fill-rule="evenodd" clip-rule="evenodd" d="M12.2 8.6H8.6v.9h3.6v-.9Zm0 .9H14v.9h-1.8v-.9Zm5.4 4.5h-.9v-.9h-.9v-.9h-.9v-.9H14v-.9h1.8v.9h.9v.9h.9V14Zm.9 1.8h-.9V14h.9v1.8Zm0 0h.9v3.6h-.9v-3.6Z" fill="#C03078"/><path fill-rule="evenodd" clip-rule="evenodd" d="M15 5.5h-2c-1.408 0-2.435 0-3.243.066-.803.066-1.347.194-1.8.424A4.5 4.5 0 0 0 5.99 7.957c-.23.453-.358.997-.424 1.8C5.5 10.565 5.5 11.592 5.5 13v2c0 1.408 0 2.435.066 3.243.066.803.194 1.347.424 1.8a4.5 4.5 0 0 0 1.967 1.966c.453.231.997.359 1.8.424.808.067 1.835.067 3.243.067h2c1.408 0 2.435 0 3.243-.067.803-.065 1.347-.193 1.8-.424a4.5 4.5 0 0 0 1.966-1.966c.231-.453.359-.997.424-1.8.067-.808.067-1.835.067-3.243v-2c0-1.408 0-2.435-.067-3.243-.065-.803-.193-1.347-.424-1.8a4.5 4.5 0 0 0-1.966-1.967c-.453-.23-.997-.358-1.8-.424C17.435 5.5 16.408 5.5 15 5.5ZM5.545 7.73C5 8.8 5 10.2 5 13v2c0 2.8 0 4.2.545 5.27a5 5 0 0 0 2.185 2.185C8.8 23 10.2 23 13 23h2c2.8 0 4.2 0 5.27-.545a5 5 0 0 0 2.185-2.185C23 19.2 23 17.8 23 15v-2c0-2.8 0-4.2-.545-5.27a5 5 0 0 0-2.185-2.185C19.2 5 17.8 5 15 5h-2c-2.8 0-4.2 0-5.27.545A5 5 0 0 0 5.545 7.73Z" fill="#fff" fill-opacity=".12"/><path d="M48 36.5C48 42.851 42.851 48 36.5 48S25 42.851 25 36.5 30.149 25 36.5 25 48 30.149 48 36.5Z" fill="#99B3FF"/><path fill-rule="evenodd" clip-rule="evenodd" d="M36.5 47.5c6.075 0 11-4.925 11-11s-4.925-11-11-11-11 4.925-11 11 4.925 11 11 11Zm0 .5C42.851 48 48 42.851 48 36.5S42.851 25 36.5 25 25 30.149 25 36.5 30.149 48 36.5 48Z" fill="#000" fill-opacity=".12"/><path d="M46 36.5a9.5 9.5 0 1 1-19 0 9.5 9.5 0 0 1 19 0Z" fill="#7F91EB"/><path fill-rule="evenodd" clip-rule="evenodd" d="M36.5 45.5a9 9 0 1 0 0-18 9 9 0 0 0 0 18Zm0 .5a9.5 9.5 0 1 0 0-19 9.5 9.5 0 0 0 0 19Z" fill="#000" fill-opacity=".12"/><path fill-rule="evenodd" clip-rule="evenodd" d="M31.912 37.037a.5.5 0 0 1-.139-.665l4.298-7.13a.5.5 0 0 1 .856 0l4.297 7.13a.5.5 0 0 1-.137.664.5.5 0 0 1 .12.698l-4.3 6.055a.5.5 0 0 1-.816 0l-4.297-6.055a.5.5 0 0 1 .118-.697Zm.29.408 4.297 2.538 4.3-2.538-4.3 6.055-4.297-6.055Zm0-.815 4.297-7.13 4.297 7.13-4.297 2.54-4.297-2.54Z" fill="#fff" fill-opacity=".2"/><path d="M36.499 29.5 36.5 35l-.001 4.17 4.297-2.54-4.297-7.13Z" fill="#000" fill-opacity=".55"/><path d="m36.499 29.5-4.297 7.13 4.297 2.54V29.5Z" fill="#000" fill-opacity=".3"/><path d="M36.499 39.983 36.5 41.5l-.001 2 4.3-6.055-4.3 2.538Z" fill="#000" fill-opacity=".55"/><path d="M36.499 43.5v-3.517l-4.297-2.538 4.297 6.055Z" fill="#000" fill-opacity=".3"/><path d="m36.499 39.17 4.297-2.54-4.297-1.953v4.493Z" fill="#000"/><path d="m32.202 36.63 4.297 2.54v-4.493l-4.297 1.953Z" fill="#000" fill-opacity=".6"/><defs><linearGradient id="a" x1="24" y1="0" x2="24" y2="48" gradientUnits="userSpaceOnUse"><stop stop-color="#DDE1EB"/><stop offset="1" stop-color="#CAD0DB"/></linearGradient></defs></svg>