<svg xmlns="http://www.w3.org/2000/svg" fill="none" viewBox="0 0 78 78"><path fill="url(#a)" fill-rule="evenodd" d="m67.81 19.54 1.69-4.2s-2.14-2.35-4.75-5c-2.6-2.65-8.1-1.09-8.1-1.09L50.37 2H28.34l-6.28 7.25s-5.5-1.56-8.1 1.1c-2.6 2.64-4.75 4.98-4.75 4.98l1.69 4.21-2.15 6.24s6.3 24.3 7.04 27.28c1.46 5.84 2.45 8.1 6.58 11.06a513.66 513.66 0 0 0 12.85 8.89c1.23.78 2.76 2.1 4.13 2.1 1.38 0 2.91-1.32 4.14-2.1 1.22-.78 8.72-5.92 12.85-8.89 4.13-2.96 5.12-5.22 6.58-11.06.74-2.97 7.04-27.28 7.04-27.28l-2.15-6.24Z" clip-rule="evenodd"/><path fill="#fff" fill-rule="evenodd" d="M39.35 47.5c.42 0 3.11.97 5.27 2.1 2.15 1.14 3.72 1.95 4.22 2.26.5.32.2.92-.26 1.25-.46.33-6.57 5.15-7.17 5.69-.6.53-1.46 1.41-2.06 1.41-.59 0-1.46-.88-2.05-1.41-.6-.54-6.71-5.36-7.17-5.69-.45-.33-.76-.93-.26-1.25.5-.31 2.07-1.12 4.22-2.25 2.16-1.14 4.85-2.1 5.26-2.1Zm.04-34.36c.2.01 1.36.07 3.02.63 1.84.63 3.83 1.4 4.75 1.4.92 0 7.73-1.32 7.73-1.32s8.06 9.94 8.06 12.06c0 2.13-1.01 2.69-2.03 3.8l-6.05 6.54c-.57.62-1.77 1.55-1.06 3.24.7 1.7 1.73 3.84.58 6.03-1.15 2.18-3.12 3.63-4.38 3.4-1.26-.25-4.23-1.83-5.32-2.55-1.09-.72-4.54-3.62-4.54-4.73 0-1.11 3.57-3.1 4.23-3.56.66-.45 3.67-2.2 3.73-2.9.06-.69.04-.89-.85-2.59-.89-1.7-2.49-3.97-2.22-5.48.26-1.51 2.84-2.3 4.68-3 1.84-.71 5.39-2.05 5.83-2.26.44-.2.33-.4-1.01-.53s-5.15-.65-6.86-.16c-1.72.49-4.65 1.23-4.89 1.62-.24.4-.45.4-.2 1.76.24 1.36 1.5 7.87 1.62 9.02.12 1.16.36 1.92-.87 2.2-1.22.3-3.28.79-3.99.79-.7 0-2.76-.5-3.99-.78-1.22-.29-.98-1.05-.86-2.2.12-1.16 1.38-7.67 1.62-9.03.25-1.35.04-1.37-.2-1.76-.24-.4-3.17-1.13-4.89-1.62-1.71-.49-5.52.03-6.86.16-1.34.13-1.46.32-1.01.53.44.21 3.98 1.55 5.83 2.26 1.84.7 4.42 1.49 4.68 3 .27 1.51-1.33 3.78-2.22 5.48-.89 1.7-.91 1.9-.85 2.6.06.68 3.07 2.44 3.73 2.89.66.45 4.23 2.45 4.23 3.56 0 1.1-3.45 4.01-4.54 4.73-1.1.72-4.06 2.3-5.32 2.54-1.26.24-3.23-1.21-4.38-3.4-1.15-2.18-.12-4.33.58-6.02.7-1.69-.49-2.62-1.06-3.24L17.8 29.7c-1.02-1.1-2.04-1.66-2.04-3.79 0-2.12 8.07-12.06 8.07-12.06s6.81 1.33 7.73 1.33c.92 0 2.9-.78 4.74-1.4a11.3 11.3 0 0 1 3.03-.64h.07Z" clip-rule="evenodd"/><mask id="b" width="52" height="14" x="13" y="2" maskUnits="userSpaceOnUse" style="mask-type:alpha"><path fill="#fff" d="M56.64 9.25 50.37 2H28.34l-6.28 7.25s-5.5-1.56-8.1 1.1c0 0 7.34-.68 9.86 3.5 0 0 6.81 1.33 7.73 1.33.92 0 2.9-.78 4.74-1.4 1.84-.63 3.06-.64 3.06-.64s1.23 0 3.06.63c1.84.63 3.83 1.4 4.75 1.4.92 0 7.73-1.32 7.73-1.32 2.52-4.18 9.86-3.5 9.86-3.5-2.6-2.66-8.1-1.1-8.1-1.1Z"/></mask><g mask="url(#b)"><path fill="url(#c)" d="M56.64 9.25 50.37 2H28.34l-6.28 7.25s-5.5-1.56-8.1 1.1c0 0 7.34-.68 9.86 3.5 0 0 6.81 1.33 7.73 1.33.92 0 2.9-.78 4.74-1.4 1.84-.63 3.06-.64 3.06-.64s1.23 0 3.06.63c1.84.63 3.83 1.4 4.75 1.4.92 0 7.73-1.32 7.73-1.32 2.52-4.18 9.86-3.5 9.86-3.5-2.6-2.66-8.1-1.1-8.1-1.1Z"/></g><defs><linearGradient id="a" x1="8.75" x2="69.96" y1="39.07" y2="39.07" gradientUnits="userSpaceOnUse"><stop stop-color="#F50"/><stop offset=".41" stop-color="#F50"/><stop offset=".58" stop-color="#FF2000"/><stop offset="1" stop-color="#FF2000"/></linearGradient><linearGradient id="c" x1="15.05" x2="64.75" y1="8.68" y2="8.68" gradientUnits="userSpaceOnUse"><stop stop-color="#FF452A"/><stop offset="1" stop-color="#FF2000"/></linearGradient></defs></svg>