<svg xmlns="http://www.w3.org/2000/svg" width="48" height="48" fill="none"><g clip-path="url(#a)"><path fill="url(#b)" d="M0 16c0-5.6 0-8.4 1.09-10.54a10 10 0 0 1 4.37-4.37C7.6 0 10.4 0 16 0h16c5.6 0 8.4 0 10.54 1.09a10 10 0 0 1 4.37 4.37C48 7.6 48 10.4 48 16v16c0 5.6 0 8.4-1.09 10.54a10.001 10.001 0 0 1-4.37 4.37C40.4 48 37.6 48 32 48H16c-5.6 0-8.4 0-10.54-1.09a10 10 0 0 1-4.37-4.37C0 40.4 0 37.6 0 32V16Z"/><path fill="#000" fill-opacity=".08" fill-rule="evenodd" d="M1.133 9.513C1 11.131 1 13.183 1 16v16c0 2.817 0 4.87.133 6.486.131 1.606.387 2.695.848 3.6a9 9 0 0 0 3.933 3.933c.905.461 1.994.717 3.6.848C11.13 47 13.183 47 16 47h16c2.817 0 4.87 0 6.486-.133 1.606-.131 2.695-.387 3.6-.848a9 9 0 0 0 3.933-3.933c.461-.905.717-1.994.848-3.6C47 36.87 47 34.816 47 32V16c0-2.817 0-4.87-.133-6.487-.131-1.605-.387-2.694-.848-3.599a9 9 0 0 0-3.933-3.933c-.905-.461-1.994-.717-3.6-.848C36.87 1 34.816 1 32 1H16c-2.817 0-4.87 0-6.487.133-1.605.131-2.694.387-3.599.848a9 9 0 0 0-3.933 3.933c-.461.905-.717 1.994-.848 3.6ZM1.09 5.46C0 7.6 0 10.4 0 16v16c0 5.6 0 8.4 1.09 10.54a10 10 0 0 0 4.37 4.37C7.6 48 10.4 48 16 48h16c5.6 0 8.4 0 10.54-1.09a10.001 10.001 0 0 0 4.37-4.37C48 40.4 48 37.6 48 32V16c0-5.6 0-8.4-1.09-10.54a10 10 0 0 0-4.37-4.37C40.4 0 37.6 0 32 0H16C10.4 0 7.6 0 5.46 1.09a10 10 0 0 0-4.37 4.37Z" clip-rule="evenodd"/><g clip-path="url(#c)"><path fill="#000" fill-opacity=".12" d="M24.716 35.795c.531 0 .968-.234 1.452-.687l9.989-9.38c.537-.512.679-.939.679-1.33 0-.4-.129-.823-.68-1.34l-9.988-9.318c-.527-.497-.903-.74-1.435-.74-.762 0-1.271.592-1.271 1.32v5.075h-.44C14.403 19.395 10 24.689 10 34.373c0 .903.52 1.422 1.119 1.422.482 0 .944-.15 1.31-.857 2.031-4.108 5.295-5.486 10.594-5.486h.439v5.062c0 .73.509 1.281 1.254 1.281Z"/></g><g clip-path="url(#d)"><path fill="#fff" d="M24.716 34.795c.531 0 .968-.234 1.452-.687l9.989-9.38c.537-.512.679-.939.679-1.33 0-.4-.129-.823-.68-1.34l-9.988-9.318c-.527-.497-.903-.74-1.435-.74-.762 0-1.271.592-1.271 1.32v5.075h-.44C14.403 18.395 10 23.689 10 33.373c0 .903.52 1.422 1.119 1.422.482 0 .944-.15 1.31-.857 2.031-4.108 5.295-5.486 10.594-5.486h.439v5.062c0 .73.509 1.281 1.254 1.281Z"/></g></g><defs><clipPath id="a"><path fill="#fff" d="M0 0h48v48H0z"/></clipPath><clipPath id="c"><path fill="#fff" d="M10 13h26.836v22.808H10z"/></clipPath><clipPath id="d"><path fill="#fff" d="M10 12h26.836v22.808H10z"/></clipPath><linearGradient id="b" x1="24" x2="24" y1="0" y2="48" gradientUnits="userSpaceOnUse"><stop stop-color="#59627A"/><stop offset="1" stop-color="#4A5266"/></linearGradient></defs></svg>