<svg xmlns="http://www.w3.org/2000/svg" fill="none" viewBox="0 0 48 48"><path fill="url(#a)" d="M0 16c0-5.6 0-8.4 1.09-10.54a10 10 0 0 1 4.37-4.37C7.6 0 10.4 0 16 0h16c5.6 0 8.4 0 10.54 1.09a10 10 0 0 1 4.37 4.37C48 7.6 48 10.4 48 16v16c0 5.6 0 8.4-1.09 10.54a10.001 10.001 0 0 1-4.37 4.37C40.4 48 37.6 48 32 48H16c-5.6 0-8.4 0-10.54-1.09a10 10 0 0 1-4.37-4.37C0 40.4 0 37.6 0 32V16Z"/><path fill="url(#b)" fill-opacity=".7" d="M0 16c0-5.6 0-8.4 1.09-10.54a10 10 0 0 1 4.37-4.37C7.6 0 10.4 0 16 0h16c5.6 0 8.4 0 10.54 1.09a10 10 0 0 1 4.37 4.37C48 7.6 48 10.4 48 16v16c0 5.6 0 8.4-1.09 10.54a10.001 10.001 0 0 1-4.37 4.37C40.4 48 37.6 48 32 48H16c-5.6 0-8.4 0-10.54-1.09a10 10 0 0 1-4.37-4.37C0 40.4 0 37.6 0 32V16Z" style="mix-blend-mode:screen"/><path fill="#000" fill-opacity=".04" fill-rule="evenodd" d="M32 1H16c-2.817 0-4.87 0-6.487.133-1.605.131-2.694.387-3.599.848a9 9 0 0 0-3.933 3.933c-.461.905-.717 1.994-.848 3.6C1 11.13 1 13.183 1 16v16c0 2.817 0 4.87.133 6.486.131 1.606.387 2.695.848 3.6a9 9 0 0 0 3.933 3.933c.905.461 1.994.717 3.6.848C11.13 47 13.183 47 16 47h16c2.817 0 4.87 0 6.486-.133 1.606-.131 2.695-.387 3.6-.848a9 9 0 0 0 3.933-3.933c.461-.905.717-1.994.848-3.6C47 36.87 47 34.816 47 32V16c0-2.817 0-4.87-.133-6.487-.131-1.605-.387-2.694-.848-3.599a9 9 0 0 0-3.933-3.933c-.905-.461-1.994-.717-3.6-.848C36.87 1 34.816 1 32 1ZM1.09 5.46C0 7.6 0 10.4 0 16v16c0 5.6 0 8.4 1.09 10.54a10 10 0 0 0 4.37 4.37C7.6 48 10.4 48 16 48h16c5.6 0 8.4 0 10.54-1.09a10.001 10.001 0 0 0 4.37-4.37C48 40.4 48 37.6 48 32V16c0-5.6 0-8.4-1.09-10.54a10 10 0 0 0-4.37-4.37C40.4 0 37.6 0 32 0H16C10.4 0 7.6 0 5.46 1.09a10 10 0 0 0-4.37 4.37Z" clip-rule="evenodd"/><path fill="#000" fill-opacity=".12" d="M24 13a1.5 1.5 0 0 0-1.5 1.5v8.2c0 .28 0 .42-.055.527a.5.5 0 0 1-.218.218c-.107.055-.247.055-.527.055h-8.2a1.5 1.5 0 0 0 0 3h8.2c.28 0 .42 0 .527.055a.5.5 0 0 1 .218.218c.055.107.055.247.055.527v8.2a1.5 1.5 0 0 0 3 0v-8.2c0-.28 0-.42.055-.527a.5.5 0 0 1 .218-.218c.107-.055.247-.055.527-.055h8.2a1.5 1.5 0 0 0 0-3h-8.2c-.28 0-.42 0-.527-.055a.5.5 0 0 1-.218-.218c-.055-.107-.055-.247-.055-.527v-8.2A1.5 1.5 0 0 0 24 13Z"/><path fill="#fff" d="M24 12a1.5 1.5 0 0 0-1.5 1.5v8.2c0 .28 0 .42-.055.527a.5.5 0 0 1-.218.218c-.107.055-.247.055-.527.055h-8.2a1.5 1.5 0 0 0 0 3h8.2c.28 0 .42 0 .527.055a.5.5 0 0 1 .218.218c.055.107.055.247.055.527v8.2a1.5 1.5 0 0 0 3 0v-8.2c0-.28 0-.42.055-.527a.5.5 0 0 1 .218-.218c.107-.055.247-.055.527-.055h8.2a1.5 1.5 0 0 0 0-3h-8.2c-.28 0-.42 0-.527-.055a.5.5 0 0 1-.218-.218c-.055-.107-.055-.247-.055-.527v-8.2A1.5 1.5 0 0 0 24 12Z"/><defs><radialGradient id="a" cx="0" cy="0" r="1" gradientTransform="rotate(-40.077 73.374 58.603) scale(94.7484)" gradientUnits="userSpaceOnUse"><stop offset=".276" stop-color="#20FF4D"/><stop offset=".464" stop-color="#1499FF"/><stop offset=".755" stop-color="#FF6FC5"/><stop offset="1" stop-color="#BC67FF"/></radialGradient><radialGradient id="b" cx="0" cy="0" r="1" gradientTransform="rotate(45 5.303 -12.803) scale(78.4889)" gradientUnits="userSpaceOnUse"><stop stop-color="red"/><stop offset="1" stop-color="#00A3FF"/></radialGradient></defs></svg>