<svg xmlns="http://www.w3.org/2000/svg" width="48" height="48" fill="none"><rect width="48" height="48" rx="10" fill="url(#a)"/><rect width="48" height="48" rx="10" fill="url(#b)" fill-opacity=".7" style="mix-blend-mode:screen"/><rect x=".5" y=".5" width="47" height="47" rx="9.5" stroke="#000" stroke-opacity=".04"/><g filter="url(#c)"><path fill-rule="evenodd" clip-rule="evenodd" d="M24 12a1.5 1.5 0 0 0-1.5 1.5v8.2c0 .28 0 .42-.055.527a.5.5 0 0 1-.218.218c-.107.055-.247.055-.527.055h-8.2a1.5 1.5 0 0 0 0 3h8.2c.28 0 .42 0 .527.055a.5.5 0 0 1 .218.218c.055.107.055.247.055.527v8.2a1.5 1.5 0 0 0 3 0v-8.2c0-.28 0-.42.055-.527a.5.5 0 0 1 .218-.218c.107-.055.247-.055.527-.055h8.2a1.5 1.5 0 0 0 0-3h-8.2c-.28 0-.42 0-.527-.055a.5.5 0 0 1-.218-.218c-.055-.107-.055-.247-.055-.527v-8.2A1.5 1.5 0 0 0 24 12Z" fill="#fff"/></g><defs><radialGradient id="a" cx="0" cy="0" r="1" gradientUnits="userSpaceOnUse" gradientTransform="rotate(-40.077 73.374 58.603) scale(94.7484)"><stop offset=".276" stop-color="#20FF4D"/><stop offset=".464" stop-color="#1499FF"/><stop offset=".755" stop-color="#FF6FC5"/><stop offset="1" stop-color="#BC67FF"/></radialGradient><radialGradient id="b" cx="0" cy="0" r="1" gradientUnits="userSpaceOnUse" gradientTransform="rotate(45 5.303 -12.803) scale(78.4889)"><stop stop-color="red"/><stop offset="1" stop-color="#00A3FF"/></radialGradient><filter id="c" x="10" y="11" width="28" height="28" filterUnits="userSpaceOnUse" color-interpolation-filters="sRGB"><feFlood flood-opacity="0" result="BackgroundImageFix"/><feColorMatrix in="SourceAlpha" values="0 0 0 0 0 0 0 0 0 0 0 0 0 0 0 0 0 0 127 0" result="hardAlpha"/><feOffset dy="1"/><feGaussianBlur stdDeviation="1"/><feComposite in2="hardAlpha" operator="out"/><feColorMatrix values="0 0 0 0 0 0 0 0 0 0 0 0 0 0 0 0 0 0 0.3 0"/><feBlend mode="overlay" in2="BackgroundImageFix" result="effect1_dropShadow_251_1213"/><feBlend in="SourceGraphic" in2="effect1_dropShadow_251_1213" result="shape"/></filter></defs></svg>