<svg xmlns="http://www.w3.org/2000/svg" fill="none" viewBox="0 0 78 78"><g clip-path="url(#a)"><path fill="url(#b)" d="M68.802 57.066c-.992.516-2.016.97-3.064 1.359a29.456 29.456 0 0 1-10.377 1.85c-13.673 0-25.582-9.395-25.582-21.477a9.106 9.106 0 0 1 4.74-7.892c-12.371.52-15.551 13.413-15.551 20.957 0 21.39 19.685 23.53 23.934 23.53 2.284 0 5.724-.665 7.805-1.33l.376-.115a37.088 37.088 0 0 0 19.251-15.263 1.156 1.156 0 0 0-1.532-1.619Z"/><path fill="url(#c)" d="M68.802 57.066c-.992.516-2.016.97-3.064 1.359a29.456 29.456 0 0 1-10.377 1.85c-13.673 0-25.582-9.395-25.582-21.477a9.106 9.106 0 0 1 4.74-7.892c-12.371.52-15.551 13.413-15.551 20.957 0 21.39 19.685 23.53 23.934 23.53 2.284 0 5.724-.665 7.805-1.33l.376-.115a37.088 37.088 0 0 0 19.251-15.263 1.156 1.156 0 0 0-1.532-1.619Z" opacity=".35"/><path fill="url(#d)" d="M32.554 71.751a22.894 22.894 0 0 1-6.562-6.157 23.329 23.329 0 0 1 8.527-34.687c.925-.434 2.458-1.186 4.51-1.157a9.365 9.365 0 0 1 7.429 3.758 9.222 9.222 0 0 1 1.82 5.406c0-.058 7.083-23.01-23.124-23.01-12.69 0-23.125 12.025-23.125 22.605a37.636 37.636 0 0 0 3.498 16.188 37 37 0 0 0 45.209 19.367 21.825 21.825 0 0 1-18.153-2.313h-.03Z"/><path fill="url(#e)" d="M32.554 71.751a22.894 22.894 0 0 1-6.562-6.157 23.329 23.329 0 0 1 8.527-34.687c.925-.434 2.458-1.186 4.51-1.157a9.365 9.365 0 0 1 7.429 3.758 9.222 9.222 0 0 1 1.82 5.406c0-.058 7.083-23.01-23.124-23.01-12.69 0-23.125 12.025-23.125 22.605a37.636 37.636 0 0 0 3.498 16.188 37 37 0 0 0 45.209 19.367 21.825 21.825 0 0 1-18.153-2.313h-.03Z" opacity=".41"/><path fill="url(#f)" d="M46.053 45.013c-.26.289-.983.722-.983 1.618 0 .752.492 1.503 1.388 2.11 4.133 2.891 11.967 2.486 11.996 2.486a17.227 17.227 0 0 0 8.759-2.399A17.748 17.748 0 0 0 76 33.537c.087-6.475-2.313-10.782-3.266-12.69C66.577 8.88 53.366 2 39 2A37 37 0 0 0 2 38.48c.145-10.551 10.637-19.078 23.125-19.078 1.012 0 6.793.086 12.14 2.89a20.986 20.986 0 0 1 8.933 8.47c1.763 3.064 2.08 6.966 2.08 8.527 0 1.561-.78 3.845-2.254 5.752l.03-.028Z"/><path fill="url(#g)" d="M46.053 45.013c-.26.289-.983.722-.983 1.618 0 .752.492 1.503 1.388 2.11 4.133 2.891 11.967 2.486 11.996 2.486a17.227 17.227 0 0 0 8.759-2.399A17.748 17.748 0 0 0 76 33.537c.087-6.475-2.313-10.782-3.266-12.69C66.577 8.88 53.366 2 39 2A37 37 0 0 0 2 38.48c.145-10.551 10.637-19.078 23.125-19.078 1.012 0 6.793.086 12.14 2.89a20.986 20.986 0 0 1 8.933 8.47c1.763 3.064 2.08 6.966 2.08 8.527 0 1.561-.78 3.845-2.254 5.752l.03-.028Z"/></g><defs><radialGradient id="c" cx="0" cy="0" r="1" gradientTransform="matrix(27.5766 0 0 26.1977 47.44 53.553)" gradientUnits="userSpaceOnUse"><stop offset=".7" stop-opacity="0"/><stop offset=".9" stop-opacity=".5"/><stop offset="1"/></radialGradient><radialGradient id="e" cx="0" cy="0" r="1" gradientTransform="matrix(6.20902 -40.9798 33.10754 5.01627 22.395 59.506)" gradientUnits="userSpaceOnUse"><stop offset=".8" stop-opacity="0"/><stop offset=".9" stop-opacity=".5"/><stop offset="1"/></radialGradient><radialGradient id="f" cx="0" cy="0" r="1" gradientTransform="matrix(-2.34024 58.50621 -124.60636 -4.98423 9.484 15.677)" gradientUnits="userSpaceOnUse"><stop stop-color="#35C1F1"/><stop offset=".1" stop-color="#34C1ED"/><stop offset=".2" stop-color="#2FC2DF"/><stop offset=".3" stop-color="#2BC3D2"/><stop offset=".7" stop-color="#36C752"/></radialGradient><radialGradient id="g" cx="0" cy="0" r="1" gradientTransform="rotate(73.74 19.467 59.767) scale(28.1258 22.8719)" gradientUnits="userSpaceOnUse"><stop stop-color="#66EB6E"/><stop offset="1" stop-color="#66EB6E" stop-opacity="0"/></radialGradient><linearGradient id="b" x1="18.968" x2="70.537" y1="53.164" y2="53.164" gradientUnits="userSpaceOnUse"><stop stop-color="#0C59A4"/><stop offset="1" stop-color="#114A8B"/></linearGradient><linearGradient id="d" x1="46.14" x2="13.967" y1="30.791" y2="65.854" gradientUnits="userSpaceOnUse"><stop stop-color="#1B9DE2"/><stop offset=".2" stop-color="#1595DF"/><stop offset=".7" stop-color="#0680D7"/><stop offset="1" stop-color="#0078D4"/></linearGradient><clipPath id="a"><path fill="#fff" d="M0 0h74v74H0z" transform="translate(2 2)"/></clipPath></defs></svg>