<svg xmlns="http://www.w3.org/2000/svg" fill="none" viewBox="0 0 78 78"><g clip-path="url(#a)"><path fill="url(#b)" d="M72.049 26.827c-1.559-3.75-4.72-7.798-7.195-9.078a37.264 37.264 0 0 1 3.632 10.883l.007.06c-4.055-10.105-10.929-14.186-16.546-23.06a43.39 43.39 0 0 1-.845-1.373 11.337 11.337 0 0 1-.395-.74 6.525 6.525 0 0 1-.535-1.42.092.092 0 0 0-.08-.093.128.128 0 0 0-.069 0c-.004 0-.012.008-.017.01-.006.002-.018.01-.026.014l.014-.024C40.986 7.28 37.927 17.042 37.65 21.928a17.944 17.944 0 0 0-9.874 3.804c-.295-.25-.604-.484-.925-.701a16.629 16.629 0 0 1-.1-8.766 26.558 26.558 0 0 0-8.634 6.672h-.016c-1.421-1.802-1.322-7.743-1.24-8.983a6.44 6.44 0 0 0-1.197.635 26.119 26.119 0 0 0-3.506 3.003 31.312 31.312 0 0 0-3.352 4.023v.005-.006a30.287 30.287 0 0 0-4.812 10.863l-.048.237a57.058 57.058 0 0 0-.353 2.24c0 .026-.005.051-.008.078a34.183 34.183 0 0 0-.582 4.944v.185a35.867 35.867 0 0 0 71.205 6.065c.06-.463.11-.92.163-1.388a36.883 36.883 0 0 0-2.326-18.017l.004.006ZM30.713 54.902c.168.08.325.167.497.244l.025.016c-.174-.083-.348-.17-.522-.26Zm37.78-26.2v-.034l.007.038-.007-.004Z"/><path fill="url(#c)" d="M72.05 26.828c-1.558-3.75-4.72-7.798-7.195-9.078a37.261 37.261 0 0 1 3.632 10.882v.034l.007.038a32.48 32.48 0 0 1-1.116 24.207c-4.11 8.82-14.056 17.86-29.63 17.415C20.926 69.85 6.101 57.362 3.335 41.011c-.505-2.579 0-3.886.253-5.982a26.723 26.723 0 0 0-.576 4.949v.185a35.867 35.867 0 0 0 71.205 6.065c.06-.463.11-.921.163-1.389a36.884 36.884 0 0 0-2.326-18.016l-.004.005Z"/><path fill="url(#d)" d="M72.05 26.828c-1.558-3.75-4.72-7.798-7.195-9.078a37.261 37.261 0 0 1 3.632 10.882v.034l.007.038a32.48 32.48 0 0 1-1.116 24.207c-4.11 8.82-14.056 17.86-29.63 17.415C20.926 69.85 6.101 57.362 3.335 41.011c-.505-2.579 0-3.886.253-5.982a26.723 26.723 0 0 0-.576 4.949v.185a35.867 35.867 0 0 0 71.205 6.065c.06-.463.11-.921.163-1.389a36.884 36.884 0 0 0-2.326-18.016l-.004.005Z"/><path fill="url(#e)" d="M54.615 31.037c.078.055.15.11.223.164a19.525 19.525 0 0 0-3.33-4.344c-11.151-11.15-2.922-24.17-1.535-24.837l.014-.02C40.978 7.274 37.92 17.037 37.643 21.923c.418-.029.832-.064 1.26-.064a18.1 18.1 0 0 1 15.712 9.176v.002Z"/><path fill="url(#f)" d="M38.923 33.268c-.06.892-3.211 3.969-4.313 3.969-10.198 0-11.854 6.169-11.854 6.169.451 5.195 4.071 9.476 8.447 11.733.2.104.403.197.605.29.352.154.703.298 1.054.43a15.91 15.91 0 0 0 4.666.9c17.878.839 21.339-21.375 8.438-27.825a12.381 12.381 0 0 1 8.648 2.1A18.1 18.1 0 0 0 38.9 21.857c-.425 0-.842.036-1.26.064a17.943 17.943 0 0 0-9.873 3.804c.546.463 1.164 1.081 2.464 2.363 2.433 2.397 8.675 4.881 8.689 5.172l.002.008Z"/><path fill="url(#g)" d="M38.923 33.268c-.06.892-3.211 3.969-4.313 3.969-10.198 0-11.854 6.169-11.854 6.169.451 5.195 4.071 9.476 8.447 11.733.2.104.403.197.605.29.352.154.703.298 1.054.43a15.91 15.91 0 0 0 4.666.9c17.878.839 21.339-21.375 8.438-27.825a12.381 12.381 0 0 1 8.648 2.1A18.1 18.1 0 0 0 38.9 21.857c-.425 0-.842.036-1.26.064a17.943 17.943 0 0 0-9.873 3.804c.546.463 1.164 1.081 2.464 2.363 2.433 2.397 8.675 4.881 8.689 5.172l.002.008Z"/><path fill="url(#h)" d="M26.097 24.542c.29.185.53.346.74.491a16.628 16.628 0 0 1-.1-8.765 26.557 26.557 0 0 0-8.633 6.671c.174-.004 5.377-.098 7.993 1.603Z"/><path fill="url(#i)" d="M3.327 41.013c2.768 16.35 17.59 28.843 34.414 29.315 15.573.44 25.52-8.6 29.63-17.415a32.48 32.48 0 0 0 1.115-24.207v-.034c0-.027-.005-.043 0-.035l.007.06c1.272 8.307-2.953 16.351-9.56 21.802l-.02.046c-12.871 10.484-25.188 6.324-27.677 4.627-.174-.084-.348-.17-.522-.26-7.503-3.587-10.604-10.42-9.938-16.286a9.21 9.21 0 0 1-8.495-5.344 13.528 13.528 0 0 1 13.186-.53 17.86 17.86 0 0 0 13.464.53c-.014-.292-6.256-2.776-8.69-5.173-1.3-1.282-1.917-1.899-2.464-2.363-.295-.25-.604-.484-.925-.7-.213-.146-.453-.303-.74-.492-2.616-1.701-7.818-1.608-7.99-1.603h-.017c-1.422-1.802-1.322-7.742-1.24-8.983-.42.169-.822.382-1.198.636a26.105 26.105 0 0 0-3.505 3.002 31.315 31.315 0 0 0-3.366 4.013v.006-.006a30.287 30.287 0 0 0-4.812 10.863c-.018.073-1.292 5.644-.664 8.533l.007-.002Z"/><path fill="url(#j)" d="M51.507 26.855a19.527 19.527 0 0 1 3.33 4.349c.198.149.382.297.538.44 8.132 7.496 3.871 18.09 3.554 18.84 6.605-5.442 10.826-13.491 9.559-21.8C64.43 18.568 57.55 14.487 51.942 5.613a43.401 43.401 0 0 1-.844-1.373 11.29 11.29 0 0 1-.396-.74 6.525 6.525 0 0 1-.534-1.42.093.093 0 0 0-.082-.093.127.127 0 0 0-.067 0c-.005 0-.012.008-.018.01l-.026.014c-1.387.658-9.614 13.686 1.536 24.827l-.004.016Z"/><path fill="url(#k)" d="M55.375 31.65a7.495 7.495 0 0 0-.538-.441c-.073-.055-.145-.11-.223-.164a12.382 12.382 0 0 0-8.647-2.1c12.9 6.45 9.439 28.658-8.438 27.825a15.95 15.95 0 0 1-4.667-.9 18.885 18.885 0 0 1-1.053-.431 13.248 13.248 0 0 1-.605-.289l.025.016c2.493 1.702 14.806 5.86 27.677-4.627l.02-.046c.322-.75 4.582-11.345-3.553-18.84l.002-.004Z"/><path fill="url(#l)" d="M22.756 43.4s1.655-6.17 11.853-6.17c1.102 0 4.257-3.076 4.313-3.968a17.86 17.86 0 0 1-13.463-.53 13.529 13.529 0 0 0-13.186.53 9.21 9.21 0 0 0 8.495 5.344c-.664 5.864 2.436 12.696 9.938 16.286.168.08.325.167.497.244-4.38-2.262-7.996-6.541-8.447-11.733V43.4Z"/><path fill="url(#m)" d="M72.049 26.827c-1.559-3.75-4.72-7.798-7.195-9.078a37.261 37.261 0 0 1 3.632 10.883l.007.06c-4.055-10.105-10.929-14.186-16.546-23.06a43.39 43.39 0 0 1-.844-1.373 11.337 11.337 0 0 1-.396-.74 6.525 6.525 0 0 1-.534-1.42.092.092 0 0 0-.082-.093.128.128 0 0 0-.067 0c-.005 0-.012.008-.018.01l-.026.014.014-.024C40.986 7.28 37.928 17.042 37.65 21.928c.418-.028.833-.064 1.26-.064a18.1 18.1 0 0 1 15.713 9.177 12.38 12.38 0 0 0-8.648-2.1c12.9 6.45 9.439 28.658-8.438 27.826a15.952 15.952 0 0 1-4.666-.9 18.933 18.933 0 0 1-1.054-.432c-.202-.093-.405-.185-.605-.289l.025.016a19.04 19.04 0 0 1-.522-.26c.168.08.325.167.497.244-4.38-2.263-7.996-6.542-8.447-11.733 0 0 1.655-6.17 11.853-6.17 1.102 0 4.257-3.076 4.313-3.968-.013-.292-6.255-2.776-8.688-5.173-1.3-1.281-1.918-1.899-2.465-2.362-.295-.25-.604-.485-.925-.702a16.628 16.628 0 0 1-.1-8.765 26.557 26.557 0 0 0-8.634 6.671h-.016c-1.422-1.801-1.322-7.742-1.24-8.983-.42.169-.822.382-1.197.636a26.112 26.112 0 0 0-3.506 3.002 31.304 31.304 0 0 0-3.352 4.023v.006-.007a30.287 30.287 0 0 0-4.812 10.864l-.048.236c-.068.316-.37 1.919-.414 2.263a41.724 41.724 0 0 0-.53 5v.185a35.866 35.866 0 0 0 71.206 6.064c.06-.462.11-.92.163-1.388a36.885 36.885 0 0 0-2.326-18.016l.002-.002Zm-3.558 1.842.006.038-.006-.038Z"/></g><defs><radialGradient id="c" cx="0" cy="0" r="1" gradientTransform="translate(64.999 10.329) scale(74.768)" gradientUnits="userSpaceOnUse"><stop offset=".129" stop-color="#FFBD4F"/><stop offset=".186" stop-color="#FFAC31"/><stop offset=".247" stop-color="#FF9D17"/><stop offset=".283" stop-color="#FF980E"/><stop offset=".403" stop-color="#FF563B"/><stop offset=".467" stop-color="#FF3750"/><stop offset=".71" stop-color="#F5156C"/><stop offset=".782" stop-color="#EB0878"/><stop offset=".86" stop-color="#E50080"/></radialGradient><radialGradient id="d" cx="0" cy="0" r="1" gradientTransform="translate(37.239 40.865) scale(74.768)" gradientUnits="userSpaceOnUse"><stop offset=".3" stop-color="#960E18"/><stop offset=".351" stop-color="#B11927" stop-opacity=".74"/><stop offset=".435" stop-color="#DB293D" stop-opacity=".343"/><stop offset=".497" stop-color="#F5334B" stop-opacity=".094"/><stop offset=".53" stop-color="#FF3750" stop-opacity="0"/></radialGradient><radialGradient id="e" cx="0" cy="0" r="1" gradientTransform="translate(46.49 -6.328) scale(54.1606)" gradientUnits="userSpaceOnUse"><stop offset=".132" stop-color="#FFF44F"/><stop offset=".252" stop-color="#FFDC3E"/><stop offset=".506" stop-color="#FF9D12"/><stop offset=".526" stop-color="#FF980E"/></radialGradient><radialGradient id="f" cx="0" cy="0" r="1" gradientTransform="translate(28.91 60.297) scale(35.5981)" gradientUnits="userSpaceOnUse"><stop offset=".353" stop-color="#3A8EE6"/><stop offset=".472" stop-color="#5C79F0"/><stop offset=".669" stop-color="#9059FF"/><stop offset="1" stop-color="#C139E6"/></radialGradient><radialGradient id="g" cx="0" cy="0" r="1" gradientTransform="matrix(18.34852 -4.43626 5.19374 21.48145 40.856 34.448)" gradientUnits="userSpaceOnUse"><stop offset=".206" stop-color="#9059FF" stop-opacity="0"/><stop offset=".278" stop-color="#8C4FF3" stop-opacity=".064"/><stop offset=".747" stop-color="#7716A8" stop-opacity=".45"/><stop offset=".975" stop-color="#6E008B" stop-opacity=".6"/></radialGradient><radialGradient id="h" cx="0" cy="0" r="1" gradientTransform="translate(36.313 7.553) scale(25.6136)" gradientUnits="userSpaceOnUse"><stop stop-color="#FFE226"/><stop offset=".121" stop-color="#FFDB27"/><stop offset=".295" stop-color="#FFC82A"/><stop offset=".502" stop-color="#FFA930"/><stop offset=".732" stop-color="#FF7E37"/><stop offset=".792" stop-color="#FF7139"/></radialGradient><radialGradient id="i" cx="0" cy="0" r="1" gradientTransform="translate(56.67 -9.104) scale(109.283)" gradientUnits="userSpaceOnUse"><stop offset=".113" stop-color="#FFF44F"/><stop offset=".456" stop-color="#FF980E"/><stop offset=".622" stop-color="#FF5634"/><stop offset=".716" stop-color="#FF3647"/><stop offset=".904" stop-color="#E31587"/></radialGradient><radialGradient id="j" cx="0" cy="0" r="1" gradientTransform="rotate(83.976 25.485 24.914) scale(80.0845 52.5588)" gradientUnits="userSpaceOnUse"><stop stop-color="#FFF44F"/><stop offset=".06" stop-color="#FFE847"/><stop offset=".168" stop-color="#FFC830"/><stop offset=".304" stop-color="#FF980E"/><stop offset=".356" stop-color="#FF8B16"/><stop offset=".455" stop-color="#FF672A"/><stop offset=".57" stop-color="#FF3647"/><stop offset=".737" stop-color="#E31587"/></radialGradient><radialGradient id="k" cx="0" cy="0" r="1" gradientTransform="translate(36.313 16.807) scale(68.2166)" gradientUnits="userSpaceOnUse"><stop offset=".137" stop-color="#FFF44F"/><stop offset=".48" stop-color="#FF980E"/><stop offset=".592" stop-color="#FF5634"/><stop offset=".655" stop-color="#FF3647"/><stop offset=".904" stop-color="#E31587"/></radialGradient><radialGradient id="l" cx="0" cy="0" r="1" gradientTransform="translate(53.894 20.507) scale(74.6662)" gradientUnits="userSpaceOnUse"><stop offset=".094" stop-color="#FFF44F"/><stop offset=".231" stop-color="#FFE141"/><stop offset=".509" stop-color="#FFAF1E"/><stop offset=".626" stop-color="#FF980E"/></radialGradient><linearGradient id="b" x1="67.302" x2="7.762" y1="13.461" y2="70.907" gradientUnits="userSpaceOnUse"><stop offset=".048" stop-color="#FFF44F"/><stop offset=".111" stop-color="#FFE847"/><stop offset=".225" stop-color="#FFC830"/><stop offset=".368" stop-color="#FF980E"/><stop offset=".401" stop-color="#FF8B16"/><stop offset=".462" stop-color="#FF672A"/><stop offset=".534" stop-color="#FF3647"/><stop offset=".705" stop-color="#E31587"/></linearGradient><linearGradient id="m" x1="66.58" x2="15.926" y1="13.156" y2="63.819" gradientUnits="userSpaceOnUse"><stop offset=".167" stop-color="#FFF44F" stop-opacity=".8"/><stop offset=".266" stop-color="#FFF44F" stop-opacity=".634"/><stop offset=".489" stop-color="#FFF44F" stop-opacity=".217"/><stop offset=".6" stop-color="#FFF44F" stop-opacity="0"/></linearGradient><clipPath id="a"><path fill="#fff" d="M0 0h71.64v74H0z" transform="translate(3 2)"/></clipPath></defs></svg>