<svg xmlns="http://www.w3.org/2000/svg" width="48" height="48" fill="none"><path fill="#020204" d="M23.803 0c-1.125 0-2.254.221-3.274.772a6.025 6.025 0 0 0-2.518 2.62c-.547 1.102-.761 2.28-.795 3.577-.062 2.464.056 5.048.242 7.39.049.712.139 1.129.047 1.862-.304 1.556-1.665 2.602-2.392 3.969-.801 1.508-1.139 3.212-1.742 4.81-.553 1.46-1.33 2.83-1.853 4.302-.733 2.057-.952 4.319-.469 6.449.37 1.623 1.14 3.146 2.18 4.449-.15.27-.297.546-.45.814-.483.83-1.072 1.62-1.345 2.54-.137.46-.191.951-.103 1.423.088.473.328.925.703 1.225.245.195.543.322.85.394.305.069.622.086.937.08 1.194-.026 2.353-.388 3.508-.692a41.85 41.85 0 0 1 2.068-.483c2.464-.505 5.212-.302 7.498.028.774.118 1.543.27 2.304.455 1.193.29 2.38.657 3.606.692.322.01.649-.005.964-.075.315-.071.62-.198.872-.4.377-.3.617-.753.705-1.225.088-.473.033-.966-.105-1.427-.278-.923-.872-1.708-1.364-2.535-.195-.328-.375-.662-.568-.99 1.482-1.663 2.674-3.587 3.364-5.7.752-2.306.89-4.79.574-7.196-.317-2.406-1.08-4.739-2.083-6.947-1.26-2.768-2.32-3.77-3.088-6.201-.83-2.629-.145-5.74-.762-8.123a8.333 8.333 0 0 0-1.021-2.293 7.856 7.856 0 0 0-1.997-2.15C27.024.49 25.426 0 23.803 0Z"/><path fill="#FDFDFB" d="M19.337 13.875a1.938 1.938 0 0 0-.345.73c-.066.262-.09.534-.101.806-.021.542.013 1.093-.132 1.616-.153.559-.497 1.044-.832 1.515-.583.817-1.172 1.657-1.459 2.62a4.652 4.652 0 0 0-.17 1.803 19.233 19.233 0 0 0-1.684 3.034c-.709 1.607-1.195 3.317-1.365 5.064-.21 2.14.063 4.34.91 6.317.608 1.43 1.52 2.737 2.695 3.758.597.517 1.26.958 1.97 1.306 2.457 1.21 5.495 1.212 7.912-.077 1.263-.673 2.33-1.657 3.358-2.653.618-.6 1.235-1.215 1.708-1.935.91-1.389 1.226-3.077 1.423-4.725.343-2.88.354-5.925-.91-8.537a9.406 9.406 0 0 0-1.71-2.446 13.35 13.35 0 0 0-1.08-3.642c-.384-.834-.85-1.627-1.207-2.47-.146-.348-.274-.704-.435-1.043-.163-.34-.362-.666-.636-.927a2.592 2.592 0 0 0-.99-.575 4.244 4.244 0 0 0-1.136-.195c-.77-.04-1.541.062-2.312.03-.613-.025-1.224-.132-1.837-.096a2.829 2.829 0 0 0-.896.19 1.793 1.793 0 0 0-.74.532Z"/><mask id="a" width="28" height="47" x="10" y="0" maskUnits="userSpaceOnUse" style="mask-type:luminance"><path fill="#fff" d="M23.803 0c-1.125 0-2.254.221-3.274.772a6.025 6.025 0 0 0-2.518 2.62c-.547 1.102-.761 2.28-.795 3.577-.062 2.464.056 5.048.242 7.39.049.712.139 1.129.047 1.862-.304 1.556-1.665 2.602-2.392 3.969-.801 1.508-1.139 3.212-1.742 4.81-.553 1.46-1.33 2.83-1.853 4.302-.733 2.057-.952 4.319-.469 6.449.37 1.623 1.14 3.146 2.18 4.449-.15.27-.297.546-.45.814-.483.83-1.072 1.62-1.345 2.54-.137.46-.191.951-.103 1.423.088.473.328.925.703 1.225.245.195.543.322.85.394.305.069.622.086.937.08 1.194-.026 2.353-.388 3.508-.692a41.85 41.85 0 0 1 2.068-.483c2.464-.505 5.212-.302 7.498.028.774.118 1.543.27 2.304.455 1.193.29 2.38.657 3.606.692.322.01.649-.005.964-.075.315-.071.62-.198.872-.4.377-.3.617-.753.705-1.225.088-.473.033-.966-.105-1.427-.278-.923-.872-1.708-1.364-2.535-.195-.328-.375-.662-.568-.99 1.482-1.663 2.674-3.587 3.364-5.7.752-2.306.89-4.79.574-7.196-.317-2.406-1.08-4.739-2.083-6.947-1.26-2.768-2.32-3.77-3.088-6.201-.83-2.629-.145-5.74-.762-8.123a8.333 8.333 0 0 0-1.021-2.293 7.856 7.856 0 0 0-1.997-2.15C27.024.49 25.426 0 23.803 0Z"/></mask><g filter="url(#b)" mask="url(#a)" opacity=".25"><path fill="url(#c)" d="M16.626 21.596c.163.246-.104 1.095 3.723.552 0 0-.673.073-1.335.226-1.029.345-1.925.73-2.619 1.24-.684.506-1.187 1.164-1.815 1.729 0 0 1.018-1.86 1.271-2.421.255-.56-.041-.535.16-1.36.2-.825.692-1.618.692-1.618s-.402 1.167-.077 1.652Z"/></g><mask id="d" width="28" height="47" x="10" y="0" maskUnits="userSpaceOnUse" style="mask-type:luminance"><path fill="#fff" d="M23.803 0c-1.125 0-2.254.221-3.274.772a6.025 6.025 0 0 0-2.518 2.62c-.547 1.102-.761 2.28-.795 3.577-.062 2.464.056 5.048.242 7.39.049.712.139 1.129.047 1.862-.304 1.556-1.665 2.602-2.392 3.969-.801 1.508-1.139 3.212-1.742 4.81-.553 1.46-1.33 2.83-1.853 4.302-.733 2.057-.952 4.319-.469 6.449.37 1.623 1.14 3.146 2.18 4.449-.15.27-.297.546-.45.814-.483.83-1.072 1.62-1.345 2.54-.137.46-.191.951-.103 1.423.088.473.328.925.703 1.225.245.195.543.322.85.394.305.069.622.086.937.08 1.194-.026 2.353-.388 3.508-.692a41.85 41.85 0 0 1 2.068-.483c2.464-.505 5.212-.302 7.498.028.774.118 1.543.27 2.304.455 1.193.29 2.38.657 3.606.692.322.01.649-.005.964-.075.315-.071.62-.198.872-.4.377-.3.617-.753.705-1.225.088-.473.033-.966-.105-1.427-.278-.923-.872-1.708-1.364-2.535-.195-.328-.375-.662-.568-.99 1.482-1.663 2.674-3.587 3.364-5.7.752-2.306.89-4.79.574-7.196-.317-2.406-1.08-4.739-2.083-6.947-1.26-2.768-2.32-3.77-3.088-6.201-.83-2.629-.145-5.74-.762-8.123a8.333 8.333 0 0 0-1.021-2.293 7.856 7.856 0 0 0-1.997-2.15C27.024.49 25.426 0 23.803 0Z"/></mask><g filter="url(#e)" mask="url(#d)" opacity=".42"><path fill="url(#f)" d="M28.927 21.373c-.78.544-1.237.48-2.182.585-.947.107-3.506.068-3.506.068s.37-.006 1.192.146c.822.154 2.496.3 3.439.658.945.36 1.288.463 1.862.825.816.516 1.416 1.324 2.195 1.89 0 0 .038-.75-.277-1.31-.315-.561-1.162-1.444-1.412-2.27-.247-.824-.367-2.444-.367-2.444s-.165 1.31-.944 1.852Z"/></g><mask id="g" width="28" height="47" x="10" y="0" maskUnits="userSpaceOnUse" style="mask-type:luminance"><path fill="#fff" d="M23.803 0c-1.125 0-2.254.221-3.274.772a6.025 6.025 0 0 0-2.518 2.62c-.547 1.102-.761 2.28-.795 3.577-.062 2.464.056 5.048.242 7.39.049.712.139 1.129.047 1.862-.304 1.556-1.665 2.602-2.392 3.969-.801 1.508-1.139 3.212-1.742 4.81-.553 1.46-1.33 2.83-1.853 4.302-.733 2.057-.952 4.319-.469 6.449.37 1.623 1.14 3.146 2.18 4.449-.15.27-.297.546-.45.814-.483.83-1.072 1.62-1.345 2.54-.137.46-.191.951-.103 1.423.088.473.328.925.703 1.225.245.195.543.322.85.394.305.069.622.086.937.08 1.194-.026 2.353-.388 3.508-.692a41.85 41.85 0 0 1 2.068-.483c2.464-.505 5.212-.302 7.498.028.774.118 1.543.27 2.304.455 1.193.29 2.38.657 3.606.692.322.01.649-.005.964-.075.315-.071.62-.198.872-.4.377-.3.617-.753.705-1.225.088-.473.033-.966-.105-1.427-.278-.923-.872-1.708-1.364-2.535-.195-.328-.375-.662-.568-.99 1.482-1.663 2.674-3.587 3.364-5.7.752-2.306.89-4.79.574-7.196-.317-2.406-1.08-4.739-2.083-6.947-1.26-2.768-2.32-3.77-3.088-6.201-.83-2.629-.145-5.74-.762-8.123a8.333 8.333 0 0 0-1.021-2.293 7.856 7.856 0 0 0-1.997-2.15C27.024.49 25.426 0 23.803 0Z"/></mask><g filter="url(#h)" mask="url(#g)" opacity=".2"><path fill="url(#i)" d="M21.594 20.214c-.03.235-.067.47-.112.702a2.085 2.085 0 0 1-.09.337.763.763 0 0 1-.191.29c-.077.07-.17.117-.263.16a4.02 4.02 0 0 1-1.147.326c.157.012.315.027.474.044.1.01.199.022.294.046a.837.837 0 0 1 .274.122.758.758 0 0 1 .21.252c.103.19.137.412.156.631.024.278.026.56.005.837.02-.186.058-.372.117-.548.106-.322.275-.622.504-.872a1.66 1.66 0 0 1 1.47-.55 1.822 1.822 0 0 1-1.163-.361 1.508 1.508 0 0 1-.416-.469 1.31 1.31 0 0 1-.122-.947Z"/></g><mask id="j" width="28" height="47" x="10" y="0" maskUnits="userSpaceOnUse" style="mask-type:luminance"><path fill="#fff" d="M23.803 0c-1.125 0-2.254.221-3.274.772a6.025 6.025 0 0 0-2.518 2.62c-.547 1.102-.761 2.28-.795 3.577-.062 2.464.056 5.048.242 7.39.049.712.139 1.129.047 1.862-.304 1.556-1.665 2.602-2.392 3.969-.801 1.508-1.139 3.212-1.742 4.81-.553 1.46-1.33 2.83-1.853 4.302-.733 2.057-.952 4.319-.469 6.449.37 1.623 1.14 3.146 2.18 4.449-.15.27-.297.546-.45.814-.483.83-1.072 1.62-1.345 2.54-.137.46-.191.951-.103 1.423.088.473.328.925.703 1.225.245.195.543.322.85.394.305.069.622.086.937.08 1.194-.026 2.353-.388 3.508-.692a41.85 41.85 0 0 1 2.068-.483c2.464-.505 5.212-.302 7.498.028.774.118 1.543.27 2.304.455 1.193.29 2.38.657 3.606.692.322.01.649-.005.964-.075.315-.071.62-.198.872-.4.377-.3.617-.753.705-1.225.088-.473.033-.966-.105-1.427-.278-.923-.872-1.708-1.364-2.535-.195-.328-.375-.662-.568-.99 1.482-1.663 2.674-3.587 3.364-5.7.752-2.306.89-4.79.574-7.196-.317-2.406-1.08-4.739-2.083-6.947-1.26-2.768-2.32-3.77-3.088-6.201-.83-2.629-.145-5.74-.762-8.123a8.333 8.333 0 0 0-1.021-2.293 7.856 7.856 0 0 0-1.997-2.15C27.024.49 25.426 0 23.803 0Z"/></mask><g filter="url(#k)" mask="url(#j)" opacity=".11"><path fill="#000" d="M20.597 25.714a14.133 14.133 0 0 0-.407 2.308c-.103 1.1-.079 2.209-.139 3.313-.048.936-.16 1.883.004 2.807.077.44.216.87.413 1.271.03-.154.054-.307.067-.463.07-.75-.056-1.502-.1-2.252-.074-1.316.108-2.632.183-3.949.056-1.01.05-2.025-.021-3.035Z"/></g><mask id="l" width="28" height="47" x="10" y="0" maskUnits="userSpaceOnUse" style="mask-type:luminance"><path fill="#fff" d="M23.803 0c-1.125 0-2.254.221-3.274.772a6.025 6.025 0 0 0-2.518 2.62c-.547 1.102-.761 2.28-.795 3.577-.062 2.464.056 5.048.242 7.39.049.712.139 1.129.047 1.862-.304 1.556-1.665 2.602-2.392 3.969-.801 1.508-1.139 3.212-1.742 4.81-.553 1.46-1.33 2.83-1.853 4.302-.733 2.057-.952 4.319-.469 6.449.37 1.623 1.14 3.146 2.18 4.449-.15.27-.297.546-.45.814-.483.83-1.072 1.62-1.345 2.54-.137.46-.191.951-.103 1.423.088.473.328.925.703 1.225.245.195.543.322.85.394.305.069.622.086.937.08 1.194-.026 2.353-.388 3.508-.692a41.85 41.85 0 0 1 2.068-.483c2.464-.505 5.212-.302 7.498.028.774.118 1.543.27 2.304.455 1.193.29 2.38.657 3.606.692.322.01.649-.005.964-.075.315-.071.62-.198.872-.4.377-.3.617-.753.705-1.225.088-.473.033-.966-.105-1.427-.278-.923-.872-1.708-1.364-2.535-.195-.328-.375-.662-.568-.99 1.482-1.663 2.674-3.587 3.364-5.7.752-2.306.89-4.79.574-7.196-.317-2.406-1.08-4.739-2.083-6.947-1.26-2.768-2.32-3.77-3.088-6.201-.83-2.629-.145-5.74-.762-8.123a8.333 8.333 0 0 0-1.021-2.293 7.856 7.856 0 0 0-1.997-2.15C27.024.49 25.426 0 23.803 0Z"/></mask><g filter="url(#m)" mask="url(#l)" opacity=".75"><path fill="#7C7C7C" d="M33.765 24.606c.193-.03 1.376.976 1.215 1.351-.161.374-.467.149-.684.15-.218.004-.812.274-.912.104-.1-.171.263-.569.452-.902.154-.268-.262-.673-.071-.703Z"/></g><mask id="n" width="28" height="47" x="10" y="0" maskUnits="userSpaceOnUse" style="mask-type:luminance"><path fill="#fff" d="M23.803 0c-1.125 0-2.254.221-3.274.772a6.025 6.025 0 0 0-2.518 2.62c-.547 1.102-.761 2.28-.795 3.577-.062 2.464.056 5.048.242 7.39.049.712.139 1.129.047 1.862-.304 1.556-1.665 2.602-2.392 3.969-.801 1.508-1.139 3.212-1.742 4.81-.553 1.46-1.33 2.83-1.853 4.302-.733 2.057-.952 4.319-.469 6.449.37 1.623 1.14 3.146 2.18 4.449-.15.27-.297.546-.45.814-.483.83-1.072 1.62-1.345 2.54-.137.46-.191.951-.103 1.423.088.473.328.925.703 1.225.245.195.543.322.85.394.305.069.622.086.937.08 1.194-.026 2.353-.388 3.508-.692a41.85 41.85 0 0 1 2.068-.483c2.464-.505 5.212-.302 7.498.028.774.118 1.543.27 2.304.455 1.193.29 2.38.657 3.606.692.322.01.649-.005.964-.075.315-.071.62-.198.872-.4.377-.3.617-.753.705-1.225.088-.473.033-.966-.105-1.427-.278-.923-.872-1.708-1.364-2.535-.195-.328-.375-.662-.568-.99 1.482-1.663 2.674-3.587 3.364-5.7.752-2.306.89-4.79.574-7.196-.317-2.406-1.08-4.739-2.083-6.947-1.26-2.768-2.32-3.77-3.088-6.201-.83-2.629-.145-5.74-.762-8.123a8.333 8.333 0 0 0-1.021-2.293 7.856 7.856 0 0 0-1.997-2.15C27.024.49 25.426 0 23.803 0Z"/></mask><g filter="url(#o)" mask="url(#n)"><path fill="#7C7C7C" d="M26.535 2.085c-.414.293-.234.658-.056 1.024.178.367-.392 1.423-.398 1.468-.005.045 1.122-.534 1.429-.913.364-.445 1.28.604 1.23.444.002-.285-1.79-2.314-2.205-2.023Z"/></g><mask id="p" width="28" height="47" x="10" y="0" maskUnits="userSpaceOnUse" style="mask-type:luminance"><path fill="#fff" d="M23.803 0c-1.125 0-2.254.221-3.274.772a6.025 6.025 0 0 0-2.518 2.62c-.547 1.102-.761 2.28-.795 3.577-.062 2.464.056 5.048.242 7.39.049.712.139 1.129.047 1.862-.304 1.556-1.665 2.602-2.392 3.969-.801 1.508-1.139 3.212-1.742 4.81-.553 1.46-1.33 2.83-1.853 4.302-.733 2.057-.952 4.319-.469 6.449.37 1.623 1.14 3.146 2.18 4.449-.15.27-.297.546-.45.814-.483.83-1.072 1.62-1.345 2.54-.137.46-.191.951-.103 1.423.088.473.328.925.703 1.225.245.195.543.322.85.394.305.069.622.086.937.08 1.194-.026 2.353-.388 3.508-.692a41.85 41.85 0 0 1 2.068-.483c2.464-.505 5.212-.302 7.498.028.774.118 1.543.27 2.304.455 1.193.29 2.38.657 3.606.692.322.01.649-.005.964-.075.315-.071.62-.198.872-.4.377-.3.617-.753.705-1.225.088-.473.033-.966-.105-1.427-.278-.923-.872-1.708-1.364-2.535-.195-.328-.375-.662-.568-.99 1.482-1.663 2.674-3.587 3.364-5.7.752-2.306.89-4.79.574-7.196-.317-2.406-1.08-4.739-2.083-6.947-1.26-2.768-2.32-3.77-3.088-6.201-.83-2.629-.145-5.74-.762-8.123a8.333 8.333 0 0 0-1.021-2.293 7.856 7.856 0 0 0-1.997-2.15C27.024.49 25.426 0 23.803 0Z"/></mask><g filter="url(#q)" mask="url(#p)"><path fill="#838384" d="M29.676 14.368c-.35.319.165.797.407 1.358.151.348.57.841.975.763.305-.06.493-.499.465-.807-.057-.596-.56-.736-.925-.94-.289-.162-.677-.597-.922-.374Z"/></g><path fill="#020204" d="M15.746 18.92c-1.144 1.298-2.32 2.556-2.964 3.96-.32.713-.47 1.488-.69 2.238a16.86 16.86 0 0 1-.964 2.478c-.35.74-.737 1.465-1.121 2.186-.281.527-.566 1.064-.664 1.652-.077.465-.034.945.086 1.401.118.456.308.89.523 1.309.915 1.79 2.29 3.332 3.917 4.513.74.534 1.529.997 2.36 1.378.45.204.922.388 1.417.396.247.005.496-.036.723-.135.225-.1.428-.26.563-.467.165-.255.221-.572.187-.874a2.104 2.104 0 0 0-.309-.85c-.386-.633-.996-1.092-1.582-1.546a53.126 53.126 0 0 1-3.666-3.109c-.33-.31-.662-.626-.893-1.016-.225-.379-.347-.81-.429-1.243-.227-1.187-.169-2.436.234-3.576.16-.446.368-.872.57-1.3.35-.74.68-1.496 1.138-2.174.572-.846 1.337-1.562 1.802-2.47.394-.767.554-1.627.705-2.475.12-.664.347-1.312.463-1.976-.226.431-.958 1.138-1.406 1.7Z"/><mask id="r" width="11" height="24" x="9" y="17" maskUnits="userSpaceOnUse" style="mask-type:luminance"><path fill="#fff" d="M15.746 18.92c-1.144 1.298-2.32 2.556-2.964 3.96-.32.713-.47 1.488-.69 2.238a16.86 16.86 0 0 1-.964 2.478c-.35.74-.737 1.465-1.121 2.186-.281.527-.566 1.064-.664 1.652-.077.465-.034.945.086 1.401.118.456.308.89.523 1.309.915 1.79 2.29 3.332 3.917 4.513.74.534 1.529.997 2.36 1.378.45.204.922.388 1.417.396.247.005.496-.036.723-.135.225-.1.428-.26.563-.467.165-.255.221-.572.187-.874a2.104 2.104 0 0 0-.309-.85c-.386-.633-.996-1.092-1.582-1.546a53.126 53.126 0 0 1-3.666-3.109c-.33-.31-.662-.626-.893-1.016-.225-.379-.347-.81-.429-1.243-.227-1.187-.169-2.436.234-3.576.16-.446.368-.872.57-1.3.35-.74.68-1.496 1.138-2.174.572-.846 1.337-1.562 1.802-2.47.394-.767.554-1.627.705-2.475.12-.664.347-1.312.463-1.976-.226.431-.958 1.138-1.406 1.7Z"/></mask><g filter="url(#s)" mask="url(#r)" opacity=".95"><path fill="#7C7C7C" d="M14.43 23.644a5.32 5.32 0 0 0-.962 1.183c-.431.72-.684 1.53-1 2.308-.232.58-.504 1.162-.536 1.787-.016.32.03.641.042.962.011.32-.019.654-.177.933-.13.235-.35.419-.603.509.343.114.647.335.862.624.18.244.296.527.452.784.128.21.283.405.476.557.192.153.422.262.664.292a1.17 1.17 0 0 0 .932-.296 21.852 21.852 0 0 1 .832-8.694c.055-.177.111-.355.126-.539a.775.775 0 0 0-.135-.526.56.56 0 0 0-.52-.22.573.573 0 0 0-.271.107.584.584 0 0 0-.182.229Z"/></g><path fill="#020204" d="M34.267 23.835c.983.791 1.607 1.986 1.8 3.232.15.972.053 1.971-.166 2.93-.22.96-.557 1.886-.895 2.812-.133.367-.268.74-.32 1.129-.055.39-.021.8.166 1.145.216.396.617.668 1.049.795.425.128.885.124 1.316.017.431-.107 1.157-.246 1.507-.52.891-.691 1.103-1.893 1.315-2.947.22-1.1.112-2.254-.08-3.365-.265-1.517-.71-2.999-1.274-4.43a15.429 15.429 0 0 0-1.583-2.992c-.622-.917-1.503-1.631-2.156-2.527-.227-.312-.498-.634-.72-.949-.48-.679-.371-.551-.67-.992-.215-.319-.556-.427-.914-.566a1.82 1.82 0 0 0-1.133-.077c-.487.137-.887.523-1.098.982-.212.462-.25.99-.167 1.491.107.645.401 1.245.735 1.808.375.635.81 1.248 1.378 1.72.592.494 1.309.82 1.91 1.304Z"/><mask id="t" width="11" height="20" x="30" y="16" maskUnits="userSpaceOnUse" style="mask-type:luminance"><path fill="#fff" d="M34.267 23.835c.983.791 1.607 1.986 1.8 3.232.15.972.053 1.971-.166 2.93-.22.96-.557 1.886-.895 2.812-.133.367-.268.74-.32 1.129-.055.39-.021.8.166 1.145.216.396.617.668 1.049.795.425.128.885.124 1.316.017.431-.107 1.157-.246 1.507-.52.891-.691 1.103-1.893 1.315-2.947.22-1.1.112-2.254-.08-3.365-.265-1.517-.71-2.999-1.274-4.43a15.429 15.429 0 0 0-1.583-2.992c-.622-.917-1.503-1.631-2.156-2.527-.227-.312-.498-.634-.72-.949-.48-.679-.371-.551-.67-.992-.215-.319-.556-.427-.914-.566a1.82 1.82 0 0 0-1.133-.077c-.487.137-.887.523-1.098.982-.212.462-.25.99-.167 1.491.107.645.401 1.245.735 1.808.375.635.81 1.248 1.378 1.72.592.494 1.309.82 1.91 1.304Z"/></mask><g filter="url(#u)" mask="url(#t)"><path fill="#838384" d="M31.954 22.31c.078.076.161.152.245.224.604.493.925 1.046 1.538 1.53 1.001.791 2.015 2.156 2.212 3.403.154.973-.048 1.502-.296 2.647-.247 1.148-.949 2.772-1.33 3.878-.15.44.308.259.248.724-.03.228-.033.459-.005.688.003-.043.005-.09.01-.133.074-.634.267-1.243.479-1.842.407-1.149.874-2.278 1.196-3.459.323-1.18.287-2.029.118-3.043-.212-1.277-.954-2.454-2.004-3.233-.744-.549-1.62-.901-2.411-1.383Z"/></g><path fill="url(#v)" d="M10.309 32.874a1.47 1.47 0 0 1 .823-.077c.276.051.536.171.767.327.463.315.806.772 1.134 1.226a43.064 43.064 0 0 1 2.141 3.203c.535.896 1.024 1.82 1.643 2.658.403.55.857 1.058 1.262 1.603.405.548.763 1.14.943 1.797a3.603 3.603 0 0 1-.263 2.578 3.397 3.397 0 0 1-1.256 1.348 3.224 3.224 0 0 1-1.716.463c-.988 0-1.953-.53-2.872-.896-1.871-.746-3.904-.979-5.833-1.56-.593-.178-1.176-.39-1.772-.553-.266-.074-.534-.137-.786-.252-.25-.112-.485-.283-.624-.519-.107-.184-.15-.4-.15-.611 0-.214.053-.424.126-.623.144-.4.378-.761.536-1.157.257-.645.304-1.355.268-2.049-.034-.692-.146-1.38-.193-2.072-.023-.31-.03-.622.03-.928.058-.304.19-.602.412-.816a1.53 1.53 0 0 1 .76-.375c.28-.058.568-.06.853-.054.285.006.572.023.857-.002.285-.022.572-.086.82-.229.235-.135.429-.335.588-.555.16-.219.289-.459.422-.697.131-.236.268-.473.442-.683.173-.21.386-.392.638-.495Z"/><mask id="w" width="17" height="16" x="3" y="32" maskUnits="userSpaceOnUse" style="mask-type:luminance"><path fill="#fff" d="M10.309 32.874a1.47 1.47 0 0 1 .823-.077c.276.051.536.171.767.327.463.315.806.772 1.134 1.226a43.064 43.064 0 0 1 2.141 3.203c.535.896 1.024 1.82 1.643 2.658.403.55.857 1.058 1.262 1.603.405.548.763 1.14.943 1.797a3.603 3.603 0 0 1-.263 2.578 3.397 3.397 0 0 1-1.256 1.348 3.224 3.224 0 0 1-1.716.463c-.988 0-1.953-.53-2.872-.896-1.871-.746-3.904-.979-5.833-1.56-.593-.178-1.176-.39-1.772-.553-.266-.074-.534-.137-.786-.252-.25-.112-.485-.283-.624-.519-.107-.184-.15-.4-.15-.611 0-.214.053-.424.126-.623.144-.4.378-.761.536-1.157.257-.645.304-1.355.268-2.049-.034-.692-.146-1.38-.193-2.072-.023-.31-.03-.622.03-.928.058-.304.19-.602.412-.816a1.53 1.53 0 0 1 .76-.375c.28-.058.568-.06.853-.054.285.006.572.023.857-.002.285-.022.572-.086.82-.229.235-.135.429-.335.588-.555.16-.219.289-.459.422-.697.131-.236.268-.473.442-.683.173-.21.386-.392.638-.495Z"/></mask><g filter="url(#x)" mask="url(#w)"><path fill="#D99A03" d="M10.717 33.319c.235-.094.501-.105.747-.049.247.056.478.176.677.332.4.31.678.744.947 1.174a77.015 77.015 0 0 1 1.86 3.16c.45.809.877 1.632 1.428 2.373.366.491.784.943 1.157 1.428.373.486.705 1.015.87 1.605.214.76.128 1.602-.24 2.3a3.07 3.07 0 0 1-1.162 1.214 2.988 2.988 0 0 1-1.63.401c-.904-.04-1.73-.493-2.582-.798-1.633-.593-3.4-.673-5.077-1.135-.6-.163-1.185-.38-1.787-.532-.268-.068-.54-.124-.793-.23-.253-.108-.491-.273-.63-.51a1.134 1.134 0 0 1-.137-.591 1.88 1.88 0 0 1 .131-.599c.147-.382.375-.727.522-1.11.223-.577.25-1.213.21-1.83-.042-.616-.15-1.23-.188-1.846a3.207 3.207 0 0 1 .038-.827c.056-.272.174-.535.37-.73.215-.212.507-.326.805-.373.296-.045.598-.024.896.002.3.026.6.06.9.043.3-.019.604-.092.852-.26.225-.152.393-.375.523-.613.13-.239.221-.495.32-.747.098-.253.205-.504.358-.73.154-.222.362-.42.615-.522Z"/></g><mask id="y" width="17" height="16" x="3" y="32" maskUnits="userSpaceOnUse" style="mask-type:luminance"><path fill="#fff" d="M10.309 32.874a1.47 1.47 0 0 1 .823-.077c.276.051.536.171.767.327.463.315.806.772 1.134 1.226a43.064 43.064 0 0 1 2.141 3.203c.535.896 1.024 1.82 1.643 2.658.403.55.857 1.058 1.262 1.603.405.548.763 1.14.943 1.797a3.603 3.603 0 0 1-.263 2.578 3.397 3.397 0 0 1-1.256 1.348 3.224 3.224 0 0 1-1.716.463c-.988 0-1.953-.53-2.872-.896-1.871-.746-3.904-.979-5.833-1.56-.593-.178-1.176-.39-1.772-.553-.266-.074-.534-.137-.786-.252-.25-.112-.485-.283-.624-.519-.107-.184-.15-.4-.15-.611 0-.214.053-.424.126-.623.144-.4.378-.761.536-1.157.257-.645.304-1.355.268-2.049-.034-.692-.146-1.38-.193-2.072-.023-.31-.03-.622.03-.928.058-.304.19-.602.412-.816a1.53 1.53 0 0 1 .76-.375c.28-.058.568-.06.853-.054.285.006.572.023.857-.002.285-.022.572-.086.82-.229.235-.135.429-.335.588-.555.16-.219.289-.459.422-.697.131-.236.268-.473.442-.683.173-.21.386-.392.638-.495Z"/></mask><g filter="url(#z)" mask="url(#y)"><path fill="#F5BD0C" d="M10.498 32.732c.229-.113.497-.135.746-.084.25.05.482.172.68.331.391.32.642.775.875 1.221.532 1.024 1.031 2.07 1.668 3.036.465.699 1 1.35 1.469 2.047.635.943 1.153 1.982 1.366 3.094.143.75.14 1.558-.22 2.231a2.479 2.479 0 0 1-1.079 1.035c-.454.229-.977.32-1.485.276-.8-.07-1.526-.463-2.28-.739-1.337-.486-2.782-.604-4.159-.971-.579-.154-1.149-.355-1.736-.477-.26-.054-.525-.093-.772-.187-.248-.094-.482-.25-.61-.478a.967.967 0 0 1-.105-.533c.013-.181.068-.36.139-.53.144-.338.356-.649.467-.998.165-.515.097-1.072-.026-1.6-.122-.524-.3-1.04-.355-1.576a2.138 2.138 0 0 1 .032-.716c.054-.235.165-.46.34-.627.224-.215.54-.324.854-.354.314-.03.629.011.94.056.311.045.626.094.94.08.314-.014.635-.096.88-.29.244-.19.398-.474.486-.767.088-.294.116-.6.152-.903.036-.304.08-.611.199-.895.118-.283.317-.543.594-.682Z"/></g><mask id="A" width="17" height="16" x="3" y="32" maskUnits="userSpaceOnUse" style="mask-type:luminance"><path fill="#fff" d="M10.309 32.874a1.47 1.47 0 0 1 .823-.077c.276.051.536.171.767.327.463.315.806.772 1.134 1.226a43.064 43.064 0 0 1 2.141 3.203c.535.896 1.024 1.82 1.643 2.658.403.55.857 1.058 1.262 1.603.405.548.763 1.14.943 1.797a3.603 3.603 0 0 1-.263 2.578 3.397 3.397 0 0 1-1.256 1.348 3.224 3.224 0 0 1-1.716.463c-.988 0-1.953-.53-2.872-.896-1.871-.746-3.904-.979-5.833-1.56-.593-.178-1.176-.39-1.772-.553-.266-.074-.534-.137-.786-.252-.25-.112-.485-.283-.624-.519-.107-.184-.15-.4-.15-.611 0-.214.053-.424.126-.623.144-.4.378-.761.536-1.157.257-.645.304-1.355.268-2.049-.034-.692-.146-1.38-.193-2.072-.023-.31-.03-.622.03-.928.058-.304.19-.602.412-.816a1.53 1.53 0 0 1 .76-.375c.28-.058.568-.06.853-.054.285.006.572.023.857-.002.285-.022.572-.086.82-.229.235-.135.429-.335.588-.555.16-.219.289-.459.422-.697.131-.236.268-.473.442-.683.173-.21.386-.392.638-.495Z"/></mask><g filter="url(#B)" mask="url(#A)"><path fill="url(#C)" d="M13.35 35.29c.422.76.679 1.634 1.097 2.403.384.707.821 1.434 1.211 2.085.175.29.58.737.988 1.429.371.626.746 1.502.956 1.796-.12-.345-.367-1.27-.663-1.927-.276-.615-.598-.966-.795-1.298-.39-.65-.812-1.237-1.213-1.858-.553-.857-.975-1.815-1.581-2.63Z"/></g><mask id="D" width="28" height="47" x="10" y="0" maskUnits="userSpaceOnUse" style="mask-type:luminance"><path fill="#fff" d="M23.803 0c-1.125 0-2.254.221-3.274.772a6.025 6.025 0 0 0-2.518 2.62c-.547 1.102-.761 2.28-.795 3.577-.062 2.464.056 5.048.242 7.39.049.712.139 1.129.047 1.862-.304 1.556-1.665 2.602-2.392 3.969-.801 1.508-1.139 3.212-1.742 4.81-.553 1.46-1.33 2.83-1.853 4.302-.733 2.057-.952 4.319-.469 6.449.37 1.623 1.14 3.146 2.18 4.449-.15.27-.297.546-.45.814-.483.83-1.072 1.62-1.345 2.54-.137.46-.191.951-.103 1.423.088.473.328.925.703 1.225.245.195.543.322.85.394.305.069.622.086.937.08 1.194-.026 2.353-.388 3.508-.692a41.85 41.85 0 0 1 2.068-.483c2.464-.505 5.212-.302 7.498.028.774.118 1.543.27 2.304.455 1.193.29 2.38.657 3.606.692.322.01.649-.005.964-.075.315-.071.62-.198.872-.4.377-.3.617-.753.705-1.225.088-.473.033-.966-.105-1.427-.278-.923-.872-1.708-1.364-2.535-.195-.328-.375-.662-.568-.99 1.482-1.663 2.674-3.587 3.364-5.7.752-2.306.89-4.79.574-7.196-.317-2.406-1.08-4.739-2.083-6.947-1.26-2.768-2.32-3.77-3.088-6.201-.83-2.629-.145-5.74-.762-8.123a8.333 8.333 0 0 0-1.021-2.293 7.856 7.856 0 0 0-1.997-2.15C27.024.49 25.426 0 23.803 0Z"/></mask><g filter="url(#E)" mask="url(#D)" opacity=".2"><path fill="url(#F)" d="M41.006 40.427c-.075.25-.191.491-.34.712-.327.486-.805.853-1.282 1.191-.812.576-1.659 1.104-2.416 1.759-.507.439-.97.932-1.397 1.45-.366.442-.711.907-1.13 1.3-.421.398-.916.72-1.45.895a3.52 3.52 0 0 1-1.963.041c-.44-.112-.869-.307-1.14-.662-.272-.354-.36-.832-.392-1.301-.057-.829.043-1.674.133-2.516.075-.7.144-1.4.172-2.097.05-1.269-.034-2.525-.204-3.759a2.817 2.817 0 0 1-.043-.628c.017-.214.088-.435.238-.6.139-.152.332-.242.523-.285.191-.045.386-.047.58-.053.455-.01.91-.039 1.359.002.283.025.56.077.842.103.47.045.96.023 1.432-.116.508-.15.992-.43 1.51-.506.211-.032.423-.028.63.002.21.028.42.086.58.215.125.098.215.231.284.373.105.214.169.449.206.69.032.214.045.434.1.64.09.34.296.628.541.862.248.235.535.42.824.604.286.182.575.362.88.512.145.071.293.135.43.216.139.082.266.182.358.313a.885.885 0 0 1 .135.643Z"/></g><path fill="url(#G)" d="M43.776 41.797c-.424.503-1.013.835-1.6 1.135-1 .508-2.036.956-2.975 1.57-.63.41-1.212.892-1.755 1.411-.465.445-.906.919-1.427 1.296-.527.38-1.135.656-1.778.752-.178.026-.356.039-.536.039a4.47 4.47 0 0 1-1.774-.39c-.506-.22-.994-.536-1.286-1.005-.293-.472-.36-1.048-.36-1.605-.002-.98.18-1.952.35-2.92.143-.804.278-1.608.366-2.42.16-1.474.158-2.964.053-4.446-.019-.247-.04-.496-.002-.742.037-.246.139-.491.326-.653a1.05 1.05 0 0 1 .638-.228c.228-.014.457.022.684.056.534.079 1.074.139 1.597.277.33.087.653.203.981.293.551.148 1.127.22 1.691.154.61-.072 1.202-.3 1.815-.285.252.005.501.052.741.129.244.077.486.188.666.371.136.139.232.313.303.495.107.27.165.559.19.848.02.257.017.517.065.77.081.415.3.795.57 1.12.272.326.597.602.921.873.324.272.649.542.997.78.164.113.332.218.488.34.156.124.298.266.396.439a1.023 1.023 0 0 1 .086.789c-.084.268-.24.529-.431.758Z"/><mask id="H" width="15" height="15" x="30" y="33" maskUnits="userSpaceOnUse" style="mask-type:luminance"><path fill="#fff" d="M43.776 41.797c-.424.503-1.013.835-1.6 1.135-1 .508-2.036.956-2.975 1.57-.63.41-1.212.892-1.755 1.411-.465.445-.906.919-1.427 1.296-.527.38-1.135.656-1.778.752-.178.026-.356.039-.536.039a4.47 4.47 0 0 1-1.774-.39c-.506-.22-.994-.536-1.286-1.005-.293-.472-.36-1.048-.36-1.605-.002-.98.18-1.952.35-2.92.143-.804.278-1.608.366-2.42.16-1.474.158-2.964.053-4.446-.019-.247-.04-.496-.002-.742.037-.246.139-.491.326-.653a1.05 1.05 0 0 1 .638-.228c.228-.014.457.022.684.056.534.079 1.074.139 1.597.277.33.087.653.203.981.293.551.148 1.127.22 1.691.154.61-.072 1.202-.3 1.815-.285.252.005.501.052.741.129.244.077.486.188.666.371.136.139.232.313.303.495.107.27.165.559.19.848.02.257.017.517.065.77.081.415.3.795.57 1.12.272.326.597.602.921.873.324.272.649.542.997.78.164.113.332.218.488.34.156.124.298.266.396.439a1.023 1.023 0 0 1 .086.789c-.084.268-.24.529-.431.758Z"/></mask><g filter="url(#I)" mask="url(#H)"><path fill="#CD8907" d="M43.727 40.523c-.1.249-.24.483-.416.688-.389.453-.925.752-1.46 1.02-.914.457-1.86.858-2.718 1.41-.574.369-1.106.802-1.603 1.27-.424.4-.827.828-1.303 1.165a3.767 3.767 0 0 1-1.622.675c-.712.105-1.447-.03-2.11-.313-.46-.199-.907-.48-1.175-.906-.266-.423-.328-.94-.328-1.441-.004-.883.163-1.757.32-2.625.132-.722.255-1.446.334-2.175.143-1.328.137-2.667.047-3.998-.015-.223-.032-.448.002-.67.034-.22.126-.44.294-.586a.956.956 0 0 1 .583-.206c.209-.012.417.022.625.052.49.071.98.126 1.459.25.302.078.596.183.896.262.502.135 1.03.199 1.545.139.557-.064 1.097-.27 1.655-.257.231.005.458.049.677.116.224.07.445.169.61.334.123.126.208.283.277.446.1.242.167.5.17.763.007.274-.052.548-.016.82.03.219.124.427.244.615.118.187.262.358.407.526.277.329.555.662.903.914.396.286.867.455 1.275.721.122.081.24.171.327.29a.767.767 0 0 1 .1.7Z"/></g><mask id="J" width="15" height="15" x="30" y="33" maskUnits="userSpaceOnUse" style="mask-type:luminance"><path fill="#fff" d="M43.776 41.797c-.424.503-1.013.835-1.6 1.135-1 .508-2.036.956-2.975 1.57-.63.41-1.212.892-1.755 1.411-.465.445-.906.919-1.427 1.296-.527.38-1.135.656-1.778.752-.178.026-.356.039-.536.039a4.47 4.47 0 0 1-1.774-.39c-.506-.22-.994-.536-1.286-1.005-.293-.472-.36-1.048-.36-1.605-.002-.98.18-1.952.35-2.92.143-.804.278-1.608.366-2.42.16-1.474.158-2.964.053-4.446-.019-.247-.04-.496-.002-.742.037-.246.139-.491.326-.653a1.05 1.05 0 0 1 .638-.228c.228-.014.457.022.684.056.534.079 1.074.139 1.597.277.33.087.653.203.981.293.551.148 1.127.22 1.691.154.61-.072 1.202-.3 1.815-.285.252.005.501.052.741.129.244.077.486.188.666.371.136.139.232.313.303.495.107.27.165.559.19.848.02.257.017.517.065.77.081.415.3.795.57 1.12.272.326.597.602.921.873.324.272.649.542.997.78.164.113.332.218.488.34.156.124.298.266.396.439a1.023 1.023 0 0 1 .086.789c-.084.268-.24.529-.431.758Z"/></mask><g filter="url(#K)" mask="url(#J)"><path fill="#F5C021" d="M43.67 40.24a3.051 3.051 0 0 1-.427.695c-.397.484-.936.816-1.5 1.03-.932.352-1.948.399-2.861.8-.557.244-1.06.611-1.568.96-.408.28-.828.551-1.278.746-.51.223-1.05.347-1.594.435a5.002 5.002 0 0 1-1.044.077 2.247 2.247 0 0 1-1.007-.28 1.414 1.414 0 0 1-.568-.58c-.137-.28-.162-.608-.16-.927.01-.843.191-1.68.186-2.525-.006-.737-.152-1.463-.193-2.198-.081-1.414.223-2.85-.045-4.236-.042-.223-.1-.444-.098-.67a.997.997 0 0 1 .058-.333.648.648 0 0 1 .19-.266.597.597 0 0 1 .245-.105.834.834 0 0 1 .265.002c.174.028.34.096.511.146.488.146 1.004.143 1.5.253.312.068.612.182.921.265a4.166 4.166 0 0 0 1.586.14c.57-.067 1.127-.273 1.701-.258.236.005.469.048.696.116.227.067.453.163.626.337.122.126.212.285.283.45.107.242.18.505.178.771-.002.139-.022.276-.036.414a1.32 1.32 0 0 0 .017.413c.034.135.104.257.182.367.079.111.169.21.252.32.228.301.393.654.571.993.178.34.38.675.662.92.385.332.882.465 1.31.73.127.077.246.167.335.29a.773.773 0 0 1 .136.34.84.84 0 0 1-.031.367Z"/></g><mask id="L" width="15" height="15" x="30" y="33" maskUnits="userSpaceOnUse" style="mask-type:luminance"><path fill="#fff" d="M43.776 41.797c-.424.503-1.013.835-1.6 1.135-1 .508-2.036.956-2.975 1.57-.63.41-1.212.892-1.755 1.411-.465.445-.906.919-1.427 1.296-.527.38-1.135.656-1.778.752-.178.026-.356.039-.536.039a4.47 4.47 0 0 1-1.774-.39c-.506-.22-.994-.536-1.286-1.005-.293-.472-.36-1.048-.36-1.605-.002-.98.18-1.952.35-2.92.143-.804.278-1.608.366-2.42.16-1.474.158-2.964.053-4.446-.019-.247-.04-.496-.002-.742.037-.246.139-.491.326-.653a1.05 1.05 0 0 1 .638-.228c.228-.014.457.022.684.056.534.079 1.074.139 1.597.277.33.087.653.203.981.293.551.148 1.127.22 1.691.154.61-.072 1.202-.3 1.815-.285.252.005.501.052.741.129.244.077.486.188.666.371.136.139.232.313.303.495.107.27.165.559.19.848.02.257.017.517.065.77.081.415.3.795.57 1.12.272.326.597.602.921.873.324.272.649.542.997.78.164.113.332.218.488.34.156.124.298.266.396.439a1.023 1.023 0 0 1 .086.789c-.084.268-.24.529-.431.758Z"/></mask><g filter="url(#M)" mask="url(#L)"><path fill="url(#N)" d="M31.515 34.046c.529-.142.979.259 1.363.56.248.213.608.16.911.17.505-.017 1.005.084 1.51.022.993-.084 1.967-.328 2.964-.37.476-.03 1.013-.057 1.423.22.167.116.413.606.576.422-.068-.514-.448-1.01-.958-1.148-.401-.063-.806.047-1.212.012-1.198-.028-2.39-.252-3.592-.188-.836.008-1.67-.032-2.507-.064-.328-.067-.444.224-.622.336.047.036.063.047.144.028Z"/></g><mask id="O" width="15" height="15" x="30" y="33" maskUnits="userSpaceOnUse" style="mask-type:luminance"><path fill="#fff" d="M43.776 41.797c-.424.503-1.013.835-1.6 1.135-1 .508-2.036.956-2.975 1.57-.63.41-1.212.892-1.755 1.411-.465.445-.906.919-1.427 1.296-.527.38-1.135.656-1.778.752-.178.026-.356.039-.536.039a4.47 4.47 0 0 1-1.774-.39c-.506-.22-.994-.536-1.286-1.005-.293-.472-.36-1.048-.36-1.605-.002-.98.18-1.952.35-2.92.143-.804.278-1.608.366-2.42.16-1.474.158-2.964.053-4.446-.019-.247-.04-.496-.002-.742.037-.246.139-.491.326-.653a1.05 1.05 0 0 1 .638-.228c.228-.014.457.022.684.056.534.079 1.074.139 1.597.277.33.087.653.203.981.293.551.148 1.127.22 1.691.154.61-.072 1.202-.3 1.815-.285.252.005.501.052.741.129.244.077.486.188.666.371.136.139.232.313.303.495.107.27.165.559.19.848.02.257.017.517.065.77.081.415.3.795.57 1.12.272.326.597.602.921.873.324.272.649.542.997.78.164.113.332.218.488.34.156.124.298.266.396.439a1.023 1.023 0 0 1 .086.789c-.084.268-.24.529-.431.758Z"/></mask><g filter="url(#P)" mask="url(#O)" opacity=".35"><path fill="url(#Q)" d="M38.53 35.177a.852.852 0 0 0-.441-.388 1.485 1.485 0 0 0-.587-.102c-.4.004-.797.107-1.196.074-.336-.03-.655-.156-.983-.237-.34-.082-.7-.114-1.035-.022-.36.097-.677.34-.875.654-.177.278-.26.606-.285.934-.027.328.001.656.035.984.023.237.05.473.107.704a1.9 1.9 0 0 0 .285.648c.2.278.499.477.82.595a2.281 2.281 0 0 0 1.636-.029 4.514 4.514 0 0 0 2.16-1.987c.17-.315.302-.65.386-.996.034-.138.06-.279.06-.422a.863.863 0 0 0-.088-.41Z"/></g><mask id="R" width="15" height="15" x="30" y="33" maskUnits="userSpaceOnUse" style="mask-type:luminance"><path fill="#fff" d="M43.776 41.797c-.424.503-1.013.835-1.6 1.135-1 .508-2.036.956-2.975 1.57-.63.41-1.212.892-1.755 1.411-.465.445-.906.919-1.427 1.296-.527.38-1.135.656-1.778.752-.178.026-.356.039-.536.039a4.47 4.47 0 0 1-1.774-.39c-.506-.22-.994-.536-1.286-1.005-.293-.472-.36-1.048-.36-1.605-.002-.98.18-1.952.35-2.92.143-.804.278-1.608.366-2.42.16-1.474.158-2.964.053-4.446-.019-.247-.04-.496-.002-.742.037-.246.139-.491.326-.653a1.05 1.05 0 0 1 .638-.228c.228-.014.457.022.684.056.534.079 1.074.139 1.597.277.33.087.653.203.981.293.551.148 1.127.22 1.691.154.61-.072 1.202-.3 1.815-.285.252.005.501.052.741.129.244.077.486.188.666.371.136.139.232.313.303.495.107.27.165.559.19.848.02.257.017.517.065.77.081.415.3.795.57 1.12.272.326.597.602.921.873.324.272.649.542.997.78.164.113.332.218.488.34.156.124.298.266.396.439a1.023 1.023 0 0 1 .086.789c-.084.268-.24.529-.431.758Z"/></mask><g filter="url(#S)" mask="url(#R)" opacity=".35"><path fill="url(#T)" d="M38.53 34.667c-.09-.13-.256-.225-.441-.281a2.026 2.026 0 0 0-.587-.074c-.4.004-.797.08-1.196.053-.336-.02-.655-.113-.983-.169-.34-.06-.7-.084-1.035-.017-.36.07-.677.244-.875.473-.177.2-.26.439-.285.675-.027.236.001.474.035.71.023.171.05.344.107.51.058.167.146.33.285.47.2.2.499.342.82.429a3.09 3.09 0 0 0 1.636-.021c.915-.287 1.69-.802 2.16-1.436.17-.229.302-.47.386-.72a.97.97 0 0 0 .06-.304.483.483 0 0 0-.088-.298Z"/></g><path fill="#020204" d="M39.29 33.51a1.19 1.19 0 0 0-.322-.463 1.732 1.732 0 0 0-.482-.3c-.348-.148-.73-.205-1.104-.274-.35-.066-.701-.146-1.054-.206-.367-.062-.746-.103-1.11-.02a1.894 1.894 0 0 0-.851.455 2.43 2.43 0 0 0-.563.79c-.238.522-.313 1.11-.268 1.681.034.426.143.864.422 1.185.227.26.548.424.878.521.57.17 1.19.16 1.755-.024a4.632 4.632 0 0 0 2.315-1.742c.184-.268.342-.559.413-.874.054-.24.056-.498-.028-.729Z"/><mask id="U" width="7" height="5" x="33" y="32" maskUnits="userSpaceOnUse" style="mask-type:luminance"><path fill="#fff" d="M39.29 33.51a1.19 1.19 0 0 0-.322-.463 1.732 1.732 0 0 0-.482-.3c-.348-.148-.73-.205-1.104-.274-.35-.066-.701-.146-1.054-.206-.367-.062-.746-.103-1.11-.02a1.894 1.894 0 0 0-.851.455 2.43 2.43 0 0 0-.563.79c-.238.522-.313 1.11-.268 1.681.034.426.143.864.422 1.185.227.26.548.424.878.521.57.17 1.19.16 1.755-.024a4.632 4.632 0 0 0 2.315-1.742c.184-.268.342-.559.413-.874.054-.24.056-.498-.028-.729Z"/></mask><g filter="url(#V)" mask="url(#U)"><path fill="url(#W)" d="M35.417 32.076a2.015 2.015 0 0 0-1.626.975 2.014 2.014 0 0 0-.268 1.157 1.82 1.82 0 0 1 .223-.803c.23-.418.65-.733 1.121-.82.29-.052.587-.02.878.016.281.035.563.073.838.13.428.095.85.237 1.208.486.082.059.16.124.227.203a.604.604 0 0 1 .136.266.642.642 0 0 1-.086.43 1.61 1.61 0 0 1-.277.348 5.614 5.614 0 0 1-.268.248c.414-.08.832-.193 1.177-.433.144-.103.277-.225.364-.379a.73.73 0 0 0 .08-.516.78.78 0 0 0-.172-.313 1.54 1.54 0 0 0-.272-.232 3.238 3.238 0 0 0-1.464-.56 16.983 16.983 0 0 0-1.017-.157 4.421 4.421 0 0 0-.802-.046Z"/></g><mask id="X" width="7" height="5" x="33" y="32" maskUnits="userSpaceOnUse" style="mask-type:luminance"><path fill="#fff" d="M39.29 33.51a1.19 1.19 0 0 0-.322-.463 1.732 1.732 0 0 0-.482-.3c-.348-.148-.73-.205-1.104-.274-.35-.066-.701-.146-1.054-.206-.367-.062-.746-.103-1.11-.02a1.894 1.894 0 0 0-.851.455 2.43 2.43 0 0 0-.563.79c-.238.522-.313 1.11-.268 1.681.034.426.143.864.422 1.185.227.26.548.424.878.521.57.17 1.19.16 1.755-.024a4.632 4.632 0 0 0 2.315-1.742c.184-.268.342-.559.413-.874.054-.24.056-.498-.028-.729Z"/></mask><g filter="url(#Y)" mask="url(#X)"><path fill="url(#Z)" d="M35.417 32.076a2.015 2.015 0 0 0-1.626.975 2.014 2.014 0 0 0-.268 1.157 1.82 1.82 0 0 1 .223-.803c.23-.418.65-.733 1.121-.82.29-.052.587-.02.878.016.281.035.563.073.838.13.428.095.85.237 1.208.486.082.059.16.124.227.203a.604.604 0 0 1 .136.266.642.642 0 0 1-.086.43 1.61 1.61 0 0 1-.277.348 5.614 5.614 0 0 1-.268.248c.414-.08.832-.193 1.177-.433.144-.103.277-.225.364-.379a.73.73 0 0 0 .08-.516.78.78 0 0 0-.172-.313 1.54 1.54 0 0 0-.272-.232 3.238 3.238 0 0 0-1.464-.56 16.983 16.983 0 0 0-1.017-.157 4.421 4.421 0 0 0-.802-.046Z"/></g><path fill="url(#aa)" d="M19.584 7.177a1.246 1.246 0 0 0-.772.345c-.212.197-.36.456-.452.728-.182.547-.14 1.14-.1 1.716.038.519.077 1.05.272 1.533.098.244.235.471.417.659.182.185.412.33.665.391.237.06.492.05.724-.024.235-.075.446-.208.623-.379.255-.25.425-.575.525-.919.099-.343.127-.703.122-1.06a4.478 4.478 0 0 0-.205-1.319 2.993 2.993 0 0 0-.675-1.146 1.887 1.887 0 0 0-.516-.386 1.288 1.288 0 0 0-.628-.139Z"/><path fill="#020204" d="M18.89 9.56c-.06.364-.061.745.063 1.09.082.229.219.437.384.615.107.116.23.221.373.29.144.07.31.098.465.06a.682.682 0 0 0 .358-.241c.092-.115.154-.252.197-.392.13-.414.109-.866-.02-1.28-.093-.303-.248-.593-.488-.796a.967.967 0 0 0-.398-.208.69.69 0 0 0-.442.036c-.152.07-.27.2-.347.348a1.624 1.624 0 0 0-.144.479Z"/><mask id="ab" width="3" height="4" x="18" y="8" maskUnits="userSpaceOnUse" style="mask-type:luminance"><path fill="#fff" d="M18.89 9.56c-.06.364-.061.745.063 1.09.082.229.219.437.384.615.107.116.23.221.373.29.144.07.31.098.465.06a.682.682 0 0 0 .358-.241c.092-.115.154-.252.197-.392.13-.414.109-.866-.02-1.28-.093-.303-.248-.593-.488-.796a.967.967 0 0 0-.398-.208.69.69 0 0 0-.442.036c-.152.07-.27.2-.347.348a1.624 1.624 0 0 0-.144.479Z"/></mask><g filter="url(#ac)" mask="url(#ab)"><path fill="url(#ad)" d="M19.657 9.298c.04.103.171.14.244.223a.94.94 0 0 1 .182.263c.073.19-.073.47.08.605.048.042.145.043.192 0 .186-.168.144-.508.071-.748a.912.912 0 0 0-.433-.525c-.094-.049-.234-.088-.315-.02-.05.045-.045.138-.02.202Z"/></g><mask id="ae" width="4" height="6" x="18" y="7" maskUnits="userSpaceOnUse" style="mask-type:luminance"><path fill="#fff" d="M19.584 7.177a1.246 1.246 0 0 0-.772.345c-.212.197-.36.456-.452.728-.182.547-.14 1.14-.1 1.716.038.519.077 1.05.272 1.533.098.244.235.471.417.659.182.185.412.33.665.391.237.06.492.05.724-.024.235-.075.446-.208.623-.379.255-.25.425-.575.525-.919.099-.343.127-.703.122-1.06a4.478 4.478 0 0 0-.205-1.319 2.993 2.993 0 0 0-.675-1.146 1.887 1.887 0 0 0-.516-.386 1.288 1.288 0 0 0-.628-.139Z"/></mask><g mask="url(#ae)"><path fill="url(#af)" d="M18.964 8.336c.435-.258.962-.319 1.466-.272.503.05.988.195 1.476.329.358.097.72.187 1.055.345.334.157.645.39.83.712.03.05.055.105.087.156.032.05.07.097.116.133.047.035.107.06.165.056.03-.002.06-.01.085-.024a.155.155 0 0 0 .062-.064.201.201 0 0 0 .018-.1.48.48 0 0 0-.018-.1c-.122-.445-.411-.822-.629-1.229-.13-.244-.24-.499-.37-.742-.456-.835-1.204-1.49-2.054-1.915-.85-.425-1.798-.63-2.747-.684-1.099-.066-2.2.066-3.283.257-.47.082-.949.18-1.363.414-.208.116-.4.266-.547.454-.15.185-.256.409-.291.645-.032.229.002.463.082.679.08.215.203.412.35.59.288.358.661.636 1.004.943.343.306.66.645 1.044.899.192.127.4.232.621.294.221.062.458.079.683.032a1.57 1.57 0 0 0 .639-.308 3.45 3.45 0 0 0 .508-.498c.311-.362.602-.758 1.01-1.002Z"/></g><g filter="url(#ag)"><path fill="url(#ah)" d="M20.77 6.857c.404.379.704.847.909 1.342-.09-.545-.23-.986-.587-1.342a2.744 2.744 0 0 0-.746-.51c-.248-.11-.52-.18-.677-.182-.156-.004-.193 0-.225.002-.034.002-.058.002.043.015.101.011.328.073.572.182.243.109.491.288.71.493Z"/></g><path fill="url(#ai)" d="M24.677 7.177c-.448.31-.825.74-1.009 1.253-.232.647-.144 1.37.08 2.02.23.665.614 1.299 1.193 1.698.289.2.625.338.973.379.351.041.713-.017 1.026-.178.379-.199.67-.546.85-.934.18-.39.256-.82.28-1.249a4.204 4.204 0 0 0-.202-1.614c-.195-.56-.547-1.078-1.046-1.4a2.039 2.039 0 0 0-.825-.314 1.763 1.763 0 0 0-.876.098 2.27 2.27 0 0 0-.444.241Z"/><path fill="#020204" d="M25.714 8.535c-.169.011-.334.07-.478.16a1.24 1.24 0 0 0-.36.352c-.194.28-.278.62-.291.96-.01.253.019.51.103.75.085.24.225.463.422.624.2.167.454.267.714.28.261.01.523-.064.737-.212a1.31 1.31 0 0 0 .405-.465c.098-.182.158-.385.184-.59a1.823 1.823 0 0 0-.174-1.068 1.486 1.486 0 0 0-.795-.72 1.139 1.139 0 0 0-.467-.071Z"/><mask id="aj" width="4" height="4" x="24" y="8" maskUnits="userSpaceOnUse" style="mask-type:luminance"><path fill="#fff" d="M25.714 8.535c-.169.011-.334.07-.478.16a1.24 1.24 0 0 0-.36.352c-.194.28-.278.62-.291.96-.01.253.019.51.103.75.085.24.225.463.422.624.2.167.454.267.714.28.261.01.523-.064.737-.212a1.31 1.31 0 0 0 .405-.465c.098-.182.158-.385.184-.59a1.823 1.823 0 0 0-.174-1.068 1.486 1.486 0 0 0-.795-.72 1.139 1.139 0 0 0-.467-.071Z"/></mask><g filter="url(#ak)" mask="url(#aj)"><path fill="url(#al)" d="M26.758 10.005c.188-.187-.133-.684-.384-.889-.182-.146-.709-.302-.686-.14.022.159.26.365.418.523.196.193.562.596.652.506Z"/></g><mask id="am" width="6" height="7" x="23" y="6" maskUnits="userSpaceOnUse" style="mask-type:luminance"><path fill="#fff" d="M24.677 7.177c-.448.31-.825.74-1.009 1.253-.232.647-.144 1.37.08 2.02.23.665.614 1.299 1.193 1.698.289.2.625.338.973.379.351.041.713-.017 1.026-.178.379-.199.67-.546.85-.934.18-.39.256-.82.28-1.249a4.204 4.204 0 0 0-.202-1.614c-.195-.56-.547-1.078-1.046-1.4a2.039 2.039 0 0 0-.825-.314 1.763 1.763 0 0 0-.876.098 2.27 2.27 0 0 0-.444.241Z"/></mask><g mask="url(#am)"><path fill="url(#an)" d="M22.98 8.814c.386-.32.834-.564 1.313-.712.984-.304 2.1-.184 2.97.37.3.189.568.425.847.646.277.22.574.426.91.544a1.3 1.3 0 0 0 .566.08c.172-.016.339-.082.482-.18.142-.099.262-.23.352-.378.18-.297.238-.657.206-1.002-.062-.691-.452-1.3-.778-1.914-.103-.191-.2-.386-.324-.564-.377-.55-.98-.912-1.613-1.123-.632-.212-1.3-.29-1.961-.372-.296-.037-.594-.077-.889-.04-.34.04-.658.177-.99.262-.157.04-.317.069-.472.114-.156.045-.31.107-.437.208-.184.148-.3.371-.35.602-.051.232-.04.472-.003.707.073.469.25.924.233 1.399-.011.324-.115.645-.101.969.003.096.022.29.039.384Z"/></g><g filter="url(#ao)"><path fill="url(#ap)" d="M26.237 5.846a1.63 1.63 0 0 0-.2.319c.346.075.676.218.972.414.574.381 1.01.936 1.315 1.555.071-.079.135-.163.191-.257-.308-.645-.75-1.228-1.343-1.622a2.898 2.898 0 0 0-.935-.409Z"/></g><mask id="aq" width="28" height="47" x="10" y="0" maskUnits="userSpaceOnUse" style="mask-type:luminance"><path fill="#fff" d="M23.803 0c-1.125 0-2.254.221-3.274.772a6.025 6.025 0 0 0-2.518 2.62c-.547 1.102-.761 2.28-.795 3.577-.062 2.464.056 5.048.242 7.39.049.712.139 1.129.047 1.862-.304 1.556-1.665 2.602-2.392 3.969-.801 1.508-1.139 3.212-1.742 4.81-.553 1.46-1.33 2.83-1.853 4.302-.733 2.057-.952 4.319-.469 6.449.37 1.623 1.14 3.146 2.18 4.449-.15.27-.297.546-.45.814-.483.83-1.072 1.62-1.345 2.54-.137.46-.191.951-.103 1.423.088.473.328.925.703 1.225.245.195.543.322.85.394.305.069.622.086.937.08 1.194-.026 2.353-.388 3.508-.692a41.85 41.85 0 0 1 2.068-.483c2.464-.505 5.212-.302 7.498.028.774.118 1.543.27 2.304.455 1.193.29 2.38.657 3.606.692.322.01.649-.005.964-.075.315-.071.62-.198.872-.4.377-.3.617-.753.705-1.225.088-.473.033-.966-.105-1.427-.278-.923-.872-1.708-1.364-2.535-.195-.328-.375-.662-.568-.99 1.482-1.663 2.674-3.587 3.364-5.7.752-2.306.89-4.79.574-7.196-.317-2.406-1.08-4.739-2.083-6.947-1.26-2.768-2.32-3.77-3.088-6.201-.83-2.629-.145-5.74-.762-8.123a8.333 8.333 0 0 0-1.021-2.293 7.856 7.856 0 0 0-1.997-2.15C27.024.49 25.426 0 23.803 0Z"/></mask><g filter="url(#ar)" mask="url(#aq)"><path fill="#000" fill-opacity=".259" d="M18.96 16.75c.276.798.829 1.479 1.485 2.01.218.177.448.34.705.455.255.116.538.182.818.157.273-.022.534-.13.774-.266.24-.135.461-.298.694-.444.397-.253.823-.458 1.237-.683.497-.271.98-.58 1.399-.963.193-.175.371-.366.583-.516.212-.152.467-.26.726-.242.195.013.377.096.568.137.095.02.193.03.29.015a.445.445 0 0 0 .257-.126.449.449 0 0 0 .115-.33.784.784 0 0 0-.102-.339c-.11-.212-.279-.394-.354-.62-.068-.203-.054-.42-.049-.632.006-.214.002-.435-.095-.625a.813.813 0 0 0-.343-.332 1.216 1.216 0 0 0-.465-.131c-.323-.03-.645.034-.97.05-.427.025-.859-.027-1.288-.003-.534.034-1.06.187-1.596.19-.61.001-1.222-.2-1.826-.104-.26.041-.508.135-.756.218-.249.084-.506.157-.768.153-.298-.005-.587-.108-.885-.129-.148-.011-.3 0-.44.053a.617.617 0 0 0-.335.28.586.586 0 0 0-.061.246.902.902 0 0 0 .028.255c.04.165.118.321.18.479.225.575.273 1.203.474 1.786Z"/></g><mask id="as" width="28" height="47" x="10" y="0" maskUnits="userSpaceOnUse" style="mask-type:luminance"><path fill="#fff" d="M23.803 0c-1.125 0-2.254.221-3.274.772a6.025 6.025 0 0 0-2.518 2.62c-.547 1.102-.761 2.28-.795 3.577-.062 2.464.056 5.048.242 7.39.049.712.139 1.129.047 1.862-.304 1.556-1.665 2.602-2.392 3.969-.801 1.508-1.139 3.212-1.742 4.81-.553 1.46-1.33 2.83-1.853 4.302-.733 2.057-.952 4.319-.469 6.449.37 1.623 1.14 3.146 2.18 4.449-.15.27-.297.546-.45.814-.483.83-1.072 1.62-1.345 2.54-.137.46-.191.951-.103 1.423.088.473.328.925.703 1.225.245.195.543.322.85.394.305.069.622.086.937.08 1.194-.026 2.353-.388 3.508-.692a41.85 41.85 0 0 1 2.068-.483c2.464-.505 5.212-.302 7.498.028.774.118 1.543.27 2.304.455 1.193.29 2.38.657 3.606.692.322.01.649-.005.964-.075.315-.071.62-.198.872-.4.377-.3.617-.753.705-1.225.088-.473.033-.966-.105-1.427-.278-.923-.872-1.708-1.364-2.535-.195-.328-.375-.662-.568-.99 1.482-1.663 2.674-3.587 3.364-5.7.752-2.306.89-4.79.574-7.196-.317-2.406-1.08-4.739-2.083-6.947-1.26-2.768-2.32-3.77-3.088-6.201-.83-2.629-.145-5.74-.762-8.123a8.333 8.333 0 0 0-1.021-2.293 7.856 7.856 0 0 0-1.997-2.15C27.024.49 25.426 0 23.803 0Z"/></mask><g filter="url(#at)" mask="url(#as)" opacity=".3"><path fill="#000" d="M18.193 14.475c.534.33 1.014.737 1.418 1.198.373.43.69.917 1.179 1.234.343.225.758.35 1.178.39.493.045.991-.028 1.468-.158.44-.118.866-.287 1.256-.508.744-.422 1.365-1.04 2.184-1.318.178-.062.364-.105.537-.18.172-.073.335-.185.418-.343.078-.154.075-.328.1-.495.029-.18.09-.352.125-.53.033-.179.037-.368-.045-.531a.732.732 0 0 0-.34-.312 1.249 1.249 0 0 0-.47-.104c-.323-.015-.643.061-.968.088-.427.035-.859-.015-1.288-.002-.534.015-1.061.125-1.596.15-.609.026-1.216-.064-1.826-.083a3.952 3.952 0 0 0-.79.038c-.26.041-.515.122-.734.257-.214.129-.388.307-.583.459a1.72 1.72 0 0 1-.315.2.998.998 0 0 1-.368.096c-.066.002-.133-.002-.197.008a.423.423 0 0 0-.275.155.363.363 0 0 0-.068.291Z"/></g><path fill="url(#au)" d="M20.936 10.974c.287-.32.482-.712.756-1.042.137-.165.296-.317.482-.424.185-.107.403-.167.617-.148.238.02.46.139.635.302.175.163.304.37.407.585.1.208.178.427.32.607.153.192.364.321.558.473.095.075.189.155.264.251a.797.797 0 0 1 .161.326.695.695 0 0 1-.03.366.827.827 0 0 1-.204.308 1.186 1.186 0 0 1-.668.3c-.49.069-.988-.077-1.485-.064-.5.015-.991.191-1.494.174a1.337 1.337 0 0 1-.71-.214.941.941 0 0 1-.26-.271.769.769 0 0 1-.108-.357.799.799 0 0 1 .073-.349c.047-.11.114-.21.19-.303.151-.186.337-.34.496-.52Z"/><path fill="url(#av)" d="M18.214 14.072a.509.509 0 0 0 .052.137c.043.071.107.13.175.178.067.05.14.092.212.135.376.238.684.57.958.922.365.473.69.996 1.179 1.34.345.243.758.38 1.178.423.493.049.991-.03 1.468-.17.44-.13.866-.312 1.256-.554.744-.457 1.365-1.129 2.184-1.43.178-.066.364-.113.537-.194.172-.082.335-.202.418-.375.078-.165.075-.356.1-.538.029-.193.09-.38.125-.573.033-.194.037-.4-.045-.578a.744.744 0 0 0-.34-.336 1.131 1.131 0 0 0-.47-.116c-.323-.015-.643.068-.968.098-.427.039-.859-.017-1.288-.004-.534.017-1.061.137-1.596.163-.609.028-1.216-.066-1.826-.09a3.718 3.718 0 0 0-.791.037c-.26.044-.516.134-.733.284-.212.146-.38.345-.576.513a1.48 1.48 0 0 1-.319.218.798.798 0 0 1-.37.088c-.067-.002-.136-.011-.198.008a.293.293 0 0 0-.105.065.63.63 0 0 0-.077.098 1.567 1.567 0 0 0-.14.25Z"/><mask id="aw" width="11" height="6" x="18" y="12" maskUnits="userSpaceOnUse" style="mask-type:luminance"><path fill="#fff" d="M18.214 14.072a.509.509 0 0 0 .052.137c.043.071.107.13.175.178.067.05.14.092.212.135.376.238.684.57.958.922.365.473.69.996 1.179 1.34.345.243.758.38 1.178.423.493.049.991-.03 1.468-.17.44-.13.866-.312 1.256-.554.744-.457 1.365-1.129 2.184-1.43.178-.066.364-.113.537-.194.172-.082.335-.202.418-.375.078-.165.075-.356.1-.538.029-.193.09-.38.125-.573.033-.194.037-.4-.045-.578a.744.744 0 0 0-.34-.336 1.131 1.131 0 0 0-.47-.116c-.323-.015-.643.068-.968.098-.427.039-.859-.017-1.288-.004-.534.017-1.061.137-1.596.163-.609.028-1.216-.066-1.826-.09a3.718 3.718 0 0 0-.791.037c-.26.044-.516.134-.733.284-.212.146-.38.345-.576.513a1.48 1.48 0 0 1-.319.218.798.798 0 0 1-.37.088c-.067-.002-.136-.011-.198.008a.293.293 0 0 0-.105.065.63.63 0 0 0-.077.098 1.567 1.567 0 0 0-.14.25Z"/></mask><g filter="url(#ax)" mask="url(#aw)"><path fill="#D9B30D" d="M20.606 14.73a1.074 1.074 0 0 0 .703 1.268c.32.106.68.054.977-.102.175-.09.332-.217.431-.386a.71.71 0 0 0 .1-.274.632.632 0 0 0-.03-.289.647.647 0 0 0-.186-.256.838.838 0 0 0-.281-.154 2.861 2.861 0 0 0-.733-.128c-.379-.007-.919.064-.98.321Z"/></g><mask id="ay" width="11" height="6" x="18" y="12" maskUnits="userSpaceOnUse" style="mask-type:luminance"><path fill="#fff" d="M18.214 14.072a.504.504 0 0 0 .052.137c.043.071.107.13.175.178.067.05.14.092.212.135.376.238.684.57.958.922.365.473.69.996 1.179 1.34.345.243.758.38 1.178.423.493.049.991-.03 1.468-.17.44-.13.866-.312 1.256-.554.744-.457 1.365-1.129 2.184-1.43.178-.066.364-.113.537-.194.172-.082.335-.202.418-.375.078-.165.075-.356.1-.538.029-.193.09-.38.125-.573.033-.194.037-.4-.045-.578a.745.745 0 0 0-.34-.336 1.132 1.132 0 0 0-.47-.116c-.323-.015-.643.068-.968.098-.427.039-.859-.017-1.288-.004-.534.017-1.061.137-1.596.163-.609.028-1.216-.066-1.826-.09a3.724 3.724 0 0 0-.791.037c-.26.044-.516.134-.733.284-.212.146-.38.345-.576.513a1.477 1.477 0 0 1-.319.218.797.797 0 0 1-.37.088c-.067-.002-.136-.011-.198.008a.292.292 0 0 0-.105.065.63.63 0 0 0-.077.098 1.563 1.563 0 0 0-.14.25Z"/></mask><g filter="url(#az)" mask="url(#ay)"><path fill="#604405" d="M19.558 12.724a8.872 8.872 0 0 0-.63.412c-.107.077-.216.158-.272.276a.65.65 0 0 0-.05.268c0 .094.005.186-.008.277-.007.062-.024.124-.026.186a.311.311 0 0 0 .007.094c.01.03.025.06.045.082.029.03.066.05.105.06.04.012.08.017.12.027.19.045.355.16.5.292.143.13.275.278.427.4.408.333.95.472 1.479.48.529.009 1.052-.102 1.568-.218.404-.092.81-.186 1.198-.33a5.277 5.277 0 0 0 1.635-.973c.219-.19.423-.398.669-.551.216-.137.457-.227.679-.357a.42.42 0 0 0 .056-.037.195.195 0 0 0 .045-.053.165.165 0 0 0 .006-.116.33.33 0 0 0-.059-.103.863.863 0 0 0-.091-.094c-.231-.197-.542-.268-.846-.292-.302-.023-.607-.006-.906-.056-.28-.047-.547-.152-.819-.239a5.763 5.763 0 0 0-2.968-.161 6.126 6.126 0 0 0-1.864.726Z"/></g><path fill="url(#aA)" d="M19.489 11.99c-.312.21-.593.467-.83.758a1.809 1.809 0 0 0-.327.551c-.055.162-.073.33-.107.497-.013.062-.028.124-.026.188 0 .03.003.062.013.094.01.03.026.058.047.08a.278.278 0 0 0 .139.07c.052.009.105.01.157.016.234.029.45.141.645.276.195.133.375.29.576.416.44.28.967.403 1.49.424.522.02 1.043-.058 1.557-.161.406-.08.811-.178 1.198-.33.592-.235 1.127-.593 1.635-.973.232-.173.46-.351.669-.552.07-.069.139-.138.214-.202a.776.776 0 0 1 .253-.146.962.962 0 0 1 .444-.008c.11.019.221.043.334.04a.55.55 0 0 0 .165-.034.324.324 0 0 0 .137-.098.323.323 0 0 0 .071-.204.42.42 0 0 0-.06-.212.72.72 0 0 0-.34-.274c-.185-.082-.386-.122-.582-.17a8.299 8.299 0 0 1-1.752-.64c-.277-.137-.547-.289-.819-.435a5.01 5.01 0 0 0-.87-.388c-.683-.206-1.425-.139-2.098.096a4.477 4.477 0 0 0-1.933 1.322Z"/><mask id="aB" width="10" height="6" x="18" y="10" maskUnits="userSpaceOnUse" style="mask-type:luminance"><path fill="#fff" d="M19.489 11.99c-.312.21-.593.467-.83.758a1.809 1.809 0 0 0-.327.551c-.055.162-.073.33-.107.497-.013.062-.028.124-.026.188 0 .03.003.062.013.094.01.03.026.058.047.08a.278.278 0 0 0 .139.07c.052.009.105.01.157.016.234.029.45.141.645.276.195.133.375.29.576.416.44.28.967.403 1.49.424.522.02 1.043-.058 1.557-.161.406-.08.811-.178 1.198-.33.592-.235 1.127-.593 1.635-.973.232-.173.46-.351.669-.552.07-.069.139-.138.214-.202a.776.776 0 0 1 .253-.146.962.962 0 0 1 .444-.008c.11.019.221.043.334.04a.55.55 0 0 0 .165-.034.324.324 0 0 0 .137-.098.323.323 0 0 0 .071-.204.42.42 0 0 0-.06-.212.72.72 0 0 0-.34-.274c-.185-.082-.386-.122-.582-.17a8.299 8.299 0 0 1-1.752-.64c-.277-.137-.547-.289-.819-.435a5.01 5.01 0 0 0-.87-.388c-.683-.206-1.425-.139-2.098.096a4.477 4.477 0 0 0-1.933 1.322Z"/></mask><g filter="url(#aC)" mask="url(#aB)"><path fill="#F6DA4A" d="M24.272 12.14a.307.307 0 0 0-.146-.095.39.39 0 0 0-.175-.008.83.83 0 0 0-.319.15c-.275.19-.519.424-.733.683-.28.343-.513.739-.592 1.176a.814.814 0 0 0-.013.223c.01.075.037.148.092.2a.301.301 0 0 0 .172.085.43.43 0 0 0 .195-.02c.124-.042.227-.13.326-.216.538-.484 1.026-1.062 1.221-1.76a.821.821 0 0 0 .036-.213.331.331 0 0 0-.064-.204Z"/></g><g filter="url(#aD)" opacity=".8"><path fill="url(#aE)" d="M21.135 11.074c-.144-.047-.38.206-.304.335.02.036.087.081.131.057.066-.036.12-.167.192-.218.047-.034.037-.157-.019-.174Z"/></g><g filter="url(#aF)" opacity=".8"><path fill="url(#aG)" d="M22.98 11.141c.037.12.23.1.343.158.098.05.176.161.287.165.105.002.27-.038.283-.143.017-.137-.184-.225-.313-.275-.167-.064-.38-.098-.536-.012-.036.021-.075.068-.064.107Z"/></g><mask id="aH" width="11" height="8" x="18" y="10" maskUnits="userSpaceOnUse" style="mask-type:luminance"><path fill="#fff" d="M18.214 14.072a.504.504 0 0 0 .052.137c.043.071.107.13.175.178.067.05.14.092.212.135.376.238.684.57.958.922.365.473.69.996 1.179 1.34.345.243.758.38 1.178.423.493.049.991-.03 1.468-.17.44-.13.866-.312 1.256-.554.744-.457 1.365-1.129 2.184-1.43.178-.066.364-.113.537-.194.172-.082.335-.202.418-.375.078-.165.075-.356.1-.538.029-.193.09-.38.125-.573.033-.194.037-.4-.045-.578a.745.745 0 0 0-.34-.336 1.132 1.132 0 0 0-.47-.116c-.323-.015-.643.068-.968.098-.427.039-.859-.017-1.288-.004-.534.017-1.061.137-1.596.163-.609.028-1.216-.066-1.826-.09a3.724 3.724 0 0 0-.791.037c-.26.044-.516.134-.733.284-.212.146-.38.345-.576.513a1.477 1.477 0 0 1-.319.218.797.797 0 0 1-.37.088c-.067-.002-.136-.011-.198.008a.292.292 0 0 0-.105.065.63.63 0 0 0-.077.098 1.563 1.563 0 0 0-.14.25Z"/><path fill="#fff" d="M19.489 11.99c-.312.21-.593.467-.83.758a1.809 1.809 0 0 0-.327.551c-.055.162-.073.33-.107.497-.013.062-.028.124-.026.188 0 .03.003.062.013.094.01.03.026.058.047.08a.278.278 0 0 0 .139.07c.052.009.105.01.157.016.234.029.45.141.645.276.195.133.375.29.576.416.44.28.967.403 1.49.424.522.02 1.043-.058 1.557-.161.406-.08.811-.178 1.198-.33.592-.235 1.127-.593 1.635-.973.232-.173.46-.351.669-.552.07-.069.139-.138.214-.202a.776.776 0 0 1 .253-.146.962.962 0 0 1 .444-.008c.11.019.221.043.334.04a.55.55 0 0 0 .165-.034.324.324 0 0 0 .137-.098.323.323 0 0 0 .071-.204.42.42 0 0 0-.06-.212.72.72 0 0 0-.34-.274c-.185-.082-.386-.122-.582-.17a8.299 8.299 0 0 1-1.752-.64c-.277-.137-.547-.289-.819-.435a5.01 5.01 0 0 0-.87-.388c-.683-.206-1.425-.139-2.098.096a4.477 4.477 0 0 0-1.933 1.322Z"/></mask><g filter="url(#aI)" mask="url(#aH)"><path fill="url(#aJ)" d="M27.988 12.966a.723.723 0 0 1-.181.403.477.477 0 0 1-.346.167.37.37 0 0 1-.307-.167.594.594 0 0 1-.09-.403.743.743 0 0 1 .18-.405.552.552 0 0 1 .165-.124.416.416 0 0 1 .182-.043c.06 0 .119.014.171.043.053.029.1.071.136.124a.523.523 0 0 1 .08.186c.015.07.019.143.01.219Z"/></g><defs><filter id="b" width="8.329" height="7.958" x="13.3" y="18.664" color-interpolation-filters="sRGB" filterUnits="userSpaceOnUse"><feFlood flood-opacity="0" result="BackgroundImageFix"/><feBlend in="SourceGraphic" in2="BackgroundImageFix" result="shape"/><feGaussianBlur result="effect1_foregroundBlur_3120_48255" stdDeviation=".64"/></filter><filter id="e" width="12.61" height="9.944" x="21.279" y="17.561" color-interpolation-filters="sRGB" filterUnits="userSpaceOnUse"><feFlood flood-opacity="0" result="BackgroundImageFix"/><feBlend in="SourceGraphic" in2="BackgroundImageFix" result="shape"/><feGaussianBlur result="effect1_foregroundBlur_3120_48255" stdDeviation=".98"/></filter><filter id="h" width="6.224" height="6.466" x="18.431" y="18.854" color-interpolation-filters="sRGB" filterUnits="userSpaceOnUse"><feFlood flood-opacity="0" result="BackgroundImageFix"/><feBlend in="SourceGraphic" in2="BackgroundImageFix" result="shape"/><feGaussianBlur result="effect1_foregroundBlur_3120_48255" stdDeviation=".68"/></filter><filter id="k" width="5.686" height="14.699" x="17.469" y="23.214" color-interpolation-filters="sRGB" filterUnits="userSpaceOnUse"><feFlood flood-opacity="0" result="BackgroundImageFix"/><feBlend in="SourceGraphic" in2="BackgroundImageFix" result="shape"/><feGaussianBlur result="effect1_foregroundBlur_3120_48255" stdDeviation="1.25"/></filter><filter id="m" width="8.748" height="8.782" x="29.807" y="21.045" color-interpolation-filters="sRGB" filterUnits="userSpaceOnUse"><feFlood flood-opacity="0" result="BackgroundImageFix"/><feBlend in="SourceGraphic" in2="BackgroundImageFix" result="shape"/><feGaussianBlur result="effect1_foregroundBlur_3120_48255" stdDeviation="1.78"/></filter><filter id="o" width="9.581" height="9.443" x="22.621" y="-1.403" color-interpolation-filters="sRGB" filterUnits="userSpaceOnUse"><feFlood flood-opacity="0" result="BackgroundImageFix"/><feBlend in="SourceGraphic" in2="BackgroundImageFix" result="shape"/><feGaussianBlur result="effect1_foregroundBlur_3120_48255" stdDeviation="1.73"/></filter><filter id="q" width="5.087" height="5.311" x="27.998" y="12.746" color-interpolation-filters="sRGB" filterUnits="userSpaceOnUse"><feFlood flood-opacity="0" result="BackgroundImageFix"/><feBlend in="SourceGraphic" in2="BackgroundImageFix" result="shape"/><feGaussianBlur result="effect1_foregroundBlur_3120_48255" stdDeviation=".78"/></filter><filter id="s" width="8.267" height="14.209" x="9.234" y="21.343" color-interpolation-filters="sRGB" filterUnits="userSpaceOnUse"><feFlood flood-opacity="0" result="BackgroundImageFix"/><feBlend in="SourceGraphic" in2="BackgroundImageFix" result="shape"/><feGaussianBlur result="effect1_foregroundBlur_3120_48255" stdDeviation=".98"/></filter><filter id="u" width="9.302" height="17.853" x="29.574" y="19.931" color-interpolation-filters="sRGB" filterUnits="userSpaceOnUse"><feFlood flood-opacity="0" result="BackgroundImageFix"/><feBlend in="SourceGraphic" in2="BackgroundImageFix" result="shape"/><feGaussianBlur result="effect1_foregroundBlur_3120_48255" stdDeviation="1.19"/></filter><filter id="x" width="27.674" height="27.545" x="-2.396" y="26.476" color-interpolation-filters="sRGB" filterUnits="userSpaceOnUse"><feFlood flood-opacity="0" result="BackgroundImageFix"/><feBlend in="SourceGraphic" in2="BackgroundImageFix" result="shape"/><feGaussianBlur result="effect1_foregroundBlur_3120_48255" stdDeviation="3.38"/></filter><filter id="z" width="20.937" height="21.708" x=".653" y="28.422" color-interpolation-filters="sRGB" filterUnits="userSpaceOnUse"><feFlood flood-opacity="0" result="BackgroundImageFix"/><feBlend in="SourceGraphic" in2="BackgroundImageFix" result="shape"/><feGaussianBlur result="effect1_foregroundBlur_3120_48255" stdDeviation="2.1"/></filter><filter id="B" width="5.532" height="8.994" x="12.71" y="34.649" color-interpolation-filters="sRGB" filterUnits="userSpaceOnUse"><feFlood flood-opacity="0" result="BackgroundImageFix"/><feBlend in="SourceGraphic" in2="BackgroundImageFix" result="shape"/><feGaussianBlur result="effect1_foregroundBlur_3120_48255" stdDeviation=".32"/></filter><filter id="E" width="19.339" height="20.36" x="25.579" y="31.435" color-interpolation-filters="sRGB" filterUnits="userSpaceOnUse"><feFlood flood-opacity="0" result="BackgroundImageFix"/><feBlend in="SourceGraphic" in2="BackgroundImageFix" result="shape"/><feGaussianBlur result="effect1_foregroundBlur_3120_48255" stdDeviation="1.95"/></filter><filter id="I" width="29.258" height="29.438" x="22.752" y="25.588" color-interpolation-filters="sRGB" filterUnits="userSpaceOnUse"><feFlood flood-opacity="0" result="BackgroundImageFix"/><feBlend in="SourceGraphic" in2="BackgroundImageFix" result="shape"/><feGaussianBlur result="effect1_foregroundBlur_3120_48255" stdDeviation="4.12"/></filter><filter id="K" width="24.677" height="24.614" x="25.273" y="26.613" color-interpolation-filters="sRGB" filterUnits="userSpaceOnUse"><feFlood flood-opacity="0" result="BackgroundImageFix"/><feBlend in="SourceGraphic" in2="BackgroundImageFix" result="shape"/><feGaussianBlur result="effect1_foregroundBlur_3120_48255" stdDeviation="3.12"/></filter><filter id="M" width="10.531" height="3.078" x="30.551" y="32.852" color-interpolation-filters="sRGB" filterUnits="userSpaceOnUse"><feFlood flood-opacity="0" result="BackgroundImageFix"/><feBlend in="SourceGraphic" in2="BackgroundImageFix" result="shape"/><feGaussianBlur result="effect1_foregroundBlur_3120_48255" stdDeviation=".41"/></filter><filter id="P" width="15.3" height="14.513" x="28.217" y="29.546" color-interpolation-filters="sRGB" filterUnits="userSpaceOnUse"><feFlood flood-opacity="0" result="BackgroundImageFix"/><feBlend in="SourceGraphic" in2="BackgroundImageFix" result="shape"/><feGaussianBlur result="effect1_foregroundBlur_3120_48255" stdDeviation="2.45"/></filter><filter id="S" width="9.98" height="7.887" x="30.877" y="31.899" color-interpolation-filters="sRGB" filterUnits="userSpaceOnUse"><feFlood flood-opacity="0" result="BackgroundImageFix"/><feBlend in="SourceGraphic" in2="BackgroundImageFix" result="shape"/><feGaussianBlur result="effect1_foregroundBlur_3120_48255" stdDeviation="1.12"/></filter><filter id="V" width="9.163" height="6.16" x="31.758" y="30.311" color-interpolation-filters="sRGB" filterUnits="userSpaceOnUse"><feFlood flood-opacity="0" result="BackgroundImageFix"/><feBlend in="SourceGraphic" in2="BackgroundImageFix" result="shape"/><feGaussianBlur result="effect1_foregroundBlur_3120_48255" stdDeviation=".88"/></filter><filter id="Y" width="9.163" height="6.16" x="31.758" y="30.311" color-interpolation-filters="sRGB" filterUnits="userSpaceOnUse"><feFlood flood-opacity="0" result="BackgroundImageFix"/><feBlend in="SourceGraphic" in2="BackgroundImageFix" result="shape"/><feGaussianBlur result="effect1_foregroundBlur_3120_48255" stdDeviation=".88"/></filter><filter id="ac" width="2.609" height="3.121" x="18.759" y="8.18" color-interpolation-filters="sRGB" filterUnits="userSpaceOnUse"><feFlood flood-opacity="0" result="BackgroundImageFix"/><feBlend in="SourceGraphic" in2="BackgroundImageFix" result="shape"/><feGaussianBlur result="effect1_foregroundBlur_3120_48255" stdDeviation=".44"/></filter><filter id="ag" width="2.744" height="2.516" x="19.174" y="5.923" color-interpolation-filters="sRGB" filterUnits="userSpaceOnUse"><feFlood flood-opacity="0" result="BackgroundImageFix"/><feBlend in="SourceGraphic" in2="BackgroundImageFix" result="shape"/><feGaussianBlur result="effect1_foregroundBlur_3120_48255" stdDeviation=".12"/></filter><filter id="ak" width="2.928" height="2.911" x="24.787" y="8.007" color-interpolation-filters="sRGB" filterUnits="userSpaceOnUse"><feFlood flood-opacity="0" result="BackgroundImageFix"/><feBlend in="SourceGraphic" in2="BackgroundImageFix" result="shape"/><feGaussianBlur result="effect1_foregroundBlur_3120_48255" stdDeviation=".45"/></filter><filter id="ao" width="2.999" height="2.808" x="25.776" y="5.586" color-interpolation-filters="sRGB" filterUnits="userSpaceOnUse"><feFlood flood-opacity="0" result="BackgroundImageFix"/><feBlend in="SourceGraphic" in2="BackgroundImageFix" result="shape"/><feGaussianBlur result="effect1_foregroundBlur_3120_48255" stdDeviation=".13"/></filter><filter id="ar" width="17.334" height="13.111" x="14.777" y="9.767" color-interpolation-filters="sRGB" filterUnits="userSpaceOnUse"><feFlood flood-opacity="0" result="BackgroundImageFix"/><feBlend in="SourceGraphic" in2="BackgroundImageFix" result="shape"/><feGaussianBlur result="effect1_foregroundBlur_3120_48255" stdDeviation="1.75"/></filter><filter id="at" width="13.092" height="7.695" x="16.586" y="11.216" color-interpolation-filters="sRGB" filterUnits="userSpaceOnUse"><feFlood flood-opacity="0" result="BackgroundImageFix"/><feBlend in="SourceGraphic" in2="BackgroundImageFix" result="shape"/><feGaussianBlur result="effect1_foregroundBlur_3120_48255" stdDeviation=".8"/></filter><filter id="ax" width="5.325" height="4.725" x="19.037" y="12.869" color-interpolation-filters="sRGB" filterUnits="userSpaceOnUse"><feFlood flood-opacity="0" result="BackgroundImageFix"/><feBlend in="SourceGraphic" in2="BackgroundImageFix" result="shape"/><feGaussianBlur result="effect1_foregroundBlur_3120_48255" stdDeviation=".77"/></filter><filter id="az" width="11.147" height="6.304" x="17.271" y="10.575" color-interpolation-filters="sRGB" filterUnits="userSpaceOnUse"><feFlood flood-opacity="0" result="BackgroundImageFix"/><feBlend in="SourceGraphic" in2="BackgroundImageFix" result="shape"/><feGaussianBlur result="effect1_foregroundBlur_3120_48255" stdDeviation=".65"/></filter><filter id="aC" width="4.965" height="5.446" x="20.831" y="10.571" color-interpolation-filters="sRGB" filterUnits="userSpaceOnUse"><feFlood flood-opacity="0" result="BackgroundImageFix"/><feBlend in="SourceGraphic" in2="BackgroundImageFix" result="shape"/><feGaussianBlur result="effect1_foregroundBlur_3120_48255" stdDeviation=".73"/></filter><filter id="aD" width=".768" height=".805" x="20.616" y="10.868" color-interpolation-filters="sRGB" filterUnits="userSpaceOnUse"><feFlood flood-opacity="0" result="BackgroundImageFix"/><feBlend in="SourceGraphic" in2="BackgroundImageFix" result="shape"/><feGaussianBlur result="effect1_foregroundBlur_3120_48255" stdDeviation=".1"/></filter><filter id="aF" width="1.316" height=".881" x="22.778" y="10.783" color-interpolation-filters="sRGB" filterUnits="userSpaceOnUse"><feFlood flood-opacity="0" result="BackgroundImageFix"/><feBlend in="SourceGraphic" in2="BackgroundImageFix" result="shape"/><feGaussianBlur result="effect1_foregroundBlur_3120_48255" stdDeviation=".1"/></filter><filter id="aI" width="1.853" height="2.062" x="26.599" y="11.934" color-interpolation-filters="sRGB" filterUnits="userSpaceOnUse"><feFlood flood-opacity="0" result="BackgroundImageFix"/><feBlend in="SourceGraphic" in2="BackgroundImageFix" result="shape"/><feGaussianBlur result="effect1_foregroundBlur_3120_48255" stdDeviation=".23"/></filter><radialGradient id="c" cx="0" cy="0" r="1" gradientTransform="matrix(3.5625 0 0 3.375 15.221 22.723)" gradientUnits="userSpaceOnUse"><stop/><stop offset="1" stop-opacity=".25"/></radialGradient><radialGradient id="f" cx="0" cy="0" r="1" gradientTransform="matrix(4.425 0 0 3.375 27.326 24.675)" gradientUnits="userSpaceOnUse"><stop/><stop offset="1" stop-opacity=".25"/></radialGradient><radialGradient id="i" cx="0" cy="0" r="1" gradientTransform="matrix(1.75312 0 0 1.875 21.414 23.9)" gradientUnits="userSpaceOnUse"><stop/><stop offset="1" stop-opacity=".25"/></radialGradient><radialGradient id="Q" cx="0" cy="0" r="1" gradientTransform="rotate(15 -120.74 153.33) scale(3.68625 3.87)" gradientUnits="userSpaceOnUse"><stop stop-color="#110800"/><stop offset=".59" stop-color="#A65A00" stop-opacity=".8"/><stop offset="1" stop-color="#FF921E" stop-opacity="0"/></radialGradient><radialGradient id="T" cx="0" cy="0" r="1" gradientTransform="matrix(3.69795 -.15628 .11765 2.78377 35.57 35.604)" gradientUnits="userSpaceOnUse"><stop stop-color="#110800"/><stop offset=".59" stop-color="#A65A00" stop-opacity=".8"/><stop offset="1" stop-color="#FF921E" stop-opacity="0"/></radialGradient><radialGradient id="W" cx="0" cy="0" r="1" gradientTransform="matrix(1.19505 .51962 -.24 .55196 38.372 33.116)" gradientUnits="userSpaceOnUse"><stop stop-color="#7C7C7C"/><stop offset="1" stop-color="#7C7C7C" stop-opacity=".33"/></radialGradient><radialGradient id="aa" cx="0" cy="0" r="1" gradientTransform="matrix(1.9199 -.0201 .03079 2.93984 19.967 9.64)" gradientUnits="userSpaceOnUse"><stop stop-color="#FEFEFC"/><stop offset=".75" stop-color="#FEFEFC"/><stop offset="1" stop-color="#D4D4D4"/></radialGradient><radialGradient id="af" cx="0" cy="0" r="1" gradientTransform="matrix(1.1563 -.19039 .17577 1.0675 19.667 8.201)" gradientUnits="userSpaceOnUse"><stop stop-color="#C8C8C8"/><stop offset="1" stop-color="#797978"/></radialGradient><radialGradient id="ai" cx="0" cy="0" r="1" gradientTransform="matrix(2.55624 -.08033 .09235 2.93855 25.886 9.64)" gradientUnits="userSpaceOnUse"><stop stop-color="#FEFEFC"/><stop offset=".75" stop-color="#FEFEFC"/><stop offset="1" stop-color="#D4D4D4"/></radialGradient><radialGradient id="au" cx="0" cy="0" r="1" gradientTransform="rotate(-36 28.375 -28.307) scale(2.145 1.94625)" gradientUnits="userSpaceOnUse"><stop stop-color="#020204"/><stop offset=".73" stop-color="#020204"/><stop offset="1" stop-color="#5C5C5C"/></radialGradient><radialGradient id="av" cx="0" cy="0" r="1" gradientTransform="matrix(4.70652 -1.93989 1.36256 3.30583 24.332 13.24)" gradientUnits="userSpaceOnUse"><stop stop-color="#D2940A"/><stop offset=".75" stop-color="#D89C08"/><stop offset=".87" stop-color="#B67E07"/><stop offset="1" stop-color="#946106"/></radialGradient><radialGradient id="aE" cx="0" cy="0" r="1" gradientTransform="matrix(.2475 0 0 .26625 21.02 11.227)" gradientUnits="userSpaceOnUse"><stop stop-color="#3A2903"/><stop offset=".55" stop-color="#735208"/><stop offset="1" stop-color="#AC8C04"/></radialGradient><radialGradient id="aG" cx="0" cy="0" r="1" gradientTransform="matrix(.52125 0 0 .30375 23.372 11.194)" gradientUnits="userSpaceOnUse"><stop stop-color="#3A2903"/><stop offset=".55" stop-color="#735208"/><stop offset="1" stop-color="#AC8C04"/></radialGradient><linearGradient id="v" x1="8.096" x2="15.808" y1="36.189" y2="49.129" gradientUnits="userSpaceOnUse"><stop stop-color="#B98309"/><stop offset="1" stop-color="#382605"/></linearGradient><linearGradient id="C" x1="15.838" x2="18.264" y1="39.531" y2="44.102" gradientUnits="userSpaceOnUse"><stop stop-color="#EBC40C"/><stop offset="1" stop-color="#EBC40C" stop-opacity="0"/></linearGradient><linearGradient id="F" x1="31.299" x2="31.913" y1="39.742" y2="44.199" gradientUnits="userSpaceOnUse"><stop/><stop offset="1" stop-opacity="0"/></linearGradient><linearGradient id="G" x1="32.156" x2="39.926" y1="47.441" y2="34.845" gradientUnits="userSpaceOnUse"><stop stop-color="#3E2A06"/><stop offset="1" stop-color="#AD780A"/></linearGradient><linearGradient id="N" x1="34.277" x2="34.048" y1="33.876" y2="35.932" gradientUnits="userSpaceOnUse"><stop stop-color="#F3CD0C"/><stop offset="1" stop-color="#F3CD0C" stop-opacity="0"/></linearGradient><linearGradient id="Z" x1="34.817" x2="35.301" y1="32.546" y2="32.526" gradientUnits="userSpaceOnUse"><stop stop-color="#7C7C7C"/><stop offset="1" stop-color="#7C7C7C" stop-opacity=".33"/></linearGradient><linearGradient id="ad" x1="19.554" x2="20.497" y1="8.745" y2="10.431" gradientUnits="userSpaceOnUse"><stop stop-color="#757574" stop-opacity="0"/><stop offset=".25" stop-color="#757574"/><stop offset=".5" stop-color="#757574"/><stop offset="1" stop-color="#757574" stop-opacity="0"/></linearGradient><linearGradient id="ah" x1="19.423" x2="21.465" y1="6.096" y2="8.181" gradientUnits="userSpaceOnUse"><stop stop-color="#646464" stop-opacity="0"/><stop offset=".31" stop-color="#646464" stop-opacity=".58"/><stop offset=".47" stop-color="#646464"/><stop offset=".73" stop-color="#646464" stop-opacity=".26"/><stop offset="1" stop-color="#646464" stop-opacity="0"/></linearGradient><linearGradient id="al" x1="25.851" x2="26.936" y1="8.859" y2="10.146" gradientUnits="userSpaceOnUse"><stop stop-color="#949494" stop-opacity=".39"/><stop offset=".5" stop-color="#949494"/><stop offset="1" stop-color="#949494" stop-opacity=".39"/></linearGradient><linearGradient id="an" x1="24.919" x2="28.372" y1="6.793" y2="8.814" gradientUnits="userSpaceOnUse"><stop stop-color="#747474"/><stop offset=".13" stop-color="#8C8C8C"/><stop offset=".25" stop-color="#A4A4A4"/><stop offset=".5" stop-color="#D4D4D4"/><stop offset=".62" stop-color="#D4D4D4"/><stop offset="1" stop-color="#7C7C7C"/></linearGradient><linearGradient id="ap" x1="26.093" x2="28.391" y1="5.918" y2="8.089" gradientUnits="userSpaceOnUse"><stop stop-color="#646464" stop-opacity="0"/><stop offset=".31" stop-color="#646464" stop-opacity=".58"/><stop offset=".47" stop-color="#646464"/><stop offset=".73" stop-color="#646464" stop-opacity=".26"/><stop offset="1" stop-color="#646464" stop-opacity="0"/></linearGradient><linearGradient id="aA" x1="18.392" x2="27.519" y1="12.986" y2="12.915" gradientUnits="userSpaceOnUse"><stop stop-color="#AD780A"/><stop offset=".12" stop-color="#D89E08"/><stop offset=".25" stop-color="#EDB80B"/><stop offset=".39" stop-color="#EBC80D"/><stop offset=".53" stop-color="#F5D838"/><stop offset=".77" stop-color="#F6D811"/><stop offset="1" stop-color="#F5CD31"/></linearGradient><linearGradient id="aJ" x1="27.514" x2="27.514" y1="12.654" y2="13.329" gradientUnits="userSpaceOnUse"><stop stop-color="#F5CE2D"/><stop offset="1" stop-color="#D79B08"/></linearGradient></defs></svg>