<svg xmlns="http://www.w3.org/2000/svg" width="48" height="48" fill="none"><rect width="48" height="48" rx="10" fill="url(#a)"/><rect width="48" height="48" rx="10" fill="url(#b)"/><rect x=".5" y=".5" width="47" height="47" rx="9.5" stroke="#000" stroke-opacity=".04"/><rect x="3" y="3" width="42" height="42" rx="7" fill="url(#c)"/><rect x="3" y="3" width="42" height="42" rx="7" fill="url(#d)" fill-opacity=".7" style="mix-blend-mode:screen"/><rect x="3.25" y="3.25" width="41.5" height="41.5" rx="6.75" stroke="#000" stroke-opacity=".2" stroke-width=".5"/><rect x="4" y="4" width="40" height="40" rx="6" stroke="#fff" stroke-opacity=".2" style="mix-blend-mode:overlay"/><g filter="url(#e)"><path fill-rule="evenodd" clip-rule="evenodd" d="M18 11.347c-4.73 2.247-8 7.068-8 12.653 0 5.585 3.27 10.406 8 12.653V23.908c0-.3 0-.565.047-.829.04-.232.11-.458.204-.674.107-.245.254-.465.42-.715l.034-.05.871-1.307a6.86 6.86 0 0 0 .212-.327L19.79 20l-.003-.006a6.86 6.86 0 0 0-.212-.327l-.87-1.306-.034-.05c-.167-.25-.314-.471-.421-.716a2.994 2.994 0 0 1-.204-.674C18 16.657 18 16.392 18 16.092V11.347Zm11 25.734c-1.553.594-3.238.919-5 .919s-3.447-.325-5-.92V23.97c0-.36 0-.54.031-.714.028-.155.073-.306.136-.45.07-.162.17-.311.37-.611l.871-1.306c.214-.321.321-.482.363-.655a1 1 0 0 0 0-.466c-.042-.173-.149-.334-.363-.654l-.87-1.307c-.2-.3-.3-.45-.371-.611a2.003 2.003 0 0 1-.136-.45C19 16.571 19 16.391 19 16.031V10.92a13.967 13.967 0 0 1 5-.92c1.762 0 3.447.325 5 .92V24.03c0 .36 0 .54-.031.714a2.003 2.003 0 0 1-.136.45c-.07.162-.17.311-.37.611l-.871 1.306c-.214.321-.321.482-.363.655a1 1 0 0 0 0 .466c.042.173.149.334.363.654l.87 1.307c.2.3.3.45.371.611.063.144.108.295.136.45.031.174.031.354.031.714V37.08Zm1-.428c4.73-2.247 8-7.068 8-12.653 0-5.585-3.27-10.406-8-12.653v12.745c0 .3 0 .565-.047.829-.04.232-.11.458-.204.674-.107.245-.254.465-.42.715l-.034.05-.871 1.307a6.86 6.86 0 0 0-.212.327L28.21 28l.003.006c.039.067.098.156.212.327l.87 1.306.034.05c.167.25.314.471.421.716.095.216.163.442.204.674.047.264.047.529.047.829V36.653Z" fill="url(#f)"/></g><path d="M25.8 7.5h-3.621c-.542 0-.98 0-1.333.029-.365.03-.685.093-.981.243a2.5 2.5 0 0 0-1.092 1.093c-.151.296-.214.616-.244.98-.029.355-.029.792-.029 1.334v4.894c0 .32 0 .542.039.76.034.193.091.382.17.562.088.203.212.387.39.654l.022.035.871 1.306c.236.353.277.428.292.494a.501.501 0 0 1 0 .232c-.015.066-.056.14-.292.494l-.87 1.306-.024.035c-.177.267-.3.451-.39.654-.078.18-.135.369-.17.562-.038.218-.038.44-.038.76v12.894c0 .542 0 .98.029 1.333.03.365.093.685.244.981a2.5 2.5 0 0 0 1.092 1.093c.296.15.616.213.98.243.355.029.792.029 1.334.029h3.642c.542 0 .98 0 1.333-.029.365-.03.685-.093.981-.243a2.5 2.5 0 0 0 1.092-1.093c.151-.296.214-.616.244-.98.029-.355.029-.792.029-1.334v-4.894c0-.32 0-.542-.039-.76a2.499 2.499 0 0 0-.17-.562c-.088-.203-.212-.387-.39-.654l-.022-.035-.871-1.306c-.236-.353-.277-.428-.292-.494a.501.501 0 0 1 0-.232c.015-.066.056-.14.292-.494l.87-1.306.024-.035c.177-.267.3-.451.39-.654.078-.18.135-.369.17-.562.038-.218.038-.44.038-.76V11.179c0-.542 0-.98-.029-1.333-.03-.365-.093-.685-.244-.981a2.5 2.5 0 0 0-1.092-1.093c-.296-.15-.616-.213-.98-.243A17.761 17.761 0 0 0 25.82 7.5H25.8Z" stroke="#fff" stroke-opacity=".2" style="mix-blend-mode:overlay"/><g filter="url(#g)"><path d="M19 11.2c0-1.12 0-1.68.218-2.108a2 2 0 0 1 .874-.874C20.52 8 21.08 8 22.2 8h3.6c1.12 0 1.68 0 2.108.218a2 2 0 0 1 .874.874C29 9.52 29 10.08 29 11.2v12.831c0 .36 0 .54-.031.714a2.003 2.003 0 0 1-.136.45c-.07.162-.17.311-.37.611l-.871 1.306c-.214.321-.321.482-.363.655a1 1 0 0 0 0 .466c.042.173.149.334.363.654l.87 1.307c.2.3.3.45.371.611.063.144.108.295.136.45.031.174.031.354.031.714V36.8c0 1.12 0 1.68-.218 2.108a2 2 0 0 1-.874.874C27.48 40 26.92 40 25.8 40h-3.6c-1.12 0-1.68 0-2.108-.218a2 2 0 0 1-.874-.874C19 38.48 19 37.92 19 36.8V23.969c0-.36 0-.54.031-.714.028-.155.073-.306.136-.45.07-.162.17-.311.37-.611l.871-1.306c.214-.321.321-.482.363-.655a1 1 0 0 0 0-.466c-.042-.173-.149-.334-.363-.654l-.87-1.307c-.2-.3-.3-.45-.371-.611a2.003 2.003 0 0 1-.136-.45C19 16.571 19 16.391 19 16.031V11.2Z" fill="#000" fill-opacity=".6"/></g><defs><linearGradient id="a" x1="24" y1="0" x2="24" y2="48" gradientUnits="userSpaceOnUse"><stop stop-color="#174299"/><stop offset="1" stop-color="#001E59"/></linearGradient><linearGradient id="b" x1="24" y1="0" x2="24" y2="48" gradientUnits="userSpaceOnUse"><stop stop-color="#DDE1EB"/><stop offset="1" stop-color="#CAD0DB"/></linearGradient><linearGradient id="f" x1="24" y1="10" x2="24" y2="38" gradientUnits="userSpaceOnUse"><stop stop-opacity=".12"/><stop offset="1" stop-opacity="0"/><stop offset="1" stop-opacity=".08"/></linearGradient><radialGradient id="c" cx="0" cy="0" r="1" gradientUnits="userSpaceOnUse" gradientTransform="rotate(-40.077 69.815 48.665) scale(82.9048)"><stop offset=".276" stop-color="#20FF4D"/><stop offset=".464" stop-color="#1499FF"/><stop offset=".755" stop-color="#FF6FC6"/><stop offset="1" stop-color="#BC67FF"/></radialGradient><radialGradient id="d" cx="0" cy="0" r="1" gradientUnits="userSpaceOnUse" gradientTransform="rotate(45 2.52 -6.082) scale(68.6777)"><stop stop-color="red"/><stop offset="1" stop-color="#00A3FF"/></radialGradient><filter id="e" x="10" y="10" width="28" height="28" filterUnits="userSpaceOnUse" color-interpolation-filters="sRGB"><feFlood flood-opacity="0" result="BackgroundImageFix"/><feBlend in="SourceGraphic" in2="BackgroundImageFix" result="shape"/><feColorMatrix in="SourceAlpha" values="0 0 0 0 0 0 0 0 0 0 0 0 0 0 0 0 0 0 127 0" result="hardAlpha"/><feOffset/><feGaussianBlur stdDeviation="2"/><feComposite in2="hardAlpha" operator="arithmetic" k2="-1" k3="1"/><feColorMatrix values="0 0 0 0 0 0 0 0 0 0 0 0 0 0 0 0 0 0 0.08 0"/><feBlend in2="shape" result="effect1_innerShadow_251_1214"/></filter><filter id="g" x="19" y="8" width="10" height="32" filterUnits="userSpaceOnUse" color-interpolation-filters="sRGB"><feFlood flood-opacity="0" result="BackgroundImageFix"/><feBlend in="SourceGraphic" in2="BackgroundImageFix" result="shape"/><feColorMatrix in="SourceAlpha" values="0 0 0 0 0 0 0 0 0 0 0 0 0 0 0 0 0 0 127 0" result="hardAlpha"/><feOffset/><feGaussianBlur stdDeviation="2"/><feComposite in2="hardAlpha" operator="arithmetic" k2="-1" k3="1"/><feColorMatrix values="0 0 0 0 0 0 0 0 0 0 0 0 0 0 0 0 0 0 1 0"/><feBlend in2="shape" result="effect1_innerShadow_251_1214"/></filter></defs></svg>