<svg xmlns="http://www.w3.org/2000/svg" width="75" height="75"><defs><radialGradient id="b" cx="50.225%" cy="42.709%" r="54.251%" fx="50.225%" fy="42.709%"><stop offset="0%" stop-color="#06C2E7"/><stop offset="25%" stop-color="#0DB8EC"/><stop offset="50%" stop-color="#12AEF1"/><stop offset="75%" stop-color="#1F86F9"/><stop offset="100%" stop-color="#107DDD"/></radialGradient><linearGradient id="a" x1="49.998%" x2="49.998%" y1="99.999%" y2="0%"><stop offset="0%" stop-color="#BDBDBD"/><stop offset="100%" stop-color="#FFF"/></linearGradient></defs><g fill="none" fill-rule="nonzero"><path fill="#000" d="M73.3 40.84c0 9.06-3.737 17.749-10.39 24.155C56.257 71.401 47.234 75 37.826 75s-18.431-3.599-25.084-10.005C6.09 58.589 2.352 49.9 2.352 40.841c0-18.866 15.882-34.16 35.474-34.16 9.408 0 18.431 3.6 25.084 10.005 6.653 6.407 10.39 15.095 10.39 24.155Z" opacity=".53"/><path fill="url(#a)" stroke="#CDCDCD" stroke-linecap="round" stroke-linejoin="round" stroke-width=".093" d="M73.649 36.824A36.824 36.824 0 0 1 36.824 73.65C16.487 73.649 0 57.162 0 36.824 0 16.487 16.487 0 36.824 0A36.824 36.824 0 0 1 73.65 36.824h0Z" transform="translate(1 1)"/><path fill="url(#b)" d="M70.763 36.824c0 18.744-15.195 33.94-33.939 33.94S2.886 55.567 2.886 36.823c0-18.743 15.194-33.938 33.938-33.938s33.94 15.195 33.94 33.938Z" transform="translate(1 1)"/><path fill="#F4F2F3" d="M37.824 5.655a.494.494 0 0 0-.494.495v5.708a.494.494 0 1 0 .99 0V6.15a.494.494 0 0 0-.496-.495Zm-3.237.205a.494.494 0 0 0-.541.544l.25 2.388a.494.494 0 1 0 .984-.103l-.25-2.388a.494.494 0 0 0-.443-.441Zm6.497.002a.494.494 0 0 0-.443.441l-.251 2.388a.494.494 0 1 0 .984.103l.251-2.387a.494.494 0 0 0-.54-.545Zm-9.822.48a.494.494 0 0 0-.482.597l1.183 5.584a.494.494 0 1 0 .968-.205l-1.182-5.584a.494.494 0 0 0-.487-.392Zm13.147.005a.493.493 0 0 0-.487.392l-1.186 5.583a.494.494 0 1 0 .968.206l1.186-5.583a.494.494 0 0 0-.48-.598Zm-16.32.89a.494.494 0 0 0-.513.646l.741 2.284a.494.494 0 1 0 .941-.306l-.741-2.284a.494.494 0 0 0-.428-.34Zm19.476.001a.494.494 0 0 0-.428.34l-.743 2.284a.494.494 0 1 0 .942.306l.742-2.284a.494.494 0 0 0-.513-.646ZM24.95 8.385a.494.494 0 0 0-.443.696l2.318 5.216a.494.494 0 1 0 .905-.402L25.41 8.68a.494.494 0 0 0-.46-.295Zm25.788.018a.495.495 0 0 0-.461.294l-2.325 5.212a.494.494 0 1 0 .904.403L51.18 9.1a.494.494 0 0 0-.443-.697Zm-28.7 1.524a.494.494 0 0 0-.463.742l1.2 2.078a.494.494 0 1 0 .857-.494l-1.2-2.08a.494.494 0 0 0-.395-.246Zm31.573 0a.492.492 0 0 0-.393.246l-1.201 2.08a.494.494 0 1 0 .857.494l1.2-2.079a.494.494 0 0 0-.463-.741ZM19.21 11.69a.496.496 0 0 0-.384.785l3.352 4.62a.494.494 0 1 0 .8-.58l-3.35-4.62a.493.493 0 0 0-.418-.205Zm37.266.025a.493.493 0 0 0-.417.204L52.7 16.535a.494.494 0 1 0 .8.583l3.358-4.616a.494.494 0 0 0-.383-.786Zm-39.794 2.095a.494.494 0 0 0-.394.826l1.606 1.784a.494.494 0 1 0 .735-.662l-1.605-1.784a.493.493 0 0 0-.342-.164Zm42.29.004a.495.495 0 0 0-.341.163l-1.606 1.784a.494.494 0 1 0 .735.663l1.607-1.784a.494.494 0 0 0-.394-.826Zm-44.714 2.324a.495.495 0 0 0-.305.862l4.242 3.819a.494.494 0 1 0 .662-.736l-4.242-3.818a.493.493 0 0 0-.357-.127Zm47.15.017a.492.492 0 0 0-.357.126l-4.245 3.816a.494.494 0 1 0 .662.736l4.244-3.816a.494.494 0 0 0-.304-.862ZM12.242 18.73a.494.494 0 0 0-.308.895l1.943 1.411a.494.494 0 1 0 .582-.8l-1.943-1.411a.494.494 0 0 0-.274-.095Zm51.178.018a.495.495 0 0 0-.274.094l-1.943 1.41a.494.494 0 1 0 .581.801l1.944-1.41a.494.494 0 0 0-.308-.895Zm-53.06 2.746a.494.494 0 0 0-.213.923l4.942 2.853a.494.494 0 1 0 .495-.857l-4.943-2.854a.494.494 0 0 0-.282-.065Zm54.93 0a.49.49 0 0 0-.282.066l-4.943 2.853a.494.494 0 1 0 .495.857l4.943-2.853a.494.494 0 0 0-.213-.923ZM8.935 24.44a.494.494 0 0 0-.211.947l2.193.978a.494.494 0 1 0 .403-.904l-2.193-.978a.493.493 0 0 0-.192-.043Zm57.788.02a.495.495 0 0 0-.192.043l-2.193.977a.494.494 0 1 0 .402.904l2.193-.977a.494.494 0 0 0-.21-.947ZM7.666 27.52a.494.494 0 0 0-.111.964l5.427 1.768a.494.494 0 1 0 .307-.94l-5.427-1.77a.495.495 0 0 0-.196-.022Zm60.324.021a.48.48 0 0 0-.196.023l-5.428 1.764a.494.494 0 1 0 .306.942l5.428-1.765a.494.494 0 0 0-.11-.964ZM6.876 30.751a.494.494 0 0 0-.106.98l2.348.498a.494.494 0 1 0 .206-.968l-2.348-.499a.485.485 0 0 0-.1-.01Zm61.898.005a.608.608 0 0 0-.1.01l-2.348.5a.494.494 0 1 0 .206.968l2.348-.5a.494.494 0 0 0-.106-.979ZM6.277 34.002a.494.494 0 0 0-.004.985l5.677.6a.494.494 0 1 0 .104-.984l-5.676-.6a.507.507 0 0 0-.1 0Zm63.1.043a.454.454 0 0 0-.1 0l-5.677.593a.494.494 0 1 0 .102.984l5.677-.592a.494.494 0 0 0-.002-.985ZM6.18 37.33a.494.494 0 1 0 0 .99h2.401a.494.494 0 1 0 0-.99h-2.4Zm60.886 0a.494.494 0 1 0 0 .99h2.4a.494.494 0 1 0 0-.99h-2.4Zm-55.02 2.698a.452.452 0 0 0-.1 0l-5.677.593a.494.494 0 1 0 .103.984l5.676-.592a.494.494 0 0 0-.002-.985Zm51.552.035a.494.494 0 0 0-.004.985l5.676.6a.494.494 0 1 0 .104-.985l-5.676-.6a.51.51 0 0 0-.1 0ZM9.217 43.406a.506.506 0 0 0-.1.01l-2.348.5a.494.494 0 1 0 .206.967l2.348-.498a.494.494 0 0 0-.106-.98Zm57.214.004a.494.494 0 0 0-.106.979l2.348.5a.494.494 0 1 0 .206-.969l-2.348-.499a.485.485 0 0 0-.1-.01Zm-53.259 1.95a.48.48 0 0 0-.195.022l-5.428 1.765a.494.494 0 1 0 .306.94l5.428-1.764a.494.494 0 0 0-.11-.964Zm49.3.017a.494.494 0 0 0-.111.964l5.426 1.768a.494.494 0 1 0 .307-.941L62.667 45.4a.495.495 0 0 0-.196-.023ZM11.1 49.224a.493.493 0 0 0-.192.043l-2.194.976a.494.494 0 1 0 .403.904l2.193-.976a.494.494 0 0 0-.21-.947Zm53.44.019a.494.494 0 0 0-.211.947l2.192.978a.494.494 0 1 0 .403-.904l-2.193-.978a.493.493 0 0 0-.192-.043Zm-49.17 1.072a.49.49 0 0 0-.282.066l-4.943 2.853a.494.494 0 1 0 .495.857l4.943-2.853a.494.494 0 0 0-.213-.923Zm44.907 0a.494.494 0 0 0-.213.923l4.943 2.853a.494.494 0 1 0 .495-.857l-4.943-2.853a.494.494 0 0 0-.282-.066Zm-46.14 4.188a.495.495 0 0 0-.273.094l-1.943 1.41a.494.494 0 1 0 .58.801l1.944-1.41a.494.494 0 0 0-.308-.895Zm47.36.016a.494.494 0 0 0-.308.895l1.943 1.412c.222.161.53.112.691-.11a.494.494 0 0 0-.11-.69l-1.942-1.412a.495.495 0 0 0-.273-.095Zm-42.959.171a.492.492 0 0 0-.357.127l-4.244 3.816a.494.494 0 1 0 .661.736l4.245-3.816a.494.494 0 0 0-.305-.863Zm38.559.014a.495.495 0 0 0-.306.862l4.242 3.819a.494.494 0 1 0 .663-.736l-4.242-3.818a.493.493 0 0 0-.357-.127Zm-34.532 3.625a.493.493 0 0 0-.417.204l-3.358 4.615a.494.494 0 1 0 .8.582l3.358-4.615a.494.494 0 0 0-.383-.786Zm30.49.02a.495.495 0 0 0-.385.786l3.352 4.62a.494.494 0 1 0 .8-.581l-3.35-4.62a.493.493 0 0 0-.418-.204Zm-34.824.713a.495.495 0 0 0-.342.164l-1.606 1.784a.494.494 0 1 0 .735.662l1.607-1.784a.494.494 0 0 0-.394-.826Zm39.182.003a.494.494 0 0 0-.394.826l1.607 1.784a.494.494 0 1 0 .735-.662l-1.606-1.785a.493.493 0 0 0-.342-.163Zm-30.16 1.979a.492.492 0 0 0-.46.293l-2.326 5.213a.494.494 0 1 0 .904.403l2.325-5.212a.494.494 0 0 0-.442-.697Zm21.109.014a.494.494 0 0 0-.444.696l2.318 5.216a.494.494 0 1 0 .905-.402l-2.318-5.216a.494.494 0 0 0-.461-.294Zm-25.194 1.598a.492.492 0 0 0-.394.246l-1.2 2.08a.494.494 0 1 0 .856.494l1.2-2.079a.494.494 0 0 0-.462-.741Zm29.311 0a.494.494 0 0 0-.463.742l1.2 2.078a.494.494 0 1 0 .858-.495l-1.2-2.079a.494.494 0 0 0-.395-.246Zm-20.048.074a.493.493 0 0 0-.487.392l-1.186 5.583a.494.494 0 1 0 .968.206l1.186-5.583a.494.494 0 0 0-.481-.598Zm10.768.004a.494.494 0 0 0-.481.597l1.181 5.583a.494.494 0 1 0 .969-.205l-1.183-5.583a.494.494 0 0 0-.486-.393Zm-5.376.563a.494.494 0 0 0-.494.495v5.707a.494.494 0 1 0 .99 0v-5.707a.494.494 0 0 0-.496-.495Zm-9.083 1.844a.494.494 0 0 0-.428.34l-.742 2.284a.494.494 0 1 0 .941.306l.742-2.284a.494.494 0 0 0-.513-.646Zm18.163.001a.494.494 0 0 0-.513.646l.741 2.284a.494.494 0 1 0 .942-.306l-.742-2.283a.494.494 0 0 0-.428-.34Zm-12.186 1.272a.494.494 0 0 0-.443.44l-.251 2.388a.494.494 0 1 0 .984.103l.251-2.387a.494.494 0 0 0-.54-.544Zm6.193.002a.494.494 0 0 0-.541.544l.249 2.388a.494.494 0 1 0 .984-.103l-.25-2.388a.494.494 0 0 0-.443-.44Z"/><path fill="#000" d="M61.015 18.032 33.943 33.76 16.826 60.708 41.867 42.16z" opacity=".409"/><path fill="#FF5150" d="m41.704 41.888-7.76-8.127 27.527-18.517z"/><path fill="#F1F1F1" d="m41.704 41.888-7.76-8.127-19.767 26.644z"/><path fill="#000" d="m14.177 60.405 27.527-18.517 19.767-26.644z" opacity=".243"/></g></svg>