<svg xmlns="http://www.w3.org/2000/svg" width="48" height="48" fill="none"><rect width="48" height="48" rx="10" fill="url(#a)"/><rect x=".5" y=".5" width="47" height="47" rx="9.5" stroke="#000" stroke-opacity=".08"/><g filter="url(#b)"><path fill-rule="evenodd" clip-rule="evenodd" d="M28 9.5A1.5 1.5 0 0 1 29.5 8h3.955c.506 0 .76 0 .973.015a6 6 0 0 1 5.557 5.557c.015.214.015.467.015.974V18.5a1.5 1.5 0 0 1-3 0v-4.125c0-.348 0-.522-.014-.67a3 3 0 0 0-2.692-2.69c-.147-.015-.32-.015-.669-.015H29.5A1.5 1.5 0 0 1 28 9.5Zm0 29a1.5 1.5 0 0 0 1.5 1.5h3.955c.506 0 .76 0 .973-.015a6 6 0 0 0 5.557-5.557c.015-.214.015-.467.015-.973V29.5a1.5 1.5 0 0 0-3 0v4.125c0 .348 0 .522-.014.67a3 3 0 0 1-2.692 2.69c-.147.015-.32.015-.669.015H29.5a1.5 1.5 0 0 0-1.5 1.5ZM18.5 40a1.5 1.5 0 0 0 0-3h-4.125c-.348 0-.522 0-.67-.014a3 3 0 0 1-2.69-2.692c-.015-.147-.015-.32-.015-.669V29.5a1.5 1.5 0 0 0-3 0v3.955c0 .506 0 .76.015.973a6 6 0 0 0 5.557 5.557c.214.015.467.015.974.015H18.5ZM20 9.5A1.5 1.5 0 0 0 18.5 8h-3.954c-.507 0-.76 0-.974.015a6 6 0 0 0-5.557 5.557C8 13.786 8 14.039 8 14.546V18.5a1.5 1.5 0 0 0 3 0v-4.125c0-.348 0-.522.014-.67a3 3 0 0 1 2.692-2.69c.147-.015.32-.015.669-.015H18.5A1.5 1.5 0 0 0 20 9.5Z" fill="#fff"/></g><defs><linearGradient id="a" x1="24" y1="0" x2="24" y2="48" gradientUnits="userSpaceOnUse"><stop stop-color="#59627A"/><stop offset="1" stop-color="#4A5266"/></linearGradient><filter id="b" x="6" y="7" width="36" height="36" filterUnits="userSpaceOnUse" color-interpolation-filters="sRGB"><feFlood flood-opacity="0" result="BackgroundImageFix"/><feColorMatrix in="SourceAlpha" values="0 0 0 0 0 0 0 0 0 0 0 0 0 0 0 0 0 0 127 0" result="hardAlpha"/><feOffset dy="1"/><feGaussianBlur stdDeviation="1"/><feComposite in2="hardAlpha" operator="out"/><feColorMatrix values="0 0 0 0 0 0 0 0 0 0 0 0 0 0 0 0 0 0 0.3 0"/><feBlend mode="overlay" in2="BackgroundImageFix" result="effect1_dropShadow_251_1215"/><feBlend in="SourceGraphic" in2="effect1_dropShadow_251_1215" result="shape"/></filter></defs></svg>