<svg width="138" height="48" viewBox="0 0 138 48" fill="none" xmlns="http://www.w3.org/2000/svg">
<g clip-path="url(#clip0_2384_11158)">
<path d="M48.0782 24C48.0782 37.2548 37.3331 48 24.0782 48C10.8234 48 0.0782521 37.2548 0.0782471 24C0.0782421 10.7452 10.8234 5e-06 24.0782 0C37.333 -4.99999e-06 48.0782 10.7452 48.0782 24Z" fill="url(#paint0_linear_2384_11158)"/>
<path fill-rule="evenodd" clip-rule="evenodd" d="M24.0787 11.0402C16.921 11.0402 11.1187 16.8426 11.1187 24.0002C11.1187 24.7026 11.1745 25.392 11.2821 26.0642C11.3532 26.523 11.6214 27.5181 12.1249 27.8275C12.7533 28.2136 13.4646 27.8817 14.0468 27.61L14.0496 27.6086C14.5158 27.3911 15.8846 26.7531 16.5107 26.4612C16.654 26.3899 17.0328 26.2942 17.401 26.4827C17.8613 26.7183 17.9964 27.2024 17.969 27.4909C17.9416 27.7795 17.7864 28.1606 17.3942 28.3423C17.0805 28.4877 15.2343 29.3481 14.3504 29.7602C14.1607 29.8335 13.7406 30.1083 13.578 30.621C13.3748 31.2618 13.6917 31.7563 13.8027 31.8985C13.8856 32.0114 14.1328 32.2637 14.458 32.3689C14.8645 32.5004 15.2135 32.4502 15.4861 32.3258C15.7042 32.2264 20.0303 30.2087 22.166 29.2124C22.306 29.143 22.6776 29.0524 23.0447 29.2452C23.5035 29.4862 23.6356 29.9403 23.6124 30.2207C23.5892 30.5011 23.434 30.9136 23.0516 31.092C22.7458 31.2348 19.9045 32.5578 18.5221 33.2014C18.2783 33.3118 17.7836 33.7004 17.7547 34.372C17.7186 35.2116 18.2993 35.6096 18.5423 35.7215C18.7342 35.8204 19.2389 35.9621 19.7227 35.7382C20.2066 35.5143 25.3488 33.1161 27.8594 31.9449C28.0083 31.8681 28.413 31.7689 28.7579 31.9449C29.2097 32.1755 29.3598 32.5689 29.3598 32.8665C29.3598 33.1641 29.3463 33.3823 28.8755 33.8041C28.4637 34.173 27.8594 34.536 25.8004 35.4135C25.0951 35.714 24.6146 35.9352 24.6936 36.3146C24.753 36.5998 24.9606 36.7083 25.6501 36.6771C26.3397 36.6459 29.4446 36.4022 32.5551 33.8041C35.3013 31.4277 37.0387 27.9168 37.0387 24.0002C37.0387 22.557 36.8028 21.1689 36.3674 19.8723C36.2194 19.9342 36.0569 19.9683 35.8865 19.9683C35.1972 19.9683 34.6385 19.4096 34.6385 18.7203C34.6385 18.2241 34.9281 17.7956 35.3475 17.5944C33.1174 13.6798 28.9063 11.0402 24.0787 11.0402ZM28.8788 19.2005C28.8788 19.8898 28.32 20.4485 27.6308 20.4485C26.9415 20.4485 26.3828 19.8898 26.3828 19.2005C26.3828 18.5113 26.9415 17.9525 27.6308 17.9525C28.32 17.9525 28.8788 18.5113 28.8788 19.2005Z" fill="white"/>
</g>
<path d="M65.9434 38.614C63.9143 38.614 62.0802 38.1587 60.4413 37.2482C58.8023 36.3117 57.5146 35.0109 56.578 33.346C55.6415 31.655 55.1732 29.7038 55.1732 27.4926C55.1732 25.3073 55.6545 23.3692 56.6171 21.6782C57.5796 19.9872 58.8934 18.6865 60.5583 17.776C62.2233 16.8654 64.0834 16.4102 66.1386 16.4102C68.1937 16.4102 70.0538 16.8654 71.7188 17.776C73.3837 18.6865 74.6975 19.9872 75.6601 21.6782C76.6226 23.3692 77.1039 25.3073 77.1039 27.4926C77.1039 29.6778 76.6096 31.616 75.621 33.3069C74.6325 34.9979 73.2797 36.3117 71.5627 37.2482C69.8717 38.1587 67.9986 38.614 65.9434 38.614ZM65.9434 34.7508C67.0881 34.7508 68.1547 34.4776 69.1433 33.9313C70.1579 33.385 70.9774 32.5655 71.6017 31.4729C72.2261 30.3802 72.5383 29.0535 72.5383 27.4926C72.5383 25.9317 72.2391 24.6179 71.6407 23.5513C71.0424 22.4587 70.2489 21.6392 69.2604 21.0929C68.2718 20.5466 67.2052 20.2734 66.0605 20.2734C64.9158 20.2734 63.8492 20.5466 62.8607 21.0929C61.8981 21.6392 61.1307 22.4587 60.5583 23.5513C59.986 24.6179 59.6998 25.9317 59.6998 27.4926C59.6998 29.8079 60.2852 31.6029 61.4558 32.8777C62.6525 34.1264 64.1484 34.7508 65.9434 34.7508Z" fill="black"/>
<path d="M89.6182 27.5316L99.53 38.2628H93.5205L85.5599 29.0144V38.2628H81.1113V9.38611H85.5599V26.1658L93.3644 16.7614H99.53L89.6182 27.5316Z" fill="black"/>
<path d="M107.518 20.3905V32.2923C107.518 33.0988 107.7 33.6841 108.065 34.0484C108.455 34.3866 109.105 34.5556 110.016 34.5556H112.747V38.2628H109.235C107.232 38.2628 105.697 37.7945 104.631 36.858C103.564 35.9214 103.031 34.3996 103.031 32.2923V20.3905H100.494V16.7614H103.031V11.4153H107.518V16.7614H112.747V20.3905H107.518Z" fill="black"/>
<path d="M125.784 38.614C123.754 38.614 121.92 38.1587 120.281 37.2482C118.642 36.3117 117.355 35.0109 116.418 33.346C115.482 31.655 115.013 29.7038 115.013 27.4926C115.013 25.3073 115.495 23.3692 116.457 21.6782C117.42 19.9872 118.734 18.6865 120.398 17.776C122.063 16.8654 123.924 16.4102 125.979 16.4102C128.034 16.4102 129.894 16.8654 131.559 17.776C133.224 18.6865 134.538 19.9872 135.5 21.6782C136.463 23.3692 136.944 25.3073 136.944 27.4926C136.944 29.6778 136.45 31.616 135.461 33.3069C134.473 34.9979 133.12 36.3117 131.403 37.2482C129.712 38.1587 127.839 38.614 125.784 38.614ZM125.784 34.7508C126.928 34.7508 127.995 34.4776 128.983 33.9313C129.998 33.385 130.818 32.5655 131.442 31.4729C132.066 30.3802 132.378 29.0535 132.378 27.4926C132.378 25.9317 132.079 24.6179 131.481 23.5513C130.883 22.4587 130.089 21.6392 129.101 21.0929C128.112 20.5466 127.045 20.2734 125.901 20.2734C124.756 20.2734 123.689 20.5466 122.701 21.0929C121.738 21.6392 120.971 22.4587 120.398 23.5513C119.826 24.6179 119.54 25.9317 119.54 27.4926C119.54 29.8079 120.125 31.6029 121.296 32.8777C122.493 34.1264 123.989 34.7508 125.784 34.7508Z" fill="black"/>
<defs>
<linearGradient id="paint0_linear_2384_11158" x1="24.0782" y1="0" x2="24.0782" y2="48" gradientUnits="userSpaceOnUse">
<stop stop-color="#6246F5"/>
<stop offset="0.493007" stop-color="#5166EE"/>
<stop offset="1" stop-color="#56B9F9"/>
</linearGradient>
<clipPath id="clip0_2384_11158">
<rect width="48" height="48" fill="white" transform="translate(0.0782471)"/>
</clipPath>
</defs>
</svg>
