<svg width="28" height="28" viewBox="0 0 28 28" fill="none" xmlns="http://www.w3.org/2000/svg">
<g clip-path="url(#clip0_1317_18200)">
<path d="M28 14C28 21.7319 21.732 28 14 28C6.26801 28 2.91666e-06 21.7319 0 14C-2.91666e-06 6.26803 6.26801 2.91666e-06 14 0C21.7319 -2.91666e-06 28 6.26803 28 14Z" fill="url(#paint0_linear_1317_18200)"/>
<path fill-rule="evenodd" clip-rule="evenodd" d="M13.9999 6.44C9.82467 6.44 6.43994 9.82473 6.43994 14C6.43994 14.4098 6.47254 14.8119 6.53529 15.204C6.57678 15.4717 6.73319 16.0521 7.02691 16.2326C7.39347 16.4579 7.80841 16.2642 8.14805 16.1057L8.14968 16.105C8.42164 15.978 9.22008 15.6059 9.58531 15.4356C9.66892 15.394 9.88984 15.3382 10.1046 15.4482C10.3731 15.5856 10.452 15.868 10.436 16.0363C10.42 16.2046 10.3294 16.4269 10.1007 16.5329C9.91769 16.6177 8.84072 17.1197 8.32511 17.36C8.21446 17.4028 7.96944 17.5631 7.87459 17.8621C7.75603 18.236 7.94089 18.5244 8.00563 18.6073C8.05401 18.6732 8.19818 18.8204 8.38787 18.8817C8.62499 18.9585 8.82863 18.9292 8.98764 18.8566C9.11484 18.7986 11.6384 17.6217 12.8842 17.0405C12.9659 17 13.1827 16.9471 13.3968 17.0596C13.6644 17.2002 13.7415 17.4651 13.728 17.6287C13.7145 17.7922 13.6239 18.0328 13.4008 18.1369C13.2224 18.2202 11.565 18.9919 10.7586 19.3674C10.6164 19.4318 10.3278 19.6584 10.311 20.0503C10.2899 20.54 10.6286 20.7722 10.7704 20.8374C10.8823 20.8951 11.1767 20.9778 11.459 20.8472C11.7413 20.7166 14.7409 19.3176 16.2054 18.6344C16.2922 18.5896 16.5283 18.5318 16.7295 18.6344C16.993 18.7689 17.0806 18.9984 17.0806 19.172C17.0806 19.3456 17.0727 19.4729 16.7981 19.7189C16.5579 19.9341 16.2054 20.1459 15.0043 20.6578C14.5929 20.8331 14.3126 20.9621 14.3587 21.1835C14.3933 21.3498 14.5144 21.4131 14.9166 21.3949C15.3189 21.3767 17.1301 21.2345 18.9445 19.7189C20.5465 18.3327 21.5599 16.2847 21.5599 14C21.5599 13.1581 21.4223 12.3484 21.1684 11.592C21.0821 11.6281 20.9873 11.648 20.8879 11.648C20.4859 11.648 20.1599 11.3221 20.1599 10.92C20.1599 10.6306 20.3288 10.3806 20.5734 10.2633C19.2725 7.97975 16.816 6.44 13.9999 6.44ZM16.7999 11.2C16.7999 11.6021 16.474 11.928 16.0719 11.928C15.6699 11.928 15.3439 11.6021 15.3439 11.2C15.3439 10.7979 15.6699 10.472 16.0719 10.472C16.474 10.472 16.7999 10.7979 16.7999 11.2Z" fill="white"/>
</g>
<defs>
<linearGradient id="paint0_linear_1317_18200" x1="14" y1="0" x2="14" y2="28" gradientUnits="userSpaceOnUse">
<stop stop-color="#6246F5"/>
<stop offset="0.493007" stop-color="#5166EE"/>
<stop offset="1" stop-color="#56B9F9"/>
</linearGradient>
<clipPath id="clip0_1317_18200">
<rect width="28" height="28" fill="white"/>
</clipPath>
</defs>
</svg>
