<?xml version="1.0" encoding="utf-8"?>
<svg xmlns="http://www.w3.org/2000/svg" fill="none" viewBox="0 0 240 240">
  <rect width="240" height="240" style="fill: rgb(255, 255, 255);"/>
  <path fill-rule="evenodd" d="M128.905 62.75c4.969 0 9.631.667 13.947 1.902C138.626 54.804 129.853 52 120.089 52c-9.783 0-18.572 2.815-22.788 12.71 4.285-1.279 8.926-1.96 13.879-1.96h17.725Zm-18.862 9.886C86.445 72.636 73 91.2 73 114.1v23.524c0 2.29 1.913 4.101 4.273 4.101h85.454c2.36 0 4.273-1.811 4.273-4.101V114.1c0-22.9-15.635-41.464-39.232-41.464h-17.725Zm9.924 41.67c8.259 0 14.954-6.696 14.954-14.955s-6.695-14.954-14.954-14.954-14.955 6.695-14.955 14.954 6.696 14.955 14.955 14.955ZM73 155.555c0-2.29 1.913-4.147 4.273-4.147h85.454c2.36 0 4.273 1.857 4.273 4.147v24.878c0 4.58-3.826 8.293-8.545 8.293h-76.91c-4.72 0-8.545-3.713-8.545-8.293v-24.878Z" clip-rule="evenodd" style="fill: rgb(227, 62, 63);"/>
</svg>