<svg width="301" height="432" viewBox="0 0 301 432" fill="none" xmlns="http://www.w3.org/2000/svg">
<path fill-rule="evenodd" clip-rule="evenodd" d="M213.499 36.4742C222.893 38.8106 221.76 30.7832 216.499 24C204.778 8.89034 183.159 0 150.499 0C117.839 0 96.2194 8.89034 84.4986 24C79.2367 30.7832 78.1043 38.8106 87.4986 36.4742C93.5148 34.9779 117.999 33 136.731 33H150.499H164.266C182.999 33 207.482 34.9779 213.499 36.4742ZM122.717 63.0001C48.171 63.0001 0 122.919 0 196.833V272.761C0 280.152 6.12556 286 13.6818 286H287.318C294.874 286 301 280.152 301 272.761V196.833C301 122.919 252.936 63.0001 177.373 63.0001H122.717ZM150.399 193.777C174.674 193.777 194.353 174.078 194.353 149.777C194.353 125.477 174.674 105.777 150.399 105.777C126.124 105.777 106.445 125.477 106.445 149.777C106.445 174.078 126.124 193.777 150.399 193.777ZM0 328.889C0 321.771 6.12556 316 13.6818 316H287.318C294.874 316 301 321.771 301 328.889V406.222C301 420.459 288.749 432 273.636 432H27.3636C12.2511 432 0 420.459 0 406.222V328.889Z" fill="#E33E3F"/>
</svg>
