<?xml version="1.0" encoding="utf-8"?>
<svg xmlns="http://www.w3.org/2000/svg" width="139px" height="64px" viewBox="0 0 240 240" fill="none">
  <rect x="-13.415" y="-5.596" width="273.812" height="252.22" style="fill-rule: nonzero; fill: rgb(255, 255, 255); paint-order: stroke markers;"/>
  <path fill-rule="evenodd" clip-rule="evenodd" d="M 128.904 62.693 C 133.874 62.693 138.537 63.356 142.852 64.585 C 138.627 54.789 129.853 52 120.089 52 C 110.306 52 101.518 54.8 97.302 64.643 L 101.586 63.372 L 106.228 62.693 L 111.179 62.693 L 128.904 62.693 Z M 110.043 72.528 C 86.445 72.528 73 90.993 73 113.771 L 73 137.171 C 73 139.449 74.914 141.251 77.273 141.251 L 162.727 141.251 C 165.088 141.251 167 139.449 167 137.171 L 167 113.771 C 167 90.993 151.365 72.528 127.768 72.528 L 110.043 72.528 Z M 119.968 113.974 C 128.226 113.974 134.922 107.315 134.922 99.099 C 134.922 90.884 128.226 84.224 119.968 84.224 C 111.707 84.224 105.013 90.884 105.013 99.099 C 105.013 107.315 111.707 113.974 119.968 113.974 Z M 73 155.004 C 73 152.726 74.914 150.88 77.273 150.88 L 162.727 150.88 C 165.088 150.88 167 152.726 167 155.004 L 167 179.751 C 167 184.306 163.175 188 158.455 188 L 81.545 188 C 76.827 188 73 184.306 73 179.751 L 73 155.004 Z" fill="#E33E3F"/>
</svg>