<svg width="109" height="109" viewBox="0 0 109 109" fill="none" xmlns="http://www.w3.org/2000/svg">
<path d="M107.018 18.866C106.178 14.7366 104.128 10.9507 101.128 7.99129C98.1411 5.04799 94.4059 2.97757 90.3269 2.00407C85.0168 1.16663 79.6469 0.766139 74.2713 0.806621H34.3891C29.0234 0.73588 23.6612 1.11189 18.358 1.93075C14.2508 2.84959 10.4936 4.92754 7.5321 7.91798C4.59108 10.8898 2.53495 14.6213 1.59375 18.695C0.755449 24.0378 0.35497 29.4402 0.396304 34.8483V74.7305C0.33846 80.0967 0.722615 85.4585 1.54487 90.7616C2.39076 94.9011 4.44945 98.6952 7.45879 101.661C10.443 104.6 14.1669 106.678 18.2358 107.672C23.564 108.493 28.9493 108.886 34.3402 108.845H74.1003C79.4664 108.903 84.8283 108.519 90.1314 107.697C94.2496 106.807 98.0147 104.725 100.957 101.71C103.913 98.749 105.972 95.013 106.896 90.9327C107.733 85.6061 108.133 80.2201 108.093 74.8283V34.8972C108.15 29.5337 107.79 24.1739 107.018 18.866ZM54.7456 80.8155C37.6393 82.2573 21.7793 72.2379 20.5329 56.6711C19.3844 43.8413 27.571 38.3184 34.047 37.8297C36.9344 37.4108 39.8715 38.1335 42.2348 39.8445C44.5982 41.5554 46.2019 44.1199 46.7057 46.9938C47.17 52.1013 43.8465 54.5206 41.5249 54.6916C40.5262 54.8262 39.5144 54.5676 38.7028 53.9703C37.8912 53.373 37.3434 52.4838 37.175 51.4903C37.0039 49.5109 37.8104 49.2421 37.566 47.1648C37.506 46.5226 37.3092 45.9007 36.989 45.3408C36.6687 44.781 36.2324 44.2961 35.7092 43.9188C35.1861 43.5415 34.5883 43.2805 33.956 43.1533C33.3236 43.0262 32.6714 43.0358 32.0431 43.1815C29.8437 43.3526 25.787 45.8941 26.3002 52.1746C26.8134 58.455 33.1428 63.5136 41.3538 62.7561C45.6018 62.4458 49.5724 60.5302 52.4592 57.3983C55.3459 54.2665 56.9323 50.1533 56.8962 45.8941C56.896 45.4012 57.0133 44.9153 57.2383 44.4767C57.3415 44.3065 57.4558 44.1432 57.5804 43.988C57.7993 43.645 58.0532 43.3256 58.338 43.0349L59.1444 42.2284C63.0056 38.7094 77.0328 30.254 90.2047 32.8933C90.3005 32.8661 90.4021 32.8661 90.4979 32.8933C91.0111 32.8933 91.3044 33.2354 91.3533 33.7486C93.4305 64.5889 73.0495 79.2026 54.7456 80.8155Z" fill="url(#paint0_linear)"/>
<path d="M54.7453 80.8155C37.6389 82.2573 21.7789 72.2379 20.5325 56.6711C19.384 43.8413 27.5706 38.3184 34.0466 37.8296C36.934 37.4108 39.8711 38.1335 42.2344 39.8445C44.5978 41.5554 46.2015 44.1199 46.7053 46.9938C47.1696 52.1012 43.8461 54.5206 41.5245 54.6916C40.5258 54.8262 39.514 54.5676 38.7024 53.9703C37.8908 53.373 37.343 52.4838 37.1746 51.4903C37.0035 49.5108 37.81 49.242 37.5656 47.1648C37.5056 46.5226 37.3088 45.9007 36.9886 45.3408C36.6683 44.7809 36.232 44.2961 35.7088 43.9188C35.1857 43.5415 34.5879 43.2805 33.9556 43.1533C33.3232 43.0261 32.671 43.0357 32.0427 43.1815C29.8433 43.3526 25.7866 45.8941 26.2998 52.1745C26.813 58.455 33.1424 63.5136 41.3534 62.756C45.6014 62.4458 49.572 60.5301 52.4588 57.3983C55.3455 54.2665 56.9319 50.1532 56.8958 45.8941C56.8956 45.4011 57.0129 44.9153 57.2379 44.4767C57.3411 44.3064 57.4554 44.1432 57.58 43.9879C57.7989 43.6449 58.0528 43.3255 58.3376 43.0349L59.144 42.2284C63.0052 38.7094 77.0324 30.254 90.2043 32.8932C90.3001 32.8661 90.4017 32.8661 90.4975 32.8932C91.0107 32.8932 91.304 33.2354 91.3529 33.7486C93.4301 64.5889 73.0491 79.2026 54.7453 80.8155Z" fill="white"/>
<defs>
<linearGradient id="paint0_linear" x1="105.161" y1="4.22789" x2="0.249664" y2="108.43" gradientUnits="userSpaceOnUse">
<stop stop-color="#11C4D1"/>
<stop offset="1" stop-color="#0062AD"/>
</linearGradient>
</defs>
</svg>
