<svg width="600" height="600" fill="none" xmlns="http://www.w3.org/2000/svg"><path fill="#000" d="M0 0h600v600H0z"/><path d="M470.747 209.191a87.36 87.36 0 0 0-38.939-38.938C413.337 161 389.233 161 341.006 161h-82.012c-48.138 0-72.332 0-90.803 9.253a87.223 87.223 0 0 0-38.921 38.938c-9.271 18.471-9.27 42.576-9.27 90.785 0 48.209-.001 72.332 9.27 90.802a87.223 87.223 0 0 0 38.921 38.938c18.471 9.254 42.593 9.254 90.803 9.254h82.012c48.138 0 72.331 0 90.802-9.254a87.356 87.356 0 0 0 38.939-38.938C480 372.308 480 348.203 480 299.976c0-48.227 0-72.314-9.253-90.785Z" fill="#FFCEAA"/><path d="M218.557 350.342a26.737 26.737 0 0 0-23.766-14.601h-28.044a20.535 20.535 0 0 0-19.444 14.223 20.527 20.527 0 0 0-.881 8.473c.963 9.039 2.532 15.903 5.153 21.127a62.81 62.81 0 0 0 27.813 27.813c8.807 4.421 22.286 5.883 43.056 6.365a17.152 17.152 0 0 0 15.672-24.961l-19.559-38.439ZM180.618 312.563a57.447 57.447 0 0 0 47.05-24.497l27.188-38.813a51.319 51.319 0 0 0 5.563-48.637v-.232a23.035 23.035 0 0 0-18.434-14.406c-32.253.107-51.259.909-62.58 6.597a62.152 62.152 0 0 0-27.813 27.795c-4.867 9.877-6.365 37.637-6.722 60.137a31.548 31.548 0 0 0 9.053 22.672 31.537 31.537 0 0 0 22.522 9.42l4.173-.036ZM449.702 220.356a62.562 62.562 0 0 0-27.796-27.742c-12.016-6.026-32.644-6.561-68.569-6.614-48.673 0-63.809 56-74.203 70.834l-30.578 43.663a47.303 47.303 0 0 0-3.458 48.494l22.66 44.822a36.673 36.673 0 0 0 33.109 20.165h41.416c42.789 0 66.43-.001 79.623-6.597a62.688 62.688 0 0 0 27.796-27.813c6.615-13.194 6.614-36.781 6.614-79.624 0-42.843.001-66.323-6.614-79.588Z" fill="#FF3B9A"/></svg>