<svg width="100" height="100" viewBox="0 0 100 100" fill="none" xmlns="http://www.w3.org/2000/svg">
<g id="symbol">
<circle id="Ellipse 1" cx="50" cy="50" r="45" fill="white"/>
<path id="seif symbol" fill-rule="evenodd" clip-rule="evenodd" d="M50 100C77.6142 100 100 77.6142 100 50C100 22.3858 77.6142 0 50 0C22.3858 0 0 22.3858 0 50C0 77.6142 22.3858 100 50 100ZM64.9959 47.9594C64.9649 47.8342 64.9267 47.706 64.8807 47.5741C62.1247 39.6809 54.644 34.6281 46.2914 35.0219C39.9731 35.3125 34.0673 38.9685 30.88 44.565C30.3738 45.4461 29.9519 46.3461 29.6145 47.2554C29.0051 48.8865 28.6208 50.5927 28.4895 52.3082C28.4848 52.355 28.4802 52.3996 28.4755 52.4441C28.4732 52.466 28.4709 52.4879 28.4686 52.5101C28.4662 52.533 28.4638 52.5562 28.4614 52.58C28.302 55.0736 28.6489 57.5484 29.4738 59.9201C32.1643 67.6446 37.0671 74.3285 43.6385 79.2501C44.3134 79.7563 45.1009 80 45.8789 80C47.0226 80 48.1475 79.4844 48.8787 78.5001C50.1255 76.8409 49.7787 74.4879 48.1288 73.2505C42.7479 69.2195 38.7451 63.7636 36.5515 57.4547C36.0827 56.0954 35.8671 54.6893 35.9328 53.2644C35.9328 53.2256 35.9378 53.1868 35.9426 53.1494C35.9471 53.1143 35.9515 53.0804 35.9515 53.0487C36.0171 51.9801 36.2421 50.9114 36.6358 49.8896C36.8327 49.3552 37.0952 48.8209 37.3952 48.2772C39.3169 44.9024 42.8604 42.6901 46.6383 42.5213C51.6723 42.287 56.1438 45.3149 57.8031 50.049C57.8163 50.0868 57.83 50.1238 57.8442 50.16C58.1233 51.9723 59.6896 53.36 61.58 53.36C63.6676 53.36 65.36 51.6676 65.36 49.58C65.36 49 65.2293 48.4505 64.9959 47.9594ZM44.8009 20.0791C59.9678 19.0431 74.0009 28.2663 79.0267 42.5397C79.266 43.0358 79.4002 43.5922 79.4002 44.18C79.4002 46.2676 77.7078 47.96 75.6202 47.96C73.7783 47.96 72.2442 46.6427 71.9085 44.8988C67.962 33.8626 57.0496 26.7417 45.3165 27.5599C38.0795 28.0567 31.2925 31.6471 26.6803 37.4123C25.3866 39.0341 23.0337 39.2966 21.4119 38.0029C19.7901 36.7092 19.5277 34.3563 20.8213 32.7345C26.7365 25.3288 35.4734 20.726 44.8009 20.0791ZM77.5359 70.8506C74.5924 71.9473 71.5176 72.5004 68.3866 72.5004L68.3772 72.5098C57.2311 72.5098 47.2849 65.4697 43.6289 54.9892C42.9446 53.0393 43.9758 50.9019 45.935 50.2176C47.8849 49.5333 50.0222 50.5645 50.7065 52.5237C53.3126 59.9951 60.409 65.0103 68.3772 65.0103C70.6176 65.0103 72.8112 64.6166 74.9205 63.8292C76.861 63.1073 79.0171 64.0917 79.7389 66.0321C80.4607 67.9726 79.4764 70.1287 77.5359 70.8506Z" fill="url(#paint0_linear_4324_4334)"/>
</g>
<defs>
<linearGradient id="paint0_linear_4324_4334" x1="50" y1="0" x2="50" y2="100" gradientUnits="userSpaceOnUse">
<stop stop-color="#EB4153"/>
<stop offset="1" stop-color="#DD1F33"/>
</linearGradient>
</defs>
</svg>
