<svg width="32" height="32" viewBox="0 0 32 32" fill="none" xmlns="http://www.w3.org/2000/svg">
<circle cx="16" cy="16" r="16" fill="#101102"/>
<path fill-rule="evenodd" clip-rule="evenodd" d="M19.0344 19.9121C17.2698 19.9121 15.3498 18.1138 15.3498 15.2399H11.7031C11.7031 19.5408 14.7151 23.5588 19.0344 23.5588C23.3537 23.5588 26.3657 19.5408 26.3657 15.2399C26.3657 10.9389 23.3537 6.9209 19.0344 6.9209V10.5676C20.799 10.5676 22.7191 12.3659 22.7191 15.2399C22.7191 18.1138 20.799 19.9121 19.0344 19.9121ZM12.9577 12.0863C14.7223 12.0863 16.6424 13.8847 16.6424 16.7586H20.289C20.289 12.4577 17.277 8.43967 12.9577 8.43967C8.6384 8.43967 5.6264 12.4577 5.6264 16.7586C5.6264 21.0595 8.63839 25.0776 12.9577 25.0776L12.9577 21.4309C11.1931 21.4309 9.27307 19.6326 9.27307 16.7586C9.27307 13.8847 11.1931 12.0863 12.9577 12.0863Z" fill="#EEF455"/>
</svg>
