<svg width="64" height="64" viewBox="0 0 64 64" fill="none" xmlns="http://www.w3.org/2000/svg">
    <path
        d="M21.9317 45.9998H26.1154C27.828 46.0091 29.1533 47.5095 29.0204 49.2152L28.205 59.743C29.4462 59.9112 30.7127 60 32 60C33.2874 60 34.5538 59.9112 35.7951 59.743L34.9797 49.2152C34.8467 47.5095 36.172 46.0091 37.8847 45.9998H42.0684C50.55 45.9998 57.942 40.2271 60 31.9996C57.7621 34.2405 54.725 35.4997 51.558 35.4997H41.4189C39.8702 35.4997 38.3848 36.1149 37.2897 37.21L33.6497 40.85C32.7397 41.7624 31.2604 41.7624 30.3504 40.85L26.7093 37.2089C25.6148 36.1145 24.1305 35.4997 22.5827 35.4997H12.4499C9.28061 35.4997 6.24109 34.2407 4 31.9996C6.05802 40.2271 13.45 45.9998 21.9317 45.9998ZM19.9964 57.3003C20.4771 57.529 20.9647 57.7437 21.4594 57.9467C20.9647 57.7459 20.4771 57.5313 19.9964 57.3003ZM17.6561 56.0473C17.7728 56.1196 17.8917 56.1873 18.0084 56.2573C17.8801 56.1826 17.7517 56.1079 17.6257 56.031C17.6351 56.038 17.6468 56.0426 17.6561 56.0473ZM14.9448 54.204C14.9202 54.185 14.8966 54.1649 14.872 54.1458C14.8909 54.1605 14.9092 54.1752 14.9285 54.1899C14.933 54.1946 14.9378 54.1993 14.9448 54.204ZM14.3474 53.7279C14.3444 53.7254 14.3413 53.7228 14.3382 53.7203C14.5149 53.8638 14.6918 54.0067 14.872 54.1458C14.8126 54.0999 14.7535 54.0539 14.6952 54.0079C14.5785 53.9146 14.4618 53.8236 14.3474 53.7279ZM14.0045 53.4456C13.953 53.4025 13.903 53.3587 13.8523 53.3154C14.0129 53.452 14.1745 53.5873 14.3382 53.7203C14.227 53.6295 14.1157 53.5387 14.0045 53.4456ZM13.6661 53.1562C13.6546 53.1464 13.6432 53.1357 13.6317 53.1257C13.7049 53.1894 13.7783 53.2526 13.8523 53.3154C13.7903 53.2625 13.7278 53.2101 13.6661 53.1562ZM15.0334 54.2716C15.0031 54.2483 14.9728 54.2249 14.9448 54.204C14.9853 54.2356 15.027 54.2654 15.0678 54.2968C15.0563 54.2884 15.0449 54.2799 15.0334 54.2716ZM16.1161 55.0579C15.7594 54.816 15.4112 54.561 15.0678 54.2968C15.0913 54.314 15.1149 54.3313 15.1385 54.3487C15.2854 54.4605 15.4324 54.5703 15.5818 54.6776C15.682 54.7522 15.7824 54.8246 15.8851 54.8946C16.0275 54.9973 16.1721 55.0977 16.3191 55.1956L16.4941 55.3146C16.3751 55.2376 16.2537 55.156 16.1371 55.0719C16.1301 55.0672 16.1231 55.0626 16.1161 55.0579ZM16.7578 55.4873C16.6691 55.4336 16.5804 55.3753 16.4941 55.3146C16.5104 55.3239 16.5244 55.3333 16.5385 55.3426C16.6108 55.3916 16.6854 55.4406 16.7578 55.4873ZM16.9608 55.6179C16.9934 55.639 17.0237 55.6576 17.0564 55.6786C16.9932 55.639 16.9292 55.6004 16.8674 55.5595C16.8978 55.5782 16.9304 55.5993 16.9608 55.6179ZM22.8897 52.8389L22.4628 58.3317C17.0775 56.3786 12.4621 52.8202 9.19313 48.2375C12.9241 50.5336 17.3015 51.8332 21.9308 51.8332H21.9588C22.5025 51.8332 22.9318 52.2952 22.8897 52.8389ZM54.8121 48.2399C54.6068 48.5269 54.3991 48.8092 54.1844 49.0868C51.5011 52.5635 48.0198 55.3939 44.0135 57.3003C44.0135 57.3019 44.0127 57.3019 44.0111 57.3003C43.5304 57.529 43.0428 57.7437 42.5481 57.9467H42.5458C42.2145 58.082 41.8808 58.2103 41.5448 58.3317L41.1178 52.8389C41.0757 52.2952 41.5051 51.8332 42.0487 51.8332H42.0744C46.7037 51.8332 51.0811 50.5336 54.8121 48.2399ZM44.0111 57.3003C43.5304 57.529 43.0428 57.7437 42.5481 57.9467C43.0428 57.7459 43.5304 57.5313 44.0111 57.3003ZM54.1844 49.0868C51.5058 52.5659 48.0221 55.3963 44.0135 57.3003C48.0198 55.3939 51.5011 52.5635 54.1844 49.0868ZM59.0378 24.7078L58.1885 25.5595C55.5611 28.1892 51.9981 29.6662 48.2811 29.6662H41.4193C39.8708 29.6662 38.3539 29.9739 36.9503 30.5551C35.5473 31.1364 34.2577 31.9916 33.1635 33.087L32.8298 33.4206C32.6013 33.6489 32.3019 33.7628 32.0026 33.7626C31.7033 33.7628 31.4039 33.6489 31.1755 33.4206L30.8417 33.087C29.7475 31.9916 28.4579 31.1364 27.0549 30.5551C25.6513 29.9739 24.1344 29.6662 22.5859 29.6662H15.7241C12.0071 29.6662 8.44414 28.1892 5.81675 25.5595L4.96738 24.7078C5.10296 24.2027 5.25244 23.7032 5.41525 23.2098C6.55457 19.7562 8.34844 16.6017 10.6515 13.8904L10.6527 13.8916C10.6531 13.8912 10.6534 13.8908 10.6537 13.8904C13.2815 16.5212 16.8473 17.9994 20.5657 17.9994H22.5864C25.7108 17.9994 28.7441 18.6084 31.5464 19.7728C31.6932 19.8344 31.848 19.8653 32.0026 19.8654C32.1572 19.8653 32.312 19.8344 32.4588 19.7728C35.2611 18.6084 38.2944 17.9994 41.4188 17.9994H43.4395C47.1579 17.9994 50.7237 16.5212 53.3515 13.8904C53.3518 13.8908 53.3521 13.8912 53.3525 13.8916L53.3537 13.8904C55.6568 16.6017 57.4506 19.7562 58.59 23.2098C58.7528 23.7032 58.9022 24.2027 59.0378 24.7078ZM48.9961 9.74945C46.8027 11.3105 44.1521 12.1668 41.4198 12.1668H41.4151C38.3001 12.1668 35.2667 12.6451 32.3618 13.5925C32.1261 13.6695 31.8718 13.6695 31.6361 13.5925C30.1824 13.1188 28.6984 12.7618 27.1864 12.5238C25.6744 12.2858 24.1368 12.1668 22.5781 12.1668C19.848 12.1668 17.2045 11.3105 15.0088 9.74711C15.0088 9.744 15.0095 9.74322 15.0111 9.74478C19.722 6.13974 25.6114 4 32.0001 4C38.3911 4 44.2828 6.14201 48.9938 9.74711C48.9961 9.74711 48.9961 9.74945 48.9961 9.74945Z"
        fill="#35DBCE" />
</svg>
    