<svg width="548" height="548" viewBox="0 0 548 548" fill="none" xmlns="http://www.w3.org/2000/svg">
<rect width="548" height="548" fill="#f8f8f8"/>
<path d="M223.98 141.338C223.975 137.595 224.384 133.864 225.2 130.212C227.676 119.107 233.856 109.176 242.725 102.05C251.594 94.9239 262.623 91.0274 274 91.001H141.094C134.501 91.0138 127.975 92.3255 121.889 94.8612C115.802 97.3968 110.276 101.107 105.624 105.779C100.972 110.451 97.2861 115.994 94.7771 122.091C92.2681 128.189 90.9849 134.72 91.0009 141.314C90.9817 147.909 92.2625 154.443 94.7701 160.543C97.2777 166.643 100.963 172.189 105.615 176.864C110.267 181.539 115.795 185.251 121.883 187.788C127.971 190.325 134.499 191.638 141.094 191.65H274C260.697 191.605 247.956 186.281 238.577 176.847C229.198 167.413 223.948 154.641 223.98 141.338Z" fill="#5746DB"/>
<path d="M405.736 91.001H272.83C261.453 91.0274 250.424 94.9239 241.555 102.05C232.687 109.176 226.506 119.107 224.031 130.212C222.346 137.557 222.337 145.187 224.002 152.537C225.668 159.886 228.967 166.766 233.654 172.667C238.341 178.568 244.296 183.339 251.078 186.625C257.86 189.911 265.294 191.629 272.83 191.65H405.663C412.263 191.647 418.797 190.343 424.891 187.811C430.986 185.28 436.521 181.571 441.181 176.898C445.84 172.225 449.533 166.679 452.046 160.577C454.56 154.475 455.845 147.937 455.829 141.338C455.849 134.743 454.568 128.208 452.06 122.108C449.553 116.008 445.867 110.463 441.215 105.788C436.563 101.113 431.035 97.4007 424.947 94.8635C418.86 92.3263 412.332 91.0138 405.736 91.001Z" fill="#7767F6"/>
<path d="M265.826 273.997C265.813 267.403 267.099 260.871 269.611 254.773C272.123 248.676 275.811 243.133 280.464 238.461C285.118 233.789 290.647 230.08 296.734 227.545C302.822 225.009 309.349 223.698 315.943 223.685H140.557C134.036 223.698 127.582 224.995 121.563 227.502C115.543 230.009 110.077 233.677 105.475 238.297C100.873 242.917 97.2266 248.398 94.7431 254.427C92.2596 260.456 90.988 266.916 91.0008 273.436V275.339C91.1168 288.395 96.3929 300.875 105.677 310.054C114.962 319.233 127.501 324.367 140.557 324.334H315.943C302.623 324.302 289.861 318.981 280.463 309.542C271.065 300.103 265.8 287.317 265.826 273.997Z" fill="#5746DB"/>
<path d="M407.444 223.666H315.944C302.624 223.698 289.862 229.019 280.464 238.458C271.066 247.897 265.801 260.683 265.827 274.003C265.814 280.597 267.1 287.129 269.612 293.227C272.124 299.324 275.812 304.867 280.465 309.539C285.119 314.211 290.648 317.92 296.735 320.456C302.823 322.991 309.35 324.302 315.944 324.315H407.444C420.498 324.354 433.037 319.226 442.322 310.051C451.607 300.875 456.884 288.398 457 275.345V273.442C457.026 260.27 451.82 247.628 442.527 238.294C433.234 228.96 420.615 223.698 407.444 223.666Z" fill="#7767F6"/>
<path d="M409.734 356.35H274.364C267.77 356.366 261.243 357.68 255.157 360.219C249.07 362.757 243.544 366.469 238.892 371.143C234.241 375.818 230.555 381.362 228.047 387.461C225.538 393.559 224.255 400.092 224.271 406.687C224.271 407.305 224.271 407.915 224.271 408.517C224.271 408.834 224.271 409.151 224.271 409.468C224.655 416.392 226.46 423.164 229.575 429.36C232.69 435.556 237.047 441.044 242.376 445.482C243.572 446.48 244.818 447.416 246.109 448.288C247.06 448.947 248.036 449.582 249.061 450.167C250.942 451.264 252.89 452.242 254.893 453.095C261.016 455.679 267.596 457.006 274.242 456.999C338.609 456.999 392.264 423.132 421.08 384.019C422.154 382.555 423.203 381.091 424.252 379.603C425.312 377.403 425.862 374.993 425.863 372.551C425.863 368.267 424.166 364.157 421.143 361.121C418.121 358.084 414.019 356.369 409.734 356.35Z" fill="#7767F6"/>
<path d="M249.183 450.166C248.158 449.58 247.182 448.946 246.231 448.287C244.94 447.415 243.694 446.478 242.498 445.481C237.169 441.043 232.812 435.554 229.697 429.358C226.582 423.162 224.777 416.391 224.393 409.467C224.393 409.15 224.393 408.832 224.393 408.515C224.393 408.198 224.393 407.295 224.393 406.685C224.377 400.091 225.66 393.558 228.169 387.46C230.677 381.361 234.363 375.816 239.014 371.142C243.666 366.468 249.192 362.756 255.279 360.217C261.365 357.679 267.892 356.364 274.486 356.348L140.433 355.787H138.579C134.431 356 130.524 357.797 127.663 360.807C124.803 363.818 123.207 367.811 123.207 371.964C123.208 374.864 123.983 377.711 125.451 380.211L127.281 382.651C144.149 405.727 166.232 424.49 191.729 437.41C217.225 450.33 245.414 457.042 273.998 456.998H274.266C267.62 457.005 261.04 455.678 254.917 453.094C252.947 452.237 251.032 451.259 249.183 450.166Z" fill="#5746DB"/>
</svg>
