<svg id="Layer_1" data-name="Layer 1" xmlns="http://www.w3.org/2000/svg" xmlns:xlink="http://www.w3.org/1999/xlink" viewBox="0 0 70.074 70.089"><defs><linearGradient id="New_Gradient_Swatch_1" x1="66.493" y1="3.581" x2="4.549" y2="65.525" gradientUnits="userSpaceOnUse"><stop offset="0" stop-color="#f1d961"/><stop offset="1" stop-color="#cda146"/></linearGradient></defs><title>Coin98</title><rect x="0.009" y="0.009" width="70.056" height="70.056" rx="12.791" fill="url(#New_Gradient_Swatch_1)"/><path d="M23.594,17.5a10.941,10.941,0,1,0,10.95,10.95A10.956,10.956,0,0,0,23.594,17.5Zm0,17.4a6.456,6.456,0,1,1,6.456-6.455A6.477,6.477,0,0,1,23.594,34.9ZM55.848,26.86a9.21,9.21,0,0,1-1.15,4.477,12.567,12.567,0,0,0-3.928-2.165,4.93,4.93,0,0,0,.584-2.312,4.871,4.871,0,0,0-9.742,0,4.726,4.726,0,0,0,.584,2.312,12.583,12.583,0,0,0-3.929,2.165A9.349,9.349,0,0,1,46.486,17.5,9.372,9.372,0,0,1,55.848,26.86Zm-9.362,3.788A10.941,10.941,0,1,0,57.418,41.6,10.963,10.963,0,0,0,46.486,30.648Zm0,17.388A6.447,6.447,0,1,1,52.941,41.6,6.455,6.455,0,0,1,46.486,48.036Zm-13.53-4.868a9.365,9.365,0,0,1-18.73,0H18.72a4.871,4.871,0,1,0,9.742,0Z" fill="#252525"/></svg>