<?xml version="1.0" encoding="UTF-8"?>
<svg version="1.1" xmlns="http://www.w3.org/2000/svg" width="800" height="800">
<path d="M0 0 C264 0 528 0 800 0 C800 264 800 528 800 800 C536 800 272 800 0 800 C0 536 0 272 0 0 Z " fill="#070B34" transform="translate(0,0)"/>
<path d="M0 0 C6.29834998 5.74255167 12.37006094 11.67881857 18.37221146 17.72722244 C20.07818264 19.4462021 21.78747258 21.16182334 23.49755859 22.87670898 C27.1242495 26.51470494 30.7469517 30.15665617 34.36904907 33.79922485 C38.5797377 38.03366085 42.79212498 42.26637911 47.00876999 46.49488449 C48.67910641 48.1716231 50.3463635 49.8513806 52.01348877 51.53131104 C56.86247507 56.40337551 61.74980257 61.16077035 66.97888184 65.62945557 C69.89745023 68.18361288 72.58690052 70.95147663 75.29092407 73.72891235 C76.47684017 74.93231515 77.66304623 76.13543224 78.84951782 77.33828735 C80.68500885 79.20490514 82.51801398 81.07378999 84.34609985 82.94766235 C86.13351153 84.77730382 87.93016072 86.59744417 89.72842407 88.41641235 C90.27327454 88.97988373 90.818125 89.5433551 91.37948608 90.12390137 C94.10292699 92.86562934 95.949651 94.4569129 99.74404907 95.17422485 C100.1075647 94.37178345 100.1075647 94.37178345 100.47842407 93.5531311 C102.07312509 90.55568383 104.00700659 87.85552955 105.99404907 85.11172485 C106.4287854 84.50739624 106.86352173 83.90306763 107.31143188 83.28042603 C113.38640026 74.86119721 119.5717502 66.52215551 125.74404907 58.17422485 C132.62038 48.87150724 139.48154808 39.56013642 146.24404907 30.17422485 C147.31173783 28.69895027 148.37944628 27.22368994 149.44717407 25.7484436 C151.76991427 22.53615819 154.06588033 19.30618098 156.35342407 16.0687561 C157.56657297 14.37446438 158.78010505 12.68044696 159.99404907 10.98672485 C160.80712524 9.81980103 160.80712524 9.81980103 161.6366272 8.62930298 C167.6247239 0.33532067 174.52531001 -5.64985671 184.74404907 -7.82577515 C190.77317252 -8.28392737 196.78936495 -8.26748072 202.8331604 -8.26156616 C204.66721712 -8.27055274 206.50126819 -8.28076304 208.33531189 -8.292099 C213.29826691 -8.31851065 218.26106658 -8.3256287 223.22408509 -8.32754636 C226.32970609 -8.32968389 229.43528802 -8.3360982 232.54089928 -8.34403801 C243.38932157 -8.37176154 254.23763354 -8.38404719 265.08609009 -8.38168335 C275.17628553 -8.37988153 285.26599955 -8.41153559 295.3560732 -8.45891434 C304.03834654 -8.49822052 312.72046301 -8.51423173 321.40282458 -8.51231712 C326.57990294 -8.51155454 331.75655304 -8.51997591 336.93354225 -8.55185127 C341.80527123 -8.58103068 346.67616649 -8.58104083 351.54792595 -8.55930138 C353.32800651 -8.55618066 355.10814025 -8.56315229 356.88813019 -8.58138275 C370.07672247 -8.70762949 379.37117914 -6.66422885 389.74404907 2.17422485 C396.24730734 11.07032985 398.79280103 19.18275948 397.74404907 30.17422485 C395.96924959 38.92910821 391.52176957 45.4307343 384.74404907 51.17422485 C375.46906148 57.03211176 367.43721891 58.31325273 356.69961548 58.37954712 C355.70387512 58.38944672 354.70813477 58.39934631 353.68222046 58.4095459 C350.4033747 58.44103774 347.12451448 58.46586954 343.84561157 58.4906311 C341.56731803 58.51121127 339.28902821 58.53220802 337.01074219 58.55360413 C331.02343775 58.60871505 325.03609948 58.65817267 319.04873657 58.70645142 C312.93542481 58.75674671 306.82216198 58.81239083 300.70889282 58.86758423 C288.72065341 58.97503148 276.73237145 59.07650616 264.74404907 59.17422485 C266.32637818 63.43191894 268.15621233 65.99605487 271.30654907 69.29922485 C274.78324688 73.02069018 278.10900469 76.76794177 281.30654907 80.73672485 C284.14635499 84.25788526 287.05658 87.65771762 290.11904907 90.98672485 C301.19226142 103.22758701 311.33926746 114.87554929 311.07998657 132.29922485 C309.86289542 142.71526077 304.52000016 150.54260758 297.74404907 158.17422485 C296.45022933 159.71088461 295.15656927 161.24768555 293.86709595 162.78799438 C289.99955721 167.39685722 286.07460325 171.95697699 282.15029907 176.51748657 C280.15198589 178.84269219 278.16046646 181.1736438 276.17080688 183.5062561 C275.23065016 184.60535787 274.28735837 185.70178683 273.34072876 186.7953186 C272.04934092 188.28874766 270.77133107 189.79371378 269.49404907 191.29922485 C268.76701782 192.14742798 268.03998657 192.9956311 267.29092407 193.86953735 C265.37251867 196.26515408 265.37251867 196.26515408 265.74404907 200.17422485 C267.03729095 200.17787048 268.33053284 200.18151611 269.66296387 200.18527222 C281.87439903 200.22227764 294.08558331 200.28011129 306.29682732 200.35812759 C312.57416679 200.39756911 318.85136668 200.42977412 325.1288147 200.44522095 C331.19145013 200.4604091 337.25370171 200.49489385 343.31616592 200.54253387 C345.6244688 200.55732526 347.93282649 200.56526457 350.24117661 200.5661087 C353.48457093 200.56848677 356.7269117 200.59563554 359.97012329 200.62832642 C360.91599808 200.62329605 361.86187286 200.61826569 362.83641052 200.61308289 C372.74303992 200.76669861 381.50606126 204.2780635 388.77920532 211.0765686 C394.82919089 217.32419435 397.0567633 222.97048974 398.18154907 231.48672485 C396.89486633 242.33162224 393.28385724 250.92598554 385.36904907 258.42422485 C378.14800657 263.23825319 372.29378951 265.29262456 363.58621216 265.32139587 C362.86438893 265.32507256 362.1425657 265.32874925 361.39886904 265.33253735 C358.97941661 265.34355275 356.56000717 265.34741444 354.14053345 265.35122681 C352.40573999 265.35749326 350.67094788 265.36414022 348.93615723 265.37113953 C343.23671399 265.3921671 337.53727054 265.40254319 331.83779907 265.4125061 C329.87300096 265.41655466 327.90820298 265.42067161 325.94340515 265.42485619 C316.70844007 265.44390786 307.47348297 265.4581369 298.23850203 265.46646816 C287.59463272 265.47622987 276.95097197 265.50252166 266.30717611 265.54296905 C258.0708809 265.57318814 249.83464524 265.58794266 241.59829569 265.59124917 C236.68391062 265.59359375 231.76974834 265.60247638 226.85542297 265.62771034 C222.22604891 265.65109651 217.59704263 265.65518215 212.96762466 265.64494896 C211.27623899 265.64445598 209.58483455 265.65070549 207.8935051 265.664505 C194.91295923 265.76441444 182.50890316 264.6993169 172.74404907 255.17422485 C166.21707869 247.75853752 164.17259029 241.76744985 164.38858032 231.8421936 C166.20608607 213.08793102 183.95613222 194.88301967 194.74404907 180.17422485 C195.86777728 178.63518447 196.99147497 177.0961218 198.11514282 175.55703735 C205.01277778 166.13410324 212.02598794 156.80583986 219.15151978 147.55386353 C220.40339538 145.92258296 221.64783793 144.28556684 222.88418579 142.64248657 C224.18485267 140.91634557 225.50599206 139.20552704 226.8421936 137.50674438 C227.8319519 136.19939331 227.8319519 136.19939331 228.84170532 134.8656311 C229.4463562 134.08518433 230.05100708 133.30473755 230.67398071 132.50064087 C232.03917014 130.17740483 232.03917014 130.17740483 231.06826782 127.55142212 C229.35102179 124.46867421 227.11908249 122.06352771 224.68154907 119.54922485 C220.30812134 114.91253532 216.20749912 110.14565828 212.20889282 105.1781311 C208.64747328 100.83782741 204.95572751 96.61405 201.26016235 92.3878479 C198.34005841 89.04262036 195.48733279 85.66809226 192.74404907 82.17422485 C190.0973098 82.54220909 188.93672339 82.97712506 187.04336548 84.91397095 C186.48310669 85.66758911 185.9228479 86.42120728 185.34561157 87.19766235 C184.7088147 88.04393188 184.07201782 88.89020142 183.41592407 89.76211548 C182.74045532 90.68186157 182.06498657 91.60160767 181.36904907 92.54922485 C180.6600647 93.49733032 179.95108032 94.44543579 179.22061157 95.42227173 C177.0500952 98.33115126 174.89486454 101.2507572 172.74404907 104.17422485 C172.13142212 105.00470337 171.51879517 105.83518188 170.88760376 106.69082642 C168.59971733 109.79298021 166.31388277 112.8965867 164.03555298 116.00576782 C159.0182337 122.8424144 153.87810868 129.5814004 148.7225647 136.31411743 C144.16182479 142.2815287 139.6833808 148.30361136 135.24404907 154.36172485 C133.56217694 156.64067555 131.87885667 158.91854956 130.19522095 161.19619751 C128.92996803 162.92080705 127.68662689 164.66144959 126.44717407 166.4046936 C121.3671165 173.28309156 115.26908631 177.56988205 106.74404907 179.17422485 C93.50282854 180.19149746 84.9122641 177.67910978 74.74404907 169.17422485 C70.74011231 165.44491034 66.92600887 161.51742146 63.09391022 157.61328506 C61.16545096 155.64973703 59.22972241 153.69362565 57.2918396 151.73937988 C51.78856151 146.18743378 46.296977 140.62402361 40.81387329 135.05215454 C37.44796311 131.63277714 34.07245218 128.22312681 30.69078827 124.81933212 C29.40635656 123.52247551 28.12573363 122.22183519 26.84900665 120.91739273 C25.07071571 119.10079757 23.28055938 117.29674159 21.48721313 115.49502563 C20.96246902 114.95275833 20.43772491 114.41049103 19.89707947 113.85179138 C16.54005577 110.51097776 16.54005577 110.51097776 11.74404907 110.17422485 C11.74166072 110.80406973 11.73927237 111.4339146 11.73681164 112.08284569 C11.67755452 127.44164191 11.60193644 142.80025862 11.50833416 158.15888023 C11.46345828 165.58634391 11.42402494 173.01376052 11.39761353 180.4413147 C11.37456669 186.91871732 11.3410947 193.39596996 11.29534751 199.87325346 C11.27150487 203.29973452 11.2527177 206.72606787 11.24643517 210.15262985 C11.23677749 213.98736224 11.2086963 217.82155873 11.17642212 221.65615845 C11.17857475 223.34146667 11.17857475 223.34146667 11.18077087 225.06082153 C11.02793882 237.94622059 7.20880783 247.30823707 -1.38095093 256.86172485 C-9.73105347 264.59731768 -18.2437198 267.00944919 -29.3789978 266.81900024 C-35.92351814 266.48191802 -40.90867098 265.09068966 -46.25595093 261.17422485 C-46.89532593 260.76301392 -47.53470093 260.35180298 -48.19345093 259.9281311 C-54.63464932 255.24993313 -57.79797739 247.54814547 -60.25595093 240.17422485 C-60.35648468 237.29484905 -60.39937301 234.43955244 -60.39639282 231.55993652 C-60.39936394 230.66942537 -60.40233507 229.77891423 -60.40539622 228.86141789 C-60.414096 225.86525428 -60.41559257 222.86913057 -60.41708374 219.87295532 C-60.42171109 217.72950657 -60.42673564 215.58605865 -60.43212891 213.44261169 C-60.44526486 207.60972675 -60.45170046 201.77685333 -60.45613956 195.9439559 C-60.459069 192.30002913 -60.46317361 188.65610551 -60.46764374 185.01218033 C-60.48132322 173.61210516 -60.49098707 162.21203719 -60.49484563 150.81195438 C-60.49932446 137.65115117 -60.51686243 124.49045192 -60.54584622 111.32968032 C-60.56746766 101.15886054 -60.5775502 90.98807 -60.57888675 80.81722748 C-60.57993465 74.74211326 -60.58583915 68.66709671 -60.60370636 62.59200668 C-60.62019441 56.87436255 -60.62233887 51.15688941 -60.61356735 45.43922997 C-60.61279732 43.34345352 -60.61713526 41.24766785 -60.6270256 39.1519146 C-60.63976092 36.28454548 -60.6338595 33.41778046 -60.6234436 30.55041504 C-60.63150001 29.72655929 -60.63955641 28.90270355 -60.64785695 28.05388248 C-60.55898894 17.54950303 -56.54675263 8.83337351 -49.40438843 1.1937561 C-35.37956552 -11.90911629 -14.87083657 -12.03519256 0 0 Z " fill="#F20074" transform="translate(231.25595092773438,270.8257751464844)"/>
</svg>
