<svg xmlns="http://www.w3.org/2000/svg" width="28" height="28" fill="none" viewBox="0 0 745 746"><path fill="#0D233D" d="M406.201 203.01c0 18.612-15.089 33.7-33.701 33.7s-33.701-15.088-33.701-33.7 15.089-33.701 33.701-33.701 33.701 15.089 33.701 33.701"/><path fill="#0D233D" fill-rule="evenodd" d="M471.309 58.994c-42.787-77.992-154.83-77.992-197.618 0l-60.435 110.161a112.7 112.7 0 0 1-44.601 44.601L58.494 274.191c-77.992 42.787-77.992 154.831 0 197.618l110.161 60.435a112.7 112.7 0 0 1 44.601 44.601l60.435 110.161c42.787 77.992 154.831 77.992 197.618 0l60.435-110.161a112.7 112.7 0 0 1 44.601-44.601l110.161-60.435c77.992-42.787 77.992-154.831 0-197.618l-110.161-60.435a112.7 112.7 0 0 1-44.601-44.601zm-45.282 81.114c-18.455-49.872-88.994-49.872-107.448 0l-39.25 106.071a57.29 57.29 0 0 1-33.844 33.844l-106.071 39.25c-49.872 18.454-49.872 88.993 0 107.448l106.071 39.249a57.29 57.29 0 0 1 33.844 33.845l39.25 106.07c18.454 49.873 88.993 49.873 107.448 0l39.249-106.07a57.29 57.29 0 0 1 33.844-33.845l106.071-39.249c49.872-18.455 49.872-88.994 0-107.448l-106.071-39.25a57.29 57.29 0 0 1-33.844-33.844z" clip-rule="evenodd"/></svg>