<svg xmlns="http://www.w3.org/2000/svg" fill="none" viewBox="0 0 28 28"><path fill="#D08E39" d="M0 0h28v28H0z"/><path fill="#002522" fill-rule="evenodd" d="M22.529 13.053c.201.165.337.396.382.652.01.077.01.155-.003.23a2.333 2.333 0 0 1-.087.47 2.122 2.122 0 0 1-.371.706v.014l.001.008c.003.023.009.065.021.127.034.204.045.411.031.618a3.551 3.551 0 0 1-.28 1.166 2.597 2.597 0 0 1-.72.998l-.037.034-.05.017a8.34 8.34 0 0 1-1.206.351c-.42.096-.851.138-1.282.124h-.073a12.802 12.802 0 0 0-2.752-.562 5.462 5.462 0 0 1-.756-.11 6.189 6.189 0 0 1-.72-.23 8.761 8.761 0 0 0-1.149-.332c-.183.256-.268.57-.239.883.059.447.201.88.419 1.276.274.43.5.889.672 1.368.166.515.208 1.06.123 1.594l-.075.486-.41-.28a2.075 2.075 0 0 0-.231-.152l-.051-.031-.281-.155c.1.368.166.744.197 1.124.018.33.012.659-.02.987a3.423 3.423 0 0 1-.214.953c-1.165-1.77-2.116-2.278-2.949-2.722-.56-.299-1.066-.569-1.548-1.174-.714-1.015-.893-2.181.102-4.387.275-.682.445-1.43.584-2.042.118-.517.213-.938.332-1.137v.016c-.081.465-.081.94 0 1.406.035.219.117.428.239.613.128.167.3.297.497.373.425.164.873.259 1.327.282.23.036.464.036.703.036.123-.002.247.003.37.014.127.011.25.028.374.045.49.08.974.199 1.445.357.425.163.875.253 1.33.267.966.077 1.92.266 2.844.562.364.012.73-.017 1.088-.084a6.4 6.4 0 0 0 .388-.085c.635-.185 1.349-1.264.522-1.174-.23.01-.457.039-.683.084-.129.03-.256.079-.392.13-.139.053-.286.108-.45.151a1.91 1.91 0 0 1-.945-.025 2.783 2.783 0 0 0-.843-.197c.135-.077.286-.123.44-.135.114-.011.215-.007.312-.004.047.002.093.004.139.004.262.036.528.025.787-.034.132-.037.267-.11.41-.187.116-.062.238-.127.371-.18.293-.123.607-.19.925-.198h-.006c.115-.01.23-.01.346 0a1.123 1.123 0 0 0 .28-.88.607.607 0 0 0-.342-.25 8.77 8.77 0 0 0-.21-.042c-.418-.08-1.1-.213-1.375-.469-.189-.183-.29-.73.373-.883.352-.06.71-.072 1.066-.033h.013c.16.016.554.054.647-.026-.045-.03-.085-.06-.125-.09l-.06-.044-.871-.664c-.06-.042-.119-.085-.176-.127-.088-.064-.172-.126-.257-.182a.826.826 0 0 0-.186-.098 2.694 2.694 0 0 1-.281-.127 3.557 3.557 0 0 1-.916-.677 11.453 11.453 0 0 1-2.01-2.791 1.933 1.933 0 0 0-1.009-.914 1.661 1.661 0 0 1 1.24.45c.056.047.128.175.22.34.256.459.67 1.2 1.345 1.228.116-.01.231-.035.34-.076-.335-.317-.561-.699-.774-1.056-.322-.542-.61-1.029-1.193-1.147a3.896 3.896 0 0 1-.428-.183l-.393-.194-.787-.385a14.157 14.157 0 0 0-1.602-.65 8.13 8.13 0 0 0-1.667-.359 3.681 3.681 0 0 0-.405-.03.705.705 0 0 0-.314.072c-.057.025-.121.059-.187.094-.071.038-.144.077-.212.106a6.987 6.987 0 0 0-.391.18 7.8 7.8 0 0 0-1.442.905c-.335.236-.63.526-.871.857.421-.029.845.027 1.245.163a4.73 4.73 0 0 0-1.496.214c-.237.068-.469.154-.694.255a4.74 4.74 0 0 0-.65.34c-.203.118-.392.26-.561.425a.72.72 0 0 0-.158.242c-.047.106-.09.221-.132.337-.163.472-.294.955-.39 1.445a11.692 11.692 0 0 0-.225 2.976 5.78 5.78 0 0 0 .615 2.31c.346-.455.683-.919 1.01-1.385.42-.605.81-1.23 1.166-1.875.185-.332.35-.68.516-1.031.151-.32.304-.644.476-.962.172-.342.376-.668.61-.972.118-.157.256-.297.41-.419a.944.944 0 0 1 .54-.216c-.63.565-1.119 2.082-1.608 3.783-.393 1.38-1.731 4.525-2.574 4.604-.326.017-.447-.138-.67-.458l-.185-.253a5.038 5.038 0 0 1-.73-1.484 7.436 7.436 0 0 1-.282-1.597 11.153 11.153 0 0 1 .037-1.594c.062-.525.156-1.046.28-1.56.118-.516.271-1.023.459-1.517.05-.127.101-.25.163-.377.034-.07.072-.137.115-.202.05-.067.103-.13.16-.189.205-.194.436-.357.686-.486.37-.193.763-.336 1.17-.424.127-.287.302-.55.517-.779.215-.224.448-.43.697-.615.477-.377.993-.701 1.54-.967.087-.044.192-.09.286-.132l.124-.057c.049-.022.1-.049.157-.078.07-.036.148-.076.234-.116.169-.08.353-.123.54-.126.147 0 .255.011.366.023l.109.01c.604.067 1.199.196 1.776.386.57.19 1.126.417 1.667.677l.8.388.397.197c.097.052.22.1.355.151l.03.012c.146.056.279.112.428.188.079.04.155.087.227.138.07.056.135.116.197.18a4.096 4.096 0 0 1 .622.872c.275.479.531.926.93 1.188l.28.185a.276.276 0 0 1-.016.045l-.06.107-.28.144a.229.229 0 0 0-.121.129.254.254 0 0 0-.017.084v.18a.985.985 0 0 1-.037.281 1 1 0 0 1-.038.097c-.018.04-.032.074-.032.1a.155.155 0 0 0 0 .09c.223.227.481.417.765.562l.224.104c.053.02.105.042.155.068l.143.087c.126.08.23.158.332.236.041.032.083.063.127.095l.874.666.208.155c.088.057.172.12.253.188Zm-6.906-2.594c.028.348-.388.621-.897.677-.641.065-.984-.306-.894-.736.169-.72-.202-.475-.45-.194a.034.034 0 0 1-.062-.025c.104-.742.54-.773.734-.773.588.04 1.17.14 1.737.295a.085.085 0 0 1 .064.064.085.085 0 0 1-.03.085.632.632 0 0 0-.202.607Z" clip-rule="evenodd"/></svg>