<svg width="64" height="64" viewBox="0 0 64 64" fill="none" xmlns="http://www.w3.org/2000/svg" aria-hidden="true"><rect x="2" y="2" width="60" height="60" rx="16" fill="#131C2B"/><g transform="translate(11.2 11.2) scale(0.204)" fill="#FFFFFF"><path d="M200.663,23.767c-1.125-1.125-2.651-1.758-4.243-1.758c-0.02-0.001-0.04 0-0.06 0c-4.237 0-8.227-1.651-11.234-4.652c-3.037-3.03-4.708-7.062-4.707-11.354c0.001-1.592-0.632-3.118-1.757-4.244C177.537,0.632,176.011,0,174.419,0H31.581c-1.592,0-3.118,0.632-4.243,1.758c-1.125,1.126-1.758,2.652-1.757,4.244c0.001,4.292-1.67,8.325-4.707,11.354c-3.009,3.001-6.996,4.652-11.234,4.652c-0.02,0-0.04-0.001-0.06,0c-1.592,0-3.118,0.632-4.243,1.758c-1.129,1.13-1.762,2.663-1.757,4.26c0.06,20.19,2.938,51.081,16.305,83.586c16.012,38.936,42.908,70.387,79.94,93.479c0.972,0.606,2.073,0.909,3.175,0.909s2.203-0.303,3.175-0.909c37.032-23.092,63.929-54.542,79.94-93.479c13.367-32.505,16.245-63.396,16.305-83.586C202.425,26.429,201.792,24.896,200.663,23.767z M103,192.891 C30.521,145.934,16.802,75.074,15.661,33.36c5.143-1.127,9.867-3.697,13.688-7.509c3.865-3.856,6.465-8.64,7.594-13.852h132.113c1.129,5.212,3.729,9.996,7.594,13.852c3.821,3.813,8.546,6.382,13.688,7.509C189.198,75.074,175.479,145.934,103,192.891z"/><path d="M155.924,99.253c-2.903-1.597-6.553-0.537-8.148,2.366l-5.217,9.483h-16.362l-5.866-9.697c-1.087-1.797-3.034-2.895-5.134-2.895H90.804c-2.1,0-4.047,1.098-5.134,2.895l-5.866,9.697H63.441l-5.217-9.483c-1.596-2.903-5.244-3.963-8.148-2.366c-2.903,1.597-3.963,5.246-2.365,8.149l6.926,12.591c1.054,1.917,3.068,3.108,5.257,3.108h23.293c2.1,0,4.047-1.098,5.134-2.895l5.866-9.697h17.627l5.866,9.697c1.087,1.797,3.034,2.895,5.134,2.895h23.293c2.188,0,4.203-1.191,5.257-3.108l6.926-12.591C159.887,104.499,158.827,100.851,155.924,99.253z"/><polygon points="103,173.097 114.647,132.805 91.353,132.805"/><path d="M64.834,46.007c8.584,0,16.593,4.622,20.9,12.061c1.66,2.867,5.333,3.845,8.199,2.186c2.867-1.661,3.846-5.332,2.186-8.199c-6.447-11.132-18.435-18.047-31.285-18.047c-12.855,0-24.846,6.918-31.29,18.055c-1.659,2.868-0.68,6.539,2.188,8.199c0.946,0.547,1.979,0.808,2.999,0.808c2.071,0,4.087-1.074,5.199-2.996C48.237,50.63,56.247,46.007,64.834,46.007z"/><path d="M57.395,55.071c-2.209,0-4,1.791-4,4s1.791,4,4,4h15.859c2.209,0,4-1.791,4-4s-1.791-4-4-4H57.395z"/><path d="M141.17,34.007c-12.854,0-24.844,6.918-31.29,18.055c-1.659,2.868-0.68,6.539,2.188,8.198c0.946,0.548,1.98,0.808,3,0.808c2.071,0,4.087-1.074,5.199-2.996c4.308-7.442,12.317-12.066,20.903-12.066c8.584,0,16.593,4.621,20.9,12.06c1.659,2.867,5.33,3.847,8.199,2.186c2.867-1.661,3.846-5.331,2.186-8.199C166.01,40.922,154.021,34.007,141.17,34.007z"/><path d="M149.591,63.071c2.209,0,4-1.791,4-4s-1.791-4-4-4h-15.86c-2.209,0-4,1.791-4,4s1.791,4,4,4H149.591z"/><path d="M109.157,125.667c2.209,0,4-1.791,4-4s-1.791-4-4-4H96.843c-2.209,0-4,1.791-4,4s1.791,4,4,4H109.157z"/></g></svg>