<svg width="273" height="322" viewBox="0 0 273 322" fill="none" xmlns="http://www.w3.org/2000/svg">
<path fill-rule="evenodd" clip-rule="evenodd" d="M171.917 2.34106C136.695 -1.85387 125.185 10.0223 128.174 44.2133C159.112 47.2458 174.72 34.3951 171.917 2.34106ZM269.576 2.34106C234.354 -1.85387 222.844 10.0223 225.833 44.2133C256.771 47.2458 272.378 34.3951 269.576 2.34106ZM110.23 34.2355C75.0074 30.0405 63.4977 41.9167 66.4869 76.1077C97.425 79.1402 113.032 66.2895 110.23 34.2355ZM49.0632 65.7579C13.8407 61.563 2.33092 73.4391 5.32013 107.63C36.2583 110.663 51.8656 97.8119 49.0632 65.7579ZM137.372 126.829C137.362 126.829 137.353 126.829 137.343 126.829L137.372 126.857V126.829ZM160.681 121.794C153.384 125.09 145.435 126.825 137.372 126.829V101.913H111.59C111.59 95.2573 114.29 88.9146 119.122 84.25C123.926 79.557 130.493 76.9403 137.343 76.9403H206.077L179.613 107.601C174.468 113.631 167.987 118.466 160.681 121.794ZM179.812 319.84H162.756V247.653L176.742 259.058C177.737 259.826 178.504 260.793 179.016 261.903C179.556 262.983 179.812 264.206 179.812 265.43V319.84ZM170.689 227.942H170.63L170.659 227.914L170.689 227.942ZM206.333 227.942H170.689L192.262 248.051C193.911 249.644 195.219 251.493 196.1 253.512C196.981 255.531 197.436 257.722 197.407 259.912V319.84H215.259V236.276C215.259 234.057 214.321 231.953 212.644 230.388C210.967 228.824 208.693 227.942 206.333 227.942ZM97.1208 276.807V217.959H97.1492C97.1492 184.681 112.869 167.871 128.617 167.53C128.617 167.53 112.869 175.921 112.869 217.959V293.588C108.69 293.588 104.682 291.824 101.726 288.667C98.798 285.538 97.1208 281.272 97.1208 276.807ZM27.5911 169.407V228.227L27.5626 228.198C27.5626 232.664 29.3819 236.93 32.5656 240.087C35.7493 243.216 40.0984 245.008 44.6182 245.008V169.379C44.6182 127.341 61.7021 118.95 61.7021 118.95C44.6466 119.291 27.5911 136.129 27.5911 169.407ZM61.7021 252.061V193.839C61.7021 160.931 79.4115 144.292 97.1208 143.951C97.1208 143.951 79.4115 152.256 79.4115 193.839V268.7C74.7212 268.7 70.1731 266.965 66.8757 263.837C63.5783 260.708 61.7021 256.47 61.7021 252.061ZM61.7021 193.839V193.811L61.6737 193.839H61.7021ZM246.783 76.9403C236.465 76.9403 223.161 78.5615 216.055 87.2649L216.112 87.2934C212.871 91.7304 210.881 96.907 210.313 102.368C209.773 107.857 210.711 113.347 213.013 118.296C215.509 123.205 220.098 131.596 224.043 138.81L224.071 138.86C224.38 139.425 224.686 139.983 224.985 140.531C226.918 144.063 228.628 147.188 229.785 149.355C230.524 150.72 230.524 152.37 229.017 152.37H211.592C204.059 152.171 196.583 153.565 189.619 156.437C182.654 159.339 176.372 163.662 171.227 169.151L192.916 175.266C193.911 175.522 194.821 176.148 195.446 177.001C196.1 177.855 196.441 178.879 196.413 179.931V186.899C196.327 189.146 195.446 191.308 193.911 192.929C192.376 194.551 190.273 195.574 188.055 195.774C182.427 196.229 176.77 195.688 171.312 194.209C143.682 188.521 127.935 201.064 128.759 234.911V303.201C128.759 307.638 130.521 311.905 133.648 315.033C136.775 318.162 141.039 319.926 145.473 319.926V236.134C145.473 208.743 157.27 206.724 168.413 208.914C183.081 211.275 197.976 211.986 212.786 210.99C226.26 210.99 229.529 216.935 229.529 244.524V319.926C233.963 319.926 239.535 318.162 242.69 315.033C245.845 311.905 247.579 307.638 247.579 303.201L247.75 221.429C244.964 196.769 226.345 194.664 216.652 194.664V184.795H216.623C216.623 183.173 217.306 181.581 218.585 180.272C219.864 178.964 221.655 177.968 223.758 177.456L231.121 175.665C240.956 173.247 247.892 164.458 247.892 154.333C247.892 150.692 247.011 147.137 245.305 143.923C242.036 137.807 236.664 127.909 233.65 123.131C233.65 123.131 241.581 124.127 247.949 121.652L248.062 76.9403H246.783Z" fill="#030A74"/>
</svg>